M48
;DRILL file {KiCad (5.0.0)} date 09/08/19 12:51:57
;FORMAT={3:3/ absolute / metric / suppress leading zeros}
FMAT,2
METRIC,TZ
T1C0.400
T2C0.800
T3C1.000
T4C3.200
%
G90
G05
M71
T1
X118185Y-63105
X118185Y-64205
X118185Y-65305
X118285Y-112205
X119385Y-63105
X119385Y-64205
X119385Y-65305
X119585Y-112205
X120585Y-63105
X120585Y-64205
X120585Y-65305
X120885Y-112205
X121785Y-63105
X121785Y-64205
X121785Y-65305
X122185Y-112205
X122985Y-63105
X122985Y-64205
X122985Y-65305
X123485Y-112205
X124185Y-63105
X124185Y-64205
X124185Y-65305
X124785Y-112205
X125385Y-63105
X125385Y-64205
X125385Y-65305
X126085Y-112205
X126585Y-63105
X126585Y-64205
X126585Y-65305
X127385Y-112205
X127785Y-63105
X127785Y-64205
X127785Y-65305
X155585Y-75905
X155585Y-77105
X155585Y-78305
X155585Y-79405
X155585Y-80605
X155585Y-81805
X155585Y-83005
X155585Y-84205
X155585Y-85405
X155585Y-86505
X155585Y-87705
X155585Y-88905
X155585Y-90105
X155585Y-91305
X155585Y-92505
X155585Y-93705
X155585Y-94905
X155585Y-96105
X155585Y-97305
X155585Y-98505
X155585Y-99705
X155585Y-100905
X155585Y-102105
X155585Y-103305
X155585Y-104505
X156685Y-75905
X156685Y-77105
X156685Y-78305
X156685Y-79405
X156685Y-80605
X156685Y-81805
X156685Y-83005
X156685Y-84205
X156685Y-85405
X156685Y-86505
X156685Y-87705
X156685Y-88905
X156685Y-90105
X156685Y-91305
X156685Y-92505
X156685Y-93705
X156685Y-94905
X156685Y-96105
X156685Y-97305
X156685Y-98505
X156685Y-99705
X156685Y-100905
X156685Y-102105
X156685Y-103305
X156685Y-104505
X157785Y-75905
X157785Y-77105
X157785Y-78305
X157785Y-79405
X157785Y-80605
X157785Y-81805
X157785Y-83005
X157785Y-84205
X157785Y-85405
X157785Y-86505
X157785Y-87705
X157785Y-88905
X157785Y-90105
X157785Y-91305
X157785Y-92505
X157785Y-93705
X157785Y-94905
X157785Y-96105
X157785Y-97305
X157785Y-98505
X157785Y-99705
X157785Y-100905
X157785Y-102105
X157785Y-103305
X157785Y-104505
X158985Y-102105
X158985Y-103305
X158985Y-104505
X159085Y-76005
X159085Y-77105
X159085Y-78205
X160085Y-102105
X160085Y-103305
X160085Y-104505
X160285Y-76005
X160285Y-77105
X160285Y-78205
X161185Y-102105
X161185Y-103305
X161185Y-104505
X161485Y-76005
X161485Y-77105
X161485Y-78205
X161700Y-94390
X162285Y-102105
X162285Y-103305
X162285Y-104505
X162685Y-76005
X162685Y-77105
X162685Y-78205
X163385Y-102105
X163385Y-103305
X163385Y-104505
X163885Y-76005
X163885Y-77105
X163885Y-78205
X165085Y-76005
X165085Y-77105
X165085Y-78205
X166285Y-76005
X166285Y-77105
X166285Y-78205
X166485Y-102305
X166485Y-103405
X166485Y-104505
X166800Y-94390
X166985Y-83705
X167485Y-76005
X167485Y-77105
X167485Y-78205
X167685Y-102305
X167685Y-103405
X167685Y-104505
X168685Y-76005
X168685Y-77105
X168685Y-78205
X168885Y-102305
X168885Y-103405
X168885Y-104505
X169885Y-76005
X169885Y-77105
X169885Y-78205
X170085Y-102305
X170085Y-103405
X170085Y-104505
X171085Y-76005
X171085Y-77105
X171085Y-78205
X171285Y-102305
X171285Y-103405
X171285Y-104505
X172285Y-76005
X172285Y-77105
X172285Y-78205
X172485Y-102305
X172485Y-103405
X172485Y-104505
X173485Y-76005
X173485Y-77105
X173485Y-78205
X173685Y-102305
X173685Y-103405
X173685Y-104505
X174685Y-76005
X174685Y-77105
X174685Y-78205
X174885Y-102305
X174885Y-103405
X174885Y-104505
X175885Y-76005
X175885Y-77105
X175885Y-78205
X176085Y-102305
X176085Y-103405
X176085Y-104505
X177085Y-76005
X177085Y-77105
X177085Y-78205
X178285Y-76005
X178285Y-77105
X178285Y-78205
X179485Y-76005
X179485Y-77105
X179485Y-78205
T2
X140115Y-64055
X142655Y-64055
X144175Y-112315
X145195Y-64055
X146715Y-112315
X147735Y-64055
X149255Y-112315
X150275Y-64055
X151795Y-112315
X152815Y-64055
X154335Y-112315
X155355Y-64055
X156875Y-112315
X157895Y-64055
X159415Y-112315
X161955Y-64055
X161955Y-112315
X164495Y-64055
X167035Y-64055
X167035Y-112315
X169575Y-64055
X169575Y-112315
X172115Y-64055
X172115Y-112315
X174655Y-64055
X174655Y-112315
X177195Y-64055
X177195Y-112315
X179735Y-64055
X179735Y-112315
T3
X122000Y-82380
X122000Y-84920
X122000Y-87460
X122000Y-90000
X180900Y-86300
X180900Y-88840
X180900Y-91380
X180900Y-93920
T4
X130205Y-112315
X131475Y-64055
X182275Y-79295
X182275Y-107235
X152400Y-70440
X152400Y-101940
T0
M30
