G04 #@! TF.GenerationSoftware,KiCad,Pcbnew,(5.0.0)*
G04 #@! TF.CreationDate,2019-09-08T12:51:47+09:00*
G04 #@! TF.ProjectId,gauss_meter_hw,67617573735F6D657465725F68772E6B,rev?*
G04 #@! TF.SameCoordinates,Original*
G04 #@! TF.FileFunction,Copper,L1,Top,Signal*
G04 #@! TF.FilePolarity,Positive*
%FSLAX46Y46*%
G04 Gerber Fmt 4.6, Leading zero omitted, Abs format (unit mm)*
G04 Created by KiCad (PCBNEW (5.0.0)) date 09/08/19 12:51:47*
%MOMM*%
%LPD*%
G01*
G04 APERTURE LIST*
G04 #@! TA.AperFunction,ComponentPad*
%ADD10O,1.600000X1.600000*%
G04 #@! TD*
G04 #@! TA.AperFunction,ComponentPad*
%ADD11R,1.600000X1.600000*%
G04 #@! TD*
G04 #@! TA.AperFunction,Conductor*
%ADD12C,0.100000*%
G04 #@! TD*
G04 #@! TA.AperFunction,SMDPad,CuDef*
%ADD13C,1.150000*%
G04 #@! TD*
G04 #@! TA.AperFunction,ComponentPad*
%ADD14R,1.700000X1.700000*%
G04 #@! TD*
G04 #@! TA.AperFunction,ComponentPad*
%ADD15O,1.700000X1.700000*%
G04 #@! TD*
G04 #@! TA.AperFunction,SMDPad,CuDef*
%ADD16R,1.900000X1.300000*%
G04 #@! TD*
G04 #@! TA.AperFunction,SMDPad,CuDef*
%ADD17R,1.900000X2.000000*%
G04 #@! TD*
G04 #@! TA.AperFunction,SMDPad,CuDef*
%ADD18R,0.450000X1.450000*%
G04 #@! TD*
G04 #@! TA.AperFunction,ViaPad*
%ADD19C,0.800000*%
G04 #@! TD*
G04 #@! TA.AperFunction,Conductor*
%ADD20C,0.250000*%
G04 #@! TD*
G04 #@! TA.AperFunction,Conductor*
%ADD21C,0.500000*%
G04 #@! TD*
G04 #@! TA.AperFunction,Conductor*
%ADD22C,0.254000*%
G04 #@! TD*
G04 APERTURE END LIST*
D10*
G04 #@! TO.P,A1,29*
G04 #@! TO.N,GND*
X142655001Y-64055001D03*
G04 #@! TO.P,A1,30*
G04 #@! TO.N,Net-(A1-Pad30)*
X140115001Y-64055001D03*
D11*
G04 #@! TO.P,A1,1*
G04 #@! TO.N,Net-(A1-Pad1)*
X144175001Y-112315001D03*
D10*
G04 #@! TO.P,A1,17*
G04 #@! TO.N,Net-(A1-Pad17)*
X174655001Y-64055001D03*
G04 #@! TO.P,A1,2*
G04 #@! TO.N,Net-(A1-Pad2)*
X146715001Y-112315001D03*
G04 #@! TO.P,A1,18*
G04 #@! TO.N,Net-(A1-Pad18)*
X172115001Y-64055001D03*
G04 #@! TO.P,A1,3*
G04 #@! TO.N,Net-(A1-Pad3)*
X149255001Y-112315001D03*
G04 #@! TO.P,A1,19*
G04 #@! TO.N,Net-(A1-Pad19)*
X169575001Y-64055001D03*
G04 #@! TO.P,A1,4*
G04 #@! TO.N,Net-(A1-Pad4)*
X151795001Y-112315001D03*
G04 #@! TO.P,A1,20*
G04 #@! TO.N,Net-(A1-Pad20)*
X167035001Y-64055001D03*
G04 #@! TO.P,A1,5*
G04 #@! TO.N,+5V*
X154335001Y-112315001D03*
G04 #@! TO.P,A1,21*
G04 #@! TO.N,Net-(A1-Pad21)*
X164495001Y-64055001D03*
G04 #@! TO.P,A1,6*
G04 #@! TO.N,GND*
X156875001Y-112315001D03*
G04 #@! TO.P,A1,22*
G04 #@! TO.N,Net-(A1-Pad22)*
X161955001Y-64055001D03*
G04 #@! TO.P,A1,7*
G04 #@! TO.N,GND*
X159415001Y-112315001D03*
G04 #@! TO.P,A1,23*
G04 #@! TO.N,Net-(A1-Pad23)*
X157895001Y-64055001D03*
G04 #@! TO.P,A1,8*
G04 #@! TO.N,Net-(A1-Pad8)*
X161955001Y-112315001D03*
G04 #@! TO.P,A1,24*
G04 #@! TO.N,Net-(A1-Pad24)*
X155355001Y-64055001D03*
G04 #@! TO.P,A1,9*
G04 #@! TO.N,Net-(A1-Pad9)*
X167035001Y-112315001D03*
G04 #@! TO.P,A1,25*
G04 #@! TO.N,Net-(A1-Pad25)*
X152815001Y-64055001D03*
G04 #@! TO.P,A1,10*
G04 #@! TO.N,Net-(A1-Pad10)*
X169575001Y-112315001D03*
G04 #@! TO.P,A1,26*
G04 #@! TO.N,Net-(A1-Pad26)*
X150275001Y-64055001D03*
G04 #@! TO.P,A1,11*
G04 #@! TO.N,Net-(A1-Pad11)*
X172115001Y-112315001D03*
G04 #@! TO.P,A1,27*
G04 #@! TO.N,Net-(A1-Pad27)*
X147735001Y-64055001D03*
G04 #@! TO.P,A1,12*
G04 #@! TO.N,Net-(A1-Pad12)*
X174655001Y-112315001D03*
G04 #@! TO.P,A1,28*
G04 #@! TO.N,Net-(A1-Pad28)*
X145195001Y-64055001D03*
G04 #@! TO.P,A1,13*
G04 #@! TO.N,Net-(A1-Pad13)*
X177195001Y-112315001D03*
G04 #@! TO.P,A1,14*
G04 #@! TO.N,Net-(A1-Pad14)*
X179735001Y-112315001D03*
G04 #@! TO.P,A1,15*
G04 #@! TO.N,Net-(A1-Pad15)*
X179735001Y-64055001D03*
G04 #@! TO.P,A1,16*
G04 #@! TO.N,Net-(A1-Pad16)*
X177195001Y-64055001D03*
G04 #@! TD*
D12*
G04 #@! TO.N,Net-(C1-Pad1)*
G04 #@! TO.C,C1*
G36*
X176024505Y-87151204D02*
X176048773Y-87154804D01*
X176072572Y-87160765D01*
X176095671Y-87169030D01*
X176117850Y-87179520D01*
X176138893Y-87192132D01*
X176158599Y-87206747D01*
X176176777Y-87223223D01*
X176193253Y-87241401D01*
X176207868Y-87261107D01*
X176220480Y-87282150D01*
X176230970Y-87304329D01*
X176239235Y-87327428D01*
X176245196Y-87351227D01*
X176248796Y-87375495D01*
X176250000Y-87399999D01*
X176250000Y-88300001D01*
X176248796Y-88324505D01*
X176245196Y-88348773D01*
X176239235Y-88372572D01*
X176230970Y-88395671D01*
X176220480Y-88417850D01*
X176207868Y-88438893D01*
X176193253Y-88458599D01*
X176176777Y-88476777D01*
X176158599Y-88493253D01*
X176138893Y-88507868D01*
X176117850Y-88520480D01*
X176095671Y-88530970D01*
X176072572Y-88539235D01*
X176048773Y-88545196D01*
X176024505Y-88548796D01*
X176000001Y-88550000D01*
X175349999Y-88550000D01*
X175325495Y-88548796D01*
X175301227Y-88545196D01*
X175277428Y-88539235D01*
X175254329Y-88530970D01*
X175232150Y-88520480D01*
X175211107Y-88507868D01*
X175191401Y-88493253D01*
X175173223Y-88476777D01*
X175156747Y-88458599D01*
X175142132Y-88438893D01*
X175129520Y-88417850D01*
X175119030Y-88395671D01*
X175110765Y-88372572D01*
X175104804Y-88348773D01*
X175101204Y-88324505D01*
X175100000Y-88300001D01*
X175100000Y-87399999D01*
X175101204Y-87375495D01*
X175104804Y-87351227D01*
X175110765Y-87327428D01*
X175119030Y-87304329D01*
X175129520Y-87282150D01*
X175142132Y-87261107D01*
X175156747Y-87241401D01*
X175173223Y-87223223D01*
X175191401Y-87206747D01*
X175211107Y-87192132D01*
X175232150Y-87179520D01*
X175254329Y-87169030D01*
X175277428Y-87160765D01*
X175301227Y-87154804D01*
X175325495Y-87151204D01*
X175349999Y-87150000D01*
X176000001Y-87150000D01*
X176024505Y-87151204D01*
X176024505Y-87151204D01*
G37*
D13*
G04 #@! TD*
G04 #@! TO.P,C1,1*
G04 #@! TO.N,Net-(C1-Pad1)*
X175675000Y-87850000D03*
D12*
G04 #@! TO.N,GND*
G04 #@! TO.C,C1*
G36*
X178074505Y-87151204D02*
X178098773Y-87154804D01*
X178122572Y-87160765D01*
X178145671Y-87169030D01*
X178167850Y-87179520D01*
X178188893Y-87192132D01*
X178208599Y-87206747D01*
X178226777Y-87223223D01*
X178243253Y-87241401D01*
X178257868Y-87261107D01*
X178270480Y-87282150D01*
X178280970Y-87304329D01*
X178289235Y-87327428D01*
X178295196Y-87351227D01*
X178298796Y-87375495D01*
X178300000Y-87399999D01*
X178300000Y-88300001D01*
X178298796Y-88324505D01*
X178295196Y-88348773D01*
X178289235Y-88372572D01*
X178280970Y-88395671D01*
X178270480Y-88417850D01*
X178257868Y-88438893D01*
X178243253Y-88458599D01*
X178226777Y-88476777D01*
X178208599Y-88493253D01*
X178188893Y-88507868D01*
X178167850Y-88520480D01*
X178145671Y-88530970D01*
X178122572Y-88539235D01*
X178098773Y-88545196D01*
X178074505Y-88548796D01*
X178050001Y-88550000D01*
X177399999Y-88550000D01*
X177375495Y-88548796D01*
X177351227Y-88545196D01*
X177327428Y-88539235D01*
X177304329Y-88530970D01*
X177282150Y-88520480D01*
X177261107Y-88507868D01*
X177241401Y-88493253D01*
X177223223Y-88476777D01*
X177206747Y-88458599D01*
X177192132Y-88438893D01*
X177179520Y-88417850D01*
X177169030Y-88395671D01*
X177160765Y-88372572D01*
X177154804Y-88348773D01*
X177151204Y-88324505D01*
X177150000Y-88300001D01*
X177150000Y-87399999D01*
X177151204Y-87375495D01*
X177154804Y-87351227D01*
X177160765Y-87327428D01*
X177169030Y-87304329D01*
X177179520Y-87282150D01*
X177192132Y-87261107D01*
X177206747Y-87241401D01*
X177223223Y-87223223D01*
X177241401Y-87206747D01*
X177261107Y-87192132D01*
X177282150Y-87179520D01*
X177304329Y-87169030D01*
X177327428Y-87160765D01*
X177351227Y-87154804D01*
X177375495Y-87151204D01*
X177399999Y-87150000D01*
X178050001Y-87150000D01*
X178074505Y-87151204D01*
X178074505Y-87151204D01*
G37*
D13*
G04 #@! TD*
G04 #@! TO.P,C1,2*
G04 #@! TO.N,GND*
X177725000Y-87850000D03*
D12*
G04 #@! TO.N,GND*
G04 #@! TO.C,C2*
G36*
X178074505Y-91751204D02*
X178098773Y-91754804D01*
X178122572Y-91760765D01*
X178145671Y-91769030D01*
X178167850Y-91779520D01*
X178188893Y-91792132D01*
X178208599Y-91806747D01*
X178226777Y-91823223D01*
X178243253Y-91841401D01*
X178257868Y-91861107D01*
X178270480Y-91882150D01*
X178280970Y-91904329D01*
X178289235Y-91927428D01*
X178295196Y-91951227D01*
X178298796Y-91975495D01*
X178300000Y-91999999D01*
X178300000Y-92900001D01*
X178298796Y-92924505D01*
X178295196Y-92948773D01*
X178289235Y-92972572D01*
X178280970Y-92995671D01*
X178270480Y-93017850D01*
X178257868Y-93038893D01*
X178243253Y-93058599D01*
X178226777Y-93076777D01*
X178208599Y-93093253D01*
X178188893Y-93107868D01*
X178167850Y-93120480D01*
X178145671Y-93130970D01*
X178122572Y-93139235D01*
X178098773Y-93145196D01*
X178074505Y-93148796D01*
X178050001Y-93150000D01*
X177399999Y-93150000D01*
X177375495Y-93148796D01*
X177351227Y-93145196D01*
X177327428Y-93139235D01*
X177304329Y-93130970D01*
X177282150Y-93120480D01*
X177261107Y-93107868D01*
X177241401Y-93093253D01*
X177223223Y-93076777D01*
X177206747Y-93058599D01*
X177192132Y-93038893D01*
X177179520Y-93017850D01*
X177169030Y-92995671D01*
X177160765Y-92972572D01*
X177154804Y-92948773D01*
X177151204Y-92924505D01*
X177150000Y-92900001D01*
X177150000Y-91999999D01*
X177151204Y-91975495D01*
X177154804Y-91951227D01*
X177160765Y-91927428D01*
X177169030Y-91904329D01*
X177179520Y-91882150D01*
X177192132Y-91861107D01*
X177206747Y-91841401D01*
X177223223Y-91823223D01*
X177241401Y-91806747D01*
X177261107Y-91792132D01*
X177282150Y-91779520D01*
X177304329Y-91769030D01*
X177327428Y-91760765D01*
X177351227Y-91754804D01*
X177375495Y-91751204D01*
X177399999Y-91750000D01*
X178050001Y-91750000D01*
X178074505Y-91751204D01*
X178074505Y-91751204D01*
G37*
D13*
G04 #@! TD*
G04 #@! TO.P,C2,2*
G04 #@! TO.N,GND*
X177725000Y-92450000D03*
D12*
G04 #@! TO.N,Net-(C2-Pad1)*
G04 #@! TO.C,C2*
G36*
X176024505Y-91751204D02*
X176048773Y-91754804D01*
X176072572Y-91760765D01*
X176095671Y-91769030D01*
X176117850Y-91779520D01*
X176138893Y-91792132D01*
X176158599Y-91806747D01*
X176176777Y-91823223D01*
X176193253Y-91841401D01*
X176207868Y-91861107D01*
X176220480Y-91882150D01*
X176230970Y-91904329D01*
X176239235Y-91927428D01*
X176245196Y-91951227D01*
X176248796Y-91975495D01*
X176250000Y-91999999D01*
X176250000Y-92900001D01*
X176248796Y-92924505D01*
X176245196Y-92948773D01*
X176239235Y-92972572D01*
X176230970Y-92995671D01*
X176220480Y-93017850D01*
X176207868Y-93038893D01*
X176193253Y-93058599D01*
X176176777Y-93076777D01*
X176158599Y-93093253D01*
X176138893Y-93107868D01*
X176117850Y-93120480D01*
X176095671Y-93130970D01*
X176072572Y-93139235D01*
X176048773Y-93145196D01*
X176024505Y-93148796D01*
X176000001Y-93150000D01*
X175349999Y-93150000D01*
X175325495Y-93148796D01*
X175301227Y-93145196D01*
X175277428Y-93139235D01*
X175254329Y-93130970D01*
X175232150Y-93120480D01*
X175211107Y-93107868D01*
X175191401Y-93093253D01*
X175173223Y-93076777D01*
X175156747Y-93058599D01*
X175142132Y-93038893D01*
X175129520Y-93017850D01*
X175119030Y-92995671D01*
X175110765Y-92972572D01*
X175104804Y-92948773D01*
X175101204Y-92924505D01*
X175100000Y-92900001D01*
X175100000Y-91999999D01*
X175101204Y-91975495D01*
X175104804Y-91951227D01*
X175110765Y-91927428D01*
X175119030Y-91904329D01*
X175129520Y-91882150D01*
X175142132Y-91861107D01*
X175156747Y-91841401D01*
X175173223Y-91823223D01*
X175191401Y-91806747D01*
X175211107Y-91792132D01*
X175232150Y-91779520D01*
X175254329Y-91769030D01*
X175277428Y-91760765D01*
X175301227Y-91754804D01*
X175325495Y-91751204D01*
X175349999Y-91750000D01*
X176000001Y-91750000D01*
X176024505Y-91751204D01*
X176024505Y-91751204D01*
G37*
D13*
G04 #@! TD*
G04 #@! TO.P,C2,1*
G04 #@! TO.N,Net-(C2-Pad1)*
X175675000Y-92450000D03*
D12*
G04 #@! TO.N,Net-(A1-Pad9)*
G04 #@! TO.C,C3*
G36*
X171974505Y-81251204D02*
X171998773Y-81254804D01*
X172022572Y-81260765D01*
X172045671Y-81269030D01*
X172067850Y-81279520D01*
X172088893Y-81292132D01*
X172108599Y-81306747D01*
X172126777Y-81323223D01*
X172143253Y-81341401D01*
X172157868Y-81361107D01*
X172170480Y-81382150D01*
X172180970Y-81404329D01*
X172189235Y-81427428D01*
X172195196Y-81451227D01*
X172198796Y-81475495D01*
X172200000Y-81499999D01*
X172200000Y-82150001D01*
X172198796Y-82174505D01*
X172195196Y-82198773D01*
X172189235Y-82222572D01*
X172180970Y-82245671D01*
X172170480Y-82267850D01*
X172157868Y-82288893D01*
X172143253Y-82308599D01*
X172126777Y-82326777D01*
X172108599Y-82343253D01*
X172088893Y-82357868D01*
X172067850Y-82370480D01*
X172045671Y-82380970D01*
X172022572Y-82389235D01*
X171998773Y-82395196D01*
X171974505Y-82398796D01*
X171950001Y-82400000D01*
X171049999Y-82400000D01*
X171025495Y-82398796D01*
X171001227Y-82395196D01*
X170977428Y-82389235D01*
X170954329Y-82380970D01*
X170932150Y-82370480D01*
X170911107Y-82357868D01*
X170891401Y-82343253D01*
X170873223Y-82326777D01*
X170856747Y-82308599D01*
X170842132Y-82288893D01*
X170829520Y-82267850D01*
X170819030Y-82245671D01*
X170810765Y-82222572D01*
X170804804Y-82198773D01*
X170801204Y-82174505D01*
X170800000Y-82150001D01*
X170800000Y-81499999D01*
X170801204Y-81475495D01*
X170804804Y-81451227D01*
X170810765Y-81427428D01*
X170819030Y-81404329D01*
X170829520Y-81382150D01*
X170842132Y-81361107D01*
X170856747Y-81341401D01*
X170873223Y-81323223D01*
X170891401Y-81306747D01*
X170911107Y-81292132D01*
X170932150Y-81279520D01*
X170954329Y-81269030D01*
X170977428Y-81260765D01*
X171001227Y-81254804D01*
X171025495Y-81251204D01*
X171049999Y-81250000D01*
X171950001Y-81250000D01*
X171974505Y-81251204D01*
X171974505Y-81251204D01*
G37*
D13*
G04 #@! TD*
G04 #@! TO.P,C3,1*
G04 #@! TO.N,Net-(A1-Pad9)*
X171500000Y-81825000D03*
D12*
G04 #@! TO.N,GND*
G04 #@! TO.C,C3*
G36*
X171974505Y-83301204D02*
X171998773Y-83304804D01*
X172022572Y-83310765D01*
X172045671Y-83319030D01*
X172067850Y-83329520D01*
X172088893Y-83342132D01*
X172108599Y-83356747D01*
X172126777Y-83373223D01*
X172143253Y-83391401D01*
X172157868Y-83411107D01*
X172170480Y-83432150D01*
X172180970Y-83454329D01*
X172189235Y-83477428D01*
X172195196Y-83501227D01*
X172198796Y-83525495D01*
X172200000Y-83549999D01*
X172200000Y-84200001D01*
X172198796Y-84224505D01*
X172195196Y-84248773D01*
X172189235Y-84272572D01*
X172180970Y-84295671D01*
X172170480Y-84317850D01*
X172157868Y-84338893D01*
X172143253Y-84358599D01*
X172126777Y-84376777D01*
X172108599Y-84393253D01*
X172088893Y-84407868D01*
X172067850Y-84420480D01*
X172045671Y-84430970D01*
X172022572Y-84439235D01*
X171998773Y-84445196D01*
X171974505Y-84448796D01*
X171950001Y-84450000D01*
X171049999Y-84450000D01*
X171025495Y-84448796D01*
X171001227Y-84445196D01*
X170977428Y-84439235D01*
X170954329Y-84430970D01*
X170932150Y-84420480D01*
X170911107Y-84407868D01*
X170891401Y-84393253D01*
X170873223Y-84376777D01*
X170856747Y-84358599D01*
X170842132Y-84338893D01*
X170829520Y-84317850D01*
X170819030Y-84295671D01*
X170810765Y-84272572D01*
X170804804Y-84248773D01*
X170801204Y-84224505D01*
X170800000Y-84200001D01*
X170800000Y-83549999D01*
X170801204Y-83525495D01*
X170804804Y-83501227D01*
X170810765Y-83477428D01*
X170819030Y-83454329D01*
X170829520Y-83432150D01*
X170842132Y-83411107D01*
X170856747Y-83391401D01*
X170873223Y-83373223D01*
X170891401Y-83356747D01*
X170911107Y-83342132D01*
X170932150Y-83329520D01*
X170954329Y-83319030D01*
X170977428Y-83310765D01*
X171001227Y-83304804D01*
X171025495Y-83301204D01*
X171049999Y-83300000D01*
X171950001Y-83300000D01*
X171974505Y-83301204D01*
X171974505Y-83301204D01*
G37*
D13*
G04 #@! TD*
G04 #@! TO.P,C3,2*
G04 #@! TO.N,GND*
X171500000Y-83875000D03*
D12*
G04 #@! TO.N,GND*
G04 #@! TO.C,C4*
G36*
X164174505Y-84151204D02*
X164198773Y-84154804D01*
X164222572Y-84160765D01*
X164245671Y-84169030D01*
X164267850Y-84179520D01*
X164288893Y-84192132D01*
X164308599Y-84206747D01*
X164326777Y-84223223D01*
X164343253Y-84241401D01*
X164357868Y-84261107D01*
X164370480Y-84282150D01*
X164380970Y-84304329D01*
X164389235Y-84327428D01*
X164395196Y-84351227D01*
X164398796Y-84375495D01*
X164400000Y-84399999D01*
X164400000Y-85300001D01*
X164398796Y-85324505D01*
X164395196Y-85348773D01*
X164389235Y-85372572D01*
X164380970Y-85395671D01*
X164370480Y-85417850D01*
X164357868Y-85438893D01*
X164343253Y-85458599D01*
X164326777Y-85476777D01*
X164308599Y-85493253D01*
X164288893Y-85507868D01*
X164267850Y-85520480D01*
X164245671Y-85530970D01*
X164222572Y-85539235D01*
X164198773Y-85545196D01*
X164174505Y-85548796D01*
X164150001Y-85550000D01*
X163499999Y-85550000D01*
X163475495Y-85548796D01*
X163451227Y-85545196D01*
X163427428Y-85539235D01*
X163404329Y-85530970D01*
X163382150Y-85520480D01*
X163361107Y-85507868D01*
X163341401Y-85493253D01*
X163323223Y-85476777D01*
X163306747Y-85458599D01*
X163292132Y-85438893D01*
X163279520Y-85417850D01*
X163269030Y-85395671D01*
X163260765Y-85372572D01*
X163254804Y-85348773D01*
X163251204Y-85324505D01*
X163250000Y-85300001D01*
X163250000Y-84399999D01*
X163251204Y-84375495D01*
X163254804Y-84351227D01*
X163260765Y-84327428D01*
X163269030Y-84304329D01*
X163279520Y-84282150D01*
X163292132Y-84261107D01*
X163306747Y-84241401D01*
X163323223Y-84223223D01*
X163341401Y-84206747D01*
X163361107Y-84192132D01*
X163382150Y-84179520D01*
X163404329Y-84169030D01*
X163427428Y-84160765D01*
X163451227Y-84154804D01*
X163475495Y-84151204D01*
X163499999Y-84150000D01*
X164150001Y-84150000D01*
X164174505Y-84151204D01*
X164174505Y-84151204D01*
G37*
D13*
G04 #@! TD*
G04 #@! TO.P,C4,2*
G04 #@! TO.N,GND*
X163825000Y-84850000D03*
D12*
G04 #@! TO.N,+5V*
G04 #@! TO.C,C4*
G36*
X166224505Y-84151204D02*
X166248773Y-84154804D01*
X166272572Y-84160765D01*
X166295671Y-84169030D01*
X166317850Y-84179520D01*
X166338893Y-84192132D01*
X166358599Y-84206747D01*
X166376777Y-84223223D01*
X166393253Y-84241401D01*
X166407868Y-84261107D01*
X166420480Y-84282150D01*
X166430970Y-84304329D01*
X166439235Y-84327428D01*
X166445196Y-84351227D01*
X166448796Y-84375495D01*
X166450000Y-84399999D01*
X166450000Y-85300001D01*
X166448796Y-85324505D01*
X166445196Y-85348773D01*
X166439235Y-85372572D01*
X166430970Y-85395671D01*
X166420480Y-85417850D01*
X166407868Y-85438893D01*
X166393253Y-85458599D01*
X166376777Y-85476777D01*
X166358599Y-85493253D01*
X166338893Y-85507868D01*
X166317850Y-85520480D01*
X166295671Y-85530970D01*
X166272572Y-85539235D01*
X166248773Y-85545196D01*
X166224505Y-85548796D01*
X166200001Y-85550000D01*
X165549999Y-85550000D01*
X165525495Y-85548796D01*
X165501227Y-85545196D01*
X165477428Y-85539235D01*
X165454329Y-85530970D01*
X165432150Y-85520480D01*
X165411107Y-85507868D01*
X165391401Y-85493253D01*
X165373223Y-85476777D01*
X165356747Y-85458599D01*
X165342132Y-85438893D01*
X165329520Y-85417850D01*
X165319030Y-85395671D01*
X165310765Y-85372572D01*
X165304804Y-85348773D01*
X165301204Y-85324505D01*
X165300000Y-85300001D01*
X165300000Y-84399999D01*
X165301204Y-84375495D01*
X165304804Y-84351227D01*
X165310765Y-84327428D01*
X165319030Y-84304329D01*
X165329520Y-84282150D01*
X165342132Y-84261107D01*
X165356747Y-84241401D01*
X165373223Y-84223223D01*
X165391401Y-84206747D01*
X165411107Y-84192132D01*
X165432150Y-84179520D01*
X165454329Y-84169030D01*
X165477428Y-84160765D01*
X165501227Y-84154804D01*
X165525495Y-84151204D01*
X165549999Y-84150000D01*
X166200001Y-84150000D01*
X166224505Y-84151204D01*
X166224505Y-84151204D01*
G37*
D13*
G04 #@! TD*
G04 #@! TO.P,C4,1*
G04 #@! TO.N,+5V*
X165875000Y-84850000D03*
D12*
G04 #@! TO.N,+5V*
G04 #@! TO.C,C5*
G36*
X166224505Y-86401204D02*
X166248773Y-86404804D01*
X166272572Y-86410765D01*
X166295671Y-86419030D01*
X166317850Y-86429520D01*
X166338893Y-86442132D01*
X166358599Y-86456747D01*
X166376777Y-86473223D01*
X166393253Y-86491401D01*
X166407868Y-86511107D01*
X166420480Y-86532150D01*
X166430970Y-86554329D01*
X166439235Y-86577428D01*
X166445196Y-86601227D01*
X166448796Y-86625495D01*
X166450000Y-86649999D01*
X166450000Y-87550001D01*
X166448796Y-87574505D01*
X166445196Y-87598773D01*
X166439235Y-87622572D01*
X166430970Y-87645671D01*
X166420480Y-87667850D01*
X166407868Y-87688893D01*
X166393253Y-87708599D01*
X166376777Y-87726777D01*
X166358599Y-87743253D01*
X166338893Y-87757868D01*
X166317850Y-87770480D01*
X166295671Y-87780970D01*
X166272572Y-87789235D01*
X166248773Y-87795196D01*
X166224505Y-87798796D01*
X166200001Y-87800000D01*
X165549999Y-87800000D01*
X165525495Y-87798796D01*
X165501227Y-87795196D01*
X165477428Y-87789235D01*
X165454329Y-87780970D01*
X165432150Y-87770480D01*
X165411107Y-87757868D01*
X165391401Y-87743253D01*
X165373223Y-87726777D01*
X165356747Y-87708599D01*
X165342132Y-87688893D01*
X165329520Y-87667850D01*
X165319030Y-87645671D01*
X165310765Y-87622572D01*
X165304804Y-87598773D01*
X165301204Y-87574505D01*
X165300000Y-87550001D01*
X165300000Y-86649999D01*
X165301204Y-86625495D01*
X165304804Y-86601227D01*
X165310765Y-86577428D01*
X165319030Y-86554329D01*
X165329520Y-86532150D01*
X165342132Y-86511107D01*
X165356747Y-86491401D01*
X165373223Y-86473223D01*
X165391401Y-86456747D01*
X165411107Y-86442132D01*
X165432150Y-86429520D01*
X165454329Y-86419030D01*
X165477428Y-86410765D01*
X165501227Y-86404804D01*
X165525495Y-86401204D01*
X165549999Y-86400000D01*
X166200001Y-86400000D01*
X166224505Y-86401204D01*
X166224505Y-86401204D01*
G37*
D13*
G04 #@! TD*
G04 #@! TO.P,C5,1*
G04 #@! TO.N,+5V*
X165875000Y-87100000D03*
D12*
G04 #@! TO.N,GND*
G04 #@! TO.C,C5*
G36*
X164174505Y-86401204D02*
X164198773Y-86404804D01*
X164222572Y-86410765D01*
X164245671Y-86419030D01*
X164267850Y-86429520D01*
X164288893Y-86442132D01*
X164308599Y-86456747D01*
X164326777Y-86473223D01*
X164343253Y-86491401D01*
X164357868Y-86511107D01*
X164370480Y-86532150D01*
X164380970Y-86554329D01*
X164389235Y-86577428D01*
X164395196Y-86601227D01*
X164398796Y-86625495D01*
X164400000Y-86649999D01*
X164400000Y-87550001D01*
X164398796Y-87574505D01*
X164395196Y-87598773D01*
X164389235Y-87622572D01*
X164380970Y-87645671D01*
X164370480Y-87667850D01*
X164357868Y-87688893D01*
X164343253Y-87708599D01*
X164326777Y-87726777D01*
X164308599Y-87743253D01*
X164288893Y-87757868D01*
X164267850Y-87770480D01*
X164245671Y-87780970D01*
X164222572Y-87789235D01*
X164198773Y-87795196D01*
X164174505Y-87798796D01*
X164150001Y-87800000D01*
X163499999Y-87800000D01*
X163475495Y-87798796D01*
X163451227Y-87795196D01*
X163427428Y-87789235D01*
X163404329Y-87780970D01*
X163382150Y-87770480D01*
X163361107Y-87757868D01*
X163341401Y-87743253D01*
X163323223Y-87726777D01*
X163306747Y-87708599D01*
X163292132Y-87688893D01*
X163279520Y-87667850D01*
X163269030Y-87645671D01*
X163260765Y-87622572D01*
X163254804Y-87598773D01*
X163251204Y-87574505D01*
X163250000Y-87550001D01*
X163250000Y-86649999D01*
X163251204Y-86625495D01*
X163254804Y-86601227D01*
X163260765Y-86577428D01*
X163269030Y-86554329D01*
X163279520Y-86532150D01*
X163292132Y-86511107D01*
X163306747Y-86491401D01*
X163323223Y-86473223D01*
X163341401Y-86456747D01*
X163361107Y-86442132D01*
X163382150Y-86429520D01*
X163404329Y-86419030D01*
X163427428Y-86410765D01*
X163451227Y-86404804D01*
X163475495Y-86401204D01*
X163499999Y-86400000D01*
X164150001Y-86400000D01*
X164174505Y-86401204D01*
X164174505Y-86401204D01*
G37*
D13*
G04 #@! TD*
G04 #@! TO.P,C5,2*
G04 #@! TO.N,GND*
X163825000Y-87100000D03*
D14*
G04 #@! TO.P,J1,1*
G04 #@! TO.N,+5V*
X180900000Y-86300000D03*
D15*
G04 #@! TO.P,J1,2*
G04 #@! TO.N,Net-(C1-Pad1)*
X180900000Y-88840000D03*
G04 #@! TO.P,J1,3*
G04 #@! TO.N,GND*
X180900000Y-91380000D03*
G04 #@! TO.P,J1,4*
X180900000Y-93920000D03*
G04 #@! TD*
D12*
G04 #@! TO.N,Net-(C1-Pad1)*
G04 #@! TO.C,R1*
G36*
X176024505Y-84901204D02*
X176048773Y-84904804D01*
X176072572Y-84910765D01*
X176095671Y-84919030D01*
X176117850Y-84929520D01*
X176138893Y-84942132D01*
X176158599Y-84956747D01*
X176176777Y-84973223D01*
X176193253Y-84991401D01*
X176207868Y-85011107D01*
X176220480Y-85032150D01*
X176230970Y-85054329D01*
X176239235Y-85077428D01*
X176245196Y-85101227D01*
X176248796Y-85125495D01*
X176250000Y-85149999D01*
X176250000Y-86050001D01*
X176248796Y-86074505D01*
X176245196Y-86098773D01*
X176239235Y-86122572D01*
X176230970Y-86145671D01*
X176220480Y-86167850D01*
X176207868Y-86188893D01*
X176193253Y-86208599D01*
X176176777Y-86226777D01*
X176158599Y-86243253D01*
X176138893Y-86257868D01*
X176117850Y-86270480D01*
X176095671Y-86280970D01*
X176072572Y-86289235D01*
X176048773Y-86295196D01*
X176024505Y-86298796D01*
X176000001Y-86300000D01*
X175349999Y-86300000D01*
X175325495Y-86298796D01*
X175301227Y-86295196D01*
X175277428Y-86289235D01*
X175254329Y-86280970D01*
X175232150Y-86270480D01*
X175211107Y-86257868D01*
X175191401Y-86243253D01*
X175173223Y-86226777D01*
X175156747Y-86208599D01*
X175142132Y-86188893D01*
X175129520Y-86167850D01*
X175119030Y-86145671D01*
X175110765Y-86122572D01*
X175104804Y-86098773D01*
X175101204Y-86074505D01*
X175100000Y-86050001D01*
X175100000Y-85149999D01*
X175101204Y-85125495D01*
X175104804Y-85101227D01*
X175110765Y-85077428D01*
X175119030Y-85054329D01*
X175129520Y-85032150D01*
X175142132Y-85011107D01*
X175156747Y-84991401D01*
X175173223Y-84973223D01*
X175191401Y-84956747D01*
X175211107Y-84942132D01*
X175232150Y-84929520D01*
X175254329Y-84919030D01*
X175277428Y-84910765D01*
X175301227Y-84904804D01*
X175325495Y-84901204D01*
X175349999Y-84900000D01*
X176000001Y-84900000D01*
X176024505Y-84901204D01*
X176024505Y-84901204D01*
G37*
D13*
G04 #@! TD*
G04 #@! TO.P,R1,1*
G04 #@! TO.N,Net-(C1-Pad1)*
X175675000Y-85600000D03*
D12*
G04 #@! TO.N,GND*
G04 #@! TO.C,R1*
G36*
X178074505Y-84901204D02*
X178098773Y-84904804D01*
X178122572Y-84910765D01*
X178145671Y-84919030D01*
X178167850Y-84929520D01*
X178188893Y-84942132D01*
X178208599Y-84956747D01*
X178226777Y-84973223D01*
X178243253Y-84991401D01*
X178257868Y-85011107D01*
X178270480Y-85032150D01*
X178280970Y-85054329D01*
X178289235Y-85077428D01*
X178295196Y-85101227D01*
X178298796Y-85125495D01*
X178300000Y-85149999D01*
X178300000Y-86050001D01*
X178298796Y-86074505D01*
X178295196Y-86098773D01*
X178289235Y-86122572D01*
X178280970Y-86145671D01*
X178270480Y-86167850D01*
X178257868Y-86188893D01*
X178243253Y-86208599D01*
X178226777Y-86226777D01*
X178208599Y-86243253D01*
X178188893Y-86257868D01*
X178167850Y-86270480D01*
X178145671Y-86280970D01*
X178122572Y-86289235D01*
X178098773Y-86295196D01*
X178074505Y-86298796D01*
X178050001Y-86300000D01*
X177399999Y-86300000D01*
X177375495Y-86298796D01*
X177351227Y-86295196D01*
X177327428Y-86289235D01*
X177304329Y-86280970D01*
X177282150Y-86270480D01*
X177261107Y-86257868D01*
X177241401Y-86243253D01*
X177223223Y-86226777D01*
X177206747Y-86208599D01*
X177192132Y-86188893D01*
X177179520Y-86167850D01*
X177169030Y-86145671D01*
X177160765Y-86122572D01*
X177154804Y-86098773D01*
X177151204Y-86074505D01*
X177150000Y-86050001D01*
X177150000Y-85149999D01*
X177151204Y-85125495D01*
X177154804Y-85101227D01*
X177160765Y-85077428D01*
X177169030Y-85054329D01*
X177179520Y-85032150D01*
X177192132Y-85011107D01*
X177206747Y-84991401D01*
X177223223Y-84973223D01*
X177241401Y-84956747D01*
X177261107Y-84942132D01*
X177282150Y-84929520D01*
X177304329Y-84919030D01*
X177327428Y-84910765D01*
X177351227Y-84904804D01*
X177375495Y-84901204D01*
X177399999Y-84900000D01*
X178050001Y-84900000D01*
X178074505Y-84901204D01*
X178074505Y-84901204D01*
G37*
D13*
G04 #@! TD*
G04 #@! TO.P,R1,2*
G04 #@! TO.N,GND*
X177725000Y-85600000D03*
D12*
G04 #@! TO.N,+5V*
G04 #@! TO.C,R2*
G36*
X178224505Y-98801204D02*
X178248773Y-98804804D01*
X178272572Y-98810765D01*
X178295671Y-98819030D01*
X178317850Y-98829520D01*
X178338893Y-98842132D01*
X178358599Y-98856747D01*
X178376777Y-98873223D01*
X178393253Y-98891401D01*
X178407868Y-98911107D01*
X178420480Y-98932150D01*
X178430970Y-98954329D01*
X178439235Y-98977428D01*
X178445196Y-99001227D01*
X178448796Y-99025495D01*
X178450000Y-99049999D01*
X178450000Y-99950001D01*
X178448796Y-99974505D01*
X178445196Y-99998773D01*
X178439235Y-100022572D01*
X178430970Y-100045671D01*
X178420480Y-100067850D01*
X178407868Y-100088893D01*
X178393253Y-100108599D01*
X178376777Y-100126777D01*
X178358599Y-100143253D01*
X178338893Y-100157868D01*
X178317850Y-100170480D01*
X178295671Y-100180970D01*
X178272572Y-100189235D01*
X178248773Y-100195196D01*
X178224505Y-100198796D01*
X178200001Y-100200000D01*
X177549999Y-100200000D01*
X177525495Y-100198796D01*
X177501227Y-100195196D01*
X177477428Y-100189235D01*
X177454329Y-100180970D01*
X177432150Y-100170480D01*
X177411107Y-100157868D01*
X177391401Y-100143253D01*
X177373223Y-100126777D01*
X177356747Y-100108599D01*
X177342132Y-100088893D01*
X177329520Y-100067850D01*
X177319030Y-100045671D01*
X177310765Y-100022572D01*
X177304804Y-99998773D01*
X177301204Y-99974505D01*
X177300000Y-99950001D01*
X177300000Y-99049999D01*
X177301204Y-99025495D01*
X177304804Y-99001227D01*
X177310765Y-98977428D01*
X177319030Y-98954329D01*
X177329520Y-98932150D01*
X177342132Y-98911107D01*
X177356747Y-98891401D01*
X177373223Y-98873223D01*
X177391401Y-98856747D01*
X177411107Y-98842132D01*
X177432150Y-98829520D01*
X177454329Y-98819030D01*
X177477428Y-98810765D01*
X177501227Y-98804804D01*
X177525495Y-98801204D01*
X177549999Y-98800000D01*
X178200001Y-98800000D01*
X178224505Y-98801204D01*
X178224505Y-98801204D01*
G37*
D13*
G04 #@! TD*
G04 #@! TO.P,R2,2*
G04 #@! TO.N,+5V*
X177875000Y-99500000D03*
D12*
G04 #@! TO.N,Net-(R2-Pad1)*
G04 #@! TO.C,R2*
G36*
X176174505Y-98801204D02*
X176198773Y-98804804D01*
X176222572Y-98810765D01*
X176245671Y-98819030D01*
X176267850Y-98829520D01*
X176288893Y-98842132D01*
X176308599Y-98856747D01*
X176326777Y-98873223D01*
X176343253Y-98891401D01*
X176357868Y-98911107D01*
X176370480Y-98932150D01*
X176380970Y-98954329D01*
X176389235Y-98977428D01*
X176395196Y-99001227D01*
X176398796Y-99025495D01*
X176400000Y-99049999D01*
X176400000Y-99950001D01*
X176398796Y-99974505D01*
X176395196Y-99998773D01*
X176389235Y-100022572D01*
X176380970Y-100045671D01*
X176370480Y-100067850D01*
X176357868Y-100088893D01*
X176343253Y-100108599D01*
X176326777Y-100126777D01*
X176308599Y-100143253D01*
X176288893Y-100157868D01*
X176267850Y-100170480D01*
X176245671Y-100180970D01*
X176222572Y-100189235D01*
X176198773Y-100195196D01*
X176174505Y-100198796D01*
X176150001Y-100200000D01*
X175499999Y-100200000D01*
X175475495Y-100198796D01*
X175451227Y-100195196D01*
X175427428Y-100189235D01*
X175404329Y-100180970D01*
X175382150Y-100170480D01*
X175361107Y-100157868D01*
X175341401Y-100143253D01*
X175323223Y-100126777D01*
X175306747Y-100108599D01*
X175292132Y-100088893D01*
X175279520Y-100067850D01*
X175269030Y-100045671D01*
X175260765Y-100022572D01*
X175254804Y-99998773D01*
X175251204Y-99974505D01*
X175250000Y-99950001D01*
X175250000Y-99049999D01*
X175251204Y-99025495D01*
X175254804Y-99001227D01*
X175260765Y-98977428D01*
X175269030Y-98954329D01*
X175279520Y-98932150D01*
X175292132Y-98911107D01*
X175306747Y-98891401D01*
X175323223Y-98873223D01*
X175341401Y-98856747D01*
X175361107Y-98842132D01*
X175382150Y-98829520D01*
X175404329Y-98819030D01*
X175427428Y-98810765D01*
X175451227Y-98804804D01*
X175475495Y-98801204D01*
X175499999Y-98800000D01*
X176150001Y-98800000D01*
X176174505Y-98801204D01*
X176174505Y-98801204D01*
G37*
D13*
G04 #@! TD*
G04 #@! TO.P,R2,1*
G04 #@! TO.N,Net-(R2-Pad1)*
X175825000Y-99500000D03*
D12*
G04 #@! TO.N,GND*
G04 #@! TO.C,R3*
G36*
X178124505Y-94001204D02*
X178148773Y-94004804D01*
X178172572Y-94010765D01*
X178195671Y-94019030D01*
X178217850Y-94029520D01*
X178238893Y-94042132D01*
X178258599Y-94056747D01*
X178276777Y-94073223D01*
X178293253Y-94091401D01*
X178307868Y-94111107D01*
X178320480Y-94132150D01*
X178330970Y-94154329D01*
X178339235Y-94177428D01*
X178345196Y-94201227D01*
X178348796Y-94225495D01*
X178350000Y-94249999D01*
X178350000Y-95150001D01*
X178348796Y-95174505D01*
X178345196Y-95198773D01*
X178339235Y-95222572D01*
X178330970Y-95245671D01*
X178320480Y-95267850D01*
X178307868Y-95288893D01*
X178293253Y-95308599D01*
X178276777Y-95326777D01*
X178258599Y-95343253D01*
X178238893Y-95357868D01*
X178217850Y-95370480D01*
X178195671Y-95380970D01*
X178172572Y-95389235D01*
X178148773Y-95395196D01*
X178124505Y-95398796D01*
X178100001Y-95400000D01*
X177449999Y-95400000D01*
X177425495Y-95398796D01*
X177401227Y-95395196D01*
X177377428Y-95389235D01*
X177354329Y-95380970D01*
X177332150Y-95370480D01*
X177311107Y-95357868D01*
X177291401Y-95343253D01*
X177273223Y-95326777D01*
X177256747Y-95308599D01*
X177242132Y-95288893D01*
X177229520Y-95267850D01*
X177219030Y-95245671D01*
X177210765Y-95222572D01*
X177204804Y-95198773D01*
X177201204Y-95174505D01*
X177200000Y-95150001D01*
X177200000Y-94249999D01*
X177201204Y-94225495D01*
X177204804Y-94201227D01*
X177210765Y-94177428D01*
X177219030Y-94154329D01*
X177229520Y-94132150D01*
X177242132Y-94111107D01*
X177256747Y-94091401D01*
X177273223Y-94073223D01*
X177291401Y-94056747D01*
X177311107Y-94042132D01*
X177332150Y-94029520D01*
X177354329Y-94019030D01*
X177377428Y-94010765D01*
X177401227Y-94004804D01*
X177425495Y-94001204D01*
X177449999Y-94000000D01*
X178100001Y-94000000D01*
X178124505Y-94001204D01*
X178124505Y-94001204D01*
G37*
D13*
G04 #@! TD*
G04 #@! TO.P,R3,1*
G04 #@! TO.N,GND*
X177775000Y-94700000D03*
D12*
G04 #@! TO.N,Net-(R3-Pad2)*
G04 #@! TO.C,R3*
G36*
X176074505Y-94001204D02*
X176098773Y-94004804D01*
X176122572Y-94010765D01*
X176145671Y-94019030D01*
X176167850Y-94029520D01*
X176188893Y-94042132D01*
X176208599Y-94056747D01*
X176226777Y-94073223D01*
X176243253Y-94091401D01*
X176257868Y-94111107D01*
X176270480Y-94132150D01*
X176280970Y-94154329D01*
X176289235Y-94177428D01*
X176295196Y-94201227D01*
X176298796Y-94225495D01*
X176300000Y-94249999D01*
X176300000Y-95150001D01*
X176298796Y-95174505D01*
X176295196Y-95198773D01*
X176289235Y-95222572D01*
X176280970Y-95245671D01*
X176270480Y-95267850D01*
X176257868Y-95288893D01*
X176243253Y-95308599D01*
X176226777Y-95326777D01*
X176208599Y-95343253D01*
X176188893Y-95357868D01*
X176167850Y-95370480D01*
X176145671Y-95380970D01*
X176122572Y-95389235D01*
X176098773Y-95395196D01*
X176074505Y-95398796D01*
X176050001Y-95400000D01*
X175399999Y-95400000D01*
X175375495Y-95398796D01*
X175351227Y-95395196D01*
X175327428Y-95389235D01*
X175304329Y-95380970D01*
X175282150Y-95370480D01*
X175261107Y-95357868D01*
X175241401Y-95343253D01*
X175223223Y-95326777D01*
X175206747Y-95308599D01*
X175192132Y-95288893D01*
X175179520Y-95267850D01*
X175169030Y-95245671D01*
X175160765Y-95222572D01*
X175154804Y-95198773D01*
X175151204Y-95174505D01*
X175150000Y-95150001D01*
X175150000Y-94249999D01*
X175151204Y-94225495D01*
X175154804Y-94201227D01*
X175160765Y-94177428D01*
X175169030Y-94154329D01*
X175179520Y-94132150D01*
X175192132Y-94111107D01*
X175206747Y-94091401D01*
X175223223Y-94073223D01*
X175241401Y-94056747D01*
X175261107Y-94042132D01*
X175282150Y-94029520D01*
X175304329Y-94019030D01*
X175327428Y-94010765D01*
X175351227Y-94004804D01*
X175375495Y-94001204D01*
X175399999Y-94000000D01*
X176050001Y-94000000D01*
X176074505Y-94001204D01*
X176074505Y-94001204D01*
G37*
D13*
G04 #@! TD*
G04 #@! TO.P,R3,2*
G04 #@! TO.N,Net-(R3-Pad2)*
X175725000Y-94700000D03*
D12*
G04 #@! TO.N,GND*
G04 #@! TO.C,R4*
G36*
X178074505Y-89451204D02*
X178098773Y-89454804D01*
X178122572Y-89460765D01*
X178145671Y-89469030D01*
X178167850Y-89479520D01*
X178188893Y-89492132D01*
X178208599Y-89506747D01*
X178226777Y-89523223D01*
X178243253Y-89541401D01*
X178257868Y-89561107D01*
X178270480Y-89582150D01*
X178280970Y-89604329D01*
X178289235Y-89627428D01*
X178295196Y-89651227D01*
X178298796Y-89675495D01*
X178300000Y-89699999D01*
X178300000Y-90600001D01*
X178298796Y-90624505D01*
X178295196Y-90648773D01*
X178289235Y-90672572D01*
X178280970Y-90695671D01*
X178270480Y-90717850D01*
X178257868Y-90738893D01*
X178243253Y-90758599D01*
X178226777Y-90776777D01*
X178208599Y-90793253D01*
X178188893Y-90807868D01*
X178167850Y-90820480D01*
X178145671Y-90830970D01*
X178122572Y-90839235D01*
X178098773Y-90845196D01*
X178074505Y-90848796D01*
X178050001Y-90850000D01*
X177399999Y-90850000D01*
X177375495Y-90848796D01*
X177351227Y-90845196D01*
X177327428Y-90839235D01*
X177304329Y-90830970D01*
X177282150Y-90820480D01*
X177261107Y-90807868D01*
X177241401Y-90793253D01*
X177223223Y-90776777D01*
X177206747Y-90758599D01*
X177192132Y-90738893D01*
X177179520Y-90717850D01*
X177169030Y-90695671D01*
X177160765Y-90672572D01*
X177154804Y-90648773D01*
X177151204Y-90624505D01*
X177150000Y-90600001D01*
X177150000Y-89699999D01*
X177151204Y-89675495D01*
X177154804Y-89651227D01*
X177160765Y-89627428D01*
X177169030Y-89604329D01*
X177179520Y-89582150D01*
X177192132Y-89561107D01*
X177206747Y-89541401D01*
X177223223Y-89523223D01*
X177241401Y-89506747D01*
X177261107Y-89492132D01*
X177282150Y-89479520D01*
X177304329Y-89469030D01*
X177327428Y-89460765D01*
X177351227Y-89454804D01*
X177375495Y-89451204D01*
X177399999Y-89450000D01*
X178050001Y-89450000D01*
X178074505Y-89451204D01*
X178074505Y-89451204D01*
G37*
D13*
G04 #@! TD*
G04 #@! TO.P,R4,2*
G04 #@! TO.N,GND*
X177725000Y-90150000D03*
D12*
G04 #@! TO.N,Net-(C2-Pad1)*
G04 #@! TO.C,R4*
G36*
X176024505Y-89451204D02*
X176048773Y-89454804D01*
X176072572Y-89460765D01*
X176095671Y-89469030D01*
X176117850Y-89479520D01*
X176138893Y-89492132D01*
X176158599Y-89506747D01*
X176176777Y-89523223D01*
X176193253Y-89541401D01*
X176207868Y-89561107D01*
X176220480Y-89582150D01*
X176230970Y-89604329D01*
X176239235Y-89627428D01*
X176245196Y-89651227D01*
X176248796Y-89675495D01*
X176250000Y-89699999D01*
X176250000Y-90600001D01*
X176248796Y-90624505D01*
X176245196Y-90648773D01*
X176239235Y-90672572D01*
X176230970Y-90695671D01*
X176220480Y-90717850D01*
X176207868Y-90738893D01*
X176193253Y-90758599D01*
X176176777Y-90776777D01*
X176158599Y-90793253D01*
X176138893Y-90807868D01*
X176117850Y-90820480D01*
X176095671Y-90830970D01*
X176072572Y-90839235D01*
X176048773Y-90845196D01*
X176024505Y-90848796D01*
X176000001Y-90850000D01*
X175349999Y-90850000D01*
X175325495Y-90848796D01*
X175301227Y-90845196D01*
X175277428Y-90839235D01*
X175254329Y-90830970D01*
X175232150Y-90820480D01*
X175211107Y-90807868D01*
X175191401Y-90793253D01*
X175173223Y-90776777D01*
X175156747Y-90758599D01*
X175142132Y-90738893D01*
X175129520Y-90717850D01*
X175119030Y-90695671D01*
X175110765Y-90672572D01*
X175104804Y-90648773D01*
X175101204Y-90624505D01*
X175100000Y-90600001D01*
X175100000Y-89699999D01*
X175101204Y-89675495D01*
X175104804Y-89651227D01*
X175110765Y-89627428D01*
X175119030Y-89604329D01*
X175129520Y-89582150D01*
X175142132Y-89561107D01*
X175156747Y-89541401D01*
X175173223Y-89523223D01*
X175191401Y-89506747D01*
X175211107Y-89492132D01*
X175232150Y-89479520D01*
X175254329Y-89469030D01*
X175277428Y-89460765D01*
X175301227Y-89454804D01*
X175325495Y-89451204D01*
X175349999Y-89450000D01*
X176000001Y-89450000D01*
X176024505Y-89451204D01*
X176024505Y-89451204D01*
G37*
D13*
G04 #@! TD*
G04 #@! TO.P,R4,1*
G04 #@! TO.N,Net-(C2-Pad1)*
X175675000Y-90150000D03*
D12*
G04 #@! TO.N,Net-(A1-Pad9)*
G04 #@! TO.C,R5*
G36*
X169724505Y-81251204D02*
X169748773Y-81254804D01*
X169772572Y-81260765D01*
X169795671Y-81269030D01*
X169817850Y-81279520D01*
X169838893Y-81292132D01*
X169858599Y-81306747D01*
X169876777Y-81323223D01*
X169893253Y-81341401D01*
X169907868Y-81361107D01*
X169920480Y-81382150D01*
X169930970Y-81404329D01*
X169939235Y-81427428D01*
X169945196Y-81451227D01*
X169948796Y-81475495D01*
X169950000Y-81499999D01*
X169950000Y-82150001D01*
X169948796Y-82174505D01*
X169945196Y-82198773D01*
X169939235Y-82222572D01*
X169930970Y-82245671D01*
X169920480Y-82267850D01*
X169907868Y-82288893D01*
X169893253Y-82308599D01*
X169876777Y-82326777D01*
X169858599Y-82343253D01*
X169838893Y-82357868D01*
X169817850Y-82370480D01*
X169795671Y-82380970D01*
X169772572Y-82389235D01*
X169748773Y-82395196D01*
X169724505Y-82398796D01*
X169700001Y-82400000D01*
X168799999Y-82400000D01*
X168775495Y-82398796D01*
X168751227Y-82395196D01*
X168727428Y-82389235D01*
X168704329Y-82380970D01*
X168682150Y-82370480D01*
X168661107Y-82357868D01*
X168641401Y-82343253D01*
X168623223Y-82326777D01*
X168606747Y-82308599D01*
X168592132Y-82288893D01*
X168579520Y-82267850D01*
X168569030Y-82245671D01*
X168560765Y-82222572D01*
X168554804Y-82198773D01*
X168551204Y-82174505D01*
X168550000Y-82150001D01*
X168550000Y-81499999D01*
X168551204Y-81475495D01*
X168554804Y-81451227D01*
X168560765Y-81427428D01*
X168569030Y-81404329D01*
X168579520Y-81382150D01*
X168592132Y-81361107D01*
X168606747Y-81341401D01*
X168623223Y-81323223D01*
X168641401Y-81306747D01*
X168661107Y-81292132D01*
X168682150Y-81279520D01*
X168704329Y-81269030D01*
X168727428Y-81260765D01*
X168751227Y-81254804D01*
X168775495Y-81251204D01*
X168799999Y-81250000D01*
X169700001Y-81250000D01*
X169724505Y-81251204D01*
X169724505Y-81251204D01*
G37*
D13*
G04 #@! TD*
G04 #@! TO.P,R5,1*
G04 #@! TO.N,Net-(A1-Pad9)*
X169250000Y-81825000D03*
D12*
G04 #@! TO.N,Net-(R5-Pad2)*
G04 #@! TO.C,R5*
G36*
X169724505Y-83301204D02*
X169748773Y-83304804D01*
X169772572Y-83310765D01*
X169795671Y-83319030D01*
X169817850Y-83329520D01*
X169838893Y-83342132D01*
X169858599Y-83356747D01*
X169876777Y-83373223D01*
X169893253Y-83391401D01*
X169907868Y-83411107D01*
X169920480Y-83432150D01*
X169930970Y-83454329D01*
X169939235Y-83477428D01*
X169945196Y-83501227D01*
X169948796Y-83525495D01*
X169950000Y-83549999D01*
X169950000Y-84200001D01*
X169948796Y-84224505D01*
X169945196Y-84248773D01*
X169939235Y-84272572D01*
X169930970Y-84295671D01*
X169920480Y-84317850D01*
X169907868Y-84338893D01*
X169893253Y-84358599D01*
X169876777Y-84376777D01*
X169858599Y-84393253D01*
X169838893Y-84407868D01*
X169817850Y-84420480D01*
X169795671Y-84430970D01*
X169772572Y-84439235D01*
X169748773Y-84445196D01*
X169724505Y-84448796D01*
X169700001Y-84450000D01*
X168799999Y-84450000D01*
X168775495Y-84448796D01*
X168751227Y-84445196D01*
X168727428Y-84439235D01*
X168704329Y-84430970D01*
X168682150Y-84420480D01*
X168661107Y-84407868D01*
X168641401Y-84393253D01*
X168623223Y-84376777D01*
X168606747Y-84358599D01*
X168592132Y-84338893D01*
X168579520Y-84317850D01*
X168569030Y-84295671D01*
X168560765Y-84272572D01*
X168554804Y-84248773D01*
X168551204Y-84224505D01*
X168550000Y-84200001D01*
X168550000Y-83549999D01*
X168551204Y-83525495D01*
X168554804Y-83501227D01*
X168560765Y-83477428D01*
X168569030Y-83454329D01*
X168579520Y-83432150D01*
X168592132Y-83411107D01*
X168606747Y-83391401D01*
X168623223Y-83373223D01*
X168641401Y-83356747D01*
X168661107Y-83342132D01*
X168682150Y-83329520D01*
X168704329Y-83319030D01*
X168727428Y-83310765D01*
X168751227Y-83304804D01*
X168775495Y-83301204D01*
X168799999Y-83300000D01*
X169700001Y-83300000D01*
X169724505Y-83301204D01*
X169724505Y-83301204D01*
G37*
D13*
G04 #@! TD*
G04 #@! TO.P,R5,2*
G04 #@! TO.N,Net-(R5-Pad2)*
X169250000Y-83875000D03*
D16*
G04 #@! TO.P,RV1,1*
G04 #@! TO.N,Net-(R2-Pad1)*
X173150000Y-99550000D03*
D17*
G04 #@! TO.P,RV1,2*
G04 #@! TO.N,Net-(RV1-Pad2)*
X168050000Y-98400000D03*
D16*
G04 #@! TO.P,RV1,3*
G04 #@! TO.N,Net-(R3-Pad2)*
X173150000Y-97250000D03*
G04 #@! TD*
G04 #@! TO.P,RV2,3*
G04 #@! TO.N,Net-(RV2-Pad3)*
X166800000Y-90050000D03*
D17*
G04 #@! TO.P,RV2,2*
G04 #@! TO.N,Net-(RV2-Pad1)*
X161700000Y-91200000D03*
D16*
G04 #@! TO.P,RV2,1*
X166800000Y-92350000D03*
G04 #@! TD*
D18*
G04 #@! TO.P,U1,1*
G04 #@! TO.N,Net-(RV2-Pad1)*
X169275000Y-93800000D03*
G04 #@! TO.P,U1,2*
G04 #@! TO.N,Net-(RV1-Pad2)*
X169925000Y-93800000D03*
G04 #@! TO.P,U1,3*
G04 #@! TO.N,Net-(C1-Pad1)*
X170575000Y-93800000D03*
G04 #@! TO.P,U1,4*
G04 #@! TO.N,GND*
X171225000Y-93800000D03*
G04 #@! TO.P,U1,5*
G04 #@! TO.N,Net-(C2-Pad1)*
X171225000Y-87900000D03*
G04 #@! TO.P,U1,6*
G04 #@! TO.N,Net-(R5-Pad2)*
X170575000Y-87900000D03*
G04 #@! TO.P,U1,7*
G04 #@! TO.N,+5V*
X169925000Y-87900000D03*
G04 #@! TO.P,U1,8*
G04 #@! TO.N,Net-(RV2-Pad3)*
X169275000Y-87900000D03*
G04 #@! TD*
D14*
G04 #@! TO.P,J2,1*
G04 #@! TO.N,GND*
X122000000Y-90000000D03*
D15*
G04 #@! TO.P,J2,2*
G04 #@! TO.N,+5V*
X122000000Y-87460000D03*
G04 #@! TO.P,J2,3*
G04 #@! TO.N,Net-(A1-Pad14)*
X122000000Y-84920000D03*
G04 #@! TO.P,J2,4*
G04 #@! TO.N,Net-(A1-Pad13)*
X122000000Y-82380000D03*
G04 #@! TD*
D19*
G04 #@! TO.N,GND*
X166485001Y-102305001D03*
X167685001Y-102305001D03*
X168885001Y-102305001D03*
X170085001Y-102305001D03*
X171285001Y-102305001D03*
X172485001Y-102305001D03*
X173685001Y-102305001D03*
X174885001Y-102305001D03*
X176085001Y-102305001D03*
X166485001Y-103405001D03*
X167685001Y-103405001D03*
X168885001Y-103405001D03*
X170085001Y-103405001D03*
X171285001Y-103405001D03*
X172485001Y-103405001D03*
X173685001Y-103405001D03*
X174885001Y-103405001D03*
X176085001Y-103405001D03*
X166485001Y-104505001D03*
X167685001Y-104505001D03*
X168885001Y-104505001D03*
X170085001Y-104505001D03*
X171285001Y-104505001D03*
X172485001Y-104505001D03*
X173685001Y-104505001D03*
X174885001Y-104505001D03*
X176085001Y-104505001D03*
X118285001Y-112205001D03*
X119585001Y-112205001D03*
X120885001Y-112205001D03*
X122185001Y-112205001D03*
X123485001Y-112205001D03*
X124785001Y-112205001D03*
X126085001Y-112205001D03*
X127385001Y-112205001D03*
X127785001Y-65305001D03*
X125385001Y-65305001D03*
X127785001Y-64205001D03*
X122985001Y-64205001D03*
X122985001Y-65305001D03*
X126585001Y-64205001D03*
X121785001Y-65305001D03*
X125385001Y-64205001D03*
X126585001Y-65305001D03*
X118185001Y-65305001D03*
X120585001Y-65305001D03*
X121785001Y-64205001D03*
X119385001Y-65305001D03*
X118185001Y-63105001D03*
X126585001Y-63105001D03*
X119385001Y-63105001D03*
X120585001Y-63105001D03*
X121785001Y-63105001D03*
X122985001Y-63105001D03*
X124185001Y-63105001D03*
X125385001Y-63105001D03*
X124185001Y-65305001D03*
X127785001Y-63105001D03*
X118185001Y-64205001D03*
X119385001Y-64205001D03*
X120585001Y-64205001D03*
X124185001Y-64205001D03*
X157785001Y-75905001D03*
X156685001Y-83005001D03*
X157785001Y-80605001D03*
X157785001Y-79405001D03*
X157785001Y-78305001D03*
X155585001Y-80605001D03*
X155585001Y-78305001D03*
X156685001Y-80605001D03*
X157785001Y-83005001D03*
X157785001Y-81805001D03*
X155585001Y-79405001D03*
X156685001Y-77105001D03*
X155585001Y-75905001D03*
X156685001Y-79405001D03*
X157785001Y-77105001D03*
X155585001Y-77105001D03*
X157785001Y-85405001D03*
X155585001Y-85405001D03*
X157785001Y-84205001D03*
X156685001Y-81805001D03*
X156685001Y-85405001D03*
X156685001Y-84205001D03*
X156685001Y-78305001D03*
X156685001Y-75905001D03*
X155585001Y-84205001D03*
X155585001Y-81805001D03*
X155585001Y-83005001D03*
X159085001Y-76005001D03*
X162685001Y-77105001D03*
X160285001Y-77105001D03*
X166285001Y-77105001D03*
X162685001Y-76005001D03*
X160285001Y-78205001D03*
X168685001Y-77105001D03*
X160285001Y-76005001D03*
X159085001Y-77105001D03*
X161485001Y-76005001D03*
X163885001Y-76005001D03*
X165085001Y-77105001D03*
X163885001Y-78205001D03*
X165085001Y-78205001D03*
X165085001Y-76005001D03*
X159085001Y-78205001D03*
X163885001Y-77105001D03*
X166285001Y-78205001D03*
X166285001Y-76005001D03*
X161485001Y-78205001D03*
X168685001Y-78205001D03*
X162685001Y-78205001D03*
X167485001Y-77105001D03*
X167485001Y-78205001D03*
X168685001Y-76005001D03*
X167485001Y-76005001D03*
X161485001Y-77105001D03*
X169885001Y-76005001D03*
X174685001Y-76005001D03*
X175885001Y-78205001D03*
X177085001Y-76005001D03*
X173485001Y-78205001D03*
X177085001Y-77105001D03*
X179485001Y-77105001D03*
X177085001Y-78205001D03*
X179485001Y-78205001D03*
X178285001Y-78205001D03*
X169885001Y-78205001D03*
X178285001Y-76005001D03*
X172285001Y-77105001D03*
X172285001Y-76005001D03*
X175885001Y-77105001D03*
X174685001Y-77105001D03*
X178285001Y-77105001D03*
X173485001Y-77105001D03*
X171085001Y-76005001D03*
X174685001Y-78205001D03*
X171085001Y-77105001D03*
X171085001Y-78205001D03*
X175885001Y-76005001D03*
X172285001Y-78205001D03*
X179485001Y-76005001D03*
X169885001Y-77105001D03*
X173485001Y-76005001D03*
X155585001Y-96105001D03*
X156685001Y-92505001D03*
X156685001Y-94905001D03*
X156685001Y-88905001D03*
X155585001Y-92505001D03*
X157785001Y-94905001D03*
X156685001Y-86505001D03*
X155585001Y-94905001D03*
X156685001Y-96105001D03*
X155585001Y-93705001D03*
X155585001Y-91305001D03*
X156685001Y-90105001D03*
X157785001Y-91305001D03*
X157785001Y-90105001D03*
X155585001Y-90105001D03*
X157785001Y-96105001D03*
X156685001Y-91305001D03*
X157785001Y-88905001D03*
X155585001Y-88905001D03*
X157785001Y-93705001D03*
X157785001Y-86505001D03*
X157785001Y-92505001D03*
X156685001Y-87705001D03*
X157785001Y-87705001D03*
X155585001Y-86505001D03*
X155585001Y-87705001D03*
X156685001Y-93705001D03*
X156685001Y-102105001D03*
X157785001Y-102105001D03*
X156685001Y-98505001D03*
X157785001Y-104505001D03*
X156685001Y-100905001D03*
X155585001Y-104505001D03*
X156685001Y-104505001D03*
X156685001Y-99705001D03*
X155585001Y-102105001D03*
X155585001Y-100905001D03*
X157785001Y-98505001D03*
X156685001Y-97305001D03*
X157785001Y-97305001D03*
X155585001Y-103305001D03*
X155585001Y-97305001D03*
X156685001Y-103305001D03*
X157785001Y-99705001D03*
X157785001Y-100905001D03*
X155585001Y-99705001D03*
X157785001Y-103305001D03*
X155585001Y-98505001D03*
X160085001Y-103305001D03*
X160085001Y-102105001D03*
X160085001Y-104505001D03*
X158985001Y-104505001D03*
X158985001Y-103305001D03*
X158985001Y-102105001D03*
X161185001Y-102105001D03*
X161185001Y-104505001D03*
X162285001Y-104505001D03*
X161185001Y-103305001D03*
X162285001Y-103305001D03*
X162285001Y-102105001D03*
X163385001Y-104505001D03*
X163385001Y-102105001D03*
X163385001Y-103305001D03*
G04 #@! TO.N,+5V*
X166985001Y-83705001D03*
G04 #@! TO.N,Net-(RV2-Pad1)*
X161700000Y-94390002D03*
X166800000Y-94390002D03*
G04 #@! TD*
D20*
G04 #@! TO.N,Net-(A1-Pad9)*
X169250000Y-81825000D02*
X171500000Y-81825000D01*
G04 #@! TO.N,Net-(A1-Pad20)*
X167125001Y-65096371D02*
X167125001Y-63965001D01*
G04 #@! TO.N,+5V*
X166498372Y-86476628D02*
X165875000Y-87100000D01*
X169386630Y-86476628D02*
X166498372Y-86476628D01*
X169925000Y-87900000D02*
X169925000Y-87014998D01*
X169925000Y-87014998D02*
X169386630Y-86476628D01*
D21*
X177875000Y-103715002D02*
X177875000Y-99500000D01*
X177875000Y-99500000D02*
X182190002Y-99500000D01*
X182190002Y-99500000D02*
X183885001Y-97805001D01*
X183885001Y-97805001D02*
X183885001Y-86805001D01*
X183380000Y-86300000D02*
X180900000Y-86300000D01*
X183885001Y-86805001D02*
X183380000Y-86300000D01*
X154335001Y-113446371D02*
X153676371Y-114105001D01*
X154335001Y-112315001D02*
X154335001Y-113446371D01*
X153676371Y-114105001D02*
X139485001Y-114105001D01*
X139485001Y-114105001D02*
X134085001Y-108705001D01*
X134085001Y-108705001D02*
X119685001Y-108705001D01*
X119685001Y-108705001D02*
X118285001Y-107305001D01*
X118285001Y-107305001D02*
X118285001Y-88205001D01*
X119030002Y-87460000D02*
X122000000Y-87460000D01*
X118285001Y-88205001D02*
X119030002Y-87460000D01*
X165875000Y-84850000D02*
X165875000Y-87100000D01*
X154335001Y-113446371D02*
X154893631Y-114005001D01*
X154893631Y-114005001D02*
X180785001Y-114005001D01*
X180785001Y-114005001D02*
X181585001Y-113205001D01*
X181585001Y-113205001D02*
X181585001Y-111005001D01*
X177875000Y-107295000D02*
X177875000Y-103715002D01*
X181585001Y-111005001D02*
X177875000Y-107295000D01*
X166498372Y-84226628D02*
X166985001Y-83705001D01*
X165875000Y-84850000D02*
X166498372Y-84226628D01*
X166498372Y-84191630D02*
X166985001Y-83705001D01*
X166985001Y-83705001D02*
X166498372Y-84191630D01*
D20*
G04 #@! TO.N,Net-(A1-Pad9)*
X164885001Y-110165001D02*
X167035001Y-112315001D01*
X164885001Y-83611847D02*
X164885001Y-110165001D01*
X169250000Y-81825000D02*
X166671848Y-81825000D01*
X166671848Y-81825000D02*
X164885001Y-83611847D01*
G04 #@! TO.N,Net-(A1-Pad14)*
X121550001Y-84150001D02*
X122400000Y-85000000D01*
G04 #@! TO.N,Net-(C1-Pad1)*
X175675000Y-85600000D02*
X175675000Y-87850000D01*
X175675000Y-88650000D02*
X175990001Y-88965001D01*
X175675000Y-87850000D02*
X175675000Y-88650000D01*
X179697919Y-88840000D02*
X180900000Y-88840000D01*
X179572918Y-88965001D02*
X179697919Y-88840000D01*
X176675001Y-93038189D02*
X176675001Y-88965001D01*
X175111820Y-93475010D02*
X176238180Y-93475010D01*
X170650001Y-92749999D02*
X174386809Y-92749999D01*
X174386809Y-92749999D02*
X175111820Y-93475010D01*
X170575000Y-92825000D02*
X170650001Y-92749999D01*
X176238180Y-93475010D02*
X176675001Y-93038189D01*
X170575000Y-93800000D02*
X170575000Y-92825000D01*
X176675001Y-88965001D02*
X179572918Y-88965001D01*
X175990001Y-88965001D02*
X176675001Y-88965001D01*
G04 #@! TO.N,Net-(C2-Pad1)*
X175675000Y-90150000D02*
X175675000Y-92450000D01*
X175675000Y-90150000D02*
X171560000Y-90150000D01*
X171225000Y-89815000D02*
X171225000Y-87900000D01*
X171560000Y-90150000D02*
X171225000Y-89815000D01*
G04 #@! TO.N,Net-(R2-Pad1)*
X175775000Y-99550000D02*
X175825000Y-99500000D01*
X173150000Y-99550000D02*
X175775000Y-99550000D01*
G04 #@! TO.N,Net-(R3-Pad2)*
X173175000Y-97250000D02*
X173150000Y-97250000D01*
X175725000Y-94700000D02*
X173175000Y-97250000D01*
G04 #@! TO.N,Net-(R5-Pad2)*
X170575000Y-86925000D02*
X169225001Y-85575001D01*
X170575000Y-87900000D02*
X170575000Y-86925000D01*
X169250000Y-85550002D02*
X169250000Y-83875000D01*
X169225001Y-85575001D02*
X169250000Y-85550002D01*
G04 #@! TO.N,Net-(RV1-Pad2)*
X169925000Y-94775000D02*
X169925000Y-93800000D01*
X169925000Y-97725000D02*
X169925000Y-94775000D01*
X169250000Y-98400000D02*
X169925000Y-97725000D01*
X168050000Y-98400000D02*
X169250000Y-98400000D01*
G04 #@! TO.N,Net-(RV2-Pad3)*
X167100000Y-90050000D02*
X167115001Y-90065001D01*
X166800000Y-90050000D02*
X167100000Y-90050000D01*
X167115001Y-90065001D02*
X168675001Y-90065001D01*
X169275000Y-89465002D02*
X169275000Y-87900000D01*
X168675001Y-90065001D02*
X169275000Y-89465002D01*
G04 #@! TO.N,Net-(RV2-Pad1)*
X166800000Y-92350000D02*
X168810000Y-92350000D01*
X169275000Y-92815000D02*
X169275000Y-93800000D01*
X168810000Y-92350000D02*
X169275000Y-92815000D01*
X161700000Y-91200000D02*
X161700000Y-94390002D01*
X166800000Y-92350000D02*
X166800000Y-94390002D01*
X161700000Y-94390002D02*
X161700000Y-94390002D01*
X166800000Y-94390002D02*
X166800000Y-94390002D01*
G04 #@! TD*
D22*
G04 #@! TO.N,GND*
G36*
X130208975Y-62160260D02*
X129580260Y-62788975D01*
X129240001Y-63610432D01*
X129240001Y-64499570D01*
X129580260Y-65321027D01*
X130208975Y-65949742D01*
X131030432Y-66290001D01*
X131919570Y-66290001D01*
X132741027Y-65949742D01*
X133369742Y-65321027D01*
X133710001Y-64499570D01*
X133710001Y-64055001D01*
X138651888Y-64055001D01*
X138763261Y-64614910D01*
X139080424Y-65089578D01*
X139555092Y-65406741D01*
X139973668Y-65490001D01*
X140256334Y-65490001D01*
X140674910Y-65406741D01*
X141149578Y-65089578D01*
X141405948Y-64705893D01*
X141502612Y-64910135D01*
X141917578Y-65286042D01*
X142305962Y-65446905D01*
X142528001Y-65324916D01*
X142528001Y-64182001D01*
X142508001Y-64182001D01*
X142508001Y-63928001D01*
X142528001Y-63928001D01*
X142528001Y-62785086D01*
X142782001Y-62785086D01*
X142782001Y-63928001D01*
X142802001Y-63928001D01*
X142802001Y-64182001D01*
X142782001Y-64182001D01*
X142782001Y-65324916D01*
X143004040Y-65446905D01*
X143392424Y-65286042D01*
X143807390Y-64910135D01*
X143904054Y-64705893D01*
X144160424Y-65089578D01*
X144635092Y-65406741D01*
X145053668Y-65490001D01*
X145336334Y-65490001D01*
X145754910Y-65406741D01*
X146229578Y-65089578D01*
X146465001Y-64737243D01*
X146700424Y-65089578D01*
X147175092Y-65406741D01*
X147593668Y-65490001D01*
X147876334Y-65490001D01*
X148294910Y-65406741D01*
X148769578Y-65089578D01*
X149005001Y-64737243D01*
X149240424Y-65089578D01*
X149715092Y-65406741D01*
X150133668Y-65490001D01*
X150416334Y-65490001D01*
X150834910Y-65406741D01*
X151309578Y-65089578D01*
X151545001Y-64737243D01*
X151780424Y-65089578D01*
X152255092Y-65406741D01*
X152673668Y-65490001D01*
X152956334Y-65490001D01*
X153374910Y-65406741D01*
X153849578Y-65089578D01*
X154085001Y-64737243D01*
X154320424Y-65089578D01*
X154795092Y-65406741D01*
X155213668Y-65490001D01*
X155496334Y-65490001D01*
X155914910Y-65406741D01*
X156389578Y-65089578D01*
X156625001Y-64737243D01*
X156860424Y-65089578D01*
X157335092Y-65406741D01*
X157753668Y-65490001D01*
X158036334Y-65490001D01*
X158454910Y-65406741D01*
X158929578Y-65089578D01*
X159246741Y-64614910D01*
X159358114Y-64055001D01*
X160491888Y-64055001D01*
X160603261Y-64614910D01*
X160920424Y-65089578D01*
X161395092Y-65406741D01*
X161813668Y-65490001D01*
X162096334Y-65490001D01*
X162514910Y-65406741D01*
X162989578Y-65089578D01*
X163225001Y-64737243D01*
X163460424Y-65089578D01*
X163935092Y-65406741D01*
X164353668Y-65490001D01*
X164636334Y-65490001D01*
X165054910Y-65406741D01*
X165529578Y-65089578D01*
X165765001Y-64737243D01*
X166000424Y-65089578D01*
X166402155Y-65358006D01*
X166409097Y-65392907D01*
X166577072Y-65644300D01*
X166828464Y-65812275D01*
X167125001Y-65871260D01*
X167421537Y-65812275D01*
X167672930Y-65644300D01*
X167840905Y-65392908D01*
X167875438Y-65219298D01*
X168069578Y-65089578D01*
X168305001Y-64737243D01*
X168540424Y-65089578D01*
X169015092Y-65406741D01*
X169433668Y-65490001D01*
X169716334Y-65490001D01*
X170134910Y-65406741D01*
X170609578Y-65089578D01*
X170845001Y-64737243D01*
X171080424Y-65089578D01*
X171555092Y-65406741D01*
X171973668Y-65490001D01*
X172256334Y-65490001D01*
X172674910Y-65406741D01*
X173149578Y-65089578D01*
X173385001Y-64737243D01*
X173620424Y-65089578D01*
X174095092Y-65406741D01*
X174513668Y-65490001D01*
X174796334Y-65490001D01*
X175214910Y-65406741D01*
X175689578Y-65089578D01*
X175925001Y-64737243D01*
X176160424Y-65089578D01*
X176635092Y-65406741D01*
X177053668Y-65490001D01*
X177336334Y-65490001D01*
X177754910Y-65406741D01*
X178229578Y-65089578D01*
X178465001Y-64737243D01*
X178700424Y-65089578D01*
X179175092Y-65406741D01*
X179593668Y-65490001D01*
X179876334Y-65490001D01*
X180294910Y-65406741D01*
X180769578Y-65089578D01*
X181086741Y-64614910D01*
X181198114Y-64055001D01*
X181086741Y-63495092D01*
X180769578Y-63020424D01*
X180294910Y-62703261D01*
X179876334Y-62620001D01*
X179593668Y-62620001D01*
X179175092Y-62703261D01*
X178700424Y-63020424D01*
X178465001Y-63372759D01*
X178229578Y-63020424D01*
X177754910Y-62703261D01*
X177336334Y-62620001D01*
X177053668Y-62620001D01*
X176635092Y-62703261D01*
X176160424Y-63020424D01*
X175925001Y-63372759D01*
X175689578Y-63020424D01*
X175214910Y-62703261D01*
X174796334Y-62620001D01*
X174513668Y-62620001D01*
X174095092Y-62703261D01*
X173620424Y-63020424D01*
X173385001Y-63372759D01*
X173149578Y-63020424D01*
X172674910Y-62703261D01*
X172256334Y-62620001D01*
X171973668Y-62620001D01*
X171555092Y-62703261D01*
X171080424Y-63020424D01*
X170845001Y-63372759D01*
X170609578Y-63020424D01*
X170134910Y-62703261D01*
X169716334Y-62620001D01*
X169433668Y-62620001D01*
X169015092Y-62703261D01*
X168540424Y-63020424D01*
X168305001Y-63372759D01*
X168069578Y-63020424D01*
X167594910Y-62703261D01*
X167176334Y-62620001D01*
X166893668Y-62620001D01*
X166475092Y-62703261D01*
X166000424Y-63020424D01*
X165765001Y-63372759D01*
X165529578Y-63020424D01*
X165054910Y-62703261D01*
X164636334Y-62620001D01*
X164353668Y-62620001D01*
X163935092Y-62703261D01*
X163460424Y-63020424D01*
X163225001Y-63372759D01*
X162989578Y-63020424D01*
X162514910Y-62703261D01*
X162096334Y-62620001D01*
X161813668Y-62620001D01*
X161395092Y-62703261D01*
X160920424Y-63020424D01*
X160603261Y-63495092D01*
X160491888Y-64055001D01*
X159358114Y-64055001D01*
X159246741Y-63495092D01*
X158929578Y-63020424D01*
X158454910Y-62703261D01*
X158036334Y-62620001D01*
X157753668Y-62620001D01*
X157335092Y-62703261D01*
X156860424Y-63020424D01*
X156625001Y-63372759D01*
X156389578Y-63020424D01*
X155914910Y-62703261D01*
X155496334Y-62620001D01*
X155213668Y-62620001D01*
X154795092Y-62703261D01*
X154320424Y-63020424D01*
X154085001Y-63372759D01*
X153849578Y-63020424D01*
X153374910Y-62703261D01*
X152956334Y-62620001D01*
X152673668Y-62620001D01*
X152255092Y-62703261D01*
X151780424Y-63020424D01*
X151545001Y-63372759D01*
X151309578Y-63020424D01*
X150834910Y-62703261D01*
X150416334Y-62620001D01*
X150133668Y-62620001D01*
X149715092Y-62703261D01*
X149240424Y-63020424D01*
X149005001Y-63372759D01*
X148769578Y-63020424D01*
X148294910Y-62703261D01*
X147876334Y-62620001D01*
X147593668Y-62620001D01*
X147175092Y-62703261D01*
X146700424Y-63020424D01*
X146465001Y-63372759D01*
X146229578Y-63020424D01*
X145754910Y-62703261D01*
X145336334Y-62620001D01*
X145053668Y-62620001D01*
X144635092Y-62703261D01*
X144160424Y-63020424D01*
X143904054Y-63404109D01*
X143807390Y-63199867D01*
X143392424Y-62823960D01*
X143004040Y-62663097D01*
X142782001Y-62785086D01*
X142528001Y-62785086D01*
X142305962Y-62663097D01*
X141917578Y-62823960D01*
X141502612Y-63199867D01*
X141405948Y-63404109D01*
X141149578Y-63020424D01*
X140674910Y-62703261D01*
X140256334Y-62620001D01*
X139973668Y-62620001D01*
X139555092Y-62703261D01*
X139080424Y-63020424D01*
X138763261Y-63495092D01*
X138651888Y-64055001D01*
X133710001Y-64055001D01*
X133710001Y-63610432D01*
X133369742Y-62788975D01*
X132741027Y-62160260D01*
X132390341Y-62015001D01*
X180490911Y-62015001D01*
X181775001Y-63299092D01*
X181775002Y-74335072D01*
X181761092Y-74405001D01*
X181816197Y-74682029D01*
X181973121Y-74916882D01*
X182032403Y-74956493D01*
X184375001Y-77299092D01*
X184375001Y-78524514D01*
X184169742Y-78028975D01*
X183541027Y-77400260D01*
X182719570Y-77060001D01*
X181830432Y-77060001D01*
X181008975Y-77400260D01*
X180380260Y-78028975D01*
X180040001Y-78850432D01*
X180040001Y-79739570D01*
X180380260Y-80561027D01*
X181008975Y-81189742D01*
X181830432Y-81530001D01*
X182719570Y-81530001D01*
X183541027Y-81189742D01*
X184169742Y-80561027D01*
X184375001Y-80065488D01*
X184375001Y-86043423D01*
X184067425Y-85735847D01*
X184018049Y-85661951D01*
X183725310Y-85466348D01*
X183467165Y-85415000D01*
X183467161Y-85415000D01*
X183380000Y-85397663D01*
X183292839Y-85415000D01*
X182390478Y-85415000D01*
X182348157Y-85202235D01*
X182207809Y-84992191D01*
X181997765Y-84851843D01*
X181750000Y-84802560D01*
X180050000Y-84802560D01*
X179802235Y-84851843D01*
X179592191Y-84992191D01*
X179451843Y-85202235D01*
X179402560Y-85450000D01*
X179402560Y-87150000D01*
X179451843Y-87397765D01*
X179592191Y-87607809D01*
X179802235Y-87748157D01*
X179847619Y-87757184D01*
X179829375Y-87769375D01*
X179621631Y-88080286D01*
X179401382Y-88124096D01*
X179280299Y-88205001D01*
X178935000Y-88205001D01*
X178935000Y-88135750D01*
X178776250Y-87977000D01*
X177852000Y-87977000D01*
X177852000Y-87997000D01*
X177598000Y-87997000D01*
X177598000Y-87977000D01*
X177578000Y-87977000D01*
X177578000Y-87723000D01*
X177598000Y-87723000D01*
X177598000Y-85727000D01*
X177852000Y-85727000D01*
X177852000Y-87723000D01*
X178776250Y-87723000D01*
X178935000Y-87564250D01*
X178935000Y-87023690D01*
X178838327Y-86790301D01*
X178773026Y-86725000D01*
X178838327Y-86659699D01*
X178935000Y-86426310D01*
X178935000Y-85885750D01*
X178776250Y-85727000D01*
X177852000Y-85727000D01*
X177598000Y-85727000D01*
X177578000Y-85727000D01*
X177578000Y-85473000D01*
X177598000Y-85473000D01*
X177598000Y-84423750D01*
X177852000Y-84423750D01*
X177852000Y-85473000D01*
X178776250Y-85473000D01*
X178935000Y-85314250D01*
X178935000Y-84773690D01*
X178838327Y-84540301D01*
X178659698Y-84361673D01*
X178426309Y-84265000D01*
X178010750Y-84265000D01*
X177852000Y-84423750D01*
X177598000Y-84423750D01*
X177439250Y-84265000D01*
X177023691Y-84265000D01*
X176790302Y-84361673D01*
X176635377Y-84516597D01*
X176634586Y-84515414D01*
X176343436Y-84320873D01*
X176000001Y-84252560D01*
X175349999Y-84252560D01*
X175006564Y-84320873D01*
X174715414Y-84515414D01*
X174520873Y-84806564D01*
X174452560Y-85149999D01*
X174452560Y-86050001D01*
X174520873Y-86393436D01*
X174715414Y-86684586D01*
X174775898Y-86725000D01*
X174715414Y-86765414D01*
X174520873Y-87056564D01*
X174452560Y-87399999D01*
X174452560Y-88300001D01*
X174520873Y-88643436D01*
X174715414Y-88934586D01*
X174813313Y-89000000D01*
X174715414Y-89065414D01*
X174520873Y-89356564D01*
X174514222Y-89390000D01*
X171985000Y-89390000D01*
X171985000Y-88967285D01*
X172048157Y-88872765D01*
X172097440Y-88625000D01*
X172097440Y-87175000D01*
X172048157Y-86927235D01*
X171907809Y-86717191D01*
X171697765Y-86576843D01*
X171450000Y-86527560D01*
X171223483Y-86527560D01*
X171122929Y-86377071D01*
X171059473Y-86334671D01*
X170010000Y-85285199D01*
X170010000Y-85035778D01*
X170043436Y-85029127D01*
X170305797Y-84853822D01*
X170440301Y-84988327D01*
X170673690Y-85085000D01*
X171214250Y-85085000D01*
X171373000Y-84926250D01*
X171373000Y-84002000D01*
X171627000Y-84002000D01*
X171627000Y-84926250D01*
X171785750Y-85085000D01*
X172326310Y-85085000D01*
X172559699Y-84988327D01*
X172738327Y-84809698D01*
X172835000Y-84576309D01*
X172835000Y-84160750D01*
X172676250Y-84002000D01*
X171627000Y-84002000D01*
X171373000Y-84002000D01*
X171353000Y-84002000D01*
X171353000Y-83748000D01*
X171373000Y-83748000D01*
X171373000Y-83728000D01*
X171627000Y-83728000D01*
X171627000Y-83748000D01*
X172676250Y-83748000D01*
X172835000Y-83589250D01*
X172835000Y-83173691D01*
X172738327Y-82940302D01*
X172583403Y-82785377D01*
X172584586Y-82784586D01*
X172779127Y-82493436D01*
X172847440Y-82150001D01*
X172847440Y-81499999D01*
X172779127Y-81156564D01*
X172584586Y-80865414D01*
X172293436Y-80670873D01*
X171950001Y-80602560D01*
X171049999Y-80602560D01*
X170706564Y-80670873D01*
X170415414Y-80865414D01*
X170375000Y-80925898D01*
X170334586Y-80865414D01*
X170043436Y-80670873D01*
X169700001Y-80602560D01*
X168799999Y-80602560D01*
X168456564Y-80670873D01*
X168165414Y-80865414D01*
X168032054Y-81065000D01*
X166746694Y-81065000D01*
X166671847Y-81050112D01*
X166597000Y-81065000D01*
X166596996Y-81065000D01*
X166375311Y-81109096D01*
X166123919Y-81277071D01*
X166081519Y-81340527D01*
X164400531Y-83021516D01*
X164337072Y-83063918D01*
X164169097Y-83315311D01*
X164129376Y-83515000D01*
X164110750Y-83515000D01*
X163952000Y-83673750D01*
X163952000Y-84723000D01*
X163972000Y-84723000D01*
X163972000Y-84977000D01*
X163952000Y-84977000D01*
X163952000Y-86973000D01*
X163972000Y-86973000D01*
X163972000Y-87227000D01*
X163952000Y-87227000D01*
X163952000Y-88276250D01*
X164110750Y-88435000D01*
X164125001Y-88435000D01*
X164125002Y-110090149D01*
X164110113Y-110165001D01*
X164169098Y-110461538D01*
X164214115Y-110528910D01*
X164337073Y-110712930D01*
X164400529Y-110755330D01*
X165636313Y-111991115D01*
X165571888Y-112315001D01*
X165683261Y-112874910D01*
X165847026Y-113120001D01*
X163142976Y-113120001D01*
X163306741Y-112874910D01*
X163418114Y-112315001D01*
X163306741Y-111755092D01*
X162989578Y-111280424D01*
X162514910Y-110963261D01*
X162096334Y-110880001D01*
X161813668Y-110880001D01*
X161395092Y-110963261D01*
X160920424Y-111280424D01*
X160664054Y-111664109D01*
X160567390Y-111459867D01*
X160152424Y-111083960D01*
X159764040Y-110923097D01*
X159542001Y-111045086D01*
X159542001Y-112188001D01*
X159562001Y-112188001D01*
X159562001Y-112442001D01*
X159542001Y-112442001D01*
X159542001Y-112462001D01*
X159288001Y-112462001D01*
X159288001Y-112442001D01*
X157002001Y-112442001D01*
X157002001Y-112462001D01*
X156748001Y-112462001D01*
X156748001Y-112442001D01*
X156728001Y-112442001D01*
X156728001Y-112188001D01*
X156748001Y-112188001D01*
X156748001Y-111045086D01*
X157002001Y-111045086D01*
X157002001Y-112188001D01*
X159288001Y-112188001D01*
X159288001Y-111045086D01*
X159065962Y-110923097D01*
X158677578Y-111083960D01*
X158262612Y-111459867D01*
X158145001Y-111708368D01*
X158027390Y-111459867D01*
X157612424Y-111083960D01*
X157224040Y-110923097D01*
X157002001Y-111045086D01*
X156748001Y-111045086D01*
X156525962Y-110923097D01*
X156137578Y-111083960D01*
X155722612Y-111459867D01*
X155625948Y-111664109D01*
X155369578Y-111280424D01*
X154894910Y-110963261D01*
X154476334Y-110880001D01*
X154193668Y-110880001D01*
X153775092Y-110963261D01*
X153300424Y-111280424D01*
X153065001Y-111632759D01*
X152829578Y-111280424D01*
X152354910Y-110963261D01*
X151936334Y-110880001D01*
X151653668Y-110880001D01*
X151235092Y-110963261D01*
X150760424Y-111280424D01*
X150525001Y-111632759D01*
X150289578Y-111280424D01*
X149814910Y-110963261D01*
X149396334Y-110880001D01*
X149113668Y-110880001D01*
X148695092Y-110963261D01*
X148220424Y-111280424D01*
X147985001Y-111632759D01*
X147749578Y-111280424D01*
X147274910Y-110963261D01*
X146856334Y-110880001D01*
X146573668Y-110880001D01*
X146155092Y-110963261D01*
X145680424Y-111280424D01*
X145599786Y-111401107D01*
X145573158Y-111267236D01*
X145432810Y-111057192D01*
X145222766Y-110916844D01*
X144975001Y-110867561D01*
X143375001Y-110867561D01*
X143127236Y-110916844D01*
X142917192Y-111057192D01*
X142776844Y-111267236D01*
X142727561Y-111515001D01*
X142727561Y-113115001D01*
X142748447Y-113220001D01*
X139851580Y-113220001D01*
X134772426Y-108140848D01*
X134723050Y-108066952D01*
X134430311Y-107871349D01*
X134172166Y-107820001D01*
X134172162Y-107820001D01*
X134085001Y-107802664D01*
X133997840Y-107820001D01*
X120051580Y-107820001D01*
X119170001Y-106938423D01*
X119170001Y-101495431D01*
X150165000Y-101495431D01*
X150165000Y-102384569D01*
X150505259Y-103206026D01*
X151133974Y-103834741D01*
X151955431Y-104175000D01*
X152844569Y-104175000D01*
X153666026Y-103834741D01*
X154294741Y-103206026D01*
X154635000Y-102384569D01*
X154635000Y-101495431D01*
X154294741Y-100673974D01*
X153666026Y-100045259D01*
X152844569Y-99705000D01*
X151955431Y-99705000D01*
X151133974Y-100045259D01*
X150505259Y-100673974D01*
X150165000Y-101495431D01*
X119170001Y-101495431D01*
X119170001Y-90285750D01*
X120515000Y-90285750D01*
X120515000Y-90976310D01*
X120611673Y-91209699D01*
X120790302Y-91388327D01*
X121023691Y-91485000D01*
X121714250Y-91485000D01*
X121873000Y-91326250D01*
X121873000Y-90127000D01*
X122127000Y-90127000D01*
X122127000Y-91326250D01*
X122285750Y-91485000D01*
X122976309Y-91485000D01*
X123209698Y-91388327D01*
X123388327Y-91209699D01*
X123485000Y-90976310D01*
X123485000Y-90285750D01*
X123399250Y-90200000D01*
X160102560Y-90200000D01*
X160102560Y-92200000D01*
X160151843Y-92447765D01*
X160292191Y-92657809D01*
X160502235Y-92798157D01*
X160750000Y-92847440D01*
X160940001Y-92847440D01*
X160940001Y-93686290D01*
X160822569Y-93803722D01*
X160665000Y-94184128D01*
X160665000Y-94595876D01*
X160822569Y-94976282D01*
X161113720Y-95267433D01*
X161494126Y-95425002D01*
X161905874Y-95425002D01*
X162286280Y-95267433D01*
X162577431Y-94976282D01*
X162735000Y-94595876D01*
X162735000Y-94184128D01*
X162577431Y-93803722D01*
X162460000Y-93686291D01*
X162460000Y-92847440D01*
X162650000Y-92847440D01*
X162897765Y-92798157D01*
X163107809Y-92657809D01*
X163248157Y-92447765D01*
X163297440Y-92200000D01*
X163297440Y-90200000D01*
X163248157Y-89952235D01*
X163107809Y-89742191D01*
X162897765Y-89601843D01*
X162650000Y-89552560D01*
X160750000Y-89552560D01*
X160502235Y-89601843D01*
X160292191Y-89742191D01*
X160151843Y-89952235D01*
X160102560Y-90200000D01*
X123399250Y-90200000D01*
X123326250Y-90127000D01*
X122127000Y-90127000D01*
X121873000Y-90127000D01*
X120673750Y-90127000D01*
X120515000Y-90285750D01*
X119170001Y-90285750D01*
X119170001Y-88571579D01*
X119396581Y-88345000D01*
X120805344Y-88345000D01*
X120929375Y-88530625D01*
X120951033Y-88545096D01*
X120790302Y-88611673D01*
X120611673Y-88790301D01*
X120515000Y-89023690D01*
X120515000Y-89714250D01*
X120673750Y-89873000D01*
X121873000Y-89873000D01*
X121873000Y-89853000D01*
X122127000Y-89853000D01*
X122127000Y-89873000D01*
X123326250Y-89873000D01*
X123485000Y-89714250D01*
X123485000Y-89023690D01*
X123388327Y-88790301D01*
X123209698Y-88611673D01*
X123048967Y-88545096D01*
X123070625Y-88530625D01*
X123398839Y-88039418D01*
X123514092Y-87460000D01*
X123499323Y-87385750D01*
X162615000Y-87385750D01*
X162615000Y-87926310D01*
X162711673Y-88159699D01*
X162890302Y-88338327D01*
X163123691Y-88435000D01*
X163539250Y-88435000D01*
X163698000Y-88276250D01*
X163698000Y-87227000D01*
X162773750Y-87227000D01*
X162615000Y-87385750D01*
X123499323Y-87385750D01*
X123398839Y-86880582D01*
X123070625Y-86389375D01*
X122772239Y-86190000D01*
X123070625Y-85990625D01*
X123398839Y-85499418D01*
X123471176Y-85135750D01*
X162615000Y-85135750D01*
X162615000Y-85676310D01*
X162711673Y-85909699D01*
X162776974Y-85975000D01*
X162711673Y-86040301D01*
X162615000Y-86273690D01*
X162615000Y-86814250D01*
X162773750Y-86973000D01*
X163698000Y-86973000D01*
X163698000Y-84977000D01*
X162773750Y-84977000D01*
X162615000Y-85135750D01*
X123471176Y-85135750D01*
X123514092Y-84920000D01*
X123398839Y-84340582D01*
X123187099Y-84023690D01*
X162615000Y-84023690D01*
X162615000Y-84564250D01*
X162773750Y-84723000D01*
X163698000Y-84723000D01*
X163698000Y-83673750D01*
X163539250Y-83515000D01*
X163123691Y-83515000D01*
X162890302Y-83611673D01*
X162711673Y-83790301D01*
X162615000Y-84023690D01*
X123187099Y-84023690D01*
X123070625Y-83849375D01*
X122772239Y-83650000D01*
X123070625Y-83450625D01*
X123398839Y-82959418D01*
X123514092Y-82380000D01*
X123398839Y-81800582D01*
X123070625Y-81309375D01*
X122579418Y-80981161D01*
X122146256Y-80895000D01*
X121853744Y-80895000D01*
X121420582Y-80981161D01*
X120929375Y-81309375D01*
X120601161Y-81800582D01*
X120485908Y-82380000D01*
X120601161Y-82959418D01*
X120929375Y-83450625D01*
X121079052Y-83550636D01*
X121002072Y-83602072D01*
X120834098Y-83853464D01*
X120794870Y-84050676D01*
X120601161Y-84340582D01*
X120485908Y-84920000D01*
X120601161Y-85499418D01*
X120929375Y-85990625D01*
X121227761Y-86190000D01*
X120929375Y-86389375D01*
X120805344Y-86575000D01*
X119117163Y-86575000D01*
X119030002Y-86557663D01*
X118942841Y-86575000D01*
X118942837Y-86575000D01*
X118684692Y-86626348D01*
X118465847Y-86772576D01*
X118465846Y-86772577D01*
X118391953Y-86821951D01*
X118342579Y-86895844D01*
X117720846Y-87517578D01*
X117646953Y-87566952D01*
X117597579Y-87640845D01*
X117597577Y-87640847D01*
X117451349Y-87859692D01*
X117382664Y-88205001D01*
X117400002Y-88292167D01*
X117400001Y-107217840D01*
X117382664Y-107305001D01*
X117400001Y-107392162D01*
X117400001Y-107392165D01*
X117451349Y-107650310D01*
X117646952Y-107943050D01*
X117720848Y-107992426D01*
X118997578Y-109269157D01*
X119046952Y-109343050D01*
X119120845Y-109392424D01*
X119120846Y-109392425D01*
X119323709Y-109527974D01*
X119339691Y-109538653D01*
X119597836Y-109590001D01*
X119597840Y-109590001D01*
X119685001Y-109607338D01*
X119772162Y-109590001D01*
X133718423Y-109590001D01*
X138523422Y-114395001D01*
X131023773Y-114395001D01*
X131471027Y-114209742D01*
X132099742Y-113581027D01*
X132440001Y-112759570D01*
X132440001Y-111870432D01*
X132099742Y-111048975D01*
X131471027Y-110420260D01*
X130649570Y-110080001D01*
X129760432Y-110080001D01*
X128938975Y-110420260D01*
X128310260Y-111048975D01*
X127970001Y-111870432D01*
X127970001Y-112759570D01*
X128310260Y-113581027D01*
X128938975Y-114209742D01*
X129386229Y-114395001D01*
X116695001Y-114395001D01*
X116695001Y-69995431D01*
X150165000Y-69995431D01*
X150165000Y-70884569D01*
X150505259Y-71706026D01*
X151133974Y-72334741D01*
X151955431Y-72675000D01*
X152844569Y-72675000D01*
X153666026Y-72334741D01*
X154294741Y-71706026D01*
X154635000Y-70884569D01*
X154635000Y-69995431D01*
X154294741Y-69173974D01*
X153666026Y-68545259D01*
X152844569Y-68205000D01*
X151955431Y-68205000D01*
X151133974Y-68545259D01*
X150505259Y-69173974D01*
X150165000Y-69995431D01*
X116695001Y-69995431D01*
X116695001Y-62015001D01*
X130559661Y-62015001D01*
X130208975Y-62160260D01*
X130208975Y-62160260D01*
G37*
X130208975Y-62160260D02*
X129580260Y-62788975D01*
X129240001Y-63610432D01*
X129240001Y-64499570D01*
X129580260Y-65321027D01*
X130208975Y-65949742D01*
X131030432Y-66290001D01*
X131919570Y-66290001D01*
X132741027Y-65949742D01*
X133369742Y-65321027D01*
X133710001Y-64499570D01*
X133710001Y-64055001D01*
X138651888Y-64055001D01*
X138763261Y-64614910D01*
X139080424Y-65089578D01*
X139555092Y-65406741D01*
X139973668Y-65490001D01*
X140256334Y-65490001D01*
X140674910Y-65406741D01*
X141149578Y-65089578D01*
X141405948Y-64705893D01*
X141502612Y-64910135D01*
X141917578Y-65286042D01*
X142305962Y-65446905D01*
X142528001Y-65324916D01*
X142528001Y-64182001D01*
X142508001Y-64182001D01*
X142508001Y-63928001D01*
X142528001Y-63928001D01*
X142528001Y-62785086D01*
X142782001Y-62785086D01*
X142782001Y-63928001D01*
X142802001Y-63928001D01*
X142802001Y-64182001D01*
X142782001Y-64182001D01*
X142782001Y-65324916D01*
X143004040Y-65446905D01*
X143392424Y-65286042D01*
X143807390Y-64910135D01*
X143904054Y-64705893D01*
X144160424Y-65089578D01*
X144635092Y-65406741D01*
X145053668Y-65490001D01*
X145336334Y-65490001D01*
X145754910Y-65406741D01*
X146229578Y-65089578D01*
X146465001Y-64737243D01*
X146700424Y-65089578D01*
X147175092Y-65406741D01*
X147593668Y-65490001D01*
X147876334Y-65490001D01*
X148294910Y-65406741D01*
X148769578Y-65089578D01*
X149005001Y-64737243D01*
X149240424Y-65089578D01*
X149715092Y-65406741D01*
X150133668Y-65490001D01*
X150416334Y-65490001D01*
X150834910Y-65406741D01*
X151309578Y-65089578D01*
X151545001Y-64737243D01*
X151780424Y-65089578D01*
X152255092Y-65406741D01*
X152673668Y-65490001D01*
X152956334Y-65490001D01*
X153374910Y-65406741D01*
X153849578Y-65089578D01*
X154085001Y-64737243D01*
X154320424Y-65089578D01*
X154795092Y-65406741D01*
X155213668Y-65490001D01*
X155496334Y-65490001D01*
X155914910Y-65406741D01*
X156389578Y-65089578D01*
X156625001Y-64737243D01*
X156860424Y-65089578D01*
X157335092Y-65406741D01*
X157753668Y-65490001D01*
X158036334Y-65490001D01*
X158454910Y-65406741D01*
X158929578Y-65089578D01*
X159246741Y-64614910D01*
X159358114Y-64055001D01*
X160491888Y-64055001D01*
X160603261Y-64614910D01*
X160920424Y-65089578D01*
X161395092Y-65406741D01*
X161813668Y-65490001D01*
X162096334Y-65490001D01*
X162514910Y-65406741D01*
X162989578Y-65089578D01*
X163225001Y-64737243D01*
X163460424Y-65089578D01*
X163935092Y-65406741D01*
X164353668Y-65490001D01*
X164636334Y-65490001D01*
X165054910Y-65406741D01*
X165529578Y-65089578D01*
X165765001Y-64737243D01*
X166000424Y-65089578D01*
X166402155Y-65358006D01*
X166409097Y-65392907D01*
X166577072Y-65644300D01*
X166828464Y-65812275D01*
X167125001Y-65871260D01*
X167421537Y-65812275D01*
X167672930Y-65644300D01*
X167840905Y-65392908D01*
X167875438Y-65219298D01*
X168069578Y-65089578D01*
X168305001Y-64737243D01*
X168540424Y-65089578D01*
X169015092Y-65406741D01*
X169433668Y-65490001D01*
X169716334Y-65490001D01*
X170134910Y-65406741D01*
X170609578Y-65089578D01*
X170845001Y-64737243D01*
X171080424Y-65089578D01*
X171555092Y-65406741D01*
X171973668Y-65490001D01*
X172256334Y-65490001D01*
X172674910Y-65406741D01*
X173149578Y-65089578D01*
X173385001Y-64737243D01*
X173620424Y-65089578D01*
X174095092Y-65406741D01*
X174513668Y-65490001D01*
X174796334Y-65490001D01*
X175214910Y-65406741D01*
X175689578Y-65089578D01*
X175925001Y-64737243D01*
X176160424Y-65089578D01*
X176635092Y-65406741D01*
X177053668Y-65490001D01*
X177336334Y-65490001D01*
X177754910Y-65406741D01*
X178229578Y-65089578D01*
X178465001Y-64737243D01*
X178700424Y-65089578D01*
X179175092Y-65406741D01*
X179593668Y-65490001D01*
X179876334Y-65490001D01*
X180294910Y-65406741D01*
X180769578Y-65089578D01*
X181086741Y-64614910D01*
X181198114Y-64055001D01*
X181086741Y-63495092D01*
X180769578Y-63020424D01*
X180294910Y-62703261D01*
X179876334Y-62620001D01*
X179593668Y-62620001D01*
X179175092Y-62703261D01*
X178700424Y-63020424D01*
X178465001Y-63372759D01*
X178229578Y-63020424D01*
X177754910Y-62703261D01*
X177336334Y-62620001D01*
X177053668Y-62620001D01*
X176635092Y-62703261D01*
X176160424Y-63020424D01*
X175925001Y-63372759D01*
X175689578Y-63020424D01*
X175214910Y-62703261D01*
X174796334Y-62620001D01*
X174513668Y-62620001D01*
X174095092Y-62703261D01*
X173620424Y-63020424D01*
X173385001Y-63372759D01*
X173149578Y-63020424D01*
X172674910Y-62703261D01*
X172256334Y-62620001D01*
X171973668Y-62620001D01*
X171555092Y-62703261D01*
X171080424Y-63020424D01*
X170845001Y-63372759D01*
X170609578Y-63020424D01*
X170134910Y-62703261D01*
X169716334Y-62620001D01*
X169433668Y-62620001D01*
X169015092Y-62703261D01*
X168540424Y-63020424D01*
X168305001Y-63372759D01*
X168069578Y-63020424D01*
X167594910Y-62703261D01*
X167176334Y-62620001D01*
X166893668Y-62620001D01*
X166475092Y-62703261D01*
X166000424Y-63020424D01*
X165765001Y-63372759D01*
X165529578Y-63020424D01*
X165054910Y-62703261D01*
X164636334Y-62620001D01*
X164353668Y-62620001D01*
X163935092Y-62703261D01*
X163460424Y-63020424D01*
X163225001Y-63372759D01*
X162989578Y-63020424D01*
X162514910Y-62703261D01*
X162096334Y-62620001D01*
X161813668Y-62620001D01*
X161395092Y-62703261D01*
X160920424Y-63020424D01*
X160603261Y-63495092D01*
X160491888Y-64055001D01*
X159358114Y-64055001D01*
X159246741Y-63495092D01*
X158929578Y-63020424D01*
X158454910Y-62703261D01*
X158036334Y-62620001D01*
X157753668Y-62620001D01*
X157335092Y-62703261D01*
X156860424Y-63020424D01*
X156625001Y-63372759D01*
X156389578Y-63020424D01*
X155914910Y-62703261D01*
X155496334Y-62620001D01*
X155213668Y-62620001D01*
X154795092Y-62703261D01*
X154320424Y-63020424D01*
X154085001Y-63372759D01*
X153849578Y-63020424D01*
X153374910Y-62703261D01*
X152956334Y-62620001D01*
X152673668Y-62620001D01*
X152255092Y-62703261D01*
X151780424Y-63020424D01*
X151545001Y-63372759D01*
X151309578Y-63020424D01*
X150834910Y-62703261D01*
X150416334Y-62620001D01*
X150133668Y-62620001D01*
X149715092Y-62703261D01*
X149240424Y-63020424D01*
X149005001Y-63372759D01*
X148769578Y-63020424D01*
X148294910Y-62703261D01*
X147876334Y-62620001D01*
X147593668Y-62620001D01*
X147175092Y-62703261D01*
X146700424Y-63020424D01*
X146465001Y-63372759D01*
X146229578Y-63020424D01*
X145754910Y-62703261D01*
X145336334Y-62620001D01*
X145053668Y-62620001D01*
X144635092Y-62703261D01*
X144160424Y-63020424D01*
X143904054Y-63404109D01*
X143807390Y-63199867D01*
X143392424Y-62823960D01*
X143004040Y-62663097D01*
X142782001Y-62785086D01*
X142528001Y-62785086D01*
X142305962Y-62663097D01*
X141917578Y-62823960D01*
X141502612Y-63199867D01*
X141405948Y-63404109D01*
X141149578Y-63020424D01*
X140674910Y-62703261D01*
X140256334Y-62620001D01*
X139973668Y-62620001D01*
X139555092Y-62703261D01*
X139080424Y-63020424D01*
X138763261Y-63495092D01*
X138651888Y-64055001D01*
X133710001Y-64055001D01*
X133710001Y-63610432D01*
X133369742Y-62788975D01*
X132741027Y-62160260D01*
X132390341Y-62015001D01*
X180490911Y-62015001D01*
X181775001Y-63299092D01*
X181775002Y-74335072D01*
X181761092Y-74405001D01*
X181816197Y-74682029D01*
X181973121Y-74916882D01*
X182032403Y-74956493D01*
X184375001Y-77299092D01*
X184375001Y-78524514D01*
X184169742Y-78028975D01*
X183541027Y-77400260D01*
X182719570Y-77060001D01*
X181830432Y-77060001D01*
X181008975Y-77400260D01*
X180380260Y-78028975D01*
X180040001Y-78850432D01*
X180040001Y-79739570D01*
X180380260Y-80561027D01*
X181008975Y-81189742D01*
X181830432Y-81530001D01*
X182719570Y-81530001D01*
X183541027Y-81189742D01*
X184169742Y-80561027D01*
X184375001Y-80065488D01*
X184375001Y-86043423D01*
X184067425Y-85735847D01*
X184018049Y-85661951D01*
X183725310Y-85466348D01*
X183467165Y-85415000D01*
X183467161Y-85415000D01*
X183380000Y-85397663D01*
X183292839Y-85415000D01*
X182390478Y-85415000D01*
X182348157Y-85202235D01*
X182207809Y-84992191D01*
X181997765Y-84851843D01*
X181750000Y-84802560D01*
X180050000Y-84802560D01*
X179802235Y-84851843D01*
X179592191Y-84992191D01*
X179451843Y-85202235D01*
X179402560Y-85450000D01*
X179402560Y-87150000D01*
X179451843Y-87397765D01*
X179592191Y-87607809D01*
X179802235Y-87748157D01*
X179847619Y-87757184D01*
X179829375Y-87769375D01*
X179621631Y-88080286D01*
X179401382Y-88124096D01*
X179280299Y-88205001D01*
X178935000Y-88205001D01*
X178935000Y-88135750D01*
X178776250Y-87977000D01*
X177852000Y-87977000D01*
X177852000Y-87997000D01*
X177598000Y-87997000D01*
X177598000Y-87977000D01*
X177578000Y-87977000D01*
X177578000Y-87723000D01*
X177598000Y-87723000D01*
X177598000Y-85727000D01*
X177852000Y-85727000D01*
X177852000Y-87723000D01*
X178776250Y-87723000D01*
X178935000Y-87564250D01*
X178935000Y-87023690D01*
X178838327Y-86790301D01*
X178773026Y-86725000D01*
X178838327Y-86659699D01*
X178935000Y-86426310D01*
X178935000Y-85885750D01*
X178776250Y-85727000D01*
X177852000Y-85727000D01*
X177598000Y-85727000D01*
X177578000Y-85727000D01*
X177578000Y-85473000D01*
X177598000Y-85473000D01*
X177598000Y-84423750D01*
X177852000Y-84423750D01*
X177852000Y-85473000D01*
X178776250Y-85473000D01*
X178935000Y-85314250D01*
X178935000Y-84773690D01*
X178838327Y-84540301D01*
X178659698Y-84361673D01*
X178426309Y-84265000D01*
X178010750Y-84265000D01*
X177852000Y-84423750D01*
X177598000Y-84423750D01*
X177439250Y-84265000D01*
X177023691Y-84265000D01*
X176790302Y-84361673D01*
X176635377Y-84516597D01*
X176634586Y-84515414D01*
X176343436Y-84320873D01*
X176000001Y-84252560D01*
X175349999Y-84252560D01*
X175006564Y-84320873D01*
X174715414Y-84515414D01*
X174520873Y-84806564D01*
X174452560Y-85149999D01*
X174452560Y-86050001D01*
X174520873Y-86393436D01*
X174715414Y-86684586D01*
X174775898Y-86725000D01*
X174715414Y-86765414D01*
X174520873Y-87056564D01*
X174452560Y-87399999D01*
X174452560Y-88300001D01*
X174520873Y-88643436D01*
X174715414Y-88934586D01*
X174813313Y-89000000D01*
X174715414Y-89065414D01*
X174520873Y-89356564D01*
X174514222Y-89390000D01*
X171985000Y-89390000D01*
X171985000Y-88967285D01*
X172048157Y-88872765D01*
X172097440Y-88625000D01*
X172097440Y-87175000D01*
X172048157Y-86927235D01*
X171907809Y-86717191D01*
X171697765Y-86576843D01*
X171450000Y-86527560D01*
X171223483Y-86527560D01*
X171122929Y-86377071D01*
X171059473Y-86334671D01*
X170010000Y-85285199D01*
X170010000Y-85035778D01*
X170043436Y-85029127D01*
X170305797Y-84853822D01*
X170440301Y-84988327D01*
X170673690Y-85085000D01*
X171214250Y-85085000D01*
X171373000Y-84926250D01*
X171373000Y-84002000D01*
X171627000Y-84002000D01*
X171627000Y-84926250D01*
X171785750Y-85085000D01*
X172326310Y-85085000D01*
X172559699Y-84988327D01*
X172738327Y-84809698D01*
X172835000Y-84576309D01*
X172835000Y-84160750D01*
X172676250Y-84002000D01*
X171627000Y-84002000D01*
X171373000Y-84002000D01*
X171353000Y-84002000D01*
X171353000Y-83748000D01*
X171373000Y-83748000D01*
X171373000Y-83728000D01*
X171627000Y-83728000D01*
X171627000Y-83748000D01*
X172676250Y-83748000D01*
X172835000Y-83589250D01*
X172835000Y-83173691D01*
X172738327Y-82940302D01*
X172583403Y-82785377D01*
X172584586Y-82784586D01*
X172779127Y-82493436D01*
X172847440Y-82150001D01*
X172847440Y-81499999D01*
X172779127Y-81156564D01*
X172584586Y-80865414D01*
X172293436Y-80670873D01*
X171950001Y-80602560D01*
X171049999Y-80602560D01*
X170706564Y-80670873D01*
X170415414Y-80865414D01*
X170375000Y-80925898D01*
X170334586Y-80865414D01*
X170043436Y-80670873D01*
X169700001Y-80602560D01*
X168799999Y-80602560D01*
X168456564Y-80670873D01*
X168165414Y-80865414D01*
X168032054Y-81065000D01*
X166746694Y-81065000D01*
X166671847Y-81050112D01*
X166597000Y-81065000D01*
X166596996Y-81065000D01*
X166375311Y-81109096D01*
X166123919Y-81277071D01*
X166081519Y-81340527D01*
X164400531Y-83021516D01*
X164337072Y-83063918D01*
X164169097Y-83315311D01*
X164129376Y-83515000D01*
X164110750Y-83515000D01*
X163952000Y-83673750D01*
X163952000Y-84723000D01*
X163972000Y-84723000D01*
X163972000Y-84977000D01*
X163952000Y-84977000D01*
X163952000Y-86973000D01*
X163972000Y-86973000D01*
X163972000Y-87227000D01*
X163952000Y-87227000D01*
X163952000Y-88276250D01*
X164110750Y-88435000D01*
X164125001Y-88435000D01*
X164125002Y-110090149D01*
X164110113Y-110165001D01*
X164169098Y-110461538D01*
X164214115Y-110528910D01*
X164337073Y-110712930D01*
X164400529Y-110755330D01*
X165636313Y-111991115D01*
X165571888Y-112315001D01*
X165683261Y-112874910D01*
X165847026Y-113120001D01*
X163142976Y-113120001D01*
X163306741Y-112874910D01*
X163418114Y-112315001D01*
X163306741Y-111755092D01*
X162989578Y-111280424D01*
X162514910Y-110963261D01*
X162096334Y-110880001D01*
X161813668Y-110880001D01*
X161395092Y-110963261D01*
X160920424Y-111280424D01*
X160664054Y-111664109D01*
X160567390Y-111459867D01*
X160152424Y-111083960D01*
X159764040Y-110923097D01*
X159542001Y-111045086D01*
X159542001Y-112188001D01*
X159562001Y-112188001D01*
X159562001Y-112442001D01*
X159542001Y-112442001D01*
X159542001Y-112462001D01*
X159288001Y-112462001D01*
X159288001Y-112442001D01*
X157002001Y-112442001D01*
X157002001Y-112462001D01*
X156748001Y-112462001D01*
X156748001Y-112442001D01*
X156728001Y-112442001D01*
X156728001Y-112188001D01*
X156748001Y-112188001D01*
X156748001Y-111045086D01*
X157002001Y-111045086D01*
X157002001Y-112188001D01*
X159288001Y-112188001D01*
X159288001Y-111045086D01*
X159065962Y-110923097D01*
X158677578Y-111083960D01*
X158262612Y-111459867D01*
X158145001Y-111708368D01*
X158027390Y-111459867D01*
X157612424Y-111083960D01*
X157224040Y-110923097D01*
X157002001Y-111045086D01*
X156748001Y-111045086D01*
X156525962Y-110923097D01*
X156137578Y-111083960D01*
X155722612Y-111459867D01*
X155625948Y-111664109D01*
X155369578Y-111280424D01*
X154894910Y-110963261D01*
X154476334Y-110880001D01*
X154193668Y-110880001D01*
X153775092Y-110963261D01*
X153300424Y-111280424D01*
X153065001Y-111632759D01*
X152829578Y-111280424D01*
X152354910Y-110963261D01*
X151936334Y-110880001D01*
X151653668Y-110880001D01*
X151235092Y-110963261D01*
X150760424Y-111280424D01*
X150525001Y-111632759D01*
X150289578Y-111280424D01*
X149814910Y-110963261D01*
X149396334Y-110880001D01*
X149113668Y-110880001D01*
X148695092Y-110963261D01*
X148220424Y-111280424D01*
X147985001Y-111632759D01*
X147749578Y-111280424D01*
X147274910Y-110963261D01*
X146856334Y-110880001D01*
X146573668Y-110880001D01*
X146155092Y-110963261D01*
X145680424Y-111280424D01*
X145599786Y-111401107D01*
X145573158Y-111267236D01*
X145432810Y-111057192D01*
X145222766Y-110916844D01*
X144975001Y-110867561D01*
X143375001Y-110867561D01*
X143127236Y-110916844D01*
X142917192Y-111057192D01*
X142776844Y-111267236D01*
X142727561Y-111515001D01*
X142727561Y-113115001D01*
X142748447Y-113220001D01*
X139851580Y-113220001D01*
X134772426Y-108140848D01*
X134723050Y-108066952D01*
X134430311Y-107871349D01*
X134172166Y-107820001D01*
X134172162Y-107820001D01*
X134085001Y-107802664D01*
X133997840Y-107820001D01*
X120051580Y-107820001D01*
X119170001Y-106938423D01*
X119170001Y-101495431D01*
X150165000Y-101495431D01*
X150165000Y-102384569D01*
X150505259Y-103206026D01*
X151133974Y-103834741D01*
X151955431Y-104175000D01*
X152844569Y-104175000D01*
X153666026Y-103834741D01*
X154294741Y-103206026D01*
X154635000Y-102384569D01*
X154635000Y-101495431D01*
X154294741Y-100673974D01*
X153666026Y-100045259D01*
X152844569Y-99705000D01*
X151955431Y-99705000D01*
X151133974Y-100045259D01*
X150505259Y-100673974D01*
X150165000Y-101495431D01*
X119170001Y-101495431D01*
X119170001Y-90285750D01*
X120515000Y-90285750D01*
X120515000Y-90976310D01*
X120611673Y-91209699D01*
X120790302Y-91388327D01*
X121023691Y-91485000D01*
X121714250Y-91485000D01*
X121873000Y-91326250D01*
X121873000Y-90127000D01*
X122127000Y-90127000D01*
X122127000Y-91326250D01*
X122285750Y-91485000D01*
X122976309Y-91485000D01*
X123209698Y-91388327D01*
X123388327Y-91209699D01*
X123485000Y-90976310D01*
X123485000Y-90285750D01*
X123399250Y-90200000D01*
X160102560Y-90200000D01*
X160102560Y-92200000D01*
X160151843Y-92447765D01*
X160292191Y-92657809D01*
X160502235Y-92798157D01*
X160750000Y-92847440D01*
X160940001Y-92847440D01*
X160940001Y-93686290D01*
X160822569Y-93803722D01*
X160665000Y-94184128D01*
X160665000Y-94595876D01*
X160822569Y-94976282D01*
X161113720Y-95267433D01*
X161494126Y-95425002D01*
X161905874Y-95425002D01*
X162286280Y-95267433D01*
X162577431Y-94976282D01*
X162735000Y-94595876D01*
X162735000Y-94184128D01*
X162577431Y-93803722D01*
X162460000Y-93686291D01*
X162460000Y-92847440D01*
X162650000Y-92847440D01*
X162897765Y-92798157D01*
X163107809Y-92657809D01*
X163248157Y-92447765D01*
X163297440Y-92200000D01*
X163297440Y-90200000D01*
X163248157Y-89952235D01*
X163107809Y-89742191D01*
X162897765Y-89601843D01*
X162650000Y-89552560D01*
X160750000Y-89552560D01*
X160502235Y-89601843D01*
X160292191Y-89742191D01*
X160151843Y-89952235D01*
X160102560Y-90200000D01*
X123399250Y-90200000D01*
X123326250Y-90127000D01*
X122127000Y-90127000D01*
X121873000Y-90127000D01*
X120673750Y-90127000D01*
X120515000Y-90285750D01*
X119170001Y-90285750D01*
X119170001Y-88571579D01*
X119396581Y-88345000D01*
X120805344Y-88345000D01*
X120929375Y-88530625D01*
X120951033Y-88545096D01*
X120790302Y-88611673D01*
X120611673Y-88790301D01*
X120515000Y-89023690D01*
X120515000Y-89714250D01*
X120673750Y-89873000D01*
X121873000Y-89873000D01*
X121873000Y-89853000D01*
X122127000Y-89853000D01*
X122127000Y-89873000D01*
X123326250Y-89873000D01*
X123485000Y-89714250D01*
X123485000Y-89023690D01*
X123388327Y-88790301D01*
X123209698Y-88611673D01*
X123048967Y-88545096D01*
X123070625Y-88530625D01*
X123398839Y-88039418D01*
X123514092Y-87460000D01*
X123499323Y-87385750D01*
X162615000Y-87385750D01*
X162615000Y-87926310D01*
X162711673Y-88159699D01*
X162890302Y-88338327D01*
X163123691Y-88435000D01*
X163539250Y-88435000D01*
X163698000Y-88276250D01*
X163698000Y-87227000D01*
X162773750Y-87227000D01*
X162615000Y-87385750D01*
X123499323Y-87385750D01*
X123398839Y-86880582D01*
X123070625Y-86389375D01*
X122772239Y-86190000D01*
X123070625Y-85990625D01*
X123398839Y-85499418D01*
X123471176Y-85135750D01*
X162615000Y-85135750D01*
X162615000Y-85676310D01*
X162711673Y-85909699D01*
X162776974Y-85975000D01*
X162711673Y-86040301D01*
X162615000Y-86273690D01*
X162615000Y-86814250D01*
X162773750Y-86973000D01*
X163698000Y-86973000D01*
X163698000Y-84977000D01*
X162773750Y-84977000D01*
X162615000Y-85135750D01*
X123471176Y-85135750D01*
X123514092Y-84920000D01*
X123398839Y-84340582D01*
X123187099Y-84023690D01*
X162615000Y-84023690D01*
X162615000Y-84564250D01*
X162773750Y-84723000D01*
X163698000Y-84723000D01*
X163698000Y-83673750D01*
X163539250Y-83515000D01*
X163123691Y-83515000D01*
X162890302Y-83611673D01*
X162711673Y-83790301D01*
X162615000Y-84023690D01*
X123187099Y-84023690D01*
X123070625Y-83849375D01*
X122772239Y-83650000D01*
X123070625Y-83450625D01*
X123398839Y-82959418D01*
X123514092Y-82380000D01*
X123398839Y-81800582D01*
X123070625Y-81309375D01*
X122579418Y-80981161D01*
X122146256Y-80895000D01*
X121853744Y-80895000D01*
X121420582Y-80981161D01*
X120929375Y-81309375D01*
X120601161Y-81800582D01*
X120485908Y-82380000D01*
X120601161Y-82959418D01*
X120929375Y-83450625D01*
X121079052Y-83550636D01*
X121002072Y-83602072D01*
X120834098Y-83853464D01*
X120794870Y-84050676D01*
X120601161Y-84340582D01*
X120485908Y-84920000D01*
X120601161Y-85499418D01*
X120929375Y-85990625D01*
X121227761Y-86190000D01*
X120929375Y-86389375D01*
X120805344Y-86575000D01*
X119117163Y-86575000D01*
X119030002Y-86557663D01*
X118942841Y-86575000D01*
X118942837Y-86575000D01*
X118684692Y-86626348D01*
X118465847Y-86772576D01*
X118465846Y-86772577D01*
X118391953Y-86821951D01*
X118342579Y-86895844D01*
X117720846Y-87517578D01*
X117646953Y-87566952D01*
X117597579Y-87640845D01*
X117597577Y-87640847D01*
X117451349Y-87859692D01*
X117382664Y-88205001D01*
X117400002Y-88292167D01*
X117400001Y-107217840D01*
X117382664Y-107305001D01*
X117400001Y-107392162D01*
X117400001Y-107392165D01*
X117451349Y-107650310D01*
X117646952Y-107943050D01*
X117720848Y-107992426D01*
X118997578Y-109269157D01*
X119046952Y-109343050D01*
X119120845Y-109392424D01*
X119120846Y-109392425D01*
X119323709Y-109527974D01*
X119339691Y-109538653D01*
X119597836Y-109590001D01*
X119597840Y-109590001D01*
X119685001Y-109607338D01*
X119772162Y-109590001D01*
X133718423Y-109590001D01*
X138523422Y-114395001D01*
X131023773Y-114395001D01*
X131471027Y-114209742D01*
X132099742Y-113581027D01*
X132440001Y-112759570D01*
X132440001Y-111870432D01*
X132099742Y-111048975D01*
X131471027Y-110420260D01*
X130649570Y-110080001D01*
X129760432Y-110080001D01*
X128938975Y-110420260D01*
X128310260Y-111048975D01*
X127970001Y-111870432D01*
X127970001Y-112759570D01*
X128310260Y-113581027D01*
X128938975Y-114209742D01*
X129386229Y-114395001D01*
X116695001Y-114395001D01*
X116695001Y-69995431D01*
X150165000Y-69995431D01*
X150165000Y-70884569D01*
X150505259Y-71706026D01*
X151133974Y-72334741D01*
X151955431Y-72675000D01*
X152844569Y-72675000D01*
X153666026Y-72334741D01*
X154294741Y-71706026D01*
X154635000Y-70884569D01*
X154635000Y-69995431D01*
X154294741Y-69173974D01*
X153666026Y-68545259D01*
X152844569Y-68205000D01*
X151955431Y-68205000D01*
X151133974Y-68545259D01*
X150505259Y-69173974D01*
X150165000Y-69995431D01*
X116695001Y-69995431D01*
X116695001Y-62015001D01*
X130559661Y-62015001D01*
X130208975Y-62160260D01*
G36*
X168402560Y-94525000D02*
X168451843Y-94772765D01*
X168592191Y-94982809D01*
X168802235Y-95123157D01*
X169050000Y-95172440D01*
X169165001Y-95172440D01*
X169165000Y-96785380D01*
X169000000Y-96752560D01*
X167100000Y-96752560D01*
X166852235Y-96801843D01*
X166642191Y-96942191D01*
X166501843Y-97152235D01*
X166452560Y-97400000D01*
X166452560Y-99400000D01*
X166501843Y-99647765D01*
X166642191Y-99857809D01*
X166852235Y-99998157D01*
X167100000Y-100047440D01*
X169000000Y-100047440D01*
X169247765Y-99998157D01*
X169457809Y-99857809D01*
X169598157Y-99647765D01*
X169647440Y-99400000D01*
X169647440Y-99048483D01*
X169797929Y-98947929D01*
X169840331Y-98884470D01*
X170409473Y-98315329D01*
X170472929Y-98272929D01*
X170640904Y-98021537D01*
X170685000Y-97799852D01*
X170685000Y-97799848D01*
X170699888Y-97725001D01*
X170685000Y-97650154D01*
X170685000Y-95172440D01*
X170800000Y-95172440D01*
X170870073Y-95158502D01*
X170873690Y-95160000D01*
X170953750Y-95160000D01*
X170976397Y-95137353D01*
X171047765Y-95123157D01*
X171257809Y-94982809D01*
X171337500Y-94863544D01*
X171337500Y-95001250D01*
X171496250Y-95160000D01*
X171576310Y-95160000D01*
X171809699Y-95063327D01*
X171988327Y-94884698D01*
X172085000Y-94651309D01*
X172085000Y-94085750D01*
X171926250Y-93927000D01*
X171447440Y-93927000D01*
X171447440Y-93673000D01*
X171926250Y-93673000D01*
X172085000Y-93514250D01*
X172085000Y-93509999D01*
X174072007Y-93509999D01*
X174521492Y-93959485D01*
X174551433Y-94004295D01*
X174502560Y-94249999D01*
X174502560Y-94847638D01*
X173397639Y-95952560D01*
X172200000Y-95952560D01*
X171952235Y-96001843D01*
X171742191Y-96142191D01*
X171601843Y-96352235D01*
X171552560Y-96600000D01*
X171552560Y-97900000D01*
X171601843Y-98147765D01*
X171742191Y-98357809D01*
X171805334Y-98400000D01*
X171742191Y-98442191D01*
X171601843Y-98652235D01*
X171552560Y-98900000D01*
X171552560Y-100200000D01*
X171601843Y-100447765D01*
X171742191Y-100657809D01*
X171952235Y-100798157D01*
X172200000Y-100847440D01*
X174100000Y-100847440D01*
X174347765Y-100798157D01*
X174557809Y-100657809D01*
X174698157Y-100447765D01*
X174715554Y-100360305D01*
X174865414Y-100584586D01*
X175156564Y-100779127D01*
X175499999Y-100847440D01*
X176150001Y-100847440D01*
X176493436Y-100779127D01*
X176784586Y-100584586D01*
X176850000Y-100486687D01*
X176915414Y-100584586D01*
X176990001Y-100634423D01*
X176990000Y-103802166D01*
X176990001Y-103802171D01*
X176990000Y-107207839D01*
X176972663Y-107295000D01*
X176990000Y-107382161D01*
X176990000Y-107382164D01*
X177041348Y-107640309D01*
X177236951Y-107933049D01*
X177310847Y-107982425D01*
X180290881Y-110962460D01*
X179876334Y-110880001D01*
X179593668Y-110880001D01*
X179175092Y-110963261D01*
X178700424Y-111280424D01*
X178465001Y-111632759D01*
X178229578Y-111280424D01*
X177754910Y-110963261D01*
X177336334Y-110880001D01*
X177053668Y-110880001D01*
X176635092Y-110963261D01*
X176160424Y-111280424D01*
X175925001Y-111632759D01*
X175689578Y-111280424D01*
X175214910Y-110963261D01*
X174796334Y-110880001D01*
X174513668Y-110880001D01*
X174095092Y-110963261D01*
X173620424Y-111280424D01*
X173385001Y-111632759D01*
X173149578Y-111280424D01*
X172674910Y-110963261D01*
X172256334Y-110880001D01*
X171973668Y-110880001D01*
X171555092Y-110963261D01*
X171080424Y-111280424D01*
X170845001Y-111632759D01*
X170609578Y-111280424D01*
X170134910Y-110963261D01*
X169716334Y-110880001D01*
X169433668Y-110880001D01*
X169015092Y-110963261D01*
X168540424Y-111280424D01*
X168305001Y-111632759D01*
X168069578Y-111280424D01*
X167594910Y-110963261D01*
X167176334Y-110880001D01*
X166893668Y-110880001D01*
X166711115Y-110916313D01*
X165645001Y-109850200D01*
X165645001Y-93606664D01*
X165850000Y-93647440D01*
X166040001Y-93647440D01*
X166040001Y-93686290D01*
X165922569Y-93803722D01*
X165765000Y-94184128D01*
X165765000Y-94595876D01*
X165922569Y-94976282D01*
X166213720Y-95267433D01*
X166594126Y-95425002D01*
X167005874Y-95425002D01*
X167386280Y-95267433D01*
X167677431Y-94976282D01*
X167835000Y-94595876D01*
X167835000Y-94184128D01*
X167677431Y-93803722D01*
X167560000Y-93686291D01*
X167560000Y-93647440D01*
X167750000Y-93647440D01*
X167997765Y-93598157D01*
X168207809Y-93457809D01*
X168348157Y-93247765D01*
X168375560Y-93110000D01*
X168402560Y-93110000D01*
X168402560Y-94525000D01*
X168402560Y-94525000D01*
G37*
X168402560Y-94525000D02*
X168451843Y-94772765D01*
X168592191Y-94982809D01*
X168802235Y-95123157D01*
X169050000Y-95172440D01*
X169165001Y-95172440D01*
X169165000Y-96785380D01*
X169000000Y-96752560D01*
X167100000Y-96752560D01*
X166852235Y-96801843D01*
X166642191Y-96942191D01*
X166501843Y-97152235D01*
X166452560Y-97400000D01*
X166452560Y-99400000D01*
X166501843Y-99647765D01*
X166642191Y-99857809D01*
X166852235Y-99998157D01*
X167100000Y-100047440D01*
X169000000Y-100047440D01*
X169247765Y-99998157D01*
X169457809Y-99857809D01*
X169598157Y-99647765D01*
X169647440Y-99400000D01*
X169647440Y-99048483D01*
X169797929Y-98947929D01*
X169840331Y-98884470D01*
X170409473Y-98315329D01*
X170472929Y-98272929D01*
X170640904Y-98021537D01*
X170685000Y-97799852D01*
X170685000Y-97799848D01*
X170699888Y-97725001D01*
X170685000Y-97650154D01*
X170685000Y-95172440D01*
X170800000Y-95172440D01*
X170870073Y-95158502D01*
X170873690Y-95160000D01*
X170953750Y-95160000D01*
X170976397Y-95137353D01*
X171047765Y-95123157D01*
X171257809Y-94982809D01*
X171337500Y-94863544D01*
X171337500Y-95001250D01*
X171496250Y-95160000D01*
X171576310Y-95160000D01*
X171809699Y-95063327D01*
X171988327Y-94884698D01*
X172085000Y-94651309D01*
X172085000Y-94085750D01*
X171926250Y-93927000D01*
X171447440Y-93927000D01*
X171447440Y-93673000D01*
X171926250Y-93673000D01*
X172085000Y-93514250D01*
X172085000Y-93509999D01*
X174072007Y-93509999D01*
X174521492Y-93959485D01*
X174551433Y-94004295D01*
X174502560Y-94249999D01*
X174502560Y-94847638D01*
X173397639Y-95952560D01*
X172200000Y-95952560D01*
X171952235Y-96001843D01*
X171742191Y-96142191D01*
X171601843Y-96352235D01*
X171552560Y-96600000D01*
X171552560Y-97900000D01*
X171601843Y-98147765D01*
X171742191Y-98357809D01*
X171805334Y-98400000D01*
X171742191Y-98442191D01*
X171601843Y-98652235D01*
X171552560Y-98900000D01*
X171552560Y-100200000D01*
X171601843Y-100447765D01*
X171742191Y-100657809D01*
X171952235Y-100798157D01*
X172200000Y-100847440D01*
X174100000Y-100847440D01*
X174347765Y-100798157D01*
X174557809Y-100657809D01*
X174698157Y-100447765D01*
X174715554Y-100360305D01*
X174865414Y-100584586D01*
X175156564Y-100779127D01*
X175499999Y-100847440D01*
X176150001Y-100847440D01*
X176493436Y-100779127D01*
X176784586Y-100584586D01*
X176850000Y-100486687D01*
X176915414Y-100584586D01*
X176990001Y-100634423D01*
X176990000Y-103802166D01*
X176990001Y-103802171D01*
X176990000Y-107207839D01*
X176972663Y-107295000D01*
X176990000Y-107382161D01*
X176990000Y-107382164D01*
X177041348Y-107640309D01*
X177236951Y-107933049D01*
X177310847Y-107982425D01*
X180290881Y-110962460D01*
X179876334Y-110880001D01*
X179593668Y-110880001D01*
X179175092Y-110963261D01*
X178700424Y-111280424D01*
X178465001Y-111632759D01*
X178229578Y-111280424D01*
X177754910Y-110963261D01*
X177336334Y-110880001D01*
X177053668Y-110880001D01*
X176635092Y-110963261D01*
X176160424Y-111280424D01*
X175925001Y-111632759D01*
X175689578Y-111280424D01*
X175214910Y-110963261D01*
X174796334Y-110880001D01*
X174513668Y-110880001D01*
X174095092Y-110963261D01*
X173620424Y-111280424D01*
X173385001Y-111632759D01*
X173149578Y-111280424D01*
X172674910Y-110963261D01*
X172256334Y-110880001D01*
X171973668Y-110880001D01*
X171555092Y-110963261D01*
X171080424Y-111280424D01*
X170845001Y-111632759D01*
X170609578Y-111280424D01*
X170134910Y-110963261D01*
X169716334Y-110880001D01*
X169433668Y-110880001D01*
X169015092Y-110963261D01*
X168540424Y-111280424D01*
X168305001Y-111632759D01*
X168069578Y-111280424D01*
X167594910Y-110963261D01*
X167176334Y-110880001D01*
X166893668Y-110880001D01*
X166711115Y-110916313D01*
X165645001Y-109850200D01*
X165645001Y-93606664D01*
X165850000Y-93647440D01*
X166040001Y-93647440D01*
X166040001Y-93686290D01*
X165922569Y-93803722D01*
X165765000Y-94184128D01*
X165765000Y-94595876D01*
X165922569Y-94976282D01*
X166213720Y-95267433D01*
X166594126Y-95425002D01*
X167005874Y-95425002D01*
X167386280Y-95267433D01*
X167677431Y-94976282D01*
X167835000Y-94595876D01*
X167835000Y-94184128D01*
X167677431Y-93803722D01*
X167560000Y-93686291D01*
X167560000Y-93647440D01*
X167750000Y-93647440D01*
X167997765Y-93598157D01*
X168207809Y-93457809D01*
X168348157Y-93247765D01*
X168375560Y-93110000D01*
X168402560Y-93110000D01*
X168402560Y-94525000D01*
G36*
X183000001Y-97438422D02*
X181823424Y-98615000D01*
X178967946Y-98615000D01*
X178834586Y-98415414D01*
X178543436Y-98220873D01*
X178200001Y-98152560D01*
X177549999Y-98152560D01*
X177206564Y-98220873D01*
X176915414Y-98415414D01*
X176850000Y-98513313D01*
X176784586Y-98415414D01*
X176493436Y-98220873D01*
X176150001Y-98152560D01*
X175499999Y-98152560D01*
X175156564Y-98220873D01*
X174865414Y-98415414D01*
X174700226Y-98662635D01*
X174698157Y-98652235D01*
X174557809Y-98442191D01*
X174494666Y-98400000D01*
X174557809Y-98357809D01*
X174698157Y-98147765D01*
X174747440Y-97900000D01*
X174747440Y-96752361D01*
X175452362Y-96047440D01*
X176050001Y-96047440D01*
X176393436Y-95979127D01*
X176684586Y-95784586D01*
X176685377Y-95783403D01*
X176840302Y-95938327D01*
X177073691Y-96035000D01*
X177489250Y-96035000D01*
X177648000Y-95876250D01*
X177648000Y-94827000D01*
X177902000Y-94827000D01*
X177902000Y-95876250D01*
X178060750Y-96035000D01*
X178476309Y-96035000D01*
X178709698Y-95938327D01*
X178888327Y-95759699D01*
X178985000Y-95526310D01*
X178985000Y-94985750D01*
X178826250Y-94827000D01*
X177902000Y-94827000D01*
X177648000Y-94827000D01*
X177628000Y-94827000D01*
X177628000Y-94573000D01*
X177648000Y-94573000D01*
X177648000Y-93523750D01*
X177598000Y-93473750D01*
X177598000Y-92577000D01*
X177852000Y-92577000D01*
X177852000Y-93626250D01*
X177902000Y-93676250D01*
X177902000Y-94573000D01*
X178826250Y-94573000D01*
X178985000Y-94414250D01*
X178985000Y-94276890D01*
X179458524Y-94276890D01*
X179628355Y-94686924D01*
X180018642Y-95115183D01*
X180543108Y-95361486D01*
X180773000Y-95240819D01*
X180773000Y-94047000D01*
X181027000Y-94047000D01*
X181027000Y-95240819D01*
X181256892Y-95361486D01*
X181781358Y-95115183D01*
X182171645Y-94686924D01*
X182341476Y-94276890D01*
X182220155Y-94047000D01*
X181027000Y-94047000D01*
X180773000Y-94047000D01*
X179579845Y-94047000D01*
X179458524Y-94276890D01*
X178985000Y-94276890D01*
X178985000Y-93873690D01*
X178888327Y-93640301D01*
X178798026Y-93550000D01*
X178838327Y-93509699D01*
X178935000Y-93276310D01*
X178935000Y-92735750D01*
X178776250Y-92577000D01*
X177852000Y-92577000D01*
X177598000Y-92577000D01*
X177578000Y-92577000D01*
X177578000Y-92323000D01*
X177598000Y-92323000D01*
X177598000Y-90277000D01*
X177852000Y-90277000D01*
X177852000Y-92323000D01*
X178776250Y-92323000D01*
X178935000Y-92164250D01*
X178935000Y-91736890D01*
X179458524Y-91736890D01*
X179628355Y-92146924D01*
X180018642Y-92575183D01*
X180177954Y-92650000D01*
X180018642Y-92724817D01*
X179628355Y-93153076D01*
X179458524Y-93563110D01*
X179579845Y-93793000D01*
X180773000Y-93793000D01*
X180773000Y-91507000D01*
X181027000Y-91507000D01*
X181027000Y-93793000D01*
X182220155Y-93793000D01*
X182341476Y-93563110D01*
X182171645Y-93153076D01*
X181781358Y-92724817D01*
X181622046Y-92650000D01*
X181781358Y-92575183D01*
X182171645Y-92146924D01*
X182341476Y-91736890D01*
X182220155Y-91507000D01*
X181027000Y-91507000D01*
X180773000Y-91507000D01*
X179579845Y-91507000D01*
X179458524Y-91736890D01*
X178935000Y-91736890D01*
X178935000Y-91623690D01*
X178838327Y-91390301D01*
X178748025Y-91300000D01*
X178838327Y-91209699D01*
X178935000Y-90976310D01*
X178935000Y-90435750D01*
X178776250Y-90277000D01*
X177852000Y-90277000D01*
X177598000Y-90277000D01*
X177578000Y-90277000D01*
X177578000Y-90023000D01*
X177598000Y-90023000D01*
X177598000Y-90003000D01*
X177852000Y-90003000D01*
X177852000Y-90023000D01*
X178776250Y-90023000D01*
X178935000Y-89864250D01*
X178935000Y-89725001D01*
X179498071Y-89725001D01*
X179572918Y-89739889D01*
X179647765Y-89725001D01*
X179647770Y-89725001D01*
X179698590Y-89714892D01*
X179829375Y-89910625D01*
X180148478Y-90123843D01*
X180018642Y-90184817D01*
X179628355Y-90613076D01*
X179458524Y-91023110D01*
X179579845Y-91253000D01*
X180773000Y-91253000D01*
X180773000Y-91233000D01*
X181027000Y-91233000D01*
X181027000Y-91253000D01*
X182220155Y-91253000D01*
X182341476Y-91023110D01*
X182171645Y-90613076D01*
X181781358Y-90184817D01*
X181651522Y-90123843D01*
X181970625Y-89910625D01*
X182298839Y-89419418D01*
X182414092Y-88840000D01*
X182298839Y-88260582D01*
X181970625Y-87769375D01*
X181952381Y-87757184D01*
X181997765Y-87748157D01*
X182207809Y-87607809D01*
X182348157Y-87397765D01*
X182390478Y-87185000D01*
X183000002Y-87185000D01*
X183000001Y-97438422D01*
X183000001Y-97438422D01*
G37*
X183000001Y-97438422D02*
X181823424Y-98615000D01*
X178967946Y-98615000D01*
X178834586Y-98415414D01*
X178543436Y-98220873D01*
X178200001Y-98152560D01*
X177549999Y-98152560D01*
X177206564Y-98220873D01*
X176915414Y-98415414D01*
X176850000Y-98513313D01*
X176784586Y-98415414D01*
X176493436Y-98220873D01*
X176150001Y-98152560D01*
X175499999Y-98152560D01*
X175156564Y-98220873D01*
X174865414Y-98415414D01*
X174700226Y-98662635D01*
X174698157Y-98652235D01*
X174557809Y-98442191D01*
X174494666Y-98400000D01*
X174557809Y-98357809D01*
X174698157Y-98147765D01*
X174747440Y-97900000D01*
X174747440Y-96752361D01*
X175452362Y-96047440D01*
X176050001Y-96047440D01*
X176393436Y-95979127D01*
X176684586Y-95784586D01*
X176685377Y-95783403D01*
X176840302Y-95938327D01*
X177073691Y-96035000D01*
X177489250Y-96035000D01*
X177648000Y-95876250D01*
X177648000Y-94827000D01*
X177902000Y-94827000D01*
X177902000Y-95876250D01*
X178060750Y-96035000D01*
X178476309Y-96035000D01*
X178709698Y-95938327D01*
X178888327Y-95759699D01*
X178985000Y-95526310D01*
X178985000Y-94985750D01*
X178826250Y-94827000D01*
X177902000Y-94827000D01*
X177648000Y-94827000D01*
X177628000Y-94827000D01*
X177628000Y-94573000D01*
X177648000Y-94573000D01*
X177648000Y-93523750D01*
X177598000Y-93473750D01*
X177598000Y-92577000D01*
X177852000Y-92577000D01*
X177852000Y-93626250D01*
X177902000Y-93676250D01*
X177902000Y-94573000D01*
X178826250Y-94573000D01*
X178985000Y-94414250D01*
X178985000Y-94276890D01*
X179458524Y-94276890D01*
X179628355Y-94686924D01*
X180018642Y-95115183D01*
X180543108Y-95361486D01*
X180773000Y-95240819D01*
X180773000Y-94047000D01*
X181027000Y-94047000D01*
X181027000Y-95240819D01*
X181256892Y-95361486D01*
X181781358Y-95115183D01*
X182171645Y-94686924D01*
X182341476Y-94276890D01*
X182220155Y-94047000D01*
X181027000Y-94047000D01*
X180773000Y-94047000D01*
X179579845Y-94047000D01*
X179458524Y-94276890D01*
X178985000Y-94276890D01*
X178985000Y-93873690D01*
X178888327Y-93640301D01*
X178798026Y-93550000D01*
X178838327Y-93509699D01*
X178935000Y-93276310D01*
X178935000Y-92735750D01*
X178776250Y-92577000D01*
X177852000Y-92577000D01*
X177598000Y-92577000D01*
X177578000Y-92577000D01*
X177578000Y-92323000D01*
X177598000Y-92323000D01*
X177598000Y-90277000D01*
X177852000Y-90277000D01*
X177852000Y-92323000D01*
X178776250Y-92323000D01*
X178935000Y-92164250D01*
X178935000Y-91736890D01*
X179458524Y-91736890D01*
X179628355Y-92146924D01*
X180018642Y-92575183D01*
X180177954Y-92650000D01*
X180018642Y-92724817D01*
X179628355Y-93153076D01*
X179458524Y-93563110D01*
X179579845Y-93793000D01*
X180773000Y-93793000D01*
X180773000Y-91507000D01*
X181027000Y-91507000D01*
X181027000Y-93793000D01*
X182220155Y-93793000D01*
X182341476Y-93563110D01*
X182171645Y-93153076D01*
X181781358Y-92724817D01*
X181622046Y-92650000D01*
X181781358Y-92575183D01*
X182171645Y-92146924D01*
X182341476Y-91736890D01*
X182220155Y-91507000D01*
X181027000Y-91507000D01*
X180773000Y-91507000D01*
X179579845Y-91507000D01*
X179458524Y-91736890D01*
X178935000Y-91736890D01*
X178935000Y-91623690D01*
X178838327Y-91390301D01*
X178748025Y-91300000D01*
X178838327Y-91209699D01*
X178935000Y-90976310D01*
X178935000Y-90435750D01*
X178776250Y-90277000D01*
X177852000Y-90277000D01*
X177598000Y-90277000D01*
X177578000Y-90277000D01*
X177578000Y-90023000D01*
X177598000Y-90023000D01*
X177598000Y-90003000D01*
X177852000Y-90003000D01*
X177852000Y-90023000D01*
X178776250Y-90023000D01*
X178935000Y-89864250D01*
X178935000Y-89725001D01*
X179498071Y-89725001D01*
X179572918Y-89739889D01*
X179647765Y-89725001D01*
X179647770Y-89725001D01*
X179698590Y-89714892D01*
X179829375Y-89910625D01*
X180148478Y-90123843D01*
X180018642Y-90184817D01*
X179628355Y-90613076D01*
X179458524Y-91023110D01*
X179579845Y-91253000D01*
X180773000Y-91253000D01*
X180773000Y-91233000D01*
X181027000Y-91233000D01*
X181027000Y-91253000D01*
X182220155Y-91253000D01*
X182341476Y-91023110D01*
X182171645Y-90613076D01*
X181781358Y-90184817D01*
X181651522Y-90123843D01*
X181970625Y-89910625D01*
X182298839Y-89419418D01*
X182414092Y-88840000D01*
X182298839Y-88260582D01*
X181970625Y-87769375D01*
X181952381Y-87757184D01*
X181997765Y-87748157D01*
X182207809Y-87607809D01*
X182348157Y-87397765D01*
X182390478Y-87185000D01*
X183000002Y-87185000D01*
X183000001Y-97438422D01*
G04 #@! TD*
M02*
