G04 #@! TF.GenerationSoftware,KiCad,Pcbnew,(5.0.0)*
G04 #@! TF.CreationDate,2019-09-08T12:51:47+09:00*
G04 #@! TF.ProjectId,gauss_meter_hw,67617573735F6D657465725F68772E6B,rev?*
G04 #@! TF.SameCoordinates,Original*
G04 #@! TF.FileFunction,Copper,L2,Bot,Signal*
G04 #@! TF.FilePolarity,Positive*
%FSLAX46Y46*%
G04 Gerber Fmt 4.6, Leading zero omitted, Abs format (unit mm)*
G04 Created by KiCad (PCBNEW (5.0.0)) date 09/08/19 12:51:47*
%MOMM*%
%LPD*%
G01*
G04 APERTURE LIST*
G04 #@! TA.AperFunction,ComponentPad*
%ADD10O,1.600000X1.600000*%
G04 #@! TD*
G04 #@! TA.AperFunction,ComponentPad*
%ADD11R,1.600000X1.600000*%
G04 #@! TD*
G04 #@! TA.AperFunction,ComponentPad*
%ADD12R,1.700000X1.700000*%
G04 #@! TD*
G04 #@! TA.AperFunction,ComponentPad*
%ADD13O,1.700000X1.700000*%
G04 #@! TD*
G04 #@! TA.AperFunction,ViaPad*
%ADD14C,0.800000*%
G04 #@! TD*
G04 #@! TA.AperFunction,Conductor*
%ADD15C,0.500000*%
G04 #@! TD*
G04 #@! TA.AperFunction,Conductor*
%ADD16C,0.250000*%
G04 #@! TD*
G04 #@! TA.AperFunction,Conductor*
%ADD17C,0.254000*%
G04 #@! TD*
G04 APERTURE END LIST*
D10*
G04 #@! TO.P,A1,29*
G04 #@! TO.N,GND*
X142655001Y-64055001D03*
G04 #@! TO.P,A1,30*
G04 #@! TO.N,Net-(A1-Pad30)*
X140115001Y-64055001D03*
D11*
G04 #@! TO.P,A1,1*
G04 #@! TO.N,Net-(A1-Pad1)*
X144175001Y-112315001D03*
D10*
G04 #@! TO.P,A1,17*
G04 #@! TO.N,Net-(A1-Pad17)*
X174655001Y-64055001D03*
G04 #@! TO.P,A1,2*
G04 #@! TO.N,Net-(A1-Pad2)*
X146715001Y-112315001D03*
G04 #@! TO.P,A1,18*
G04 #@! TO.N,Net-(A1-Pad18)*
X172115001Y-64055001D03*
G04 #@! TO.P,A1,3*
G04 #@! TO.N,Net-(A1-Pad3)*
X149255001Y-112315001D03*
G04 #@! TO.P,A1,19*
G04 #@! TO.N,Net-(A1-Pad19)*
X169575001Y-64055001D03*
G04 #@! TO.P,A1,4*
G04 #@! TO.N,Net-(A1-Pad4)*
X151795001Y-112315001D03*
G04 #@! TO.P,A1,20*
G04 #@! TO.N,Net-(A1-Pad20)*
X167035001Y-64055001D03*
G04 #@! TO.P,A1,5*
G04 #@! TO.N,+5V*
X154335001Y-112315001D03*
G04 #@! TO.P,A1,21*
G04 #@! TO.N,Net-(A1-Pad21)*
X164495001Y-64055001D03*
G04 #@! TO.P,A1,6*
G04 #@! TO.N,GND*
X156875001Y-112315001D03*
G04 #@! TO.P,A1,22*
G04 #@! TO.N,Net-(A1-Pad22)*
X161955001Y-64055001D03*
G04 #@! TO.P,A1,7*
G04 #@! TO.N,GND*
X159415001Y-112315001D03*
G04 #@! TO.P,A1,23*
G04 #@! TO.N,Net-(A1-Pad23)*
X157895001Y-64055001D03*
G04 #@! TO.P,A1,8*
G04 #@! TO.N,Net-(A1-Pad8)*
X161955001Y-112315001D03*
G04 #@! TO.P,A1,24*
G04 #@! TO.N,Net-(A1-Pad24)*
X155355001Y-64055001D03*
G04 #@! TO.P,A1,9*
G04 #@! TO.N,Net-(A1-Pad9)*
X167035001Y-112315001D03*
G04 #@! TO.P,A1,25*
G04 #@! TO.N,Net-(A1-Pad25)*
X152815001Y-64055001D03*
G04 #@! TO.P,A1,10*
G04 #@! TO.N,Net-(A1-Pad10)*
X169575001Y-112315001D03*
G04 #@! TO.P,A1,26*
G04 #@! TO.N,Net-(A1-Pad26)*
X150275001Y-64055001D03*
G04 #@! TO.P,A1,11*
G04 #@! TO.N,Net-(A1-Pad11)*
X172115001Y-112315001D03*
G04 #@! TO.P,A1,27*
G04 #@! TO.N,Net-(A1-Pad27)*
X147735001Y-64055001D03*
G04 #@! TO.P,A1,12*
G04 #@! TO.N,Net-(A1-Pad12)*
X174655001Y-112315001D03*
G04 #@! TO.P,A1,28*
G04 #@! TO.N,Net-(A1-Pad28)*
X145195001Y-64055001D03*
G04 #@! TO.P,A1,13*
G04 #@! TO.N,Net-(A1-Pad13)*
X177195001Y-112315001D03*
G04 #@! TO.P,A1,14*
G04 #@! TO.N,Net-(A1-Pad14)*
X179735001Y-112315001D03*
G04 #@! TO.P,A1,15*
G04 #@! TO.N,Net-(A1-Pad15)*
X179735001Y-64055001D03*
G04 #@! TO.P,A1,16*
G04 #@! TO.N,Net-(A1-Pad16)*
X177195001Y-64055001D03*
G04 #@! TD*
D12*
G04 #@! TO.P,J1,1*
G04 #@! TO.N,+5V*
X180900000Y-86300000D03*
D13*
G04 #@! TO.P,J1,2*
G04 #@! TO.N,Net-(C1-Pad1)*
X180900000Y-88840000D03*
G04 #@! TO.P,J1,3*
G04 #@! TO.N,GND*
X180900000Y-91380000D03*
G04 #@! TO.P,J1,4*
X180900000Y-93920000D03*
G04 #@! TD*
D12*
G04 #@! TO.P,J2,1*
G04 #@! TO.N,GND*
X122000000Y-90000000D03*
D13*
G04 #@! TO.P,J2,2*
G04 #@! TO.N,+5V*
X122000000Y-87460000D03*
G04 #@! TO.P,J2,3*
G04 #@! TO.N,Net-(A1-Pad14)*
X122000000Y-84920000D03*
G04 #@! TO.P,J2,4*
G04 #@! TO.N,Net-(A1-Pad13)*
X122000000Y-82380000D03*
G04 #@! TD*
D14*
G04 #@! TO.N,GND*
X166485001Y-102305001D03*
X167685001Y-102305001D03*
X168885001Y-102305001D03*
X170085001Y-102305001D03*
X171285001Y-102305001D03*
X172485001Y-102305001D03*
X173685001Y-102305001D03*
X174885001Y-102305001D03*
X176085001Y-102305001D03*
X166485001Y-103405001D03*
X167685001Y-103405001D03*
X168885001Y-103405001D03*
X170085001Y-103405001D03*
X171285001Y-103405001D03*
X172485001Y-103405001D03*
X173685001Y-103405001D03*
X174885001Y-103405001D03*
X176085001Y-103405001D03*
X166485001Y-104505001D03*
X167685001Y-104505001D03*
X168885001Y-104505001D03*
X170085001Y-104505001D03*
X171285001Y-104505001D03*
X172485001Y-104505001D03*
X173685001Y-104505001D03*
X174885001Y-104505001D03*
X176085001Y-104505001D03*
X118285001Y-112205001D03*
X119585001Y-112205001D03*
X120885001Y-112205001D03*
X122185001Y-112205001D03*
X123485001Y-112205001D03*
X124785001Y-112205001D03*
X126085001Y-112205001D03*
X127385001Y-112205001D03*
X127785001Y-65305001D03*
X125385001Y-65305001D03*
X127785001Y-64205001D03*
X122985001Y-64205001D03*
X122985001Y-65305001D03*
X126585001Y-64205001D03*
X121785001Y-65305001D03*
X125385001Y-64205001D03*
X126585001Y-65305001D03*
X118185001Y-65305001D03*
X120585001Y-65305001D03*
X121785001Y-64205001D03*
X119385001Y-65305001D03*
X118185001Y-63105001D03*
X126585001Y-63105001D03*
X119385001Y-63105001D03*
X120585001Y-63105001D03*
X121785001Y-63105001D03*
X122985001Y-63105001D03*
X124185001Y-63105001D03*
X125385001Y-63105001D03*
X124185001Y-65305001D03*
X127785001Y-63105001D03*
X118185001Y-64205001D03*
X119385001Y-64205001D03*
X120585001Y-64205001D03*
X124185001Y-64205001D03*
X157785001Y-75905001D03*
X156685001Y-83005001D03*
X157785001Y-80605001D03*
X157785001Y-79405001D03*
X157785001Y-78305001D03*
X155585001Y-80605001D03*
X155585001Y-78305001D03*
X156685001Y-80605001D03*
X157785001Y-83005001D03*
X157785001Y-81805001D03*
X155585001Y-79405001D03*
X156685001Y-77105001D03*
X155585001Y-75905001D03*
X156685001Y-79405001D03*
X157785001Y-77105001D03*
X155585001Y-77105001D03*
X157785001Y-85405001D03*
X155585001Y-85405001D03*
X157785001Y-84205001D03*
X156685001Y-81805001D03*
X156685001Y-85405001D03*
X156685001Y-84205001D03*
X156685001Y-78305001D03*
X156685001Y-75905001D03*
X155585001Y-84205001D03*
X155585001Y-81805001D03*
X155585001Y-83005001D03*
X159085001Y-76005001D03*
X162685001Y-77105001D03*
X160285001Y-77105001D03*
X166285001Y-77105001D03*
X162685001Y-76005001D03*
X160285001Y-78205001D03*
X168685001Y-77105001D03*
X160285001Y-76005001D03*
X159085001Y-77105001D03*
X161485001Y-76005001D03*
X163885001Y-76005001D03*
X165085001Y-77105001D03*
X163885001Y-78205001D03*
X165085001Y-78205001D03*
X165085001Y-76005001D03*
X159085001Y-78205001D03*
X163885001Y-77105001D03*
X166285001Y-78205001D03*
X166285001Y-76005001D03*
X161485001Y-78205001D03*
X168685001Y-78205001D03*
X162685001Y-78205001D03*
X167485001Y-77105001D03*
X167485001Y-78205001D03*
X168685001Y-76005001D03*
X167485001Y-76005001D03*
X161485001Y-77105001D03*
X169885001Y-76005001D03*
X174685001Y-76005001D03*
X175885001Y-78205001D03*
X177085001Y-76005001D03*
X173485001Y-78205001D03*
X177085001Y-77105001D03*
X179485001Y-77105001D03*
X177085001Y-78205001D03*
X179485001Y-78205001D03*
X178285001Y-78205001D03*
X169885001Y-78205001D03*
X178285001Y-76005001D03*
X172285001Y-77105001D03*
X172285001Y-76005001D03*
X175885001Y-77105001D03*
X174685001Y-77105001D03*
X178285001Y-77105001D03*
X173485001Y-77105001D03*
X171085001Y-76005001D03*
X174685001Y-78205001D03*
X171085001Y-77105001D03*
X171085001Y-78205001D03*
X175885001Y-76005001D03*
X172285001Y-78205001D03*
X179485001Y-76005001D03*
X169885001Y-77105001D03*
X173485001Y-76005001D03*
X155585001Y-96105001D03*
X156685001Y-92505001D03*
X156685001Y-94905001D03*
X156685001Y-88905001D03*
X155585001Y-92505001D03*
X157785001Y-94905001D03*
X156685001Y-86505001D03*
X155585001Y-94905001D03*
X156685001Y-96105001D03*
X155585001Y-93705001D03*
X155585001Y-91305001D03*
X156685001Y-90105001D03*
X157785001Y-91305001D03*
X157785001Y-90105001D03*
X155585001Y-90105001D03*
X157785001Y-96105001D03*
X156685001Y-91305001D03*
X157785001Y-88905001D03*
X155585001Y-88905001D03*
X157785001Y-93705001D03*
X157785001Y-86505001D03*
X157785001Y-92505001D03*
X156685001Y-87705001D03*
X157785001Y-87705001D03*
X155585001Y-86505001D03*
X155585001Y-87705001D03*
X156685001Y-93705001D03*
X156685001Y-102105001D03*
X157785001Y-102105001D03*
X156685001Y-98505001D03*
X157785001Y-104505001D03*
X156685001Y-100905001D03*
X155585001Y-104505001D03*
X156685001Y-104505001D03*
X156685001Y-99705001D03*
X155585001Y-102105001D03*
X155585001Y-100905001D03*
X157785001Y-98505001D03*
X156685001Y-97305001D03*
X157785001Y-97305001D03*
X155585001Y-103305001D03*
X155585001Y-97305001D03*
X156685001Y-103305001D03*
X157785001Y-99705001D03*
X157785001Y-100905001D03*
X155585001Y-99705001D03*
X157785001Y-103305001D03*
X155585001Y-98505001D03*
X160085001Y-103305001D03*
X160085001Y-102105001D03*
X160085001Y-104505001D03*
X158985001Y-104505001D03*
X158985001Y-103305001D03*
X158985001Y-102105001D03*
X161185001Y-102105001D03*
X161185001Y-104505001D03*
X162285001Y-104505001D03*
X161185001Y-103305001D03*
X162285001Y-103305001D03*
X162285001Y-102105001D03*
X163385001Y-104505001D03*
X163385001Y-102105001D03*
X163385001Y-103305001D03*
G04 #@! TO.N,+5V*
X166985001Y-83705001D03*
G04 #@! TO.N,Net-(RV2-Pad1)*
X161700000Y-94390002D03*
X166800000Y-94390002D03*
G04 #@! TD*
D15*
G04 #@! TO.N,+5V*
X167385000Y-83305002D02*
X179485002Y-83305002D01*
X166985001Y-83705001D02*
X167385000Y-83305002D01*
X180900000Y-84720000D02*
X180900000Y-86300000D01*
X179485002Y-83305002D02*
X180900000Y-84720000D01*
D16*
G04 #@! TO.N,Net-(A1-Pad13)*
X177195001Y-112315001D02*
X174085001Y-109205001D01*
X174085001Y-109205001D02*
X120585001Y-109205001D01*
X120585001Y-109205001D02*
X118385001Y-107005001D01*
X118385001Y-107005001D02*
X118385001Y-84305001D01*
X120310002Y-82380000D02*
X122000000Y-82380000D01*
X118385001Y-84305001D02*
X120310002Y-82380000D01*
G04 #@! TO.N,Net-(A1-Pad14)*
X118985001Y-87934999D02*
X122000000Y-84920000D01*
X118985001Y-106805001D02*
X118985001Y-87934999D01*
X120885001Y-108705001D02*
X118985001Y-106805001D01*
X179735001Y-112315001D02*
X176125001Y-108705001D01*
X176125001Y-108705001D02*
X120885001Y-108705001D01*
G04 #@! TO.N,Net-(RV2-Pad1)*
X166400001Y-94790001D02*
X166800000Y-94390002D01*
X162099999Y-94790001D02*
X166400001Y-94790001D01*
X161700000Y-94390002D02*
X162099999Y-94790001D01*
G04 #@! TD*
D17*
G04 #@! TO.N,GND*
G36*
X130208975Y-62160260D02*
X129580260Y-62788975D01*
X129240001Y-63610432D01*
X129240001Y-64499570D01*
X129580260Y-65321027D01*
X130208975Y-65949742D01*
X131030432Y-66290001D01*
X131919570Y-66290001D01*
X132741027Y-65949742D01*
X133369742Y-65321027D01*
X133710001Y-64499570D01*
X133710001Y-64055001D01*
X138651888Y-64055001D01*
X138763261Y-64614910D01*
X139080424Y-65089578D01*
X139555092Y-65406741D01*
X139973668Y-65490001D01*
X140256334Y-65490001D01*
X140674910Y-65406741D01*
X141149578Y-65089578D01*
X141405948Y-64705893D01*
X141502612Y-64910135D01*
X141917578Y-65286042D01*
X142305962Y-65446905D01*
X142528001Y-65324916D01*
X142528001Y-64182001D01*
X142508001Y-64182001D01*
X142508001Y-63928001D01*
X142528001Y-63928001D01*
X142528001Y-62785086D01*
X142782001Y-62785086D01*
X142782001Y-63928001D01*
X142802001Y-63928001D01*
X142802001Y-64182001D01*
X142782001Y-64182001D01*
X142782001Y-65324916D01*
X143004040Y-65446905D01*
X143392424Y-65286042D01*
X143807390Y-64910135D01*
X143904054Y-64705893D01*
X144160424Y-65089578D01*
X144635092Y-65406741D01*
X145053668Y-65490001D01*
X145336334Y-65490001D01*
X145754910Y-65406741D01*
X146229578Y-65089578D01*
X146465001Y-64737243D01*
X146700424Y-65089578D01*
X147175092Y-65406741D01*
X147593668Y-65490001D01*
X147876334Y-65490001D01*
X148294910Y-65406741D01*
X148769578Y-65089578D01*
X149005001Y-64737243D01*
X149240424Y-65089578D01*
X149715092Y-65406741D01*
X150133668Y-65490001D01*
X150416334Y-65490001D01*
X150834910Y-65406741D01*
X151309578Y-65089578D01*
X151545001Y-64737243D01*
X151780424Y-65089578D01*
X152255092Y-65406741D01*
X152673668Y-65490001D01*
X152956334Y-65490001D01*
X153374910Y-65406741D01*
X153849578Y-65089578D01*
X154085001Y-64737243D01*
X154320424Y-65089578D01*
X154795092Y-65406741D01*
X155213668Y-65490001D01*
X155496334Y-65490001D01*
X155914910Y-65406741D01*
X156389578Y-65089578D01*
X156625001Y-64737243D01*
X156860424Y-65089578D01*
X157335092Y-65406741D01*
X157753668Y-65490001D01*
X158036334Y-65490001D01*
X158454910Y-65406741D01*
X158929578Y-65089578D01*
X159246741Y-64614910D01*
X159358114Y-64055001D01*
X160491888Y-64055001D01*
X160603261Y-64614910D01*
X160920424Y-65089578D01*
X161395092Y-65406741D01*
X161813668Y-65490001D01*
X162096334Y-65490001D01*
X162514910Y-65406741D01*
X162989578Y-65089578D01*
X163225001Y-64737243D01*
X163460424Y-65089578D01*
X163935092Y-65406741D01*
X164353668Y-65490001D01*
X164636334Y-65490001D01*
X165054910Y-65406741D01*
X165529578Y-65089578D01*
X165765001Y-64737243D01*
X166000424Y-65089578D01*
X166475092Y-65406741D01*
X166893668Y-65490001D01*
X167176334Y-65490001D01*
X167594910Y-65406741D01*
X168069578Y-65089578D01*
X168305001Y-64737243D01*
X168540424Y-65089578D01*
X169015092Y-65406741D01*
X169433668Y-65490001D01*
X169716334Y-65490001D01*
X170134910Y-65406741D01*
X170609578Y-65089578D01*
X170845001Y-64737243D01*
X171080424Y-65089578D01*
X171555092Y-65406741D01*
X171973668Y-65490001D01*
X172256334Y-65490001D01*
X172674910Y-65406741D01*
X173149578Y-65089578D01*
X173385001Y-64737243D01*
X173620424Y-65089578D01*
X174095092Y-65406741D01*
X174513668Y-65490001D01*
X174796334Y-65490001D01*
X175214910Y-65406741D01*
X175689578Y-65089578D01*
X175925001Y-64737243D01*
X176160424Y-65089578D01*
X176635092Y-65406741D01*
X177053668Y-65490001D01*
X177336334Y-65490001D01*
X177754910Y-65406741D01*
X178229578Y-65089578D01*
X178465001Y-64737243D01*
X178700424Y-65089578D01*
X179175092Y-65406741D01*
X179593668Y-65490001D01*
X179876334Y-65490001D01*
X180294910Y-65406741D01*
X180769578Y-65089578D01*
X181086741Y-64614910D01*
X181198114Y-64055001D01*
X181086741Y-63495092D01*
X180769578Y-63020424D01*
X180294910Y-62703261D01*
X179876334Y-62620001D01*
X179593668Y-62620001D01*
X179175092Y-62703261D01*
X178700424Y-63020424D01*
X178465001Y-63372759D01*
X178229578Y-63020424D01*
X177754910Y-62703261D01*
X177336334Y-62620001D01*
X177053668Y-62620001D01*
X176635092Y-62703261D01*
X176160424Y-63020424D01*
X175925001Y-63372759D01*
X175689578Y-63020424D01*
X175214910Y-62703261D01*
X174796334Y-62620001D01*
X174513668Y-62620001D01*
X174095092Y-62703261D01*
X173620424Y-63020424D01*
X173385001Y-63372759D01*
X173149578Y-63020424D01*
X172674910Y-62703261D01*
X172256334Y-62620001D01*
X171973668Y-62620001D01*
X171555092Y-62703261D01*
X171080424Y-63020424D01*
X170845001Y-63372759D01*
X170609578Y-63020424D01*
X170134910Y-62703261D01*
X169716334Y-62620001D01*
X169433668Y-62620001D01*
X169015092Y-62703261D01*
X168540424Y-63020424D01*
X168305001Y-63372759D01*
X168069578Y-63020424D01*
X167594910Y-62703261D01*
X167176334Y-62620001D01*
X166893668Y-62620001D01*
X166475092Y-62703261D01*
X166000424Y-63020424D01*
X165765001Y-63372759D01*
X165529578Y-63020424D01*
X165054910Y-62703261D01*
X164636334Y-62620001D01*
X164353668Y-62620001D01*
X163935092Y-62703261D01*
X163460424Y-63020424D01*
X163225001Y-63372759D01*
X162989578Y-63020424D01*
X162514910Y-62703261D01*
X162096334Y-62620001D01*
X161813668Y-62620001D01*
X161395092Y-62703261D01*
X160920424Y-63020424D01*
X160603261Y-63495092D01*
X160491888Y-64055001D01*
X159358114Y-64055001D01*
X159246741Y-63495092D01*
X158929578Y-63020424D01*
X158454910Y-62703261D01*
X158036334Y-62620001D01*
X157753668Y-62620001D01*
X157335092Y-62703261D01*
X156860424Y-63020424D01*
X156625001Y-63372759D01*
X156389578Y-63020424D01*
X155914910Y-62703261D01*
X155496334Y-62620001D01*
X155213668Y-62620001D01*
X154795092Y-62703261D01*
X154320424Y-63020424D01*
X154085001Y-63372759D01*
X153849578Y-63020424D01*
X153374910Y-62703261D01*
X152956334Y-62620001D01*
X152673668Y-62620001D01*
X152255092Y-62703261D01*
X151780424Y-63020424D01*
X151545001Y-63372759D01*
X151309578Y-63020424D01*
X150834910Y-62703261D01*
X150416334Y-62620001D01*
X150133668Y-62620001D01*
X149715092Y-62703261D01*
X149240424Y-63020424D01*
X149005001Y-63372759D01*
X148769578Y-63020424D01*
X148294910Y-62703261D01*
X147876334Y-62620001D01*
X147593668Y-62620001D01*
X147175092Y-62703261D01*
X146700424Y-63020424D01*
X146465001Y-63372759D01*
X146229578Y-63020424D01*
X145754910Y-62703261D01*
X145336334Y-62620001D01*
X145053668Y-62620001D01*
X144635092Y-62703261D01*
X144160424Y-63020424D01*
X143904054Y-63404109D01*
X143807390Y-63199867D01*
X143392424Y-62823960D01*
X143004040Y-62663097D01*
X142782001Y-62785086D01*
X142528001Y-62785086D01*
X142305962Y-62663097D01*
X141917578Y-62823960D01*
X141502612Y-63199867D01*
X141405948Y-63404109D01*
X141149578Y-63020424D01*
X140674910Y-62703261D01*
X140256334Y-62620001D01*
X139973668Y-62620001D01*
X139555092Y-62703261D01*
X139080424Y-63020424D01*
X138763261Y-63495092D01*
X138651888Y-64055001D01*
X133710001Y-64055001D01*
X133710001Y-63610432D01*
X133369742Y-62788975D01*
X132741027Y-62160260D01*
X132390341Y-62015001D01*
X180490911Y-62015001D01*
X181775001Y-63299092D01*
X181775002Y-74335072D01*
X181761092Y-74405001D01*
X181816197Y-74682029D01*
X181973121Y-74916882D01*
X182032403Y-74956493D01*
X184375001Y-77299092D01*
X184375001Y-78524514D01*
X184169742Y-78028975D01*
X183541027Y-77400260D01*
X182719570Y-77060001D01*
X181830432Y-77060001D01*
X181008975Y-77400260D01*
X180380260Y-78028975D01*
X180040001Y-78850432D01*
X180040001Y-79739570D01*
X180380260Y-80561027D01*
X181008975Y-81189742D01*
X181830432Y-81530001D01*
X182719570Y-81530001D01*
X183541027Y-81189742D01*
X184169742Y-80561027D01*
X184375001Y-80065488D01*
X184375002Y-106464516D01*
X184169742Y-105968975D01*
X183541027Y-105340260D01*
X182719570Y-105000001D01*
X181830432Y-105000001D01*
X181008975Y-105340260D01*
X180380260Y-105968975D01*
X180040001Y-106790432D01*
X180040001Y-107679570D01*
X180380260Y-108501027D01*
X181008975Y-109129742D01*
X181830432Y-109470001D01*
X182719570Y-109470001D01*
X183541027Y-109129742D01*
X184169742Y-108501027D01*
X184375002Y-108005486D01*
X184375002Y-109510909D01*
X182032403Y-111853509D01*
X181973120Y-111893121D01*
X181816196Y-112127974D01*
X181778994Y-112315001D01*
X181761092Y-112405001D01*
X181775001Y-112474926D01*
X181775002Y-114395001D01*
X131023773Y-114395001D01*
X131471027Y-114209742D01*
X132099742Y-113581027D01*
X132440001Y-112759570D01*
X132440001Y-111870432D01*
X132292777Y-111515001D01*
X142727561Y-111515001D01*
X142727561Y-113115001D01*
X142776844Y-113362766D01*
X142917192Y-113572810D01*
X143127236Y-113713158D01*
X143375001Y-113762441D01*
X144975001Y-113762441D01*
X145222766Y-113713158D01*
X145432810Y-113572810D01*
X145573158Y-113362766D01*
X145599786Y-113228895D01*
X145680424Y-113349578D01*
X146155092Y-113666741D01*
X146573668Y-113750001D01*
X146856334Y-113750001D01*
X147274910Y-113666741D01*
X147749578Y-113349578D01*
X147985001Y-112997243D01*
X148220424Y-113349578D01*
X148695092Y-113666741D01*
X149113668Y-113750001D01*
X149396334Y-113750001D01*
X149814910Y-113666741D01*
X150289578Y-113349578D01*
X150525001Y-112997243D01*
X150760424Y-113349578D01*
X151235092Y-113666741D01*
X151653668Y-113750001D01*
X151936334Y-113750001D01*
X152354910Y-113666741D01*
X152829578Y-113349578D01*
X153065001Y-112997243D01*
X153300424Y-113349578D01*
X153775092Y-113666741D01*
X154193668Y-113750001D01*
X154476334Y-113750001D01*
X154894910Y-113666741D01*
X155369578Y-113349578D01*
X155625948Y-112965893D01*
X155722612Y-113170135D01*
X156137578Y-113546042D01*
X156525962Y-113706905D01*
X156748001Y-113584916D01*
X156748001Y-112442001D01*
X157002001Y-112442001D01*
X157002001Y-113584916D01*
X157224040Y-113706905D01*
X157612424Y-113546042D01*
X158027390Y-113170135D01*
X158145001Y-112921634D01*
X158262612Y-113170135D01*
X158677578Y-113546042D01*
X159065962Y-113706905D01*
X159288001Y-113584916D01*
X159288001Y-112442001D01*
X157002001Y-112442001D01*
X156748001Y-112442001D01*
X156728001Y-112442001D01*
X156728001Y-112188001D01*
X156748001Y-112188001D01*
X156748001Y-111045086D01*
X157002001Y-111045086D01*
X157002001Y-112188001D01*
X159288001Y-112188001D01*
X159288001Y-111045086D01*
X159542001Y-111045086D01*
X159542001Y-112188001D01*
X159562001Y-112188001D01*
X159562001Y-112442001D01*
X159542001Y-112442001D01*
X159542001Y-113584916D01*
X159764040Y-113706905D01*
X160152424Y-113546042D01*
X160567390Y-113170135D01*
X160664054Y-112965893D01*
X160920424Y-113349578D01*
X161395092Y-113666741D01*
X161813668Y-113750001D01*
X162096334Y-113750001D01*
X162514910Y-113666741D01*
X162989578Y-113349578D01*
X163306741Y-112874910D01*
X163418114Y-112315001D01*
X163306741Y-111755092D01*
X162989578Y-111280424D01*
X162514910Y-110963261D01*
X162096334Y-110880001D01*
X161813668Y-110880001D01*
X161395092Y-110963261D01*
X160920424Y-111280424D01*
X160664054Y-111664109D01*
X160567390Y-111459867D01*
X160152424Y-111083960D01*
X159764040Y-110923097D01*
X159542001Y-111045086D01*
X159288001Y-111045086D01*
X159065962Y-110923097D01*
X158677578Y-111083960D01*
X158262612Y-111459867D01*
X158145001Y-111708368D01*
X158027390Y-111459867D01*
X157612424Y-111083960D01*
X157224040Y-110923097D01*
X157002001Y-111045086D01*
X156748001Y-111045086D01*
X156525962Y-110923097D01*
X156137578Y-111083960D01*
X155722612Y-111459867D01*
X155625948Y-111664109D01*
X155369578Y-111280424D01*
X154894910Y-110963261D01*
X154476334Y-110880001D01*
X154193668Y-110880001D01*
X153775092Y-110963261D01*
X153300424Y-111280424D01*
X153065001Y-111632759D01*
X152829578Y-111280424D01*
X152354910Y-110963261D01*
X151936334Y-110880001D01*
X151653668Y-110880001D01*
X151235092Y-110963261D01*
X150760424Y-111280424D01*
X150525001Y-111632759D01*
X150289578Y-111280424D01*
X149814910Y-110963261D01*
X149396334Y-110880001D01*
X149113668Y-110880001D01*
X148695092Y-110963261D01*
X148220424Y-111280424D01*
X147985001Y-111632759D01*
X147749578Y-111280424D01*
X147274910Y-110963261D01*
X146856334Y-110880001D01*
X146573668Y-110880001D01*
X146155092Y-110963261D01*
X145680424Y-111280424D01*
X145599786Y-111401107D01*
X145573158Y-111267236D01*
X145432810Y-111057192D01*
X145222766Y-110916844D01*
X144975001Y-110867561D01*
X143375001Y-110867561D01*
X143127236Y-110916844D01*
X142917192Y-111057192D01*
X142776844Y-111267236D01*
X142727561Y-111515001D01*
X132292777Y-111515001D01*
X132099742Y-111048975D01*
X131471027Y-110420260D01*
X130649570Y-110080001D01*
X129760432Y-110080001D01*
X128938975Y-110420260D01*
X128310260Y-111048975D01*
X127970001Y-111870432D01*
X127970001Y-112759570D01*
X128310260Y-113581027D01*
X128938975Y-114209742D01*
X129386229Y-114395001D01*
X116695001Y-114395001D01*
X116695001Y-84305001D01*
X117610113Y-84305001D01*
X117625002Y-84379853D01*
X117625001Y-106930154D01*
X117610113Y-107005001D01*
X117625001Y-107079848D01*
X117625001Y-107079852D01*
X117669097Y-107301537D01*
X117837072Y-107552930D01*
X117900531Y-107595332D01*
X119994671Y-109689473D01*
X120037072Y-109752930D01*
X120100528Y-109795330D01*
X120288463Y-109920905D01*
X120336606Y-109930481D01*
X120510149Y-109965001D01*
X120510153Y-109965001D01*
X120585001Y-109979889D01*
X120659849Y-109965001D01*
X173770200Y-109965001D01*
X174685200Y-110880001D01*
X174513668Y-110880001D01*
X174095092Y-110963261D01*
X173620424Y-111280424D01*
X173385001Y-111632759D01*
X173149578Y-111280424D01*
X172674910Y-110963261D01*
X172256334Y-110880001D01*
X171973668Y-110880001D01*
X171555092Y-110963261D01*
X171080424Y-111280424D01*
X170845001Y-111632759D01*
X170609578Y-111280424D01*
X170134910Y-110963261D01*
X169716334Y-110880001D01*
X169433668Y-110880001D01*
X169015092Y-110963261D01*
X168540424Y-111280424D01*
X168305001Y-111632759D01*
X168069578Y-111280424D01*
X167594910Y-110963261D01*
X167176334Y-110880001D01*
X166893668Y-110880001D01*
X166475092Y-110963261D01*
X166000424Y-111280424D01*
X165683261Y-111755092D01*
X165571888Y-112315001D01*
X165683261Y-112874910D01*
X166000424Y-113349578D01*
X166475092Y-113666741D01*
X166893668Y-113750001D01*
X167176334Y-113750001D01*
X167594910Y-113666741D01*
X168069578Y-113349578D01*
X168305001Y-112997243D01*
X168540424Y-113349578D01*
X169015092Y-113666741D01*
X169433668Y-113750001D01*
X169716334Y-113750001D01*
X170134910Y-113666741D01*
X170609578Y-113349578D01*
X170845001Y-112997243D01*
X171080424Y-113349578D01*
X171555092Y-113666741D01*
X171973668Y-113750001D01*
X172256334Y-113750001D01*
X172674910Y-113666741D01*
X173149578Y-113349578D01*
X173385001Y-112997243D01*
X173620424Y-113349578D01*
X174095092Y-113666741D01*
X174513668Y-113750001D01*
X174796334Y-113750001D01*
X175214910Y-113666741D01*
X175689578Y-113349578D01*
X175925001Y-112997243D01*
X176160424Y-113349578D01*
X176635092Y-113666741D01*
X177053668Y-113750001D01*
X177336334Y-113750001D01*
X177754910Y-113666741D01*
X178229578Y-113349578D01*
X178465001Y-112997243D01*
X178700424Y-113349578D01*
X179175092Y-113666741D01*
X179593668Y-113750001D01*
X179876334Y-113750001D01*
X180294910Y-113666741D01*
X180769578Y-113349578D01*
X181086741Y-112874910D01*
X181198114Y-112315001D01*
X181086741Y-111755092D01*
X180769578Y-111280424D01*
X180294910Y-110963261D01*
X179876334Y-110880001D01*
X179593668Y-110880001D01*
X179411115Y-110916313D01*
X176715332Y-108220531D01*
X176672930Y-108157072D01*
X176421538Y-107989097D01*
X176199853Y-107945001D01*
X176199848Y-107945001D01*
X176125001Y-107930113D01*
X176050154Y-107945001D01*
X121199803Y-107945001D01*
X119745001Y-106490200D01*
X119745001Y-101495431D01*
X150165000Y-101495431D01*
X150165000Y-102384569D01*
X150505259Y-103206026D01*
X151133974Y-103834741D01*
X151955431Y-104175000D01*
X152844569Y-104175000D01*
X153666026Y-103834741D01*
X154294741Y-103206026D01*
X154635000Y-102384569D01*
X154635000Y-101495431D01*
X154294741Y-100673974D01*
X153666026Y-100045259D01*
X152844569Y-99705000D01*
X151955431Y-99705000D01*
X151133974Y-100045259D01*
X150505259Y-100673974D01*
X150165000Y-101495431D01*
X119745001Y-101495431D01*
X119745001Y-94184128D01*
X160665000Y-94184128D01*
X160665000Y-94595876D01*
X160822569Y-94976282D01*
X161113720Y-95267433D01*
X161494126Y-95425002D01*
X161682382Y-95425002D01*
X161803462Y-95505905D01*
X162025147Y-95550001D01*
X162025151Y-95550001D01*
X162099998Y-95564889D01*
X162174845Y-95550001D01*
X166325154Y-95550001D01*
X166400001Y-95564889D01*
X166474848Y-95550001D01*
X166474853Y-95550001D01*
X166696538Y-95505905D01*
X166817618Y-95425002D01*
X167005874Y-95425002D01*
X167386280Y-95267433D01*
X167677431Y-94976282D01*
X167835000Y-94595876D01*
X167835000Y-94276890D01*
X179458524Y-94276890D01*
X179628355Y-94686924D01*
X180018642Y-95115183D01*
X180543108Y-95361486D01*
X180773000Y-95240819D01*
X180773000Y-94047000D01*
X181027000Y-94047000D01*
X181027000Y-95240819D01*
X181256892Y-95361486D01*
X181781358Y-95115183D01*
X182171645Y-94686924D01*
X182341476Y-94276890D01*
X182220155Y-94047000D01*
X181027000Y-94047000D01*
X180773000Y-94047000D01*
X179579845Y-94047000D01*
X179458524Y-94276890D01*
X167835000Y-94276890D01*
X167835000Y-94184128D01*
X167677431Y-93803722D01*
X167386280Y-93512571D01*
X167005874Y-93355002D01*
X166594126Y-93355002D01*
X166213720Y-93512571D01*
X165922569Y-93803722D01*
X165828841Y-94030001D01*
X162671159Y-94030001D01*
X162577431Y-93803722D01*
X162286280Y-93512571D01*
X161905874Y-93355002D01*
X161494126Y-93355002D01*
X161113720Y-93512571D01*
X160822569Y-93803722D01*
X160665000Y-94184128D01*
X119745001Y-94184128D01*
X119745001Y-91736890D01*
X179458524Y-91736890D01*
X179628355Y-92146924D01*
X180018642Y-92575183D01*
X180177954Y-92650000D01*
X180018642Y-92724817D01*
X179628355Y-93153076D01*
X179458524Y-93563110D01*
X179579845Y-93793000D01*
X180773000Y-93793000D01*
X180773000Y-91507000D01*
X181027000Y-91507000D01*
X181027000Y-93793000D01*
X182220155Y-93793000D01*
X182341476Y-93563110D01*
X182171645Y-93153076D01*
X181781358Y-92724817D01*
X181622046Y-92650000D01*
X181781358Y-92575183D01*
X182171645Y-92146924D01*
X182341476Y-91736890D01*
X182220155Y-91507000D01*
X181027000Y-91507000D01*
X180773000Y-91507000D01*
X179579845Y-91507000D01*
X179458524Y-91736890D01*
X119745001Y-91736890D01*
X119745001Y-90285750D01*
X120515000Y-90285750D01*
X120515000Y-90976310D01*
X120611673Y-91209699D01*
X120790302Y-91388327D01*
X121023691Y-91485000D01*
X121714250Y-91485000D01*
X121873000Y-91326250D01*
X121873000Y-90127000D01*
X122127000Y-90127000D01*
X122127000Y-91326250D01*
X122285750Y-91485000D01*
X122976309Y-91485000D01*
X123209698Y-91388327D01*
X123388327Y-91209699D01*
X123485000Y-90976310D01*
X123485000Y-90285750D01*
X123326250Y-90127000D01*
X122127000Y-90127000D01*
X121873000Y-90127000D01*
X120673750Y-90127000D01*
X120515000Y-90285750D01*
X119745001Y-90285750D01*
X119745001Y-88249800D01*
X120494020Y-87500782D01*
X120601161Y-88039418D01*
X120929375Y-88530625D01*
X120951033Y-88545096D01*
X120790302Y-88611673D01*
X120611673Y-88790301D01*
X120515000Y-89023690D01*
X120515000Y-89714250D01*
X120673750Y-89873000D01*
X121873000Y-89873000D01*
X121873000Y-89853000D01*
X122127000Y-89853000D01*
X122127000Y-89873000D01*
X123326250Y-89873000D01*
X123485000Y-89714250D01*
X123485000Y-89023690D01*
X123388327Y-88790301D01*
X123209698Y-88611673D01*
X123048967Y-88545096D01*
X123070625Y-88530625D01*
X123398839Y-88039418D01*
X123514092Y-87460000D01*
X123398839Y-86880582D01*
X123070625Y-86389375D01*
X122772239Y-86190000D01*
X123070625Y-85990625D01*
X123398839Y-85499418D01*
X123514092Y-84920000D01*
X123398839Y-84340582D01*
X123070625Y-83849375D01*
X122772239Y-83650000D01*
X122998036Y-83499127D01*
X165950001Y-83499127D01*
X165950001Y-83910875D01*
X166107570Y-84291281D01*
X166398721Y-84582432D01*
X166779127Y-84740001D01*
X167190875Y-84740001D01*
X167571281Y-84582432D01*
X167862432Y-84291281D01*
X167904383Y-84190002D01*
X179118424Y-84190002D01*
X179789065Y-84860643D01*
X179592191Y-84992191D01*
X179451843Y-85202235D01*
X179402560Y-85450000D01*
X179402560Y-87150000D01*
X179451843Y-87397765D01*
X179592191Y-87607809D01*
X179802235Y-87748157D01*
X179847619Y-87757184D01*
X179829375Y-87769375D01*
X179501161Y-88260582D01*
X179385908Y-88840000D01*
X179501161Y-89419418D01*
X179829375Y-89910625D01*
X180148478Y-90123843D01*
X180018642Y-90184817D01*
X179628355Y-90613076D01*
X179458524Y-91023110D01*
X179579845Y-91253000D01*
X180773000Y-91253000D01*
X180773000Y-91233000D01*
X181027000Y-91233000D01*
X181027000Y-91253000D01*
X182220155Y-91253000D01*
X182341476Y-91023110D01*
X182171645Y-90613076D01*
X181781358Y-90184817D01*
X181651522Y-90123843D01*
X181970625Y-89910625D01*
X182298839Y-89419418D01*
X182414092Y-88840000D01*
X182298839Y-88260582D01*
X181970625Y-87769375D01*
X181952381Y-87757184D01*
X181997765Y-87748157D01*
X182207809Y-87607809D01*
X182348157Y-87397765D01*
X182397440Y-87150000D01*
X182397440Y-85450000D01*
X182348157Y-85202235D01*
X182207809Y-84992191D01*
X181997765Y-84851843D01*
X181785000Y-84809522D01*
X181785000Y-84807159D01*
X181802337Y-84719999D01*
X181785000Y-84632839D01*
X181785000Y-84632835D01*
X181733652Y-84374690D01*
X181538049Y-84081951D01*
X181464156Y-84032577D01*
X180172427Y-82740849D01*
X180123051Y-82666953D01*
X179830312Y-82471350D01*
X179572167Y-82420002D01*
X179572163Y-82420002D01*
X179485002Y-82402665D01*
X179397841Y-82420002D01*
X167472160Y-82420002D01*
X167384999Y-82402665D01*
X167297838Y-82420002D01*
X167297835Y-82420002D01*
X167039690Y-82471350D01*
X166746951Y-82666953D01*
X166731822Y-82689595D01*
X166398721Y-82827570D01*
X166107570Y-83118721D01*
X165950001Y-83499127D01*
X122998036Y-83499127D01*
X123070625Y-83450625D01*
X123398839Y-82959418D01*
X123514092Y-82380000D01*
X123398839Y-81800582D01*
X123070625Y-81309375D01*
X122579418Y-80981161D01*
X122146256Y-80895000D01*
X121853744Y-80895000D01*
X121420582Y-80981161D01*
X120929375Y-81309375D01*
X120721822Y-81620000D01*
X120384850Y-81620000D01*
X120310002Y-81605112D01*
X120235154Y-81620000D01*
X120235150Y-81620000D01*
X120013465Y-81664096D01*
X119762073Y-81832071D01*
X119719673Y-81895527D01*
X117900529Y-83714672D01*
X117837073Y-83757072D01*
X117794673Y-83820528D01*
X117794672Y-83820529D01*
X117669098Y-84008464D01*
X117610113Y-84305001D01*
X116695001Y-84305001D01*
X116695001Y-69995431D01*
X150165000Y-69995431D01*
X150165000Y-70884569D01*
X150505259Y-71706026D01*
X151133974Y-72334741D01*
X151955431Y-72675000D01*
X152844569Y-72675000D01*
X153666026Y-72334741D01*
X154294741Y-71706026D01*
X154635000Y-70884569D01*
X154635000Y-69995431D01*
X154294741Y-69173974D01*
X153666026Y-68545259D01*
X152844569Y-68205000D01*
X151955431Y-68205000D01*
X151133974Y-68545259D01*
X150505259Y-69173974D01*
X150165000Y-69995431D01*
X116695001Y-69995431D01*
X116695001Y-62015001D01*
X130559661Y-62015001D01*
X130208975Y-62160260D01*
X130208975Y-62160260D01*
G37*
X130208975Y-62160260D02*
X129580260Y-62788975D01*
X129240001Y-63610432D01*
X129240001Y-64499570D01*
X129580260Y-65321027D01*
X130208975Y-65949742D01*
X131030432Y-66290001D01*
X131919570Y-66290001D01*
X132741027Y-65949742D01*
X133369742Y-65321027D01*
X133710001Y-64499570D01*
X133710001Y-64055001D01*
X138651888Y-64055001D01*
X138763261Y-64614910D01*
X139080424Y-65089578D01*
X139555092Y-65406741D01*
X139973668Y-65490001D01*
X140256334Y-65490001D01*
X140674910Y-65406741D01*
X141149578Y-65089578D01*
X141405948Y-64705893D01*
X141502612Y-64910135D01*
X141917578Y-65286042D01*
X142305962Y-65446905D01*
X142528001Y-65324916D01*
X142528001Y-64182001D01*
X142508001Y-64182001D01*
X142508001Y-63928001D01*
X142528001Y-63928001D01*
X142528001Y-62785086D01*
X142782001Y-62785086D01*
X142782001Y-63928001D01*
X142802001Y-63928001D01*
X142802001Y-64182001D01*
X142782001Y-64182001D01*
X142782001Y-65324916D01*
X143004040Y-65446905D01*
X143392424Y-65286042D01*
X143807390Y-64910135D01*
X143904054Y-64705893D01*
X144160424Y-65089578D01*
X144635092Y-65406741D01*
X145053668Y-65490001D01*
X145336334Y-65490001D01*
X145754910Y-65406741D01*
X146229578Y-65089578D01*
X146465001Y-64737243D01*
X146700424Y-65089578D01*
X147175092Y-65406741D01*
X147593668Y-65490001D01*
X147876334Y-65490001D01*
X148294910Y-65406741D01*
X148769578Y-65089578D01*
X149005001Y-64737243D01*
X149240424Y-65089578D01*
X149715092Y-65406741D01*
X150133668Y-65490001D01*
X150416334Y-65490001D01*
X150834910Y-65406741D01*
X151309578Y-65089578D01*
X151545001Y-64737243D01*
X151780424Y-65089578D01*
X152255092Y-65406741D01*
X152673668Y-65490001D01*
X152956334Y-65490001D01*
X153374910Y-65406741D01*
X153849578Y-65089578D01*
X154085001Y-64737243D01*
X154320424Y-65089578D01*
X154795092Y-65406741D01*
X155213668Y-65490001D01*
X155496334Y-65490001D01*
X155914910Y-65406741D01*
X156389578Y-65089578D01*
X156625001Y-64737243D01*
X156860424Y-65089578D01*
X157335092Y-65406741D01*
X157753668Y-65490001D01*
X158036334Y-65490001D01*
X158454910Y-65406741D01*
X158929578Y-65089578D01*
X159246741Y-64614910D01*
X159358114Y-64055001D01*
X160491888Y-64055001D01*
X160603261Y-64614910D01*
X160920424Y-65089578D01*
X161395092Y-65406741D01*
X161813668Y-65490001D01*
X162096334Y-65490001D01*
X162514910Y-65406741D01*
X162989578Y-65089578D01*
X163225001Y-64737243D01*
X163460424Y-65089578D01*
X163935092Y-65406741D01*
X164353668Y-65490001D01*
X164636334Y-65490001D01*
X165054910Y-65406741D01*
X165529578Y-65089578D01*
X165765001Y-64737243D01*
X166000424Y-65089578D01*
X166475092Y-65406741D01*
X166893668Y-65490001D01*
X167176334Y-65490001D01*
X167594910Y-65406741D01*
X168069578Y-65089578D01*
X168305001Y-64737243D01*
X168540424Y-65089578D01*
X169015092Y-65406741D01*
X169433668Y-65490001D01*
X169716334Y-65490001D01*
X170134910Y-65406741D01*
X170609578Y-65089578D01*
X170845001Y-64737243D01*
X171080424Y-65089578D01*
X171555092Y-65406741D01*
X171973668Y-65490001D01*
X172256334Y-65490001D01*
X172674910Y-65406741D01*
X173149578Y-65089578D01*
X173385001Y-64737243D01*
X173620424Y-65089578D01*
X174095092Y-65406741D01*
X174513668Y-65490001D01*
X174796334Y-65490001D01*
X175214910Y-65406741D01*
X175689578Y-65089578D01*
X175925001Y-64737243D01*
X176160424Y-65089578D01*
X176635092Y-65406741D01*
X177053668Y-65490001D01*
X177336334Y-65490001D01*
X177754910Y-65406741D01*
X178229578Y-65089578D01*
X178465001Y-64737243D01*
X178700424Y-65089578D01*
X179175092Y-65406741D01*
X179593668Y-65490001D01*
X179876334Y-65490001D01*
X180294910Y-65406741D01*
X180769578Y-65089578D01*
X181086741Y-64614910D01*
X181198114Y-64055001D01*
X181086741Y-63495092D01*
X180769578Y-63020424D01*
X180294910Y-62703261D01*
X179876334Y-62620001D01*
X179593668Y-62620001D01*
X179175092Y-62703261D01*
X178700424Y-63020424D01*
X178465001Y-63372759D01*
X178229578Y-63020424D01*
X177754910Y-62703261D01*
X177336334Y-62620001D01*
X177053668Y-62620001D01*
X176635092Y-62703261D01*
X176160424Y-63020424D01*
X175925001Y-63372759D01*
X175689578Y-63020424D01*
X175214910Y-62703261D01*
X174796334Y-62620001D01*
X174513668Y-62620001D01*
X174095092Y-62703261D01*
X173620424Y-63020424D01*
X173385001Y-63372759D01*
X173149578Y-63020424D01*
X172674910Y-62703261D01*
X172256334Y-62620001D01*
X171973668Y-62620001D01*
X171555092Y-62703261D01*
X171080424Y-63020424D01*
X170845001Y-63372759D01*
X170609578Y-63020424D01*
X170134910Y-62703261D01*
X169716334Y-62620001D01*
X169433668Y-62620001D01*
X169015092Y-62703261D01*
X168540424Y-63020424D01*
X168305001Y-63372759D01*
X168069578Y-63020424D01*
X167594910Y-62703261D01*
X167176334Y-62620001D01*
X166893668Y-62620001D01*
X166475092Y-62703261D01*
X166000424Y-63020424D01*
X165765001Y-63372759D01*
X165529578Y-63020424D01*
X165054910Y-62703261D01*
X164636334Y-62620001D01*
X164353668Y-62620001D01*
X163935092Y-62703261D01*
X163460424Y-63020424D01*
X163225001Y-63372759D01*
X162989578Y-63020424D01*
X162514910Y-62703261D01*
X162096334Y-62620001D01*
X161813668Y-62620001D01*
X161395092Y-62703261D01*
X160920424Y-63020424D01*
X160603261Y-63495092D01*
X160491888Y-64055001D01*
X159358114Y-64055001D01*
X159246741Y-63495092D01*
X158929578Y-63020424D01*
X158454910Y-62703261D01*
X158036334Y-62620001D01*
X157753668Y-62620001D01*
X157335092Y-62703261D01*
X156860424Y-63020424D01*
X156625001Y-63372759D01*
X156389578Y-63020424D01*
X155914910Y-62703261D01*
X155496334Y-62620001D01*
X155213668Y-62620001D01*
X154795092Y-62703261D01*
X154320424Y-63020424D01*
X154085001Y-63372759D01*
X153849578Y-63020424D01*
X153374910Y-62703261D01*
X152956334Y-62620001D01*
X152673668Y-62620001D01*
X152255092Y-62703261D01*
X151780424Y-63020424D01*
X151545001Y-63372759D01*
X151309578Y-63020424D01*
X150834910Y-62703261D01*
X150416334Y-62620001D01*
X150133668Y-62620001D01*
X149715092Y-62703261D01*
X149240424Y-63020424D01*
X149005001Y-63372759D01*
X148769578Y-63020424D01*
X148294910Y-62703261D01*
X147876334Y-62620001D01*
X147593668Y-62620001D01*
X147175092Y-62703261D01*
X146700424Y-63020424D01*
X146465001Y-63372759D01*
X146229578Y-63020424D01*
X145754910Y-62703261D01*
X145336334Y-62620001D01*
X145053668Y-62620001D01*
X144635092Y-62703261D01*
X144160424Y-63020424D01*
X143904054Y-63404109D01*
X143807390Y-63199867D01*
X143392424Y-62823960D01*
X143004040Y-62663097D01*
X142782001Y-62785086D01*
X142528001Y-62785086D01*
X142305962Y-62663097D01*
X141917578Y-62823960D01*
X141502612Y-63199867D01*
X141405948Y-63404109D01*
X141149578Y-63020424D01*
X140674910Y-62703261D01*
X140256334Y-62620001D01*
X139973668Y-62620001D01*
X139555092Y-62703261D01*
X139080424Y-63020424D01*
X138763261Y-63495092D01*
X138651888Y-64055001D01*
X133710001Y-64055001D01*
X133710001Y-63610432D01*
X133369742Y-62788975D01*
X132741027Y-62160260D01*
X132390341Y-62015001D01*
X180490911Y-62015001D01*
X181775001Y-63299092D01*
X181775002Y-74335072D01*
X181761092Y-74405001D01*
X181816197Y-74682029D01*
X181973121Y-74916882D01*
X182032403Y-74956493D01*
X184375001Y-77299092D01*
X184375001Y-78524514D01*
X184169742Y-78028975D01*
X183541027Y-77400260D01*
X182719570Y-77060001D01*
X181830432Y-77060001D01*
X181008975Y-77400260D01*
X180380260Y-78028975D01*
X180040001Y-78850432D01*
X180040001Y-79739570D01*
X180380260Y-80561027D01*
X181008975Y-81189742D01*
X181830432Y-81530001D01*
X182719570Y-81530001D01*
X183541027Y-81189742D01*
X184169742Y-80561027D01*
X184375001Y-80065488D01*
X184375002Y-106464516D01*
X184169742Y-105968975D01*
X183541027Y-105340260D01*
X182719570Y-105000001D01*
X181830432Y-105000001D01*
X181008975Y-105340260D01*
X180380260Y-105968975D01*
X180040001Y-106790432D01*
X180040001Y-107679570D01*
X180380260Y-108501027D01*
X181008975Y-109129742D01*
X181830432Y-109470001D01*
X182719570Y-109470001D01*
X183541027Y-109129742D01*
X184169742Y-108501027D01*
X184375002Y-108005486D01*
X184375002Y-109510909D01*
X182032403Y-111853509D01*
X181973120Y-111893121D01*
X181816196Y-112127974D01*
X181778994Y-112315001D01*
X181761092Y-112405001D01*
X181775001Y-112474926D01*
X181775002Y-114395001D01*
X131023773Y-114395001D01*
X131471027Y-114209742D01*
X132099742Y-113581027D01*
X132440001Y-112759570D01*
X132440001Y-111870432D01*
X132292777Y-111515001D01*
X142727561Y-111515001D01*
X142727561Y-113115001D01*
X142776844Y-113362766D01*
X142917192Y-113572810D01*
X143127236Y-113713158D01*
X143375001Y-113762441D01*
X144975001Y-113762441D01*
X145222766Y-113713158D01*
X145432810Y-113572810D01*
X145573158Y-113362766D01*
X145599786Y-113228895D01*
X145680424Y-113349578D01*
X146155092Y-113666741D01*
X146573668Y-113750001D01*
X146856334Y-113750001D01*
X147274910Y-113666741D01*
X147749578Y-113349578D01*
X147985001Y-112997243D01*
X148220424Y-113349578D01*
X148695092Y-113666741D01*
X149113668Y-113750001D01*
X149396334Y-113750001D01*
X149814910Y-113666741D01*
X150289578Y-113349578D01*
X150525001Y-112997243D01*
X150760424Y-113349578D01*
X151235092Y-113666741D01*
X151653668Y-113750001D01*
X151936334Y-113750001D01*
X152354910Y-113666741D01*
X152829578Y-113349578D01*
X153065001Y-112997243D01*
X153300424Y-113349578D01*
X153775092Y-113666741D01*
X154193668Y-113750001D01*
X154476334Y-113750001D01*
X154894910Y-113666741D01*
X155369578Y-113349578D01*
X155625948Y-112965893D01*
X155722612Y-113170135D01*
X156137578Y-113546042D01*
X156525962Y-113706905D01*
X156748001Y-113584916D01*
X156748001Y-112442001D01*
X157002001Y-112442001D01*
X157002001Y-113584916D01*
X157224040Y-113706905D01*
X157612424Y-113546042D01*
X158027390Y-113170135D01*
X158145001Y-112921634D01*
X158262612Y-113170135D01*
X158677578Y-113546042D01*
X159065962Y-113706905D01*
X159288001Y-113584916D01*
X159288001Y-112442001D01*
X157002001Y-112442001D01*
X156748001Y-112442001D01*
X156728001Y-112442001D01*
X156728001Y-112188001D01*
X156748001Y-112188001D01*
X156748001Y-111045086D01*
X157002001Y-111045086D01*
X157002001Y-112188001D01*
X159288001Y-112188001D01*
X159288001Y-111045086D01*
X159542001Y-111045086D01*
X159542001Y-112188001D01*
X159562001Y-112188001D01*
X159562001Y-112442001D01*
X159542001Y-112442001D01*
X159542001Y-113584916D01*
X159764040Y-113706905D01*
X160152424Y-113546042D01*
X160567390Y-113170135D01*
X160664054Y-112965893D01*
X160920424Y-113349578D01*
X161395092Y-113666741D01*
X161813668Y-113750001D01*
X162096334Y-113750001D01*
X162514910Y-113666741D01*
X162989578Y-113349578D01*
X163306741Y-112874910D01*
X163418114Y-112315001D01*
X163306741Y-111755092D01*
X162989578Y-111280424D01*
X162514910Y-110963261D01*
X162096334Y-110880001D01*
X161813668Y-110880001D01*
X161395092Y-110963261D01*
X160920424Y-111280424D01*
X160664054Y-111664109D01*
X160567390Y-111459867D01*
X160152424Y-111083960D01*
X159764040Y-110923097D01*
X159542001Y-111045086D01*
X159288001Y-111045086D01*
X159065962Y-110923097D01*
X158677578Y-111083960D01*
X158262612Y-111459867D01*
X158145001Y-111708368D01*
X158027390Y-111459867D01*
X157612424Y-111083960D01*
X157224040Y-110923097D01*
X157002001Y-111045086D01*
X156748001Y-111045086D01*
X156525962Y-110923097D01*
X156137578Y-111083960D01*
X155722612Y-111459867D01*
X155625948Y-111664109D01*
X155369578Y-111280424D01*
X154894910Y-110963261D01*
X154476334Y-110880001D01*
X154193668Y-110880001D01*
X153775092Y-110963261D01*
X153300424Y-111280424D01*
X153065001Y-111632759D01*
X152829578Y-111280424D01*
X152354910Y-110963261D01*
X151936334Y-110880001D01*
X151653668Y-110880001D01*
X151235092Y-110963261D01*
X150760424Y-111280424D01*
X150525001Y-111632759D01*
X150289578Y-111280424D01*
X149814910Y-110963261D01*
X149396334Y-110880001D01*
X149113668Y-110880001D01*
X148695092Y-110963261D01*
X148220424Y-111280424D01*
X147985001Y-111632759D01*
X147749578Y-111280424D01*
X147274910Y-110963261D01*
X146856334Y-110880001D01*
X146573668Y-110880001D01*
X146155092Y-110963261D01*
X145680424Y-111280424D01*
X145599786Y-111401107D01*
X145573158Y-111267236D01*
X145432810Y-111057192D01*
X145222766Y-110916844D01*
X144975001Y-110867561D01*
X143375001Y-110867561D01*
X143127236Y-110916844D01*
X142917192Y-111057192D01*
X142776844Y-111267236D01*
X142727561Y-111515001D01*
X132292777Y-111515001D01*
X132099742Y-111048975D01*
X131471027Y-110420260D01*
X130649570Y-110080001D01*
X129760432Y-110080001D01*
X128938975Y-110420260D01*
X128310260Y-111048975D01*
X127970001Y-111870432D01*
X127970001Y-112759570D01*
X128310260Y-113581027D01*
X128938975Y-114209742D01*
X129386229Y-114395001D01*
X116695001Y-114395001D01*
X116695001Y-84305001D01*
X117610113Y-84305001D01*
X117625002Y-84379853D01*
X117625001Y-106930154D01*
X117610113Y-107005001D01*
X117625001Y-107079848D01*
X117625001Y-107079852D01*
X117669097Y-107301537D01*
X117837072Y-107552930D01*
X117900531Y-107595332D01*
X119994671Y-109689473D01*
X120037072Y-109752930D01*
X120100528Y-109795330D01*
X120288463Y-109920905D01*
X120336606Y-109930481D01*
X120510149Y-109965001D01*
X120510153Y-109965001D01*
X120585001Y-109979889D01*
X120659849Y-109965001D01*
X173770200Y-109965001D01*
X174685200Y-110880001D01*
X174513668Y-110880001D01*
X174095092Y-110963261D01*
X173620424Y-111280424D01*
X173385001Y-111632759D01*
X173149578Y-111280424D01*
X172674910Y-110963261D01*
X172256334Y-110880001D01*
X171973668Y-110880001D01*
X171555092Y-110963261D01*
X171080424Y-111280424D01*
X170845001Y-111632759D01*
X170609578Y-111280424D01*
X170134910Y-110963261D01*
X169716334Y-110880001D01*
X169433668Y-110880001D01*
X169015092Y-110963261D01*
X168540424Y-111280424D01*
X168305001Y-111632759D01*
X168069578Y-111280424D01*
X167594910Y-110963261D01*
X167176334Y-110880001D01*
X166893668Y-110880001D01*
X166475092Y-110963261D01*
X166000424Y-111280424D01*
X165683261Y-111755092D01*
X165571888Y-112315001D01*
X165683261Y-112874910D01*
X166000424Y-113349578D01*
X166475092Y-113666741D01*
X166893668Y-113750001D01*
X167176334Y-113750001D01*
X167594910Y-113666741D01*
X168069578Y-113349578D01*
X168305001Y-112997243D01*
X168540424Y-113349578D01*
X169015092Y-113666741D01*
X169433668Y-113750001D01*
X169716334Y-113750001D01*
X170134910Y-113666741D01*
X170609578Y-113349578D01*
X170845001Y-112997243D01*
X171080424Y-113349578D01*
X171555092Y-113666741D01*
X171973668Y-113750001D01*
X172256334Y-113750001D01*
X172674910Y-113666741D01*
X173149578Y-113349578D01*
X173385001Y-112997243D01*
X173620424Y-113349578D01*
X174095092Y-113666741D01*
X174513668Y-113750001D01*
X174796334Y-113750001D01*
X175214910Y-113666741D01*
X175689578Y-113349578D01*
X175925001Y-112997243D01*
X176160424Y-113349578D01*
X176635092Y-113666741D01*
X177053668Y-113750001D01*
X177336334Y-113750001D01*
X177754910Y-113666741D01*
X178229578Y-113349578D01*
X178465001Y-112997243D01*
X178700424Y-113349578D01*
X179175092Y-113666741D01*
X179593668Y-113750001D01*
X179876334Y-113750001D01*
X180294910Y-113666741D01*
X180769578Y-113349578D01*
X181086741Y-112874910D01*
X181198114Y-112315001D01*
X181086741Y-111755092D01*
X180769578Y-111280424D01*
X180294910Y-110963261D01*
X179876334Y-110880001D01*
X179593668Y-110880001D01*
X179411115Y-110916313D01*
X176715332Y-108220531D01*
X176672930Y-108157072D01*
X176421538Y-107989097D01*
X176199853Y-107945001D01*
X176199848Y-107945001D01*
X176125001Y-107930113D01*
X176050154Y-107945001D01*
X121199803Y-107945001D01*
X119745001Y-106490200D01*
X119745001Y-101495431D01*
X150165000Y-101495431D01*
X150165000Y-102384569D01*
X150505259Y-103206026D01*
X151133974Y-103834741D01*
X151955431Y-104175000D01*
X152844569Y-104175000D01*
X153666026Y-103834741D01*
X154294741Y-103206026D01*
X154635000Y-102384569D01*
X154635000Y-101495431D01*
X154294741Y-100673974D01*
X153666026Y-100045259D01*
X152844569Y-99705000D01*
X151955431Y-99705000D01*
X151133974Y-100045259D01*
X150505259Y-100673974D01*
X150165000Y-101495431D01*
X119745001Y-101495431D01*
X119745001Y-94184128D01*
X160665000Y-94184128D01*
X160665000Y-94595876D01*
X160822569Y-94976282D01*
X161113720Y-95267433D01*
X161494126Y-95425002D01*
X161682382Y-95425002D01*
X161803462Y-95505905D01*
X162025147Y-95550001D01*
X162025151Y-95550001D01*
X162099998Y-95564889D01*
X162174845Y-95550001D01*
X166325154Y-95550001D01*
X166400001Y-95564889D01*
X166474848Y-95550001D01*
X166474853Y-95550001D01*
X166696538Y-95505905D01*
X166817618Y-95425002D01*
X167005874Y-95425002D01*
X167386280Y-95267433D01*
X167677431Y-94976282D01*
X167835000Y-94595876D01*
X167835000Y-94276890D01*
X179458524Y-94276890D01*
X179628355Y-94686924D01*
X180018642Y-95115183D01*
X180543108Y-95361486D01*
X180773000Y-95240819D01*
X180773000Y-94047000D01*
X181027000Y-94047000D01*
X181027000Y-95240819D01*
X181256892Y-95361486D01*
X181781358Y-95115183D01*
X182171645Y-94686924D01*
X182341476Y-94276890D01*
X182220155Y-94047000D01*
X181027000Y-94047000D01*
X180773000Y-94047000D01*
X179579845Y-94047000D01*
X179458524Y-94276890D01*
X167835000Y-94276890D01*
X167835000Y-94184128D01*
X167677431Y-93803722D01*
X167386280Y-93512571D01*
X167005874Y-93355002D01*
X166594126Y-93355002D01*
X166213720Y-93512571D01*
X165922569Y-93803722D01*
X165828841Y-94030001D01*
X162671159Y-94030001D01*
X162577431Y-93803722D01*
X162286280Y-93512571D01*
X161905874Y-93355002D01*
X161494126Y-93355002D01*
X161113720Y-93512571D01*
X160822569Y-93803722D01*
X160665000Y-94184128D01*
X119745001Y-94184128D01*
X119745001Y-91736890D01*
X179458524Y-91736890D01*
X179628355Y-92146924D01*
X180018642Y-92575183D01*
X180177954Y-92650000D01*
X180018642Y-92724817D01*
X179628355Y-93153076D01*
X179458524Y-93563110D01*
X179579845Y-93793000D01*
X180773000Y-93793000D01*
X180773000Y-91507000D01*
X181027000Y-91507000D01*
X181027000Y-93793000D01*
X182220155Y-93793000D01*
X182341476Y-93563110D01*
X182171645Y-93153076D01*
X181781358Y-92724817D01*
X181622046Y-92650000D01*
X181781358Y-92575183D01*
X182171645Y-92146924D01*
X182341476Y-91736890D01*
X182220155Y-91507000D01*
X181027000Y-91507000D01*
X180773000Y-91507000D01*
X179579845Y-91507000D01*
X179458524Y-91736890D01*
X119745001Y-91736890D01*
X119745001Y-90285750D01*
X120515000Y-90285750D01*
X120515000Y-90976310D01*
X120611673Y-91209699D01*
X120790302Y-91388327D01*
X121023691Y-91485000D01*
X121714250Y-91485000D01*
X121873000Y-91326250D01*
X121873000Y-90127000D01*
X122127000Y-90127000D01*
X122127000Y-91326250D01*
X122285750Y-91485000D01*
X122976309Y-91485000D01*
X123209698Y-91388327D01*
X123388327Y-91209699D01*
X123485000Y-90976310D01*
X123485000Y-90285750D01*
X123326250Y-90127000D01*
X122127000Y-90127000D01*
X121873000Y-90127000D01*
X120673750Y-90127000D01*
X120515000Y-90285750D01*
X119745001Y-90285750D01*
X119745001Y-88249800D01*
X120494020Y-87500782D01*
X120601161Y-88039418D01*
X120929375Y-88530625D01*
X120951033Y-88545096D01*
X120790302Y-88611673D01*
X120611673Y-88790301D01*
X120515000Y-89023690D01*
X120515000Y-89714250D01*
X120673750Y-89873000D01*
X121873000Y-89873000D01*
X121873000Y-89853000D01*
X122127000Y-89853000D01*
X122127000Y-89873000D01*
X123326250Y-89873000D01*
X123485000Y-89714250D01*
X123485000Y-89023690D01*
X123388327Y-88790301D01*
X123209698Y-88611673D01*
X123048967Y-88545096D01*
X123070625Y-88530625D01*
X123398839Y-88039418D01*
X123514092Y-87460000D01*
X123398839Y-86880582D01*
X123070625Y-86389375D01*
X122772239Y-86190000D01*
X123070625Y-85990625D01*
X123398839Y-85499418D01*
X123514092Y-84920000D01*
X123398839Y-84340582D01*
X123070625Y-83849375D01*
X122772239Y-83650000D01*
X122998036Y-83499127D01*
X165950001Y-83499127D01*
X165950001Y-83910875D01*
X166107570Y-84291281D01*
X166398721Y-84582432D01*
X166779127Y-84740001D01*
X167190875Y-84740001D01*
X167571281Y-84582432D01*
X167862432Y-84291281D01*
X167904383Y-84190002D01*
X179118424Y-84190002D01*
X179789065Y-84860643D01*
X179592191Y-84992191D01*
X179451843Y-85202235D01*
X179402560Y-85450000D01*
X179402560Y-87150000D01*
X179451843Y-87397765D01*
X179592191Y-87607809D01*
X179802235Y-87748157D01*
X179847619Y-87757184D01*
X179829375Y-87769375D01*
X179501161Y-88260582D01*
X179385908Y-88840000D01*
X179501161Y-89419418D01*
X179829375Y-89910625D01*
X180148478Y-90123843D01*
X180018642Y-90184817D01*
X179628355Y-90613076D01*
X179458524Y-91023110D01*
X179579845Y-91253000D01*
X180773000Y-91253000D01*
X180773000Y-91233000D01*
X181027000Y-91233000D01*
X181027000Y-91253000D01*
X182220155Y-91253000D01*
X182341476Y-91023110D01*
X182171645Y-90613076D01*
X181781358Y-90184817D01*
X181651522Y-90123843D01*
X181970625Y-89910625D01*
X182298839Y-89419418D01*
X182414092Y-88840000D01*
X182298839Y-88260582D01*
X181970625Y-87769375D01*
X181952381Y-87757184D01*
X181997765Y-87748157D01*
X182207809Y-87607809D01*
X182348157Y-87397765D01*
X182397440Y-87150000D01*
X182397440Y-85450000D01*
X182348157Y-85202235D01*
X182207809Y-84992191D01*
X181997765Y-84851843D01*
X181785000Y-84809522D01*
X181785000Y-84807159D01*
X181802337Y-84719999D01*
X181785000Y-84632839D01*
X181785000Y-84632835D01*
X181733652Y-84374690D01*
X181538049Y-84081951D01*
X181464156Y-84032577D01*
X180172427Y-82740849D01*
X180123051Y-82666953D01*
X179830312Y-82471350D01*
X179572167Y-82420002D01*
X179572163Y-82420002D01*
X179485002Y-82402665D01*
X179397841Y-82420002D01*
X167472160Y-82420002D01*
X167384999Y-82402665D01*
X167297838Y-82420002D01*
X167297835Y-82420002D01*
X167039690Y-82471350D01*
X166746951Y-82666953D01*
X166731822Y-82689595D01*
X166398721Y-82827570D01*
X166107570Y-83118721D01*
X165950001Y-83499127D01*
X122998036Y-83499127D01*
X123070625Y-83450625D01*
X123398839Y-82959418D01*
X123514092Y-82380000D01*
X123398839Y-81800582D01*
X123070625Y-81309375D01*
X122579418Y-80981161D01*
X122146256Y-80895000D01*
X121853744Y-80895000D01*
X121420582Y-80981161D01*
X120929375Y-81309375D01*
X120721822Y-81620000D01*
X120384850Y-81620000D01*
X120310002Y-81605112D01*
X120235154Y-81620000D01*
X120235150Y-81620000D01*
X120013465Y-81664096D01*
X119762073Y-81832071D01*
X119719673Y-81895527D01*
X117900529Y-83714672D01*
X117837073Y-83757072D01*
X117794673Y-83820528D01*
X117794672Y-83820529D01*
X117669098Y-84008464D01*
X117610113Y-84305001D01*
X116695001Y-84305001D01*
X116695001Y-69995431D01*
X150165000Y-69995431D01*
X150165000Y-70884569D01*
X150505259Y-71706026D01*
X151133974Y-72334741D01*
X151955431Y-72675000D01*
X152844569Y-72675000D01*
X153666026Y-72334741D01*
X154294741Y-71706026D01*
X154635000Y-70884569D01*
X154635000Y-69995431D01*
X154294741Y-69173974D01*
X153666026Y-68545259D01*
X152844569Y-68205000D01*
X151955431Y-68205000D01*
X151133974Y-68545259D01*
X150505259Y-69173974D01*
X150165000Y-69995431D01*
X116695001Y-69995431D01*
X116695001Y-62015001D01*
X130559661Y-62015001D01*
X130208975Y-62160260D01*
G04 #@! TD*
M02*
