G04 #@! TF.GenerationSoftware,KiCad,Pcbnew,(5.0.0)*
G04 #@! TF.CreationDate,2019-08-13T22:33:18+09:00*
G04 #@! TF.ProjectId,gauss_meter_hw,67617573735F6D657465725F68772E6B,rev?*
G04 #@! TF.SameCoordinates,Original*
G04 #@! TF.FileFunction,Copper,L1,Top,Signal*
G04 #@! TF.FilePolarity,Positive*
%FSLAX46Y46*%
G04 Gerber Fmt 4.6, Leading zero omitted, Abs format (unit mm)*
G04 Created by KiCad (PCBNEW (5.0.0)) date 08/13/19 22:33:18*
%MOMM*%
%LPD*%
G01*
G04 APERTURE LIST*
G04 #@! TA.AperFunction,ComponentPad*
%ADD10O,1.600000X1.600000*%
G04 #@! TD*
G04 #@! TA.AperFunction,ComponentPad*
%ADD11R,1.600000X1.600000*%
G04 #@! TD*
G04 #@! TA.AperFunction,Conductor*
%ADD12C,0.100000*%
G04 #@! TD*
G04 #@! TA.AperFunction,SMDPad,CuDef*
%ADD13C,1.150000*%
G04 #@! TD*
G04 #@! TA.AperFunction,ComponentPad*
%ADD14R,1.700000X1.700000*%
G04 #@! TD*
G04 #@! TA.AperFunction,ComponentPad*
%ADD15O,1.700000X1.700000*%
G04 #@! TD*
G04 #@! TA.AperFunction,SMDPad,CuDef*
%ADD16R,1.900000X1.300000*%
G04 #@! TD*
G04 #@! TA.AperFunction,SMDPad,CuDef*
%ADD17R,1.900000X2.000000*%
G04 #@! TD*
G04 #@! TA.AperFunction,SMDPad,CuDef*
%ADD18R,0.450000X1.450000*%
G04 #@! TD*
G04 #@! TA.AperFunction,ViaPad*
%ADD19C,0.800000*%
G04 #@! TD*
G04 #@! TA.AperFunction,Conductor*
%ADD20C,0.250000*%
G04 #@! TD*
G04 #@! TA.AperFunction,Conductor*
%ADD21C,0.254000*%
G04 #@! TD*
G04 APERTURE END LIST*
D10*
G04 #@! TO.P,A1,29*
G04 #@! TO.N,GND*
X142745001Y-112225001D03*
G04 #@! TO.P,A1,30*
G04 #@! TO.N,Net-(A1-Pad30)*
X140205001Y-112225001D03*
D11*
G04 #@! TO.P,A1,1*
G04 #@! TO.N,Net-(A1-Pad1)*
X144265001Y-63965001D03*
D10*
G04 #@! TO.P,A1,17*
G04 #@! TO.N,Net-(A1-Pad17)*
X174745001Y-112225001D03*
G04 #@! TO.P,A1,2*
G04 #@! TO.N,Net-(A1-Pad2)*
X146805001Y-63965001D03*
G04 #@! TO.P,A1,18*
G04 #@! TO.N,Net-(A1-Pad18)*
X172205001Y-112225001D03*
G04 #@! TO.P,A1,3*
G04 #@! TO.N,Net-(A1-Pad3)*
X149345001Y-63965001D03*
G04 #@! TO.P,A1,19*
G04 #@! TO.N,Net-(A1-Pad19)*
X169665001Y-112225001D03*
G04 #@! TO.P,A1,4*
G04 #@! TO.N,Net-(A1-Pad4)*
X151885001Y-63965001D03*
G04 #@! TO.P,A1,20*
G04 #@! TO.N,Net-(A1-Pad20)*
X167125001Y-112225001D03*
G04 #@! TO.P,A1,5*
G04 #@! TO.N,+5V*
X154425001Y-63965001D03*
G04 #@! TO.P,A1,21*
G04 #@! TO.N,Net-(A1-Pad21)*
X164585001Y-112225001D03*
G04 #@! TO.P,A1,6*
G04 #@! TO.N,GND*
X156965001Y-63965001D03*
G04 #@! TO.P,A1,22*
G04 #@! TO.N,Net-(A1-Pad22)*
X162045001Y-112225001D03*
G04 #@! TO.P,A1,7*
G04 #@! TO.N,GND*
X159505001Y-63965001D03*
G04 #@! TO.P,A1,23*
G04 #@! TO.N,Net-(A1-Pad23)*
X157985001Y-112225001D03*
G04 #@! TO.P,A1,8*
G04 #@! TO.N,Net-(A1-Pad8)*
X162045001Y-63965001D03*
G04 #@! TO.P,A1,24*
G04 #@! TO.N,Net-(A1-Pad24)*
X155445001Y-112225001D03*
G04 #@! TO.P,A1,9*
G04 #@! TO.N,Net-(A1-Pad9)*
X167125001Y-63965001D03*
G04 #@! TO.P,A1,25*
G04 #@! TO.N,Net-(A1-Pad25)*
X152905001Y-112225001D03*
G04 #@! TO.P,A1,10*
G04 #@! TO.N,Net-(A1-Pad10)*
X169665001Y-63965001D03*
G04 #@! TO.P,A1,26*
G04 #@! TO.N,Net-(A1-Pad26)*
X150365001Y-112225001D03*
G04 #@! TO.P,A1,11*
G04 #@! TO.N,Net-(A1-Pad11)*
X172205001Y-63965001D03*
G04 #@! TO.P,A1,27*
G04 #@! TO.N,Net-(A1-Pad27)*
X147825001Y-112225001D03*
G04 #@! TO.P,A1,12*
G04 #@! TO.N,Net-(A1-Pad12)*
X174745001Y-63965001D03*
G04 #@! TO.P,A1,28*
G04 #@! TO.N,Net-(A1-Pad28)*
X145285001Y-112225001D03*
G04 #@! TO.P,A1,13*
G04 #@! TO.N,Net-(A1-Pad13)*
X177285001Y-63965001D03*
G04 #@! TO.P,A1,14*
G04 #@! TO.N,Net-(A1-Pad14)*
X179825001Y-63965001D03*
G04 #@! TO.P,A1,15*
G04 #@! TO.N,Net-(A1-Pad15)*
X179825001Y-112225001D03*
G04 #@! TO.P,A1,16*
G04 #@! TO.N,Net-(A1-Pad16)*
X177285001Y-112225001D03*
G04 #@! TD*
D12*
G04 #@! TO.N,Net-(C1-Pad1)*
G04 #@! TO.C,C1*
G36*
X176624505Y-82351204D02*
X176648773Y-82354804D01*
X176672572Y-82360765D01*
X176695671Y-82369030D01*
X176717850Y-82379520D01*
X176738893Y-82392132D01*
X176758599Y-82406747D01*
X176776777Y-82423223D01*
X176793253Y-82441401D01*
X176807868Y-82461107D01*
X176820480Y-82482150D01*
X176830970Y-82504329D01*
X176839235Y-82527428D01*
X176845196Y-82551227D01*
X176848796Y-82575495D01*
X176850000Y-82599999D01*
X176850000Y-83500001D01*
X176848796Y-83524505D01*
X176845196Y-83548773D01*
X176839235Y-83572572D01*
X176830970Y-83595671D01*
X176820480Y-83617850D01*
X176807868Y-83638893D01*
X176793253Y-83658599D01*
X176776777Y-83676777D01*
X176758599Y-83693253D01*
X176738893Y-83707868D01*
X176717850Y-83720480D01*
X176695671Y-83730970D01*
X176672572Y-83739235D01*
X176648773Y-83745196D01*
X176624505Y-83748796D01*
X176600001Y-83750000D01*
X175949999Y-83750000D01*
X175925495Y-83748796D01*
X175901227Y-83745196D01*
X175877428Y-83739235D01*
X175854329Y-83730970D01*
X175832150Y-83720480D01*
X175811107Y-83707868D01*
X175791401Y-83693253D01*
X175773223Y-83676777D01*
X175756747Y-83658599D01*
X175742132Y-83638893D01*
X175729520Y-83617850D01*
X175719030Y-83595671D01*
X175710765Y-83572572D01*
X175704804Y-83548773D01*
X175701204Y-83524505D01*
X175700000Y-83500001D01*
X175700000Y-82599999D01*
X175701204Y-82575495D01*
X175704804Y-82551227D01*
X175710765Y-82527428D01*
X175719030Y-82504329D01*
X175729520Y-82482150D01*
X175742132Y-82461107D01*
X175756747Y-82441401D01*
X175773223Y-82423223D01*
X175791401Y-82406747D01*
X175811107Y-82392132D01*
X175832150Y-82379520D01*
X175854329Y-82369030D01*
X175877428Y-82360765D01*
X175901227Y-82354804D01*
X175925495Y-82351204D01*
X175949999Y-82350000D01*
X176600001Y-82350000D01*
X176624505Y-82351204D01*
X176624505Y-82351204D01*
G37*
D13*
G04 #@! TD*
G04 #@! TO.P,C1,1*
G04 #@! TO.N,Net-(C1-Pad1)*
X176275000Y-83050000D03*
D12*
G04 #@! TO.N,GND*
G04 #@! TO.C,C1*
G36*
X178674505Y-82351204D02*
X178698773Y-82354804D01*
X178722572Y-82360765D01*
X178745671Y-82369030D01*
X178767850Y-82379520D01*
X178788893Y-82392132D01*
X178808599Y-82406747D01*
X178826777Y-82423223D01*
X178843253Y-82441401D01*
X178857868Y-82461107D01*
X178870480Y-82482150D01*
X178880970Y-82504329D01*
X178889235Y-82527428D01*
X178895196Y-82551227D01*
X178898796Y-82575495D01*
X178900000Y-82599999D01*
X178900000Y-83500001D01*
X178898796Y-83524505D01*
X178895196Y-83548773D01*
X178889235Y-83572572D01*
X178880970Y-83595671D01*
X178870480Y-83617850D01*
X178857868Y-83638893D01*
X178843253Y-83658599D01*
X178826777Y-83676777D01*
X178808599Y-83693253D01*
X178788893Y-83707868D01*
X178767850Y-83720480D01*
X178745671Y-83730970D01*
X178722572Y-83739235D01*
X178698773Y-83745196D01*
X178674505Y-83748796D01*
X178650001Y-83750000D01*
X177999999Y-83750000D01*
X177975495Y-83748796D01*
X177951227Y-83745196D01*
X177927428Y-83739235D01*
X177904329Y-83730970D01*
X177882150Y-83720480D01*
X177861107Y-83707868D01*
X177841401Y-83693253D01*
X177823223Y-83676777D01*
X177806747Y-83658599D01*
X177792132Y-83638893D01*
X177779520Y-83617850D01*
X177769030Y-83595671D01*
X177760765Y-83572572D01*
X177754804Y-83548773D01*
X177751204Y-83524505D01*
X177750000Y-83500001D01*
X177750000Y-82599999D01*
X177751204Y-82575495D01*
X177754804Y-82551227D01*
X177760765Y-82527428D01*
X177769030Y-82504329D01*
X177779520Y-82482150D01*
X177792132Y-82461107D01*
X177806747Y-82441401D01*
X177823223Y-82423223D01*
X177841401Y-82406747D01*
X177861107Y-82392132D01*
X177882150Y-82379520D01*
X177904329Y-82369030D01*
X177927428Y-82360765D01*
X177951227Y-82354804D01*
X177975495Y-82351204D01*
X177999999Y-82350000D01*
X178650001Y-82350000D01*
X178674505Y-82351204D01*
X178674505Y-82351204D01*
G37*
D13*
G04 #@! TD*
G04 #@! TO.P,C1,2*
G04 #@! TO.N,GND*
X178325000Y-83050000D03*
D12*
G04 #@! TO.N,GND*
G04 #@! TO.C,C2*
G36*
X178674505Y-86951204D02*
X178698773Y-86954804D01*
X178722572Y-86960765D01*
X178745671Y-86969030D01*
X178767850Y-86979520D01*
X178788893Y-86992132D01*
X178808599Y-87006747D01*
X178826777Y-87023223D01*
X178843253Y-87041401D01*
X178857868Y-87061107D01*
X178870480Y-87082150D01*
X178880970Y-87104329D01*
X178889235Y-87127428D01*
X178895196Y-87151227D01*
X178898796Y-87175495D01*
X178900000Y-87199999D01*
X178900000Y-88100001D01*
X178898796Y-88124505D01*
X178895196Y-88148773D01*
X178889235Y-88172572D01*
X178880970Y-88195671D01*
X178870480Y-88217850D01*
X178857868Y-88238893D01*
X178843253Y-88258599D01*
X178826777Y-88276777D01*
X178808599Y-88293253D01*
X178788893Y-88307868D01*
X178767850Y-88320480D01*
X178745671Y-88330970D01*
X178722572Y-88339235D01*
X178698773Y-88345196D01*
X178674505Y-88348796D01*
X178650001Y-88350000D01*
X177999999Y-88350000D01*
X177975495Y-88348796D01*
X177951227Y-88345196D01*
X177927428Y-88339235D01*
X177904329Y-88330970D01*
X177882150Y-88320480D01*
X177861107Y-88307868D01*
X177841401Y-88293253D01*
X177823223Y-88276777D01*
X177806747Y-88258599D01*
X177792132Y-88238893D01*
X177779520Y-88217850D01*
X177769030Y-88195671D01*
X177760765Y-88172572D01*
X177754804Y-88148773D01*
X177751204Y-88124505D01*
X177750000Y-88100001D01*
X177750000Y-87199999D01*
X177751204Y-87175495D01*
X177754804Y-87151227D01*
X177760765Y-87127428D01*
X177769030Y-87104329D01*
X177779520Y-87082150D01*
X177792132Y-87061107D01*
X177806747Y-87041401D01*
X177823223Y-87023223D01*
X177841401Y-87006747D01*
X177861107Y-86992132D01*
X177882150Y-86979520D01*
X177904329Y-86969030D01*
X177927428Y-86960765D01*
X177951227Y-86954804D01*
X177975495Y-86951204D01*
X177999999Y-86950000D01*
X178650001Y-86950000D01*
X178674505Y-86951204D01*
X178674505Y-86951204D01*
G37*
D13*
G04 #@! TD*
G04 #@! TO.P,C2,2*
G04 #@! TO.N,GND*
X178325000Y-87650000D03*
D12*
G04 #@! TO.N,Net-(C2-Pad1)*
G04 #@! TO.C,C2*
G36*
X176624505Y-86951204D02*
X176648773Y-86954804D01*
X176672572Y-86960765D01*
X176695671Y-86969030D01*
X176717850Y-86979520D01*
X176738893Y-86992132D01*
X176758599Y-87006747D01*
X176776777Y-87023223D01*
X176793253Y-87041401D01*
X176807868Y-87061107D01*
X176820480Y-87082150D01*
X176830970Y-87104329D01*
X176839235Y-87127428D01*
X176845196Y-87151227D01*
X176848796Y-87175495D01*
X176850000Y-87199999D01*
X176850000Y-88100001D01*
X176848796Y-88124505D01*
X176845196Y-88148773D01*
X176839235Y-88172572D01*
X176830970Y-88195671D01*
X176820480Y-88217850D01*
X176807868Y-88238893D01*
X176793253Y-88258599D01*
X176776777Y-88276777D01*
X176758599Y-88293253D01*
X176738893Y-88307868D01*
X176717850Y-88320480D01*
X176695671Y-88330970D01*
X176672572Y-88339235D01*
X176648773Y-88345196D01*
X176624505Y-88348796D01*
X176600001Y-88350000D01*
X175949999Y-88350000D01*
X175925495Y-88348796D01*
X175901227Y-88345196D01*
X175877428Y-88339235D01*
X175854329Y-88330970D01*
X175832150Y-88320480D01*
X175811107Y-88307868D01*
X175791401Y-88293253D01*
X175773223Y-88276777D01*
X175756747Y-88258599D01*
X175742132Y-88238893D01*
X175729520Y-88217850D01*
X175719030Y-88195671D01*
X175710765Y-88172572D01*
X175704804Y-88148773D01*
X175701204Y-88124505D01*
X175700000Y-88100001D01*
X175700000Y-87199999D01*
X175701204Y-87175495D01*
X175704804Y-87151227D01*
X175710765Y-87127428D01*
X175719030Y-87104329D01*
X175729520Y-87082150D01*
X175742132Y-87061107D01*
X175756747Y-87041401D01*
X175773223Y-87023223D01*
X175791401Y-87006747D01*
X175811107Y-86992132D01*
X175832150Y-86979520D01*
X175854329Y-86969030D01*
X175877428Y-86960765D01*
X175901227Y-86954804D01*
X175925495Y-86951204D01*
X175949999Y-86950000D01*
X176600001Y-86950000D01*
X176624505Y-86951204D01*
X176624505Y-86951204D01*
G37*
D13*
G04 #@! TD*
G04 #@! TO.P,C2,1*
G04 #@! TO.N,Net-(C2-Pad1)*
X176275000Y-87650000D03*
D12*
G04 #@! TO.N,Net-(A1-Pad9)*
G04 #@! TO.C,C3*
G36*
X172574505Y-76451204D02*
X172598773Y-76454804D01*
X172622572Y-76460765D01*
X172645671Y-76469030D01*
X172667850Y-76479520D01*
X172688893Y-76492132D01*
X172708599Y-76506747D01*
X172726777Y-76523223D01*
X172743253Y-76541401D01*
X172757868Y-76561107D01*
X172770480Y-76582150D01*
X172780970Y-76604329D01*
X172789235Y-76627428D01*
X172795196Y-76651227D01*
X172798796Y-76675495D01*
X172800000Y-76699999D01*
X172800000Y-77350001D01*
X172798796Y-77374505D01*
X172795196Y-77398773D01*
X172789235Y-77422572D01*
X172780970Y-77445671D01*
X172770480Y-77467850D01*
X172757868Y-77488893D01*
X172743253Y-77508599D01*
X172726777Y-77526777D01*
X172708599Y-77543253D01*
X172688893Y-77557868D01*
X172667850Y-77570480D01*
X172645671Y-77580970D01*
X172622572Y-77589235D01*
X172598773Y-77595196D01*
X172574505Y-77598796D01*
X172550001Y-77600000D01*
X171649999Y-77600000D01*
X171625495Y-77598796D01*
X171601227Y-77595196D01*
X171577428Y-77589235D01*
X171554329Y-77580970D01*
X171532150Y-77570480D01*
X171511107Y-77557868D01*
X171491401Y-77543253D01*
X171473223Y-77526777D01*
X171456747Y-77508599D01*
X171442132Y-77488893D01*
X171429520Y-77467850D01*
X171419030Y-77445671D01*
X171410765Y-77422572D01*
X171404804Y-77398773D01*
X171401204Y-77374505D01*
X171400000Y-77350001D01*
X171400000Y-76699999D01*
X171401204Y-76675495D01*
X171404804Y-76651227D01*
X171410765Y-76627428D01*
X171419030Y-76604329D01*
X171429520Y-76582150D01*
X171442132Y-76561107D01*
X171456747Y-76541401D01*
X171473223Y-76523223D01*
X171491401Y-76506747D01*
X171511107Y-76492132D01*
X171532150Y-76479520D01*
X171554329Y-76469030D01*
X171577428Y-76460765D01*
X171601227Y-76454804D01*
X171625495Y-76451204D01*
X171649999Y-76450000D01*
X172550001Y-76450000D01*
X172574505Y-76451204D01*
X172574505Y-76451204D01*
G37*
D13*
G04 #@! TD*
G04 #@! TO.P,C3,1*
G04 #@! TO.N,Net-(A1-Pad9)*
X172100000Y-77025000D03*
D12*
G04 #@! TO.N,GND*
G04 #@! TO.C,C3*
G36*
X172574505Y-78501204D02*
X172598773Y-78504804D01*
X172622572Y-78510765D01*
X172645671Y-78519030D01*
X172667850Y-78529520D01*
X172688893Y-78542132D01*
X172708599Y-78556747D01*
X172726777Y-78573223D01*
X172743253Y-78591401D01*
X172757868Y-78611107D01*
X172770480Y-78632150D01*
X172780970Y-78654329D01*
X172789235Y-78677428D01*
X172795196Y-78701227D01*
X172798796Y-78725495D01*
X172800000Y-78749999D01*
X172800000Y-79400001D01*
X172798796Y-79424505D01*
X172795196Y-79448773D01*
X172789235Y-79472572D01*
X172780970Y-79495671D01*
X172770480Y-79517850D01*
X172757868Y-79538893D01*
X172743253Y-79558599D01*
X172726777Y-79576777D01*
X172708599Y-79593253D01*
X172688893Y-79607868D01*
X172667850Y-79620480D01*
X172645671Y-79630970D01*
X172622572Y-79639235D01*
X172598773Y-79645196D01*
X172574505Y-79648796D01*
X172550001Y-79650000D01*
X171649999Y-79650000D01*
X171625495Y-79648796D01*
X171601227Y-79645196D01*
X171577428Y-79639235D01*
X171554329Y-79630970D01*
X171532150Y-79620480D01*
X171511107Y-79607868D01*
X171491401Y-79593253D01*
X171473223Y-79576777D01*
X171456747Y-79558599D01*
X171442132Y-79538893D01*
X171429520Y-79517850D01*
X171419030Y-79495671D01*
X171410765Y-79472572D01*
X171404804Y-79448773D01*
X171401204Y-79424505D01*
X171400000Y-79400001D01*
X171400000Y-78749999D01*
X171401204Y-78725495D01*
X171404804Y-78701227D01*
X171410765Y-78677428D01*
X171419030Y-78654329D01*
X171429520Y-78632150D01*
X171442132Y-78611107D01*
X171456747Y-78591401D01*
X171473223Y-78573223D01*
X171491401Y-78556747D01*
X171511107Y-78542132D01*
X171532150Y-78529520D01*
X171554329Y-78519030D01*
X171577428Y-78510765D01*
X171601227Y-78504804D01*
X171625495Y-78501204D01*
X171649999Y-78500000D01*
X172550001Y-78500000D01*
X172574505Y-78501204D01*
X172574505Y-78501204D01*
G37*
D13*
G04 #@! TD*
G04 #@! TO.P,C3,2*
G04 #@! TO.N,GND*
X172100000Y-79075000D03*
D12*
G04 #@! TO.N,GND*
G04 #@! TO.C,C4*
G36*
X164774505Y-79351204D02*
X164798773Y-79354804D01*
X164822572Y-79360765D01*
X164845671Y-79369030D01*
X164867850Y-79379520D01*
X164888893Y-79392132D01*
X164908599Y-79406747D01*
X164926777Y-79423223D01*
X164943253Y-79441401D01*
X164957868Y-79461107D01*
X164970480Y-79482150D01*
X164980970Y-79504329D01*
X164989235Y-79527428D01*
X164995196Y-79551227D01*
X164998796Y-79575495D01*
X165000000Y-79599999D01*
X165000000Y-80500001D01*
X164998796Y-80524505D01*
X164995196Y-80548773D01*
X164989235Y-80572572D01*
X164980970Y-80595671D01*
X164970480Y-80617850D01*
X164957868Y-80638893D01*
X164943253Y-80658599D01*
X164926777Y-80676777D01*
X164908599Y-80693253D01*
X164888893Y-80707868D01*
X164867850Y-80720480D01*
X164845671Y-80730970D01*
X164822572Y-80739235D01*
X164798773Y-80745196D01*
X164774505Y-80748796D01*
X164750001Y-80750000D01*
X164099999Y-80750000D01*
X164075495Y-80748796D01*
X164051227Y-80745196D01*
X164027428Y-80739235D01*
X164004329Y-80730970D01*
X163982150Y-80720480D01*
X163961107Y-80707868D01*
X163941401Y-80693253D01*
X163923223Y-80676777D01*
X163906747Y-80658599D01*
X163892132Y-80638893D01*
X163879520Y-80617850D01*
X163869030Y-80595671D01*
X163860765Y-80572572D01*
X163854804Y-80548773D01*
X163851204Y-80524505D01*
X163850000Y-80500001D01*
X163850000Y-79599999D01*
X163851204Y-79575495D01*
X163854804Y-79551227D01*
X163860765Y-79527428D01*
X163869030Y-79504329D01*
X163879520Y-79482150D01*
X163892132Y-79461107D01*
X163906747Y-79441401D01*
X163923223Y-79423223D01*
X163941401Y-79406747D01*
X163961107Y-79392132D01*
X163982150Y-79379520D01*
X164004329Y-79369030D01*
X164027428Y-79360765D01*
X164051227Y-79354804D01*
X164075495Y-79351204D01*
X164099999Y-79350000D01*
X164750001Y-79350000D01*
X164774505Y-79351204D01*
X164774505Y-79351204D01*
G37*
D13*
G04 #@! TD*
G04 #@! TO.P,C4,2*
G04 #@! TO.N,GND*
X164425000Y-80050000D03*
D12*
G04 #@! TO.N,+5V*
G04 #@! TO.C,C4*
G36*
X166824505Y-79351204D02*
X166848773Y-79354804D01*
X166872572Y-79360765D01*
X166895671Y-79369030D01*
X166917850Y-79379520D01*
X166938893Y-79392132D01*
X166958599Y-79406747D01*
X166976777Y-79423223D01*
X166993253Y-79441401D01*
X167007868Y-79461107D01*
X167020480Y-79482150D01*
X167030970Y-79504329D01*
X167039235Y-79527428D01*
X167045196Y-79551227D01*
X167048796Y-79575495D01*
X167050000Y-79599999D01*
X167050000Y-80500001D01*
X167048796Y-80524505D01*
X167045196Y-80548773D01*
X167039235Y-80572572D01*
X167030970Y-80595671D01*
X167020480Y-80617850D01*
X167007868Y-80638893D01*
X166993253Y-80658599D01*
X166976777Y-80676777D01*
X166958599Y-80693253D01*
X166938893Y-80707868D01*
X166917850Y-80720480D01*
X166895671Y-80730970D01*
X166872572Y-80739235D01*
X166848773Y-80745196D01*
X166824505Y-80748796D01*
X166800001Y-80750000D01*
X166149999Y-80750000D01*
X166125495Y-80748796D01*
X166101227Y-80745196D01*
X166077428Y-80739235D01*
X166054329Y-80730970D01*
X166032150Y-80720480D01*
X166011107Y-80707868D01*
X165991401Y-80693253D01*
X165973223Y-80676777D01*
X165956747Y-80658599D01*
X165942132Y-80638893D01*
X165929520Y-80617850D01*
X165919030Y-80595671D01*
X165910765Y-80572572D01*
X165904804Y-80548773D01*
X165901204Y-80524505D01*
X165900000Y-80500001D01*
X165900000Y-79599999D01*
X165901204Y-79575495D01*
X165904804Y-79551227D01*
X165910765Y-79527428D01*
X165919030Y-79504329D01*
X165929520Y-79482150D01*
X165942132Y-79461107D01*
X165956747Y-79441401D01*
X165973223Y-79423223D01*
X165991401Y-79406747D01*
X166011107Y-79392132D01*
X166032150Y-79379520D01*
X166054329Y-79369030D01*
X166077428Y-79360765D01*
X166101227Y-79354804D01*
X166125495Y-79351204D01*
X166149999Y-79350000D01*
X166800001Y-79350000D01*
X166824505Y-79351204D01*
X166824505Y-79351204D01*
G37*
D13*
G04 #@! TD*
G04 #@! TO.P,C4,1*
G04 #@! TO.N,+5V*
X166475000Y-80050000D03*
D12*
G04 #@! TO.N,+5V*
G04 #@! TO.C,C5*
G36*
X166824505Y-81601204D02*
X166848773Y-81604804D01*
X166872572Y-81610765D01*
X166895671Y-81619030D01*
X166917850Y-81629520D01*
X166938893Y-81642132D01*
X166958599Y-81656747D01*
X166976777Y-81673223D01*
X166993253Y-81691401D01*
X167007868Y-81711107D01*
X167020480Y-81732150D01*
X167030970Y-81754329D01*
X167039235Y-81777428D01*
X167045196Y-81801227D01*
X167048796Y-81825495D01*
X167050000Y-81849999D01*
X167050000Y-82750001D01*
X167048796Y-82774505D01*
X167045196Y-82798773D01*
X167039235Y-82822572D01*
X167030970Y-82845671D01*
X167020480Y-82867850D01*
X167007868Y-82888893D01*
X166993253Y-82908599D01*
X166976777Y-82926777D01*
X166958599Y-82943253D01*
X166938893Y-82957868D01*
X166917850Y-82970480D01*
X166895671Y-82980970D01*
X166872572Y-82989235D01*
X166848773Y-82995196D01*
X166824505Y-82998796D01*
X166800001Y-83000000D01*
X166149999Y-83000000D01*
X166125495Y-82998796D01*
X166101227Y-82995196D01*
X166077428Y-82989235D01*
X166054329Y-82980970D01*
X166032150Y-82970480D01*
X166011107Y-82957868D01*
X165991401Y-82943253D01*
X165973223Y-82926777D01*
X165956747Y-82908599D01*
X165942132Y-82888893D01*
X165929520Y-82867850D01*
X165919030Y-82845671D01*
X165910765Y-82822572D01*
X165904804Y-82798773D01*
X165901204Y-82774505D01*
X165900000Y-82750001D01*
X165900000Y-81849999D01*
X165901204Y-81825495D01*
X165904804Y-81801227D01*
X165910765Y-81777428D01*
X165919030Y-81754329D01*
X165929520Y-81732150D01*
X165942132Y-81711107D01*
X165956747Y-81691401D01*
X165973223Y-81673223D01*
X165991401Y-81656747D01*
X166011107Y-81642132D01*
X166032150Y-81629520D01*
X166054329Y-81619030D01*
X166077428Y-81610765D01*
X166101227Y-81604804D01*
X166125495Y-81601204D01*
X166149999Y-81600000D01*
X166800001Y-81600000D01*
X166824505Y-81601204D01*
X166824505Y-81601204D01*
G37*
D13*
G04 #@! TD*
G04 #@! TO.P,C5,1*
G04 #@! TO.N,+5V*
X166475000Y-82300000D03*
D12*
G04 #@! TO.N,GND*
G04 #@! TO.C,C5*
G36*
X164774505Y-81601204D02*
X164798773Y-81604804D01*
X164822572Y-81610765D01*
X164845671Y-81619030D01*
X164867850Y-81629520D01*
X164888893Y-81642132D01*
X164908599Y-81656747D01*
X164926777Y-81673223D01*
X164943253Y-81691401D01*
X164957868Y-81711107D01*
X164970480Y-81732150D01*
X164980970Y-81754329D01*
X164989235Y-81777428D01*
X164995196Y-81801227D01*
X164998796Y-81825495D01*
X165000000Y-81849999D01*
X165000000Y-82750001D01*
X164998796Y-82774505D01*
X164995196Y-82798773D01*
X164989235Y-82822572D01*
X164980970Y-82845671D01*
X164970480Y-82867850D01*
X164957868Y-82888893D01*
X164943253Y-82908599D01*
X164926777Y-82926777D01*
X164908599Y-82943253D01*
X164888893Y-82957868D01*
X164867850Y-82970480D01*
X164845671Y-82980970D01*
X164822572Y-82989235D01*
X164798773Y-82995196D01*
X164774505Y-82998796D01*
X164750001Y-83000000D01*
X164099999Y-83000000D01*
X164075495Y-82998796D01*
X164051227Y-82995196D01*
X164027428Y-82989235D01*
X164004329Y-82980970D01*
X163982150Y-82970480D01*
X163961107Y-82957868D01*
X163941401Y-82943253D01*
X163923223Y-82926777D01*
X163906747Y-82908599D01*
X163892132Y-82888893D01*
X163879520Y-82867850D01*
X163869030Y-82845671D01*
X163860765Y-82822572D01*
X163854804Y-82798773D01*
X163851204Y-82774505D01*
X163850000Y-82750001D01*
X163850000Y-81849999D01*
X163851204Y-81825495D01*
X163854804Y-81801227D01*
X163860765Y-81777428D01*
X163869030Y-81754329D01*
X163879520Y-81732150D01*
X163892132Y-81711107D01*
X163906747Y-81691401D01*
X163923223Y-81673223D01*
X163941401Y-81656747D01*
X163961107Y-81642132D01*
X163982150Y-81629520D01*
X164004329Y-81619030D01*
X164027428Y-81610765D01*
X164051227Y-81604804D01*
X164075495Y-81601204D01*
X164099999Y-81600000D01*
X164750001Y-81600000D01*
X164774505Y-81601204D01*
X164774505Y-81601204D01*
G37*
D13*
G04 #@! TD*
G04 #@! TO.P,C5,2*
G04 #@! TO.N,GND*
X164425000Y-82300000D03*
D14*
G04 #@! TO.P,J1,1*
G04 #@! TO.N,+5V*
X181500000Y-81500000D03*
D15*
G04 #@! TO.P,J1,2*
G04 #@! TO.N,Net-(C1-Pad1)*
X181500000Y-84040000D03*
G04 #@! TO.P,J1,3*
G04 #@! TO.N,GND*
X181500000Y-86580000D03*
G04 #@! TO.P,J1,4*
X181500000Y-89120000D03*
G04 #@! TD*
D12*
G04 #@! TO.N,Net-(C1-Pad1)*
G04 #@! TO.C,R1*
G36*
X176624505Y-80101204D02*
X176648773Y-80104804D01*
X176672572Y-80110765D01*
X176695671Y-80119030D01*
X176717850Y-80129520D01*
X176738893Y-80142132D01*
X176758599Y-80156747D01*
X176776777Y-80173223D01*
X176793253Y-80191401D01*
X176807868Y-80211107D01*
X176820480Y-80232150D01*
X176830970Y-80254329D01*
X176839235Y-80277428D01*
X176845196Y-80301227D01*
X176848796Y-80325495D01*
X176850000Y-80349999D01*
X176850000Y-81250001D01*
X176848796Y-81274505D01*
X176845196Y-81298773D01*
X176839235Y-81322572D01*
X176830970Y-81345671D01*
X176820480Y-81367850D01*
X176807868Y-81388893D01*
X176793253Y-81408599D01*
X176776777Y-81426777D01*
X176758599Y-81443253D01*
X176738893Y-81457868D01*
X176717850Y-81470480D01*
X176695671Y-81480970D01*
X176672572Y-81489235D01*
X176648773Y-81495196D01*
X176624505Y-81498796D01*
X176600001Y-81500000D01*
X175949999Y-81500000D01*
X175925495Y-81498796D01*
X175901227Y-81495196D01*
X175877428Y-81489235D01*
X175854329Y-81480970D01*
X175832150Y-81470480D01*
X175811107Y-81457868D01*
X175791401Y-81443253D01*
X175773223Y-81426777D01*
X175756747Y-81408599D01*
X175742132Y-81388893D01*
X175729520Y-81367850D01*
X175719030Y-81345671D01*
X175710765Y-81322572D01*
X175704804Y-81298773D01*
X175701204Y-81274505D01*
X175700000Y-81250001D01*
X175700000Y-80349999D01*
X175701204Y-80325495D01*
X175704804Y-80301227D01*
X175710765Y-80277428D01*
X175719030Y-80254329D01*
X175729520Y-80232150D01*
X175742132Y-80211107D01*
X175756747Y-80191401D01*
X175773223Y-80173223D01*
X175791401Y-80156747D01*
X175811107Y-80142132D01*
X175832150Y-80129520D01*
X175854329Y-80119030D01*
X175877428Y-80110765D01*
X175901227Y-80104804D01*
X175925495Y-80101204D01*
X175949999Y-80100000D01*
X176600001Y-80100000D01*
X176624505Y-80101204D01*
X176624505Y-80101204D01*
G37*
D13*
G04 #@! TD*
G04 #@! TO.P,R1,1*
G04 #@! TO.N,Net-(C1-Pad1)*
X176275000Y-80800000D03*
D12*
G04 #@! TO.N,GND*
G04 #@! TO.C,R1*
G36*
X178674505Y-80101204D02*
X178698773Y-80104804D01*
X178722572Y-80110765D01*
X178745671Y-80119030D01*
X178767850Y-80129520D01*
X178788893Y-80142132D01*
X178808599Y-80156747D01*
X178826777Y-80173223D01*
X178843253Y-80191401D01*
X178857868Y-80211107D01*
X178870480Y-80232150D01*
X178880970Y-80254329D01*
X178889235Y-80277428D01*
X178895196Y-80301227D01*
X178898796Y-80325495D01*
X178900000Y-80349999D01*
X178900000Y-81250001D01*
X178898796Y-81274505D01*
X178895196Y-81298773D01*
X178889235Y-81322572D01*
X178880970Y-81345671D01*
X178870480Y-81367850D01*
X178857868Y-81388893D01*
X178843253Y-81408599D01*
X178826777Y-81426777D01*
X178808599Y-81443253D01*
X178788893Y-81457868D01*
X178767850Y-81470480D01*
X178745671Y-81480970D01*
X178722572Y-81489235D01*
X178698773Y-81495196D01*
X178674505Y-81498796D01*
X178650001Y-81500000D01*
X177999999Y-81500000D01*
X177975495Y-81498796D01*
X177951227Y-81495196D01*
X177927428Y-81489235D01*
X177904329Y-81480970D01*
X177882150Y-81470480D01*
X177861107Y-81457868D01*
X177841401Y-81443253D01*
X177823223Y-81426777D01*
X177806747Y-81408599D01*
X177792132Y-81388893D01*
X177779520Y-81367850D01*
X177769030Y-81345671D01*
X177760765Y-81322572D01*
X177754804Y-81298773D01*
X177751204Y-81274505D01*
X177750000Y-81250001D01*
X177750000Y-80349999D01*
X177751204Y-80325495D01*
X177754804Y-80301227D01*
X177760765Y-80277428D01*
X177769030Y-80254329D01*
X177779520Y-80232150D01*
X177792132Y-80211107D01*
X177806747Y-80191401D01*
X177823223Y-80173223D01*
X177841401Y-80156747D01*
X177861107Y-80142132D01*
X177882150Y-80129520D01*
X177904329Y-80119030D01*
X177927428Y-80110765D01*
X177951227Y-80104804D01*
X177975495Y-80101204D01*
X177999999Y-80100000D01*
X178650001Y-80100000D01*
X178674505Y-80101204D01*
X178674505Y-80101204D01*
G37*
D13*
G04 #@! TD*
G04 #@! TO.P,R1,2*
G04 #@! TO.N,GND*
X178325000Y-80800000D03*
D12*
G04 #@! TO.N,+5V*
G04 #@! TO.C,R2*
G36*
X178824505Y-94001204D02*
X178848773Y-94004804D01*
X178872572Y-94010765D01*
X178895671Y-94019030D01*
X178917850Y-94029520D01*
X178938893Y-94042132D01*
X178958599Y-94056747D01*
X178976777Y-94073223D01*
X178993253Y-94091401D01*
X179007868Y-94111107D01*
X179020480Y-94132150D01*
X179030970Y-94154329D01*
X179039235Y-94177428D01*
X179045196Y-94201227D01*
X179048796Y-94225495D01*
X179050000Y-94249999D01*
X179050000Y-95150001D01*
X179048796Y-95174505D01*
X179045196Y-95198773D01*
X179039235Y-95222572D01*
X179030970Y-95245671D01*
X179020480Y-95267850D01*
X179007868Y-95288893D01*
X178993253Y-95308599D01*
X178976777Y-95326777D01*
X178958599Y-95343253D01*
X178938893Y-95357868D01*
X178917850Y-95370480D01*
X178895671Y-95380970D01*
X178872572Y-95389235D01*
X178848773Y-95395196D01*
X178824505Y-95398796D01*
X178800001Y-95400000D01*
X178149999Y-95400000D01*
X178125495Y-95398796D01*
X178101227Y-95395196D01*
X178077428Y-95389235D01*
X178054329Y-95380970D01*
X178032150Y-95370480D01*
X178011107Y-95357868D01*
X177991401Y-95343253D01*
X177973223Y-95326777D01*
X177956747Y-95308599D01*
X177942132Y-95288893D01*
X177929520Y-95267850D01*
X177919030Y-95245671D01*
X177910765Y-95222572D01*
X177904804Y-95198773D01*
X177901204Y-95174505D01*
X177900000Y-95150001D01*
X177900000Y-94249999D01*
X177901204Y-94225495D01*
X177904804Y-94201227D01*
X177910765Y-94177428D01*
X177919030Y-94154329D01*
X177929520Y-94132150D01*
X177942132Y-94111107D01*
X177956747Y-94091401D01*
X177973223Y-94073223D01*
X177991401Y-94056747D01*
X178011107Y-94042132D01*
X178032150Y-94029520D01*
X178054329Y-94019030D01*
X178077428Y-94010765D01*
X178101227Y-94004804D01*
X178125495Y-94001204D01*
X178149999Y-94000000D01*
X178800001Y-94000000D01*
X178824505Y-94001204D01*
X178824505Y-94001204D01*
G37*
D13*
G04 #@! TD*
G04 #@! TO.P,R2,2*
G04 #@! TO.N,+5V*
X178475000Y-94700000D03*
D12*
G04 #@! TO.N,Net-(R2-Pad1)*
G04 #@! TO.C,R2*
G36*
X176774505Y-94001204D02*
X176798773Y-94004804D01*
X176822572Y-94010765D01*
X176845671Y-94019030D01*
X176867850Y-94029520D01*
X176888893Y-94042132D01*
X176908599Y-94056747D01*
X176926777Y-94073223D01*
X176943253Y-94091401D01*
X176957868Y-94111107D01*
X176970480Y-94132150D01*
X176980970Y-94154329D01*
X176989235Y-94177428D01*
X176995196Y-94201227D01*
X176998796Y-94225495D01*
X177000000Y-94249999D01*
X177000000Y-95150001D01*
X176998796Y-95174505D01*
X176995196Y-95198773D01*
X176989235Y-95222572D01*
X176980970Y-95245671D01*
X176970480Y-95267850D01*
X176957868Y-95288893D01*
X176943253Y-95308599D01*
X176926777Y-95326777D01*
X176908599Y-95343253D01*
X176888893Y-95357868D01*
X176867850Y-95370480D01*
X176845671Y-95380970D01*
X176822572Y-95389235D01*
X176798773Y-95395196D01*
X176774505Y-95398796D01*
X176750001Y-95400000D01*
X176099999Y-95400000D01*
X176075495Y-95398796D01*
X176051227Y-95395196D01*
X176027428Y-95389235D01*
X176004329Y-95380970D01*
X175982150Y-95370480D01*
X175961107Y-95357868D01*
X175941401Y-95343253D01*
X175923223Y-95326777D01*
X175906747Y-95308599D01*
X175892132Y-95288893D01*
X175879520Y-95267850D01*
X175869030Y-95245671D01*
X175860765Y-95222572D01*
X175854804Y-95198773D01*
X175851204Y-95174505D01*
X175850000Y-95150001D01*
X175850000Y-94249999D01*
X175851204Y-94225495D01*
X175854804Y-94201227D01*
X175860765Y-94177428D01*
X175869030Y-94154329D01*
X175879520Y-94132150D01*
X175892132Y-94111107D01*
X175906747Y-94091401D01*
X175923223Y-94073223D01*
X175941401Y-94056747D01*
X175961107Y-94042132D01*
X175982150Y-94029520D01*
X176004329Y-94019030D01*
X176027428Y-94010765D01*
X176051227Y-94004804D01*
X176075495Y-94001204D01*
X176099999Y-94000000D01*
X176750001Y-94000000D01*
X176774505Y-94001204D01*
X176774505Y-94001204D01*
G37*
D13*
G04 #@! TD*
G04 #@! TO.P,R2,1*
G04 #@! TO.N,Net-(R2-Pad1)*
X176425000Y-94700000D03*
D12*
G04 #@! TO.N,GND*
G04 #@! TO.C,R3*
G36*
X178724505Y-89201204D02*
X178748773Y-89204804D01*
X178772572Y-89210765D01*
X178795671Y-89219030D01*
X178817850Y-89229520D01*
X178838893Y-89242132D01*
X178858599Y-89256747D01*
X178876777Y-89273223D01*
X178893253Y-89291401D01*
X178907868Y-89311107D01*
X178920480Y-89332150D01*
X178930970Y-89354329D01*
X178939235Y-89377428D01*
X178945196Y-89401227D01*
X178948796Y-89425495D01*
X178950000Y-89449999D01*
X178950000Y-90350001D01*
X178948796Y-90374505D01*
X178945196Y-90398773D01*
X178939235Y-90422572D01*
X178930970Y-90445671D01*
X178920480Y-90467850D01*
X178907868Y-90488893D01*
X178893253Y-90508599D01*
X178876777Y-90526777D01*
X178858599Y-90543253D01*
X178838893Y-90557868D01*
X178817850Y-90570480D01*
X178795671Y-90580970D01*
X178772572Y-90589235D01*
X178748773Y-90595196D01*
X178724505Y-90598796D01*
X178700001Y-90600000D01*
X178049999Y-90600000D01*
X178025495Y-90598796D01*
X178001227Y-90595196D01*
X177977428Y-90589235D01*
X177954329Y-90580970D01*
X177932150Y-90570480D01*
X177911107Y-90557868D01*
X177891401Y-90543253D01*
X177873223Y-90526777D01*
X177856747Y-90508599D01*
X177842132Y-90488893D01*
X177829520Y-90467850D01*
X177819030Y-90445671D01*
X177810765Y-90422572D01*
X177804804Y-90398773D01*
X177801204Y-90374505D01*
X177800000Y-90350001D01*
X177800000Y-89449999D01*
X177801204Y-89425495D01*
X177804804Y-89401227D01*
X177810765Y-89377428D01*
X177819030Y-89354329D01*
X177829520Y-89332150D01*
X177842132Y-89311107D01*
X177856747Y-89291401D01*
X177873223Y-89273223D01*
X177891401Y-89256747D01*
X177911107Y-89242132D01*
X177932150Y-89229520D01*
X177954329Y-89219030D01*
X177977428Y-89210765D01*
X178001227Y-89204804D01*
X178025495Y-89201204D01*
X178049999Y-89200000D01*
X178700001Y-89200000D01*
X178724505Y-89201204D01*
X178724505Y-89201204D01*
G37*
D13*
G04 #@! TD*
G04 #@! TO.P,R3,1*
G04 #@! TO.N,GND*
X178375000Y-89900000D03*
D12*
G04 #@! TO.N,Net-(R3-Pad2)*
G04 #@! TO.C,R3*
G36*
X176674505Y-89201204D02*
X176698773Y-89204804D01*
X176722572Y-89210765D01*
X176745671Y-89219030D01*
X176767850Y-89229520D01*
X176788893Y-89242132D01*
X176808599Y-89256747D01*
X176826777Y-89273223D01*
X176843253Y-89291401D01*
X176857868Y-89311107D01*
X176870480Y-89332150D01*
X176880970Y-89354329D01*
X176889235Y-89377428D01*
X176895196Y-89401227D01*
X176898796Y-89425495D01*
X176900000Y-89449999D01*
X176900000Y-90350001D01*
X176898796Y-90374505D01*
X176895196Y-90398773D01*
X176889235Y-90422572D01*
X176880970Y-90445671D01*
X176870480Y-90467850D01*
X176857868Y-90488893D01*
X176843253Y-90508599D01*
X176826777Y-90526777D01*
X176808599Y-90543253D01*
X176788893Y-90557868D01*
X176767850Y-90570480D01*
X176745671Y-90580970D01*
X176722572Y-90589235D01*
X176698773Y-90595196D01*
X176674505Y-90598796D01*
X176650001Y-90600000D01*
X175999999Y-90600000D01*
X175975495Y-90598796D01*
X175951227Y-90595196D01*
X175927428Y-90589235D01*
X175904329Y-90580970D01*
X175882150Y-90570480D01*
X175861107Y-90557868D01*
X175841401Y-90543253D01*
X175823223Y-90526777D01*
X175806747Y-90508599D01*
X175792132Y-90488893D01*
X175779520Y-90467850D01*
X175769030Y-90445671D01*
X175760765Y-90422572D01*
X175754804Y-90398773D01*
X175751204Y-90374505D01*
X175750000Y-90350001D01*
X175750000Y-89449999D01*
X175751204Y-89425495D01*
X175754804Y-89401227D01*
X175760765Y-89377428D01*
X175769030Y-89354329D01*
X175779520Y-89332150D01*
X175792132Y-89311107D01*
X175806747Y-89291401D01*
X175823223Y-89273223D01*
X175841401Y-89256747D01*
X175861107Y-89242132D01*
X175882150Y-89229520D01*
X175904329Y-89219030D01*
X175927428Y-89210765D01*
X175951227Y-89204804D01*
X175975495Y-89201204D01*
X175999999Y-89200000D01*
X176650001Y-89200000D01*
X176674505Y-89201204D01*
X176674505Y-89201204D01*
G37*
D13*
G04 #@! TD*
G04 #@! TO.P,R3,2*
G04 #@! TO.N,Net-(R3-Pad2)*
X176325000Y-89900000D03*
D12*
G04 #@! TO.N,GND*
G04 #@! TO.C,R4*
G36*
X178674505Y-84651204D02*
X178698773Y-84654804D01*
X178722572Y-84660765D01*
X178745671Y-84669030D01*
X178767850Y-84679520D01*
X178788893Y-84692132D01*
X178808599Y-84706747D01*
X178826777Y-84723223D01*
X178843253Y-84741401D01*
X178857868Y-84761107D01*
X178870480Y-84782150D01*
X178880970Y-84804329D01*
X178889235Y-84827428D01*
X178895196Y-84851227D01*
X178898796Y-84875495D01*
X178900000Y-84899999D01*
X178900000Y-85800001D01*
X178898796Y-85824505D01*
X178895196Y-85848773D01*
X178889235Y-85872572D01*
X178880970Y-85895671D01*
X178870480Y-85917850D01*
X178857868Y-85938893D01*
X178843253Y-85958599D01*
X178826777Y-85976777D01*
X178808599Y-85993253D01*
X178788893Y-86007868D01*
X178767850Y-86020480D01*
X178745671Y-86030970D01*
X178722572Y-86039235D01*
X178698773Y-86045196D01*
X178674505Y-86048796D01*
X178650001Y-86050000D01*
X177999999Y-86050000D01*
X177975495Y-86048796D01*
X177951227Y-86045196D01*
X177927428Y-86039235D01*
X177904329Y-86030970D01*
X177882150Y-86020480D01*
X177861107Y-86007868D01*
X177841401Y-85993253D01*
X177823223Y-85976777D01*
X177806747Y-85958599D01*
X177792132Y-85938893D01*
X177779520Y-85917850D01*
X177769030Y-85895671D01*
X177760765Y-85872572D01*
X177754804Y-85848773D01*
X177751204Y-85824505D01*
X177750000Y-85800001D01*
X177750000Y-84899999D01*
X177751204Y-84875495D01*
X177754804Y-84851227D01*
X177760765Y-84827428D01*
X177769030Y-84804329D01*
X177779520Y-84782150D01*
X177792132Y-84761107D01*
X177806747Y-84741401D01*
X177823223Y-84723223D01*
X177841401Y-84706747D01*
X177861107Y-84692132D01*
X177882150Y-84679520D01*
X177904329Y-84669030D01*
X177927428Y-84660765D01*
X177951227Y-84654804D01*
X177975495Y-84651204D01*
X177999999Y-84650000D01*
X178650001Y-84650000D01*
X178674505Y-84651204D01*
X178674505Y-84651204D01*
G37*
D13*
G04 #@! TD*
G04 #@! TO.P,R4,2*
G04 #@! TO.N,GND*
X178325000Y-85350000D03*
D12*
G04 #@! TO.N,Net-(C2-Pad1)*
G04 #@! TO.C,R4*
G36*
X176624505Y-84651204D02*
X176648773Y-84654804D01*
X176672572Y-84660765D01*
X176695671Y-84669030D01*
X176717850Y-84679520D01*
X176738893Y-84692132D01*
X176758599Y-84706747D01*
X176776777Y-84723223D01*
X176793253Y-84741401D01*
X176807868Y-84761107D01*
X176820480Y-84782150D01*
X176830970Y-84804329D01*
X176839235Y-84827428D01*
X176845196Y-84851227D01*
X176848796Y-84875495D01*
X176850000Y-84899999D01*
X176850000Y-85800001D01*
X176848796Y-85824505D01*
X176845196Y-85848773D01*
X176839235Y-85872572D01*
X176830970Y-85895671D01*
X176820480Y-85917850D01*
X176807868Y-85938893D01*
X176793253Y-85958599D01*
X176776777Y-85976777D01*
X176758599Y-85993253D01*
X176738893Y-86007868D01*
X176717850Y-86020480D01*
X176695671Y-86030970D01*
X176672572Y-86039235D01*
X176648773Y-86045196D01*
X176624505Y-86048796D01*
X176600001Y-86050000D01*
X175949999Y-86050000D01*
X175925495Y-86048796D01*
X175901227Y-86045196D01*
X175877428Y-86039235D01*
X175854329Y-86030970D01*
X175832150Y-86020480D01*
X175811107Y-86007868D01*
X175791401Y-85993253D01*
X175773223Y-85976777D01*
X175756747Y-85958599D01*
X175742132Y-85938893D01*
X175729520Y-85917850D01*
X175719030Y-85895671D01*
X175710765Y-85872572D01*
X175704804Y-85848773D01*
X175701204Y-85824505D01*
X175700000Y-85800001D01*
X175700000Y-84899999D01*
X175701204Y-84875495D01*
X175704804Y-84851227D01*
X175710765Y-84827428D01*
X175719030Y-84804329D01*
X175729520Y-84782150D01*
X175742132Y-84761107D01*
X175756747Y-84741401D01*
X175773223Y-84723223D01*
X175791401Y-84706747D01*
X175811107Y-84692132D01*
X175832150Y-84679520D01*
X175854329Y-84669030D01*
X175877428Y-84660765D01*
X175901227Y-84654804D01*
X175925495Y-84651204D01*
X175949999Y-84650000D01*
X176600001Y-84650000D01*
X176624505Y-84651204D01*
X176624505Y-84651204D01*
G37*
D13*
G04 #@! TD*
G04 #@! TO.P,R4,1*
G04 #@! TO.N,Net-(C2-Pad1)*
X176275000Y-85350000D03*
D12*
G04 #@! TO.N,Net-(A1-Pad9)*
G04 #@! TO.C,R5*
G36*
X170324505Y-76451204D02*
X170348773Y-76454804D01*
X170372572Y-76460765D01*
X170395671Y-76469030D01*
X170417850Y-76479520D01*
X170438893Y-76492132D01*
X170458599Y-76506747D01*
X170476777Y-76523223D01*
X170493253Y-76541401D01*
X170507868Y-76561107D01*
X170520480Y-76582150D01*
X170530970Y-76604329D01*
X170539235Y-76627428D01*
X170545196Y-76651227D01*
X170548796Y-76675495D01*
X170550000Y-76699999D01*
X170550000Y-77350001D01*
X170548796Y-77374505D01*
X170545196Y-77398773D01*
X170539235Y-77422572D01*
X170530970Y-77445671D01*
X170520480Y-77467850D01*
X170507868Y-77488893D01*
X170493253Y-77508599D01*
X170476777Y-77526777D01*
X170458599Y-77543253D01*
X170438893Y-77557868D01*
X170417850Y-77570480D01*
X170395671Y-77580970D01*
X170372572Y-77589235D01*
X170348773Y-77595196D01*
X170324505Y-77598796D01*
X170300001Y-77600000D01*
X169399999Y-77600000D01*
X169375495Y-77598796D01*
X169351227Y-77595196D01*
X169327428Y-77589235D01*
X169304329Y-77580970D01*
X169282150Y-77570480D01*
X169261107Y-77557868D01*
X169241401Y-77543253D01*
X169223223Y-77526777D01*
X169206747Y-77508599D01*
X169192132Y-77488893D01*
X169179520Y-77467850D01*
X169169030Y-77445671D01*
X169160765Y-77422572D01*
X169154804Y-77398773D01*
X169151204Y-77374505D01*
X169150000Y-77350001D01*
X169150000Y-76699999D01*
X169151204Y-76675495D01*
X169154804Y-76651227D01*
X169160765Y-76627428D01*
X169169030Y-76604329D01*
X169179520Y-76582150D01*
X169192132Y-76561107D01*
X169206747Y-76541401D01*
X169223223Y-76523223D01*
X169241401Y-76506747D01*
X169261107Y-76492132D01*
X169282150Y-76479520D01*
X169304329Y-76469030D01*
X169327428Y-76460765D01*
X169351227Y-76454804D01*
X169375495Y-76451204D01*
X169399999Y-76450000D01*
X170300001Y-76450000D01*
X170324505Y-76451204D01*
X170324505Y-76451204D01*
G37*
D13*
G04 #@! TD*
G04 #@! TO.P,R5,1*
G04 #@! TO.N,Net-(A1-Pad9)*
X169850000Y-77025000D03*
D12*
G04 #@! TO.N,Net-(R5-Pad2)*
G04 #@! TO.C,R5*
G36*
X170324505Y-78501204D02*
X170348773Y-78504804D01*
X170372572Y-78510765D01*
X170395671Y-78519030D01*
X170417850Y-78529520D01*
X170438893Y-78542132D01*
X170458599Y-78556747D01*
X170476777Y-78573223D01*
X170493253Y-78591401D01*
X170507868Y-78611107D01*
X170520480Y-78632150D01*
X170530970Y-78654329D01*
X170539235Y-78677428D01*
X170545196Y-78701227D01*
X170548796Y-78725495D01*
X170550000Y-78749999D01*
X170550000Y-79400001D01*
X170548796Y-79424505D01*
X170545196Y-79448773D01*
X170539235Y-79472572D01*
X170530970Y-79495671D01*
X170520480Y-79517850D01*
X170507868Y-79538893D01*
X170493253Y-79558599D01*
X170476777Y-79576777D01*
X170458599Y-79593253D01*
X170438893Y-79607868D01*
X170417850Y-79620480D01*
X170395671Y-79630970D01*
X170372572Y-79639235D01*
X170348773Y-79645196D01*
X170324505Y-79648796D01*
X170300001Y-79650000D01*
X169399999Y-79650000D01*
X169375495Y-79648796D01*
X169351227Y-79645196D01*
X169327428Y-79639235D01*
X169304329Y-79630970D01*
X169282150Y-79620480D01*
X169261107Y-79607868D01*
X169241401Y-79593253D01*
X169223223Y-79576777D01*
X169206747Y-79558599D01*
X169192132Y-79538893D01*
X169179520Y-79517850D01*
X169169030Y-79495671D01*
X169160765Y-79472572D01*
X169154804Y-79448773D01*
X169151204Y-79424505D01*
X169150000Y-79400001D01*
X169150000Y-78749999D01*
X169151204Y-78725495D01*
X169154804Y-78701227D01*
X169160765Y-78677428D01*
X169169030Y-78654329D01*
X169179520Y-78632150D01*
X169192132Y-78611107D01*
X169206747Y-78591401D01*
X169223223Y-78573223D01*
X169241401Y-78556747D01*
X169261107Y-78542132D01*
X169282150Y-78529520D01*
X169304329Y-78519030D01*
X169327428Y-78510765D01*
X169351227Y-78504804D01*
X169375495Y-78501204D01*
X169399999Y-78500000D01*
X170300001Y-78500000D01*
X170324505Y-78501204D01*
X170324505Y-78501204D01*
G37*
D13*
G04 #@! TD*
G04 #@! TO.P,R5,2*
G04 #@! TO.N,Net-(R5-Pad2)*
X169850000Y-79075000D03*
D16*
G04 #@! TO.P,RV1,1*
G04 #@! TO.N,Net-(R2-Pad1)*
X173750000Y-94750000D03*
D17*
G04 #@! TO.P,RV1,2*
G04 #@! TO.N,Net-(RV1-Pad2)*
X168650000Y-93600000D03*
D16*
G04 #@! TO.P,RV1,3*
G04 #@! TO.N,Net-(R3-Pad2)*
X173750000Y-92450000D03*
G04 #@! TD*
G04 #@! TO.P,RV2,3*
G04 #@! TO.N,Net-(RV2-Pad3)*
X167400000Y-85250000D03*
D17*
G04 #@! TO.P,RV2,2*
G04 #@! TO.N,Net-(RV2-Pad1)*
X162300000Y-86400000D03*
D16*
G04 #@! TO.P,RV2,1*
X167400000Y-87550000D03*
G04 #@! TD*
D18*
G04 #@! TO.P,U1,1*
G04 #@! TO.N,Net-(RV2-Pad1)*
X169875000Y-89000000D03*
G04 #@! TO.P,U1,2*
G04 #@! TO.N,Net-(RV1-Pad2)*
X170525000Y-89000000D03*
G04 #@! TO.P,U1,3*
G04 #@! TO.N,Net-(C1-Pad1)*
X171175000Y-89000000D03*
G04 #@! TO.P,U1,4*
G04 #@! TO.N,GND*
X171825000Y-89000000D03*
G04 #@! TO.P,U1,5*
G04 #@! TO.N,Net-(C2-Pad1)*
X171825000Y-83100000D03*
G04 #@! TO.P,U1,6*
G04 #@! TO.N,Net-(R5-Pad2)*
X171175000Y-83100000D03*
G04 #@! TO.P,U1,7*
G04 #@! TO.N,+5V*
X170525000Y-83100000D03*
G04 #@! TO.P,U1,8*
G04 #@! TO.N,Net-(RV2-Pad3)*
X169875000Y-83100000D03*
G04 #@! TD*
D14*
G04 #@! TO.P,J2,1*
G04 #@! TO.N,GND*
X121700000Y-89280000D03*
D15*
G04 #@! TO.P,J2,2*
G04 #@! TO.N,+5V*
X121700000Y-86740000D03*
G04 #@! TO.P,J2,3*
G04 #@! TO.N,Net-(A1-Pad14)*
X121700000Y-84200000D03*
G04 #@! TO.P,J2,4*
G04 #@! TO.N,Net-(A1-Pad13)*
X121700000Y-81660000D03*
G04 #@! TD*
D19*
G04 #@! TO.N,GND*
X180775001Y-75965001D03*
X181825001Y-75965001D03*
X181825001Y-76915001D03*
X180775001Y-76915001D03*
G04 #@! TD*
D20*
G04 #@! TO.N,+5V*
X167098372Y-81676628D02*
X166475000Y-82300000D01*
X169986630Y-81676628D02*
X167098372Y-81676628D01*
X170525000Y-82214998D02*
X169986630Y-81676628D01*
X170525000Y-83100000D02*
X170525000Y-82214998D01*
X166475000Y-82300000D02*
X166475000Y-80050000D01*
X121700000Y-86740000D02*
X124425001Y-84014999D01*
X124425001Y-84014999D02*
X124425001Y-80765001D01*
X124425001Y-80765001D02*
X138875001Y-66315001D01*
X152075001Y-66315001D02*
X154425001Y-63965001D01*
X138875001Y-66315001D02*
X152075001Y-66315001D01*
X152075001Y-66315001D02*
X152075001Y-77615001D01*
X152075001Y-77615001D02*
X152875001Y-78415001D01*
X164840001Y-78415001D02*
X166475000Y-80050000D01*
X152875001Y-78415001D02*
X164840001Y-78415001D01*
X179150000Y-94700000D02*
X180634999Y-93215001D01*
X178475000Y-94700000D02*
X179150000Y-94700000D01*
X180634999Y-93215001D02*
X183375001Y-93215001D01*
X183375001Y-93215001D02*
X184175001Y-92415001D01*
X184175001Y-92415001D02*
X184175001Y-82265001D01*
X183410000Y-81500000D02*
X181500000Y-81500000D01*
X184175001Y-82265001D02*
X183410000Y-81500000D01*
G04 #@! TO.N,Net-(A1-Pad9)*
X169850000Y-77025000D02*
X172100000Y-77025000D01*
X167125001Y-65096371D02*
X167125001Y-63965001D01*
X167125001Y-75100001D02*
X167125001Y-65096371D01*
X169050000Y-77025000D02*
X167125001Y-75100001D01*
X169850000Y-77025000D02*
X169050000Y-77025000D01*
G04 #@! TO.N,Net-(A1-Pad13)*
X140794999Y-62565001D02*
X121700000Y-81660000D01*
X177016371Y-62565001D02*
X140794999Y-62565001D01*
X177285001Y-63965001D02*
X177285001Y-62833631D01*
X177285001Y-62833631D02*
X177016371Y-62565001D01*
G04 #@! TO.N,Net-(A1-Pad14)*
X179825001Y-62833631D02*
X178956371Y-61965001D01*
X179825001Y-63965001D02*
X179825001Y-62833631D01*
X120850001Y-83350001D02*
X121700000Y-84200000D01*
X120524999Y-83024999D02*
X120850001Y-83350001D01*
X120524999Y-81095999D02*
X120524999Y-83024999D01*
X139655997Y-61965001D02*
X120524999Y-81095999D01*
X178956371Y-61965001D02*
X139655997Y-61965001D01*
G04 #@! TO.N,Net-(C1-Pad1)*
X176275000Y-80800000D02*
X176275000Y-83050000D01*
X176275000Y-83850000D02*
X176590001Y-84165001D01*
X176275000Y-83050000D02*
X176275000Y-83850000D01*
X180297919Y-84040000D02*
X181500000Y-84040000D01*
X180172918Y-84165001D02*
X180297919Y-84040000D01*
X177275001Y-88238189D02*
X177275001Y-84165001D01*
X175711820Y-88675010D02*
X176838180Y-88675010D01*
X171250001Y-87949999D02*
X174986809Y-87949999D01*
X174986809Y-87949999D02*
X175711820Y-88675010D01*
X171175000Y-88025000D02*
X171250001Y-87949999D01*
X176838180Y-88675010D02*
X177275001Y-88238189D01*
X171175000Y-89000000D02*
X171175000Y-88025000D01*
X177275001Y-84165001D02*
X180172918Y-84165001D01*
X176590001Y-84165001D02*
X177275001Y-84165001D01*
G04 #@! TO.N,Net-(C2-Pad1)*
X176275000Y-85350000D02*
X176275000Y-87650000D01*
X176275000Y-85350000D02*
X172160000Y-85350000D01*
X171825000Y-85015000D02*
X171825000Y-83100000D01*
X172160000Y-85350000D02*
X171825000Y-85015000D01*
G04 #@! TO.N,Net-(R2-Pad1)*
X176375000Y-94750000D02*
X176425000Y-94700000D01*
X173750000Y-94750000D02*
X176375000Y-94750000D01*
G04 #@! TO.N,Net-(R3-Pad2)*
X173775000Y-92450000D02*
X173750000Y-92450000D01*
X176325000Y-89900000D02*
X173775000Y-92450000D01*
G04 #@! TO.N,Net-(R5-Pad2)*
X171175000Y-82125000D02*
X169825001Y-80775001D01*
X171175000Y-83100000D02*
X171175000Y-82125000D01*
X169850000Y-80750002D02*
X169850000Y-79075000D01*
X169825001Y-80775001D02*
X169850000Y-80750002D01*
G04 #@! TO.N,Net-(RV1-Pad2)*
X170525000Y-89975000D02*
X170525000Y-89000000D01*
X170525000Y-92925000D02*
X170525000Y-89975000D01*
X169850000Y-93600000D02*
X170525000Y-92925000D01*
X168650000Y-93600000D02*
X169850000Y-93600000D01*
G04 #@! TO.N,Net-(RV2-Pad3)*
X167700000Y-85250000D02*
X167715001Y-85265001D01*
X167400000Y-85250000D02*
X167700000Y-85250000D01*
X167715001Y-85265001D02*
X169275001Y-85265001D01*
X169875000Y-84665002D02*
X169875000Y-83100000D01*
X169275001Y-85265001D02*
X169875000Y-84665002D01*
G04 #@! TO.N,Net-(RV2-Pad1)*
X167400000Y-87550000D02*
X169410000Y-87550000D01*
X169875000Y-88015000D02*
X169875000Y-89000000D01*
X169410000Y-87550000D02*
X169875000Y-88015000D01*
X167400000Y-86650000D02*
X167400000Y-87550000D01*
X167150000Y-86400000D02*
X167400000Y-86650000D01*
X162300000Y-86400000D02*
X167150000Y-86400000D01*
G04 #@! TD*
D21*
G04 #@! TO.N,GND*
G36*
X129028975Y-62070260D02*
X128400260Y-62698975D01*
X128060001Y-63520432D01*
X128060001Y-64409570D01*
X128400260Y-65231027D01*
X129028975Y-65859742D01*
X129850432Y-66200001D01*
X130739570Y-66200001D01*
X131561027Y-65859742D01*
X132189742Y-65231027D01*
X132530001Y-64409570D01*
X132530001Y-63520432D01*
X132189742Y-62698975D01*
X131561027Y-62070260D01*
X131089631Y-61875001D01*
X138671195Y-61875001D01*
X120040529Y-80505668D01*
X119977070Y-80548070D01*
X119809095Y-80799463D01*
X119764999Y-81021148D01*
X119764999Y-81021152D01*
X119750111Y-81095999D01*
X119764999Y-81170846D01*
X119765000Y-82950147D01*
X119750111Y-83024999D01*
X119809096Y-83321536D01*
X119928343Y-83500001D01*
X119977071Y-83572928D01*
X120040527Y-83615328D01*
X120258791Y-83833592D01*
X120185908Y-84200000D01*
X120301161Y-84779418D01*
X120629375Y-85270625D01*
X120927761Y-85470000D01*
X120629375Y-85669375D01*
X120301161Y-86160582D01*
X120185908Y-86740000D01*
X120301161Y-87319418D01*
X120629375Y-87810625D01*
X120651033Y-87825096D01*
X120490302Y-87891673D01*
X120311673Y-88070301D01*
X120215000Y-88303690D01*
X120215000Y-88994250D01*
X120373750Y-89153000D01*
X121573000Y-89153000D01*
X121573000Y-89133000D01*
X121827000Y-89133000D01*
X121827000Y-89153000D01*
X123026250Y-89153000D01*
X123185000Y-88994250D01*
X123185000Y-88303690D01*
X123088327Y-88070301D01*
X122909698Y-87891673D01*
X122748967Y-87825096D01*
X122770625Y-87810625D01*
X123098839Y-87319418D01*
X123214092Y-86740000D01*
X123141209Y-86373592D01*
X124909477Y-84605326D01*
X124972930Y-84562928D01*
X125015328Y-84499475D01*
X125015330Y-84499473D01*
X125124200Y-84336537D01*
X125140905Y-84311536D01*
X125185001Y-84089851D01*
X125185001Y-84089847D01*
X125199889Y-84015000D01*
X125185001Y-83940153D01*
X125185001Y-82585750D01*
X163215000Y-82585750D01*
X163215000Y-83126310D01*
X163311673Y-83359699D01*
X163490302Y-83538327D01*
X163723691Y-83635000D01*
X164139250Y-83635000D01*
X164298000Y-83476250D01*
X164298000Y-82427000D01*
X163373750Y-82427000D01*
X163215000Y-82585750D01*
X125185001Y-82585750D01*
X125185001Y-81079802D01*
X125929053Y-80335750D01*
X163215000Y-80335750D01*
X163215000Y-80876310D01*
X163311673Y-81109699D01*
X163376974Y-81175000D01*
X163311673Y-81240301D01*
X163215000Y-81473690D01*
X163215000Y-82014250D01*
X163373750Y-82173000D01*
X164298000Y-82173000D01*
X164298000Y-80177000D01*
X163373750Y-80177000D01*
X163215000Y-80335750D01*
X125929053Y-80335750D01*
X139189803Y-67075001D01*
X151315001Y-67075001D01*
X151315002Y-77540149D01*
X151300113Y-77615001D01*
X151315002Y-77689853D01*
X151359098Y-77911538D01*
X151527073Y-78162930D01*
X151590529Y-78205330D01*
X152284671Y-78899473D01*
X152327072Y-78962930D01*
X152390528Y-79005330D01*
X152578463Y-79130905D01*
X152626606Y-79140481D01*
X152800149Y-79175001D01*
X152800153Y-79175001D01*
X152875001Y-79189889D01*
X152949849Y-79175001D01*
X163235168Y-79175001D01*
X163215000Y-79223690D01*
X163215000Y-79764250D01*
X163373750Y-79923000D01*
X164298000Y-79923000D01*
X164298000Y-79903000D01*
X164552000Y-79903000D01*
X164552000Y-79923000D01*
X164572000Y-79923000D01*
X164572000Y-80177000D01*
X164552000Y-80177000D01*
X164552000Y-82173000D01*
X164572000Y-82173000D01*
X164572000Y-82427000D01*
X164552000Y-82427000D01*
X164552000Y-83476250D01*
X164710750Y-83635000D01*
X165126309Y-83635000D01*
X165359698Y-83538327D01*
X165514623Y-83383403D01*
X165515414Y-83384586D01*
X165806564Y-83579127D01*
X166149999Y-83647440D01*
X166800001Y-83647440D01*
X167143436Y-83579127D01*
X167434586Y-83384586D01*
X167629127Y-83093436D01*
X167697440Y-82750001D01*
X167697440Y-82436628D01*
X169002560Y-82436628D01*
X169002560Y-83825000D01*
X169051843Y-84072765D01*
X169115000Y-84167286D01*
X169115000Y-84350200D01*
X168975500Y-84489700D01*
X168948157Y-84352235D01*
X168807809Y-84142191D01*
X168597765Y-84001843D01*
X168350000Y-83952560D01*
X166450000Y-83952560D01*
X166202235Y-84001843D01*
X165992191Y-84142191D01*
X165851843Y-84352235D01*
X165802560Y-84600000D01*
X165802560Y-85640000D01*
X163897440Y-85640000D01*
X163897440Y-85400000D01*
X163848157Y-85152235D01*
X163707809Y-84942191D01*
X163497765Y-84801843D01*
X163250000Y-84752560D01*
X161350000Y-84752560D01*
X161102235Y-84801843D01*
X160892191Y-84942191D01*
X160751843Y-85152235D01*
X160702560Y-85400000D01*
X160702560Y-87400000D01*
X160751843Y-87647765D01*
X160892191Y-87857809D01*
X161102235Y-87998157D01*
X161350000Y-88047440D01*
X163250000Y-88047440D01*
X163497765Y-87998157D01*
X163707809Y-87857809D01*
X163848157Y-87647765D01*
X163897440Y-87400000D01*
X163897440Y-87160000D01*
X165802560Y-87160000D01*
X165802560Y-88200000D01*
X165851843Y-88447765D01*
X165992191Y-88657809D01*
X166202235Y-88798157D01*
X166450000Y-88847440D01*
X168350000Y-88847440D01*
X168597765Y-88798157D01*
X168807809Y-88657809D01*
X168948157Y-88447765D01*
X168975560Y-88310000D01*
X169002560Y-88310000D01*
X169002560Y-89725000D01*
X169051843Y-89972765D01*
X169192191Y-90182809D01*
X169402235Y-90323157D01*
X169650000Y-90372440D01*
X169765001Y-90372440D01*
X169765000Y-91985380D01*
X169600000Y-91952560D01*
X167700000Y-91952560D01*
X167452235Y-92001843D01*
X167242191Y-92142191D01*
X167101843Y-92352235D01*
X167052560Y-92600000D01*
X167052560Y-94600000D01*
X167101843Y-94847765D01*
X167242191Y-95057809D01*
X167452235Y-95198157D01*
X167700000Y-95247440D01*
X169600000Y-95247440D01*
X169847765Y-95198157D01*
X170057809Y-95057809D01*
X170198157Y-94847765D01*
X170247440Y-94600000D01*
X170247440Y-94248483D01*
X170397929Y-94147929D01*
X170440331Y-94084470D01*
X171009473Y-93515329D01*
X171072929Y-93472929D01*
X171240904Y-93221537D01*
X171285000Y-92999852D01*
X171285000Y-92999848D01*
X171299888Y-92925001D01*
X171285000Y-92850154D01*
X171285000Y-90372440D01*
X171400000Y-90372440D01*
X171470073Y-90358502D01*
X171473690Y-90360000D01*
X171553750Y-90360000D01*
X171576397Y-90337353D01*
X171647765Y-90323157D01*
X171857809Y-90182809D01*
X171937500Y-90063544D01*
X171937500Y-90201250D01*
X172096250Y-90360000D01*
X172176310Y-90360000D01*
X172409699Y-90263327D01*
X172588327Y-90084698D01*
X172685000Y-89851309D01*
X172685000Y-89285750D01*
X172526250Y-89127000D01*
X172047440Y-89127000D01*
X172047440Y-88873000D01*
X172526250Y-88873000D01*
X172685000Y-88714250D01*
X172685000Y-88709999D01*
X174672007Y-88709999D01*
X175121492Y-89159485D01*
X175151433Y-89204295D01*
X175102560Y-89449999D01*
X175102560Y-90047638D01*
X173997639Y-91152560D01*
X172800000Y-91152560D01*
X172552235Y-91201843D01*
X172342191Y-91342191D01*
X172201843Y-91552235D01*
X172152560Y-91800000D01*
X172152560Y-93100000D01*
X172201843Y-93347765D01*
X172342191Y-93557809D01*
X172405334Y-93600000D01*
X172342191Y-93642191D01*
X172201843Y-93852235D01*
X172152560Y-94100000D01*
X172152560Y-95400000D01*
X172201843Y-95647765D01*
X172342191Y-95857809D01*
X172552235Y-95998157D01*
X172800000Y-96047440D01*
X174700000Y-96047440D01*
X174947765Y-95998157D01*
X175157809Y-95857809D01*
X175298157Y-95647765D01*
X175315554Y-95560305D01*
X175465414Y-95784586D01*
X175756564Y-95979127D01*
X176099999Y-96047440D01*
X176750001Y-96047440D01*
X177093436Y-95979127D01*
X177384586Y-95784586D01*
X177450000Y-95686687D01*
X177515414Y-95784586D01*
X177806564Y-95979127D01*
X178149999Y-96047440D01*
X178800001Y-96047440D01*
X179143436Y-95979127D01*
X179434586Y-95784586D01*
X179629127Y-95493436D01*
X179674900Y-95263316D01*
X179697929Y-95247929D01*
X179740331Y-95184470D01*
X180949801Y-93975001D01*
X183300154Y-93975001D01*
X183375001Y-93989889D01*
X183449848Y-93975001D01*
X183449853Y-93975001D01*
X183671538Y-93930905D01*
X183922930Y-93762930D01*
X183965332Y-93699471D01*
X184415002Y-93249802D01*
X184415002Y-96093805D01*
X184259742Y-95718975D01*
X183631027Y-95090260D01*
X182809570Y-94750001D01*
X181920432Y-94750001D01*
X181098975Y-95090260D01*
X180470260Y-95718975D01*
X180130001Y-96540432D01*
X180130001Y-97429570D01*
X180470260Y-98251027D01*
X181098975Y-98879742D01*
X181920432Y-99220001D01*
X182809570Y-99220001D01*
X183631027Y-98879742D01*
X184259742Y-98251027D01*
X184415002Y-97876197D01*
X184415002Y-98975018D01*
X182169450Y-101265482D01*
X182113120Y-101303121D01*
X182071539Y-101365352D01*
X182069057Y-101367883D01*
X182032725Y-101423440D01*
X181956196Y-101537974D01*
X181955484Y-101541555D01*
X181953487Y-101544608D01*
X181927969Y-101679879D01*
X181915001Y-101745076D01*
X181915001Y-101748626D01*
X181901128Y-101822168D01*
X181915001Y-101888475D01*
X181915002Y-112926749D01*
X180575035Y-114305001D01*
X132383773Y-114305001D01*
X132831027Y-114119742D01*
X133459742Y-113491027D01*
X133800001Y-112669570D01*
X133800001Y-112225001D01*
X138741888Y-112225001D01*
X138853261Y-112784910D01*
X139170424Y-113259578D01*
X139645092Y-113576741D01*
X140063668Y-113660001D01*
X140346334Y-113660001D01*
X140764910Y-113576741D01*
X141239578Y-113259578D01*
X141495948Y-112875893D01*
X141592612Y-113080135D01*
X142007578Y-113456042D01*
X142395962Y-113616905D01*
X142618001Y-113494916D01*
X142618001Y-112352001D01*
X142598001Y-112352001D01*
X142598001Y-112098001D01*
X142618001Y-112098001D01*
X142618001Y-110955086D01*
X142872001Y-110955086D01*
X142872001Y-112098001D01*
X142892001Y-112098001D01*
X142892001Y-112352001D01*
X142872001Y-112352001D01*
X142872001Y-113494916D01*
X143094040Y-113616905D01*
X143482424Y-113456042D01*
X143897390Y-113080135D01*
X143994054Y-112875893D01*
X144250424Y-113259578D01*
X144725092Y-113576741D01*
X145143668Y-113660001D01*
X145426334Y-113660001D01*
X145844910Y-113576741D01*
X146319578Y-113259578D01*
X146555001Y-112907243D01*
X146790424Y-113259578D01*
X147265092Y-113576741D01*
X147683668Y-113660001D01*
X147966334Y-113660001D01*
X148384910Y-113576741D01*
X148859578Y-113259578D01*
X149095001Y-112907243D01*
X149330424Y-113259578D01*
X149805092Y-113576741D01*
X150223668Y-113660001D01*
X150506334Y-113660001D01*
X150924910Y-113576741D01*
X151399578Y-113259578D01*
X151635001Y-112907243D01*
X151870424Y-113259578D01*
X152345092Y-113576741D01*
X152763668Y-113660001D01*
X153046334Y-113660001D01*
X153464910Y-113576741D01*
X153939578Y-113259578D01*
X154175001Y-112907243D01*
X154410424Y-113259578D01*
X154885092Y-113576741D01*
X155303668Y-113660001D01*
X155586334Y-113660001D01*
X156004910Y-113576741D01*
X156479578Y-113259578D01*
X156715001Y-112907243D01*
X156950424Y-113259578D01*
X157425092Y-113576741D01*
X157843668Y-113660001D01*
X158126334Y-113660001D01*
X158544910Y-113576741D01*
X159019578Y-113259578D01*
X159336741Y-112784910D01*
X159448114Y-112225001D01*
X160581888Y-112225001D01*
X160693261Y-112784910D01*
X161010424Y-113259578D01*
X161485092Y-113576741D01*
X161903668Y-113660001D01*
X162186334Y-113660001D01*
X162604910Y-113576741D01*
X163079578Y-113259578D01*
X163315001Y-112907243D01*
X163550424Y-113259578D01*
X164025092Y-113576741D01*
X164443668Y-113660001D01*
X164726334Y-113660001D01*
X165144910Y-113576741D01*
X165619578Y-113259578D01*
X165855001Y-112907243D01*
X166090424Y-113259578D01*
X166565092Y-113576741D01*
X166983668Y-113660001D01*
X167266334Y-113660001D01*
X167684910Y-113576741D01*
X168159578Y-113259578D01*
X168395001Y-112907243D01*
X168630424Y-113259578D01*
X169105092Y-113576741D01*
X169523668Y-113660001D01*
X169806334Y-113660001D01*
X170224910Y-113576741D01*
X170699578Y-113259578D01*
X170935001Y-112907243D01*
X171170424Y-113259578D01*
X171645092Y-113576741D01*
X172063668Y-113660001D01*
X172346334Y-113660001D01*
X172764910Y-113576741D01*
X173239578Y-113259578D01*
X173475001Y-112907243D01*
X173710424Y-113259578D01*
X174185092Y-113576741D01*
X174603668Y-113660001D01*
X174886334Y-113660001D01*
X175304910Y-113576741D01*
X175779578Y-113259578D01*
X176015001Y-112907243D01*
X176250424Y-113259578D01*
X176725092Y-113576741D01*
X177143668Y-113660001D01*
X177426334Y-113660001D01*
X177844910Y-113576741D01*
X178319578Y-113259578D01*
X178555001Y-112907243D01*
X178790424Y-113259578D01*
X179265092Y-113576741D01*
X179683668Y-113660001D01*
X179966334Y-113660001D01*
X180384910Y-113576741D01*
X180859578Y-113259578D01*
X181176741Y-112784910D01*
X181288114Y-112225001D01*
X181176741Y-111665092D01*
X180859578Y-111190424D01*
X180384910Y-110873261D01*
X179966334Y-110790001D01*
X179683668Y-110790001D01*
X179265092Y-110873261D01*
X178790424Y-111190424D01*
X178555001Y-111542759D01*
X178319578Y-111190424D01*
X177844910Y-110873261D01*
X177426334Y-110790001D01*
X177143668Y-110790001D01*
X176725092Y-110873261D01*
X176250424Y-111190424D01*
X176015001Y-111542759D01*
X175779578Y-111190424D01*
X175304910Y-110873261D01*
X174886334Y-110790001D01*
X174603668Y-110790001D01*
X174185092Y-110873261D01*
X173710424Y-111190424D01*
X173475001Y-111542759D01*
X173239578Y-111190424D01*
X172764910Y-110873261D01*
X172346334Y-110790001D01*
X172063668Y-110790001D01*
X171645092Y-110873261D01*
X171170424Y-111190424D01*
X170935001Y-111542759D01*
X170699578Y-111190424D01*
X170224910Y-110873261D01*
X169806334Y-110790001D01*
X169523668Y-110790001D01*
X169105092Y-110873261D01*
X168630424Y-111190424D01*
X168395001Y-111542759D01*
X168159578Y-111190424D01*
X167684910Y-110873261D01*
X167266334Y-110790001D01*
X166983668Y-110790001D01*
X166565092Y-110873261D01*
X166090424Y-111190424D01*
X165855001Y-111542759D01*
X165619578Y-111190424D01*
X165144910Y-110873261D01*
X164726334Y-110790001D01*
X164443668Y-110790001D01*
X164025092Y-110873261D01*
X163550424Y-111190424D01*
X163315001Y-111542759D01*
X163079578Y-111190424D01*
X162604910Y-110873261D01*
X162186334Y-110790001D01*
X161903668Y-110790001D01*
X161485092Y-110873261D01*
X161010424Y-111190424D01*
X160693261Y-111665092D01*
X160581888Y-112225001D01*
X159448114Y-112225001D01*
X159336741Y-111665092D01*
X159019578Y-111190424D01*
X158544910Y-110873261D01*
X158126334Y-110790001D01*
X157843668Y-110790001D01*
X157425092Y-110873261D01*
X156950424Y-111190424D01*
X156715001Y-111542759D01*
X156479578Y-111190424D01*
X156004910Y-110873261D01*
X155586334Y-110790001D01*
X155303668Y-110790001D01*
X154885092Y-110873261D01*
X154410424Y-111190424D01*
X154175001Y-111542759D01*
X153939578Y-111190424D01*
X153464910Y-110873261D01*
X153046334Y-110790001D01*
X152763668Y-110790001D01*
X152345092Y-110873261D01*
X151870424Y-111190424D01*
X151635001Y-111542759D01*
X151399578Y-111190424D01*
X150924910Y-110873261D01*
X150506334Y-110790001D01*
X150223668Y-110790001D01*
X149805092Y-110873261D01*
X149330424Y-111190424D01*
X149095001Y-111542759D01*
X148859578Y-111190424D01*
X148384910Y-110873261D01*
X147966334Y-110790001D01*
X147683668Y-110790001D01*
X147265092Y-110873261D01*
X146790424Y-111190424D01*
X146555001Y-111542759D01*
X146319578Y-111190424D01*
X145844910Y-110873261D01*
X145426334Y-110790001D01*
X145143668Y-110790001D01*
X144725092Y-110873261D01*
X144250424Y-111190424D01*
X143994054Y-111574109D01*
X143897390Y-111369867D01*
X143482424Y-110993960D01*
X143094040Y-110833097D01*
X142872001Y-110955086D01*
X142618001Y-110955086D01*
X142395962Y-110833097D01*
X142007578Y-110993960D01*
X141592612Y-111369867D01*
X141495948Y-111574109D01*
X141239578Y-111190424D01*
X140764910Y-110873261D01*
X140346334Y-110790001D01*
X140063668Y-110790001D01*
X139645092Y-110873261D01*
X139170424Y-111190424D01*
X138853261Y-111665092D01*
X138741888Y-112225001D01*
X133800001Y-112225001D01*
X133800001Y-111780432D01*
X133459742Y-110958975D01*
X132831027Y-110330260D01*
X132009570Y-109990001D01*
X131120432Y-109990001D01*
X130298975Y-110330260D01*
X129670260Y-110958975D01*
X129330001Y-111780432D01*
X129330001Y-112669570D01*
X129670260Y-113491027D01*
X130298975Y-114119742D01*
X130746229Y-114305001D01*
X116785001Y-114305001D01*
X116785001Y-89565750D01*
X120215000Y-89565750D01*
X120215000Y-90256310D01*
X120311673Y-90489699D01*
X120490302Y-90668327D01*
X120723691Y-90765000D01*
X121414250Y-90765000D01*
X121573000Y-90606250D01*
X121573000Y-89407000D01*
X121827000Y-89407000D01*
X121827000Y-90606250D01*
X121985750Y-90765000D01*
X122676309Y-90765000D01*
X122909698Y-90668327D01*
X123088327Y-90489699D01*
X123185000Y-90256310D01*
X123185000Y-89565750D01*
X123026250Y-89407000D01*
X121827000Y-89407000D01*
X121573000Y-89407000D01*
X120373750Y-89407000D01*
X120215000Y-89565750D01*
X116785001Y-89565750D01*
X116785001Y-61875001D01*
X129500371Y-61875001D01*
X129028975Y-62070260D01*
X129028975Y-62070260D01*
G37*
X129028975Y-62070260D02*
X128400260Y-62698975D01*
X128060001Y-63520432D01*
X128060001Y-64409570D01*
X128400260Y-65231027D01*
X129028975Y-65859742D01*
X129850432Y-66200001D01*
X130739570Y-66200001D01*
X131561027Y-65859742D01*
X132189742Y-65231027D01*
X132530001Y-64409570D01*
X132530001Y-63520432D01*
X132189742Y-62698975D01*
X131561027Y-62070260D01*
X131089631Y-61875001D01*
X138671195Y-61875001D01*
X120040529Y-80505668D01*
X119977070Y-80548070D01*
X119809095Y-80799463D01*
X119764999Y-81021148D01*
X119764999Y-81021152D01*
X119750111Y-81095999D01*
X119764999Y-81170846D01*
X119765000Y-82950147D01*
X119750111Y-83024999D01*
X119809096Y-83321536D01*
X119928343Y-83500001D01*
X119977071Y-83572928D01*
X120040527Y-83615328D01*
X120258791Y-83833592D01*
X120185908Y-84200000D01*
X120301161Y-84779418D01*
X120629375Y-85270625D01*
X120927761Y-85470000D01*
X120629375Y-85669375D01*
X120301161Y-86160582D01*
X120185908Y-86740000D01*
X120301161Y-87319418D01*
X120629375Y-87810625D01*
X120651033Y-87825096D01*
X120490302Y-87891673D01*
X120311673Y-88070301D01*
X120215000Y-88303690D01*
X120215000Y-88994250D01*
X120373750Y-89153000D01*
X121573000Y-89153000D01*
X121573000Y-89133000D01*
X121827000Y-89133000D01*
X121827000Y-89153000D01*
X123026250Y-89153000D01*
X123185000Y-88994250D01*
X123185000Y-88303690D01*
X123088327Y-88070301D01*
X122909698Y-87891673D01*
X122748967Y-87825096D01*
X122770625Y-87810625D01*
X123098839Y-87319418D01*
X123214092Y-86740000D01*
X123141209Y-86373592D01*
X124909477Y-84605326D01*
X124972930Y-84562928D01*
X125015328Y-84499475D01*
X125015330Y-84499473D01*
X125124200Y-84336537D01*
X125140905Y-84311536D01*
X125185001Y-84089851D01*
X125185001Y-84089847D01*
X125199889Y-84015000D01*
X125185001Y-83940153D01*
X125185001Y-82585750D01*
X163215000Y-82585750D01*
X163215000Y-83126310D01*
X163311673Y-83359699D01*
X163490302Y-83538327D01*
X163723691Y-83635000D01*
X164139250Y-83635000D01*
X164298000Y-83476250D01*
X164298000Y-82427000D01*
X163373750Y-82427000D01*
X163215000Y-82585750D01*
X125185001Y-82585750D01*
X125185001Y-81079802D01*
X125929053Y-80335750D01*
X163215000Y-80335750D01*
X163215000Y-80876310D01*
X163311673Y-81109699D01*
X163376974Y-81175000D01*
X163311673Y-81240301D01*
X163215000Y-81473690D01*
X163215000Y-82014250D01*
X163373750Y-82173000D01*
X164298000Y-82173000D01*
X164298000Y-80177000D01*
X163373750Y-80177000D01*
X163215000Y-80335750D01*
X125929053Y-80335750D01*
X139189803Y-67075001D01*
X151315001Y-67075001D01*
X151315002Y-77540149D01*
X151300113Y-77615001D01*
X151315002Y-77689853D01*
X151359098Y-77911538D01*
X151527073Y-78162930D01*
X151590529Y-78205330D01*
X152284671Y-78899473D01*
X152327072Y-78962930D01*
X152390528Y-79005330D01*
X152578463Y-79130905D01*
X152626606Y-79140481D01*
X152800149Y-79175001D01*
X152800153Y-79175001D01*
X152875001Y-79189889D01*
X152949849Y-79175001D01*
X163235168Y-79175001D01*
X163215000Y-79223690D01*
X163215000Y-79764250D01*
X163373750Y-79923000D01*
X164298000Y-79923000D01*
X164298000Y-79903000D01*
X164552000Y-79903000D01*
X164552000Y-79923000D01*
X164572000Y-79923000D01*
X164572000Y-80177000D01*
X164552000Y-80177000D01*
X164552000Y-82173000D01*
X164572000Y-82173000D01*
X164572000Y-82427000D01*
X164552000Y-82427000D01*
X164552000Y-83476250D01*
X164710750Y-83635000D01*
X165126309Y-83635000D01*
X165359698Y-83538327D01*
X165514623Y-83383403D01*
X165515414Y-83384586D01*
X165806564Y-83579127D01*
X166149999Y-83647440D01*
X166800001Y-83647440D01*
X167143436Y-83579127D01*
X167434586Y-83384586D01*
X167629127Y-83093436D01*
X167697440Y-82750001D01*
X167697440Y-82436628D01*
X169002560Y-82436628D01*
X169002560Y-83825000D01*
X169051843Y-84072765D01*
X169115000Y-84167286D01*
X169115000Y-84350200D01*
X168975500Y-84489700D01*
X168948157Y-84352235D01*
X168807809Y-84142191D01*
X168597765Y-84001843D01*
X168350000Y-83952560D01*
X166450000Y-83952560D01*
X166202235Y-84001843D01*
X165992191Y-84142191D01*
X165851843Y-84352235D01*
X165802560Y-84600000D01*
X165802560Y-85640000D01*
X163897440Y-85640000D01*
X163897440Y-85400000D01*
X163848157Y-85152235D01*
X163707809Y-84942191D01*
X163497765Y-84801843D01*
X163250000Y-84752560D01*
X161350000Y-84752560D01*
X161102235Y-84801843D01*
X160892191Y-84942191D01*
X160751843Y-85152235D01*
X160702560Y-85400000D01*
X160702560Y-87400000D01*
X160751843Y-87647765D01*
X160892191Y-87857809D01*
X161102235Y-87998157D01*
X161350000Y-88047440D01*
X163250000Y-88047440D01*
X163497765Y-87998157D01*
X163707809Y-87857809D01*
X163848157Y-87647765D01*
X163897440Y-87400000D01*
X163897440Y-87160000D01*
X165802560Y-87160000D01*
X165802560Y-88200000D01*
X165851843Y-88447765D01*
X165992191Y-88657809D01*
X166202235Y-88798157D01*
X166450000Y-88847440D01*
X168350000Y-88847440D01*
X168597765Y-88798157D01*
X168807809Y-88657809D01*
X168948157Y-88447765D01*
X168975560Y-88310000D01*
X169002560Y-88310000D01*
X169002560Y-89725000D01*
X169051843Y-89972765D01*
X169192191Y-90182809D01*
X169402235Y-90323157D01*
X169650000Y-90372440D01*
X169765001Y-90372440D01*
X169765000Y-91985380D01*
X169600000Y-91952560D01*
X167700000Y-91952560D01*
X167452235Y-92001843D01*
X167242191Y-92142191D01*
X167101843Y-92352235D01*
X167052560Y-92600000D01*
X167052560Y-94600000D01*
X167101843Y-94847765D01*
X167242191Y-95057809D01*
X167452235Y-95198157D01*
X167700000Y-95247440D01*
X169600000Y-95247440D01*
X169847765Y-95198157D01*
X170057809Y-95057809D01*
X170198157Y-94847765D01*
X170247440Y-94600000D01*
X170247440Y-94248483D01*
X170397929Y-94147929D01*
X170440331Y-94084470D01*
X171009473Y-93515329D01*
X171072929Y-93472929D01*
X171240904Y-93221537D01*
X171285000Y-92999852D01*
X171285000Y-92999848D01*
X171299888Y-92925001D01*
X171285000Y-92850154D01*
X171285000Y-90372440D01*
X171400000Y-90372440D01*
X171470073Y-90358502D01*
X171473690Y-90360000D01*
X171553750Y-90360000D01*
X171576397Y-90337353D01*
X171647765Y-90323157D01*
X171857809Y-90182809D01*
X171937500Y-90063544D01*
X171937500Y-90201250D01*
X172096250Y-90360000D01*
X172176310Y-90360000D01*
X172409699Y-90263327D01*
X172588327Y-90084698D01*
X172685000Y-89851309D01*
X172685000Y-89285750D01*
X172526250Y-89127000D01*
X172047440Y-89127000D01*
X172047440Y-88873000D01*
X172526250Y-88873000D01*
X172685000Y-88714250D01*
X172685000Y-88709999D01*
X174672007Y-88709999D01*
X175121492Y-89159485D01*
X175151433Y-89204295D01*
X175102560Y-89449999D01*
X175102560Y-90047638D01*
X173997639Y-91152560D01*
X172800000Y-91152560D01*
X172552235Y-91201843D01*
X172342191Y-91342191D01*
X172201843Y-91552235D01*
X172152560Y-91800000D01*
X172152560Y-93100000D01*
X172201843Y-93347765D01*
X172342191Y-93557809D01*
X172405334Y-93600000D01*
X172342191Y-93642191D01*
X172201843Y-93852235D01*
X172152560Y-94100000D01*
X172152560Y-95400000D01*
X172201843Y-95647765D01*
X172342191Y-95857809D01*
X172552235Y-95998157D01*
X172800000Y-96047440D01*
X174700000Y-96047440D01*
X174947765Y-95998157D01*
X175157809Y-95857809D01*
X175298157Y-95647765D01*
X175315554Y-95560305D01*
X175465414Y-95784586D01*
X175756564Y-95979127D01*
X176099999Y-96047440D01*
X176750001Y-96047440D01*
X177093436Y-95979127D01*
X177384586Y-95784586D01*
X177450000Y-95686687D01*
X177515414Y-95784586D01*
X177806564Y-95979127D01*
X178149999Y-96047440D01*
X178800001Y-96047440D01*
X179143436Y-95979127D01*
X179434586Y-95784586D01*
X179629127Y-95493436D01*
X179674900Y-95263316D01*
X179697929Y-95247929D01*
X179740331Y-95184470D01*
X180949801Y-93975001D01*
X183300154Y-93975001D01*
X183375001Y-93989889D01*
X183449848Y-93975001D01*
X183449853Y-93975001D01*
X183671538Y-93930905D01*
X183922930Y-93762930D01*
X183965332Y-93699471D01*
X184415002Y-93249802D01*
X184415002Y-96093805D01*
X184259742Y-95718975D01*
X183631027Y-95090260D01*
X182809570Y-94750001D01*
X181920432Y-94750001D01*
X181098975Y-95090260D01*
X180470260Y-95718975D01*
X180130001Y-96540432D01*
X180130001Y-97429570D01*
X180470260Y-98251027D01*
X181098975Y-98879742D01*
X181920432Y-99220001D01*
X182809570Y-99220001D01*
X183631027Y-98879742D01*
X184259742Y-98251027D01*
X184415002Y-97876197D01*
X184415002Y-98975018D01*
X182169450Y-101265482D01*
X182113120Y-101303121D01*
X182071539Y-101365352D01*
X182069057Y-101367883D01*
X182032725Y-101423440D01*
X181956196Y-101537974D01*
X181955484Y-101541555D01*
X181953487Y-101544608D01*
X181927969Y-101679879D01*
X181915001Y-101745076D01*
X181915001Y-101748626D01*
X181901128Y-101822168D01*
X181915001Y-101888475D01*
X181915002Y-112926749D01*
X180575035Y-114305001D01*
X132383773Y-114305001D01*
X132831027Y-114119742D01*
X133459742Y-113491027D01*
X133800001Y-112669570D01*
X133800001Y-112225001D01*
X138741888Y-112225001D01*
X138853261Y-112784910D01*
X139170424Y-113259578D01*
X139645092Y-113576741D01*
X140063668Y-113660001D01*
X140346334Y-113660001D01*
X140764910Y-113576741D01*
X141239578Y-113259578D01*
X141495948Y-112875893D01*
X141592612Y-113080135D01*
X142007578Y-113456042D01*
X142395962Y-113616905D01*
X142618001Y-113494916D01*
X142618001Y-112352001D01*
X142598001Y-112352001D01*
X142598001Y-112098001D01*
X142618001Y-112098001D01*
X142618001Y-110955086D01*
X142872001Y-110955086D01*
X142872001Y-112098001D01*
X142892001Y-112098001D01*
X142892001Y-112352001D01*
X142872001Y-112352001D01*
X142872001Y-113494916D01*
X143094040Y-113616905D01*
X143482424Y-113456042D01*
X143897390Y-113080135D01*
X143994054Y-112875893D01*
X144250424Y-113259578D01*
X144725092Y-113576741D01*
X145143668Y-113660001D01*
X145426334Y-113660001D01*
X145844910Y-113576741D01*
X146319578Y-113259578D01*
X146555001Y-112907243D01*
X146790424Y-113259578D01*
X147265092Y-113576741D01*
X147683668Y-113660001D01*
X147966334Y-113660001D01*
X148384910Y-113576741D01*
X148859578Y-113259578D01*
X149095001Y-112907243D01*
X149330424Y-113259578D01*
X149805092Y-113576741D01*
X150223668Y-113660001D01*
X150506334Y-113660001D01*
X150924910Y-113576741D01*
X151399578Y-113259578D01*
X151635001Y-112907243D01*
X151870424Y-113259578D01*
X152345092Y-113576741D01*
X152763668Y-113660001D01*
X153046334Y-113660001D01*
X153464910Y-113576741D01*
X153939578Y-113259578D01*
X154175001Y-112907243D01*
X154410424Y-113259578D01*
X154885092Y-113576741D01*
X155303668Y-113660001D01*
X155586334Y-113660001D01*
X156004910Y-113576741D01*
X156479578Y-113259578D01*
X156715001Y-112907243D01*
X156950424Y-113259578D01*
X157425092Y-113576741D01*
X157843668Y-113660001D01*
X158126334Y-113660001D01*
X158544910Y-113576741D01*
X159019578Y-113259578D01*
X159336741Y-112784910D01*
X159448114Y-112225001D01*
X160581888Y-112225001D01*
X160693261Y-112784910D01*
X161010424Y-113259578D01*
X161485092Y-113576741D01*
X161903668Y-113660001D01*
X162186334Y-113660001D01*
X162604910Y-113576741D01*
X163079578Y-113259578D01*
X163315001Y-112907243D01*
X163550424Y-113259578D01*
X164025092Y-113576741D01*
X164443668Y-113660001D01*
X164726334Y-113660001D01*
X165144910Y-113576741D01*
X165619578Y-113259578D01*
X165855001Y-112907243D01*
X166090424Y-113259578D01*
X166565092Y-113576741D01*
X166983668Y-113660001D01*
X167266334Y-113660001D01*
X167684910Y-113576741D01*
X168159578Y-113259578D01*
X168395001Y-112907243D01*
X168630424Y-113259578D01*
X169105092Y-113576741D01*
X169523668Y-113660001D01*
X169806334Y-113660001D01*
X170224910Y-113576741D01*
X170699578Y-113259578D01*
X170935001Y-112907243D01*
X171170424Y-113259578D01*
X171645092Y-113576741D01*
X172063668Y-113660001D01*
X172346334Y-113660001D01*
X172764910Y-113576741D01*
X173239578Y-113259578D01*
X173475001Y-112907243D01*
X173710424Y-113259578D01*
X174185092Y-113576741D01*
X174603668Y-113660001D01*
X174886334Y-113660001D01*
X175304910Y-113576741D01*
X175779578Y-113259578D01*
X176015001Y-112907243D01*
X176250424Y-113259578D01*
X176725092Y-113576741D01*
X177143668Y-113660001D01*
X177426334Y-113660001D01*
X177844910Y-113576741D01*
X178319578Y-113259578D01*
X178555001Y-112907243D01*
X178790424Y-113259578D01*
X179265092Y-113576741D01*
X179683668Y-113660001D01*
X179966334Y-113660001D01*
X180384910Y-113576741D01*
X180859578Y-113259578D01*
X181176741Y-112784910D01*
X181288114Y-112225001D01*
X181176741Y-111665092D01*
X180859578Y-111190424D01*
X180384910Y-110873261D01*
X179966334Y-110790001D01*
X179683668Y-110790001D01*
X179265092Y-110873261D01*
X178790424Y-111190424D01*
X178555001Y-111542759D01*
X178319578Y-111190424D01*
X177844910Y-110873261D01*
X177426334Y-110790001D01*
X177143668Y-110790001D01*
X176725092Y-110873261D01*
X176250424Y-111190424D01*
X176015001Y-111542759D01*
X175779578Y-111190424D01*
X175304910Y-110873261D01*
X174886334Y-110790001D01*
X174603668Y-110790001D01*
X174185092Y-110873261D01*
X173710424Y-111190424D01*
X173475001Y-111542759D01*
X173239578Y-111190424D01*
X172764910Y-110873261D01*
X172346334Y-110790001D01*
X172063668Y-110790001D01*
X171645092Y-110873261D01*
X171170424Y-111190424D01*
X170935001Y-111542759D01*
X170699578Y-111190424D01*
X170224910Y-110873261D01*
X169806334Y-110790001D01*
X169523668Y-110790001D01*
X169105092Y-110873261D01*
X168630424Y-111190424D01*
X168395001Y-111542759D01*
X168159578Y-111190424D01*
X167684910Y-110873261D01*
X167266334Y-110790001D01*
X166983668Y-110790001D01*
X166565092Y-110873261D01*
X166090424Y-111190424D01*
X165855001Y-111542759D01*
X165619578Y-111190424D01*
X165144910Y-110873261D01*
X164726334Y-110790001D01*
X164443668Y-110790001D01*
X164025092Y-110873261D01*
X163550424Y-111190424D01*
X163315001Y-111542759D01*
X163079578Y-111190424D01*
X162604910Y-110873261D01*
X162186334Y-110790001D01*
X161903668Y-110790001D01*
X161485092Y-110873261D01*
X161010424Y-111190424D01*
X160693261Y-111665092D01*
X160581888Y-112225001D01*
X159448114Y-112225001D01*
X159336741Y-111665092D01*
X159019578Y-111190424D01*
X158544910Y-110873261D01*
X158126334Y-110790001D01*
X157843668Y-110790001D01*
X157425092Y-110873261D01*
X156950424Y-111190424D01*
X156715001Y-111542759D01*
X156479578Y-111190424D01*
X156004910Y-110873261D01*
X155586334Y-110790001D01*
X155303668Y-110790001D01*
X154885092Y-110873261D01*
X154410424Y-111190424D01*
X154175001Y-111542759D01*
X153939578Y-111190424D01*
X153464910Y-110873261D01*
X153046334Y-110790001D01*
X152763668Y-110790001D01*
X152345092Y-110873261D01*
X151870424Y-111190424D01*
X151635001Y-111542759D01*
X151399578Y-111190424D01*
X150924910Y-110873261D01*
X150506334Y-110790001D01*
X150223668Y-110790001D01*
X149805092Y-110873261D01*
X149330424Y-111190424D01*
X149095001Y-111542759D01*
X148859578Y-111190424D01*
X148384910Y-110873261D01*
X147966334Y-110790001D01*
X147683668Y-110790001D01*
X147265092Y-110873261D01*
X146790424Y-111190424D01*
X146555001Y-111542759D01*
X146319578Y-111190424D01*
X145844910Y-110873261D01*
X145426334Y-110790001D01*
X145143668Y-110790001D01*
X144725092Y-110873261D01*
X144250424Y-111190424D01*
X143994054Y-111574109D01*
X143897390Y-111369867D01*
X143482424Y-110993960D01*
X143094040Y-110833097D01*
X142872001Y-110955086D01*
X142618001Y-110955086D01*
X142395962Y-110833097D01*
X142007578Y-110993960D01*
X141592612Y-111369867D01*
X141495948Y-111574109D01*
X141239578Y-111190424D01*
X140764910Y-110873261D01*
X140346334Y-110790001D01*
X140063668Y-110790001D01*
X139645092Y-110873261D01*
X139170424Y-111190424D01*
X138853261Y-111665092D01*
X138741888Y-112225001D01*
X133800001Y-112225001D01*
X133800001Y-111780432D01*
X133459742Y-110958975D01*
X132831027Y-110330260D01*
X132009570Y-109990001D01*
X131120432Y-109990001D01*
X130298975Y-110330260D01*
X129670260Y-110958975D01*
X129330001Y-111780432D01*
X129330001Y-112669570D01*
X129670260Y-113491027D01*
X130298975Y-114119742D01*
X130746229Y-114305001D01*
X116785001Y-114305001D01*
X116785001Y-89565750D01*
X120215000Y-89565750D01*
X120215000Y-90256310D01*
X120311673Y-90489699D01*
X120490302Y-90668327D01*
X120723691Y-90765000D01*
X121414250Y-90765000D01*
X121573000Y-90606250D01*
X121573000Y-89407000D01*
X121827000Y-89407000D01*
X121827000Y-90606250D01*
X121985750Y-90765000D01*
X122676309Y-90765000D01*
X122909698Y-90668327D01*
X123088327Y-90489699D01*
X123185000Y-90256310D01*
X123185000Y-89565750D01*
X123026250Y-89407000D01*
X121827000Y-89407000D01*
X121573000Y-89407000D01*
X120373750Y-89407000D01*
X120215000Y-89565750D01*
X116785001Y-89565750D01*
X116785001Y-61875001D01*
X129500371Y-61875001D01*
X129028975Y-62070260D01*
G36*
X183415002Y-82579804D02*
X183415001Y-92100199D01*
X183060200Y-92455001D01*
X180709847Y-92455001D01*
X180634999Y-92440113D01*
X180560151Y-92455001D01*
X180560147Y-92455001D01*
X180386604Y-92489521D01*
X180338461Y-92499097D01*
X180187450Y-92600000D01*
X180087070Y-92667072D01*
X180044670Y-92730528D01*
X179269855Y-93505344D01*
X179143436Y-93420873D01*
X178800001Y-93352560D01*
X178149999Y-93352560D01*
X177806564Y-93420873D01*
X177515414Y-93615414D01*
X177450000Y-93713313D01*
X177384586Y-93615414D01*
X177093436Y-93420873D01*
X176750001Y-93352560D01*
X176099999Y-93352560D01*
X175756564Y-93420873D01*
X175465414Y-93615414D01*
X175300226Y-93862635D01*
X175298157Y-93852235D01*
X175157809Y-93642191D01*
X175094666Y-93600000D01*
X175157809Y-93557809D01*
X175298157Y-93347765D01*
X175347440Y-93100000D01*
X175347440Y-91952361D01*
X176052362Y-91247440D01*
X176650001Y-91247440D01*
X176993436Y-91179127D01*
X177284586Y-90984586D01*
X177285377Y-90983403D01*
X177440302Y-91138327D01*
X177673691Y-91235000D01*
X178089250Y-91235000D01*
X178248000Y-91076250D01*
X178248000Y-90027000D01*
X178502000Y-90027000D01*
X178502000Y-91076250D01*
X178660750Y-91235000D01*
X179076309Y-91235000D01*
X179309698Y-91138327D01*
X179488327Y-90959699D01*
X179585000Y-90726310D01*
X179585000Y-90185750D01*
X179426250Y-90027000D01*
X178502000Y-90027000D01*
X178248000Y-90027000D01*
X178228000Y-90027000D01*
X178228000Y-89773000D01*
X178248000Y-89773000D01*
X178248000Y-88723750D01*
X178198000Y-88673750D01*
X178198000Y-87777000D01*
X178452000Y-87777000D01*
X178452000Y-88826250D01*
X178502000Y-88876250D01*
X178502000Y-89773000D01*
X179426250Y-89773000D01*
X179585000Y-89614250D01*
X179585000Y-89476890D01*
X180058524Y-89476890D01*
X180228355Y-89886924D01*
X180618642Y-90315183D01*
X181143108Y-90561486D01*
X181373000Y-90440819D01*
X181373000Y-89247000D01*
X181627000Y-89247000D01*
X181627000Y-90440819D01*
X181856892Y-90561486D01*
X182381358Y-90315183D01*
X182771645Y-89886924D01*
X182941476Y-89476890D01*
X182820155Y-89247000D01*
X181627000Y-89247000D01*
X181373000Y-89247000D01*
X180179845Y-89247000D01*
X180058524Y-89476890D01*
X179585000Y-89476890D01*
X179585000Y-89073690D01*
X179488327Y-88840301D01*
X179398026Y-88750000D01*
X179438327Y-88709699D01*
X179535000Y-88476310D01*
X179535000Y-87935750D01*
X179376250Y-87777000D01*
X178452000Y-87777000D01*
X178198000Y-87777000D01*
X178178000Y-87777000D01*
X178178000Y-87523000D01*
X178198000Y-87523000D01*
X178198000Y-85477000D01*
X178452000Y-85477000D01*
X178452000Y-87523000D01*
X179376250Y-87523000D01*
X179535000Y-87364250D01*
X179535000Y-86936890D01*
X180058524Y-86936890D01*
X180228355Y-87346924D01*
X180618642Y-87775183D01*
X180777954Y-87850000D01*
X180618642Y-87924817D01*
X180228355Y-88353076D01*
X180058524Y-88763110D01*
X180179845Y-88993000D01*
X181373000Y-88993000D01*
X181373000Y-86707000D01*
X181627000Y-86707000D01*
X181627000Y-88993000D01*
X182820155Y-88993000D01*
X182941476Y-88763110D01*
X182771645Y-88353076D01*
X182381358Y-87924817D01*
X182222046Y-87850000D01*
X182381358Y-87775183D01*
X182771645Y-87346924D01*
X182941476Y-86936890D01*
X182820155Y-86707000D01*
X181627000Y-86707000D01*
X181373000Y-86707000D01*
X180179845Y-86707000D01*
X180058524Y-86936890D01*
X179535000Y-86936890D01*
X179535000Y-86823690D01*
X179438327Y-86590301D01*
X179348025Y-86500000D01*
X179438327Y-86409699D01*
X179535000Y-86176310D01*
X179535000Y-85635750D01*
X179376250Y-85477000D01*
X178452000Y-85477000D01*
X178198000Y-85477000D01*
X178178000Y-85477000D01*
X178178000Y-85223000D01*
X178198000Y-85223000D01*
X178198000Y-85203000D01*
X178452000Y-85203000D01*
X178452000Y-85223000D01*
X179376250Y-85223000D01*
X179535000Y-85064250D01*
X179535000Y-84925001D01*
X180098071Y-84925001D01*
X180172918Y-84939889D01*
X180247765Y-84925001D01*
X180247770Y-84925001D01*
X180298590Y-84914892D01*
X180429375Y-85110625D01*
X180748478Y-85323843D01*
X180618642Y-85384817D01*
X180228355Y-85813076D01*
X180058524Y-86223110D01*
X180179845Y-86453000D01*
X181373000Y-86453000D01*
X181373000Y-86433000D01*
X181627000Y-86433000D01*
X181627000Y-86453000D01*
X182820155Y-86453000D01*
X182941476Y-86223110D01*
X182771645Y-85813076D01*
X182381358Y-85384817D01*
X182251522Y-85323843D01*
X182570625Y-85110625D01*
X182898839Y-84619418D01*
X183014092Y-84040000D01*
X182898839Y-83460582D01*
X182570625Y-82969375D01*
X182552381Y-82957184D01*
X182597765Y-82948157D01*
X182807809Y-82807809D01*
X182948157Y-82597765D01*
X182997440Y-82350000D01*
X182997440Y-82260000D01*
X183095199Y-82260000D01*
X183415002Y-82579804D01*
X183415002Y-82579804D01*
G37*
X183415002Y-82579804D02*
X183415001Y-92100199D01*
X183060200Y-92455001D01*
X180709847Y-92455001D01*
X180634999Y-92440113D01*
X180560151Y-92455001D01*
X180560147Y-92455001D01*
X180386604Y-92489521D01*
X180338461Y-92499097D01*
X180187450Y-92600000D01*
X180087070Y-92667072D01*
X180044670Y-92730528D01*
X179269855Y-93505344D01*
X179143436Y-93420873D01*
X178800001Y-93352560D01*
X178149999Y-93352560D01*
X177806564Y-93420873D01*
X177515414Y-93615414D01*
X177450000Y-93713313D01*
X177384586Y-93615414D01*
X177093436Y-93420873D01*
X176750001Y-93352560D01*
X176099999Y-93352560D01*
X175756564Y-93420873D01*
X175465414Y-93615414D01*
X175300226Y-93862635D01*
X175298157Y-93852235D01*
X175157809Y-93642191D01*
X175094666Y-93600000D01*
X175157809Y-93557809D01*
X175298157Y-93347765D01*
X175347440Y-93100000D01*
X175347440Y-91952361D01*
X176052362Y-91247440D01*
X176650001Y-91247440D01*
X176993436Y-91179127D01*
X177284586Y-90984586D01*
X177285377Y-90983403D01*
X177440302Y-91138327D01*
X177673691Y-91235000D01*
X178089250Y-91235000D01*
X178248000Y-91076250D01*
X178248000Y-90027000D01*
X178502000Y-90027000D01*
X178502000Y-91076250D01*
X178660750Y-91235000D01*
X179076309Y-91235000D01*
X179309698Y-91138327D01*
X179488327Y-90959699D01*
X179585000Y-90726310D01*
X179585000Y-90185750D01*
X179426250Y-90027000D01*
X178502000Y-90027000D01*
X178248000Y-90027000D01*
X178228000Y-90027000D01*
X178228000Y-89773000D01*
X178248000Y-89773000D01*
X178248000Y-88723750D01*
X178198000Y-88673750D01*
X178198000Y-87777000D01*
X178452000Y-87777000D01*
X178452000Y-88826250D01*
X178502000Y-88876250D01*
X178502000Y-89773000D01*
X179426250Y-89773000D01*
X179585000Y-89614250D01*
X179585000Y-89476890D01*
X180058524Y-89476890D01*
X180228355Y-89886924D01*
X180618642Y-90315183D01*
X181143108Y-90561486D01*
X181373000Y-90440819D01*
X181373000Y-89247000D01*
X181627000Y-89247000D01*
X181627000Y-90440819D01*
X181856892Y-90561486D01*
X182381358Y-90315183D01*
X182771645Y-89886924D01*
X182941476Y-89476890D01*
X182820155Y-89247000D01*
X181627000Y-89247000D01*
X181373000Y-89247000D01*
X180179845Y-89247000D01*
X180058524Y-89476890D01*
X179585000Y-89476890D01*
X179585000Y-89073690D01*
X179488327Y-88840301D01*
X179398026Y-88750000D01*
X179438327Y-88709699D01*
X179535000Y-88476310D01*
X179535000Y-87935750D01*
X179376250Y-87777000D01*
X178452000Y-87777000D01*
X178198000Y-87777000D01*
X178178000Y-87777000D01*
X178178000Y-87523000D01*
X178198000Y-87523000D01*
X178198000Y-85477000D01*
X178452000Y-85477000D01*
X178452000Y-87523000D01*
X179376250Y-87523000D01*
X179535000Y-87364250D01*
X179535000Y-86936890D01*
X180058524Y-86936890D01*
X180228355Y-87346924D01*
X180618642Y-87775183D01*
X180777954Y-87850000D01*
X180618642Y-87924817D01*
X180228355Y-88353076D01*
X180058524Y-88763110D01*
X180179845Y-88993000D01*
X181373000Y-88993000D01*
X181373000Y-86707000D01*
X181627000Y-86707000D01*
X181627000Y-88993000D01*
X182820155Y-88993000D01*
X182941476Y-88763110D01*
X182771645Y-88353076D01*
X182381358Y-87924817D01*
X182222046Y-87850000D01*
X182381358Y-87775183D01*
X182771645Y-87346924D01*
X182941476Y-86936890D01*
X182820155Y-86707000D01*
X181627000Y-86707000D01*
X181373000Y-86707000D01*
X180179845Y-86707000D01*
X180058524Y-86936890D01*
X179535000Y-86936890D01*
X179535000Y-86823690D01*
X179438327Y-86590301D01*
X179348025Y-86500000D01*
X179438327Y-86409699D01*
X179535000Y-86176310D01*
X179535000Y-85635750D01*
X179376250Y-85477000D01*
X178452000Y-85477000D01*
X178198000Y-85477000D01*
X178178000Y-85477000D01*
X178178000Y-85223000D01*
X178198000Y-85223000D01*
X178198000Y-85203000D01*
X178452000Y-85203000D01*
X178452000Y-85223000D01*
X179376250Y-85223000D01*
X179535000Y-85064250D01*
X179535000Y-84925001D01*
X180098071Y-84925001D01*
X180172918Y-84939889D01*
X180247765Y-84925001D01*
X180247770Y-84925001D01*
X180298590Y-84914892D01*
X180429375Y-85110625D01*
X180748478Y-85323843D01*
X180618642Y-85384817D01*
X180228355Y-85813076D01*
X180058524Y-86223110D01*
X180179845Y-86453000D01*
X181373000Y-86453000D01*
X181373000Y-86433000D01*
X181627000Y-86433000D01*
X181627000Y-86453000D01*
X182820155Y-86453000D01*
X182941476Y-86223110D01*
X182771645Y-85813076D01*
X182381358Y-85384817D01*
X182251522Y-85323843D01*
X182570625Y-85110625D01*
X182898839Y-84619418D01*
X183014092Y-84040000D01*
X182898839Y-83460582D01*
X182570625Y-82969375D01*
X182552381Y-82957184D01*
X182597765Y-82948157D01*
X182807809Y-82807809D01*
X182948157Y-82597765D01*
X182997440Y-82350000D01*
X182997440Y-82260000D01*
X183095199Y-82260000D01*
X183415002Y-82579804D01*
G36*
X181915002Y-63895072D02*
X181901092Y-63965001D01*
X181956197Y-64242029D01*
X182113121Y-64476882D01*
X182172403Y-64516493D01*
X184415001Y-66759093D01*
X184415001Y-68153803D01*
X184259742Y-67778975D01*
X183631027Y-67150260D01*
X182809570Y-66810001D01*
X181920432Y-66810001D01*
X181098975Y-67150260D01*
X180470260Y-67778975D01*
X180130001Y-68600432D01*
X180130001Y-69489570D01*
X180470260Y-70311027D01*
X181098975Y-70939742D01*
X181920432Y-71280001D01*
X182809570Y-71280001D01*
X183631027Y-70939742D01*
X184259742Y-70311027D01*
X184415001Y-69936199D01*
X184415001Y-81430200D01*
X184000331Y-81015530D01*
X183957929Y-80952071D01*
X183706537Y-80784096D01*
X183484852Y-80740000D01*
X183484847Y-80740000D01*
X183410000Y-80725112D01*
X183335153Y-80740000D01*
X182997440Y-80740000D01*
X182997440Y-80650000D01*
X182948157Y-80402235D01*
X182807809Y-80192191D01*
X182597765Y-80051843D01*
X182350000Y-80002560D01*
X180650000Y-80002560D01*
X180402235Y-80051843D01*
X180192191Y-80192191D01*
X180051843Y-80402235D01*
X180002560Y-80650000D01*
X180002560Y-82350000D01*
X180051843Y-82597765D01*
X180192191Y-82807809D01*
X180402235Y-82948157D01*
X180447619Y-82957184D01*
X180429375Y-82969375D01*
X180221631Y-83280286D01*
X180001382Y-83324096D01*
X179880299Y-83405001D01*
X179535000Y-83405001D01*
X179535000Y-83335750D01*
X179376250Y-83177000D01*
X178452000Y-83177000D01*
X178452000Y-83197000D01*
X178198000Y-83197000D01*
X178198000Y-83177000D01*
X178178000Y-83177000D01*
X178178000Y-82923000D01*
X178198000Y-82923000D01*
X178198000Y-80927000D01*
X178452000Y-80927000D01*
X178452000Y-82923000D01*
X179376250Y-82923000D01*
X179535000Y-82764250D01*
X179535000Y-82223690D01*
X179438327Y-81990301D01*
X179373026Y-81925000D01*
X179438327Y-81859699D01*
X179535000Y-81626310D01*
X179535000Y-81085750D01*
X179376250Y-80927000D01*
X178452000Y-80927000D01*
X178198000Y-80927000D01*
X178178000Y-80927000D01*
X178178000Y-80673000D01*
X178198000Y-80673000D01*
X178198000Y-79623750D01*
X178452000Y-79623750D01*
X178452000Y-80673000D01*
X179376250Y-80673000D01*
X179535000Y-80514250D01*
X179535000Y-79973690D01*
X179438327Y-79740301D01*
X179259698Y-79561673D01*
X179026309Y-79465000D01*
X178610750Y-79465000D01*
X178452000Y-79623750D01*
X178198000Y-79623750D01*
X178039250Y-79465000D01*
X177623691Y-79465000D01*
X177390302Y-79561673D01*
X177235377Y-79716597D01*
X177234586Y-79715414D01*
X176943436Y-79520873D01*
X176600001Y-79452560D01*
X175949999Y-79452560D01*
X175606564Y-79520873D01*
X175315414Y-79715414D01*
X175120873Y-80006564D01*
X175052560Y-80349999D01*
X175052560Y-81250001D01*
X175120873Y-81593436D01*
X175315414Y-81884586D01*
X175375898Y-81925000D01*
X175315414Y-81965414D01*
X175120873Y-82256564D01*
X175052560Y-82599999D01*
X175052560Y-83500001D01*
X175120873Y-83843436D01*
X175315414Y-84134586D01*
X175413313Y-84200000D01*
X175315414Y-84265414D01*
X175120873Y-84556564D01*
X175114222Y-84590000D01*
X172585000Y-84590000D01*
X172585000Y-84167285D01*
X172648157Y-84072765D01*
X172697440Y-83825000D01*
X172697440Y-82375000D01*
X172648157Y-82127235D01*
X172507809Y-81917191D01*
X172297765Y-81776843D01*
X172050000Y-81727560D01*
X171823483Y-81727560D01*
X171722929Y-81577071D01*
X171659473Y-81534671D01*
X170610000Y-80485199D01*
X170610000Y-80235778D01*
X170643436Y-80229127D01*
X170905797Y-80053822D01*
X171040301Y-80188327D01*
X171273690Y-80285000D01*
X171814250Y-80285000D01*
X171973000Y-80126250D01*
X171973000Y-79202000D01*
X172227000Y-79202000D01*
X172227000Y-80126250D01*
X172385750Y-80285000D01*
X172926310Y-80285000D01*
X173159699Y-80188327D01*
X173338327Y-80009698D01*
X173435000Y-79776309D01*
X173435000Y-79360750D01*
X173276250Y-79202000D01*
X172227000Y-79202000D01*
X171973000Y-79202000D01*
X171953000Y-79202000D01*
X171953000Y-78948000D01*
X171973000Y-78948000D01*
X171973000Y-78928000D01*
X172227000Y-78928000D01*
X172227000Y-78948000D01*
X173276250Y-78948000D01*
X173435000Y-78789250D01*
X173435000Y-78373691D01*
X173338327Y-78140302D01*
X173183403Y-77985377D01*
X173184586Y-77984586D01*
X173379127Y-77693436D01*
X173447440Y-77350001D01*
X173447440Y-76699999D01*
X173379127Y-76356564D01*
X173184586Y-76065414D01*
X172893436Y-75870873D01*
X172550001Y-75802560D01*
X171649999Y-75802560D01*
X171306564Y-75870873D01*
X171015414Y-76065414D01*
X170975000Y-76125898D01*
X170934586Y-76065414D01*
X170643436Y-75870873D01*
X170300001Y-75802560D01*
X169399999Y-75802560D01*
X169056564Y-75870873D01*
X169005077Y-75905276D01*
X167885001Y-74785200D01*
X167885001Y-65183044D01*
X168159578Y-64999578D01*
X168395001Y-64647243D01*
X168630424Y-64999578D01*
X169105092Y-65316741D01*
X169523668Y-65400001D01*
X169806334Y-65400001D01*
X170224910Y-65316741D01*
X170699578Y-64999578D01*
X170935001Y-64647243D01*
X171170424Y-64999578D01*
X171645092Y-65316741D01*
X172063668Y-65400001D01*
X172346334Y-65400001D01*
X172764910Y-65316741D01*
X173239578Y-64999578D01*
X173475001Y-64647243D01*
X173710424Y-64999578D01*
X174185092Y-65316741D01*
X174603668Y-65400001D01*
X174886334Y-65400001D01*
X175304910Y-65316741D01*
X175779578Y-64999578D01*
X176015001Y-64647243D01*
X176250424Y-64999578D01*
X176725092Y-65316741D01*
X177143668Y-65400001D01*
X177426334Y-65400001D01*
X177844910Y-65316741D01*
X178319578Y-64999578D01*
X178555001Y-64647243D01*
X178790424Y-64999578D01*
X179265092Y-65316741D01*
X179683668Y-65400001D01*
X179966334Y-65400001D01*
X180384910Y-65316741D01*
X180859578Y-64999578D01*
X181176741Y-64524910D01*
X181288114Y-63965001D01*
X181176741Y-63405092D01*
X180859578Y-62930424D01*
X180582289Y-62745146D01*
X180540905Y-62537094D01*
X180482359Y-62449474D01*
X180415330Y-62349157D01*
X180415328Y-62349155D01*
X180372930Y-62285702D01*
X180309476Y-62243304D01*
X179941173Y-61875001D01*
X181915001Y-61875001D01*
X181915002Y-63895072D01*
X181915002Y-63895072D01*
G37*
X181915002Y-63895072D02*
X181901092Y-63965001D01*
X181956197Y-64242029D01*
X182113121Y-64476882D01*
X182172403Y-64516493D01*
X184415001Y-66759093D01*
X184415001Y-68153803D01*
X184259742Y-67778975D01*
X183631027Y-67150260D01*
X182809570Y-66810001D01*
X181920432Y-66810001D01*
X181098975Y-67150260D01*
X180470260Y-67778975D01*
X180130001Y-68600432D01*
X180130001Y-69489570D01*
X180470260Y-70311027D01*
X181098975Y-70939742D01*
X181920432Y-71280001D01*
X182809570Y-71280001D01*
X183631027Y-70939742D01*
X184259742Y-70311027D01*
X184415001Y-69936199D01*
X184415001Y-81430200D01*
X184000331Y-81015530D01*
X183957929Y-80952071D01*
X183706537Y-80784096D01*
X183484852Y-80740000D01*
X183484847Y-80740000D01*
X183410000Y-80725112D01*
X183335153Y-80740000D01*
X182997440Y-80740000D01*
X182997440Y-80650000D01*
X182948157Y-80402235D01*
X182807809Y-80192191D01*
X182597765Y-80051843D01*
X182350000Y-80002560D01*
X180650000Y-80002560D01*
X180402235Y-80051843D01*
X180192191Y-80192191D01*
X180051843Y-80402235D01*
X180002560Y-80650000D01*
X180002560Y-82350000D01*
X180051843Y-82597765D01*
X180192191Y-82807809D01*
X180402235Y-82948157D01*
X180447619Y-82957184D01*
X180429375Y-82969375D01*
X180221631Y-83280286D01*
X180001382Y-83324096D01*
X179880299Y-83405001D01*
X179535000Y-83405001D01*
X179535000Y-83335750D01*
X179376250Y-83177000D01*
X178452000Y-83177000D01*
X178452000Y-83197000D01*
X178198000Y-83197000D01*
X178198000Y-83177000D01*
X178178000Y-83177000D01*
X178178000Y-82923000D01*
X178198000Y-82923000D01*
X178198000Y-80927000D01*
X178452000Y-80927000D01*
X178452000Y-82923000D01*
X179376250Y-82923000D01*
X179535000Y-82764250D01*
X179535000Y-82223690D01*
X179438327Y-81990301D01*
X179373026Y-81925000D01*
X179438327Y-81859699D01*
X179535000Y-81626310D01*
X179535000Y-81085750D01*
X179376250Y-80927000D01*
X178452000Y-80927000D01*
X178198000Y-80927000D01*
X178178000Y-80927000D01*
X178178000Y-80673000D01*
X178198000Y-80673000D01*
X178198000Y-79623750D01*
X178452000Y-79623750D01*
X178452000Y-80673000D01*
X179376250Y-80673000D01*
X179535000Y-80514250D01*
X179535000Y-79973690D01*
X179438327Y-79740301D01*
X179259698Y-79561673D01*
X179026309Y-79465000D01*
X178610750Y-79465000D01*
X178452000Y-79623750D01*
X178198000Y-79623750D01*
X178039250Y-79465000D01*
X177623691Y-79465000D01*
X177390302Y-79561673D01*
X177235377Y-79716597D01*
X177234586Y-79715414D01*
X176943436Y-79520873D01*
X176600001Y-79452560D01*
X175949999Y-79452560D01*
X175606564Y-79520873D01*
X175315414Y-79715414D01*
X175120873Y-80006564D01*
X175052560Y-80349999D01*
X175052560Y-81250001D01*
X175120873Y-81593436D01*
X175315414Y-81884586D01*
X175375898Y-81925000D01*
X175315414Y-81965414D01*
X175120873Y-82256564D01*
X175052560Y-82599999D01*
X175052560Y-83500001D01*
X175120873Y-83843436D01*
X175315414Y-84134586D01*
X175413313Y-84200000D01*
X175315414Y-84265414D01*
X175120873Y-84556564D01*
X175114222Y-84590000D01*
X172585000Y-84590000D01*
X172585000Y-84167285D01*
X172648157Y-84072765D01*
X172697440Y-83825000D01*
X172697440Y-82375000D01*
X172648157Y-82127235D01*
X172507809Y-81917191D01*
X172297765Y-81776843D01*
X172050000Y-81727560D01*
X171823483Y-81727560D01*
X171722929Y-81577071D01*
X171659473Y-81534671D01*
X170610000Y-80485199D01*
X170610000Y-80235778D01*
X170643436Y-80229127D01*
X170905797Y-80053822D01*
X171040301Y-80188327D01*
X171273690Y-80285000D01*
X171814250Y-80285000D01*
X171973000Y-80126250D01*
X171973000Y-79202000D01*
X172227000Y-79202000D01*
X172227000Y-80126250D01*
X172385750Y-80285000D01*
X172926310Y-80285000D01*
X173159699Y-80188327D01*
X173338327Y-80009698D01*
X173435000Y-79776309D01*
X173435000Y-79360750D01*
X173276250Y-79202000D01*
X172227000Y-79202000D01*
X171973000Y-79202000D01*
X171953000Y-79202000D01*
X171953000Y-78948000D01*
X171973000Y-78948000D01*
X171973000Y-78928000D01*
X172227000Y-78928000D01*
X172227000Y-78948000D01*
X173276250Y-78948000D01*
X173435000Y-78789250D01*
X173435000Y-78373691D01*
X173338327Y-78140302D01*
X173183403Y-77985377D01*
X173184586Y-77984586D01*
X173379127Y-77693436D01*
X173447440Y-77350001D01*
X173447440Y-76699999D01*
X173379127Y-76356564D01*
X173184586Y-76065414D01*
X172893436Y-75870873D01*
X172550001Y-75802560D01*
X171649999Y-75802560D01*
X171306564Y-75870873D01*
X171015414Y-76065414D01*
X170975000Y-76125898D01*
X170934586Y-76065414D01*
X170643436Y-75870873D01*
X170300001Y-75802560D01*
X169399999Y-75802560D01*
X169056564Y-75870873D01*
X169005077Y-75905276D01*
X167885001Y-74785200D01*
X167885001Y-65183044D01*
X168159578Y-64999578D01*
X168395001Y-64647243D01*
X168630424Y-64999578D01*
X169105092Y-65316741D01*
X169523668Y-65400001D01*
X169806334Y-65400001D01*
X170224910Y-65316741D01*
X170699578Y-64999578D01*
X170935001Y-64647243D01*
X171170424Y-64999578D01*
X171645092Y-65316741D01*
X172063668Y-65400001D01*
X172346334Y-65400001D01*
X172764910Y-65316741D01*
X173239578Y-64999578D01*
X173475001Y-64647243D01*
X173710424Y-64999578D01*
X174185092Y-65316741D01*
X174603668Y-65400001D01*
X174886334Y-65400001D01*
X175304910Y-65316741D01*
X175779578Y-64999578D01*
X176015001Y-64647243D01*
X176250424Y-64999578D01*
X176725092Y-65316741D01*
X177143668Y-65400001D01*
X177426334Y-65400001D01*
X177844910Y-65316741D01*
X178319578Y-64999578D01*
X178555001Y-64647243D01*
X178790424Y-64999578D01*
X179265092Y-65316741D01*
X179683668Y-65400001D01*
X179966334Y-65400001D01*
X180384910Y-65316741D01*
X180859578Y-64999578D01*
X181176741Y-64524910D01*
X181288114Y-63965001D01*
X181176741Y-63405092D01*
X180859578Y-62930424D01*
X180582289Y-62745146D01*
X180540905Y-62537094D01*
X180482359Y-62449474D01*
X180415330Y-62349157D01*
X180415328Y-62349155D01*
X180372930Y-62285702D01*
X180309476Y-62243304D01*
X179941173Y-61875001D01*
X181915001Y-61875001D01*
X181915002Y-63895072D01*
G36*
X165773261Y-63405092D02*
X165661888Y-63965001D01*
X165773261Y-64524910D01*
X166090424Y-64999578D01*
X166365002Y-65183045D01*
X166365001Y-75025154D01*
X166350113Y-75100001D01*
X166365001Y-75174848D01*
X166365001Y-75174852D01*
X166409097Y-75396537D01*
X166577072Y-75647930D01*
X166640531Y-75690332D01*
X168459671Y-77509473D01*
X168502071Y-77572929D01*
X168553775Y-77607476D01*
X168570873Y-77693436D01*
X168765414Y-77984586D01*
X168863313Y-78050000D01*
X168765414Y-78115414D01*
X168570873Y-78406564D01*
X168502560Y-78749999D01*
X168502560Y-79400001D01*
X168570873Y-79743436D01*
X168765414Y-80034586D01*
X169056564Y-80229127D01*
X169090000Y-80235778D01*
X169090000Y-80574475D01*
X169050113Y-80775001D01*
X169078284Y-80916628D01*
X167580221Y-80916628D01*
X167629127Y-80843436D01*
X167697440Y-80500001D01*
X167697440Y-79599999D01*
X167629127Y-79256564D01*
X167434586Y-78965414D01*
X167143436Y-78770873D01*
X166800001Y-78702560D01*
X166202362Y-78702560D01*
X165430332Y-77930531D01*
X165387930Y-77867072D01*
X165136538Y-77699097D01*
X164914853Y-77655001D01*
X164914848Y-77655001D01*
X164840001Y-77640113D01*
X164765154Y-77655001D01*
X153189803Y-77655001D01*
X152835001Y-77300200D01*
X152835001Y-66629802D01*
X154101115Y-65363689D01*
X154283668Y-65400001D01*
X154566334Y-65400001D01*
X154984910Y-65316741D01*
X155459578Y-64999578D01*
X155715948Y-64615893D01*
X155812612Y-64820135D01*
X156227578Y-65196042D01*
X156615962Y-65356905D01*
X156838001Y-65234916D01*
X156838001Y-64092001D01*
X157092001Y-64092001D01*
X157092001Y-65234916D01*
X157314040Y-65356905D01*
X157702424Y-65196042D01*
X158117390Y-64820135D01*
X158235001Y-64571634D01*
X158352612Y-64820135D01*
X158767578Y-65196042D01*
X159155962Y-65356905D01*
X159378001Y-65234916D01*
X159378001Y-64092001D01*
X157092001Y-64092001D01*
X156838001Y-64092001D01*
X156818001Y-64092001D01*
X156818001Y-63838001D01*
X156838001Y-63838001D01*
X156838001Y-63818001D01*
X157092001Y-63818001D01*
X157092001Y-63838001D01*
X159378001Y-63838001D01*
X159378001Y-63818001D01*
X159632001Y-63818001D01*
X159632001Y-63838001D01*
X159652001Y-63838001D01*
X159652001Y-64092001D01*
X159632001Y-64092001D01*
X159632001Y-65234916D01*
X159854040Y-65356905D01*
X160242424Y-65196042D01*
X160657390Y-64820135D01*
X160754054Y-64615893D01*
X161010424Y-64999578D01*
X161485092Y-65316741D01*
X161903668Y-65400001D01*
X162186334Y-65400001D01*
X162604910Y-65316741D01*
X163079578Y-64999578D01*
X163396741Y-64524910D01*
X163508114Y-63965001D01*
X163396741Y-63405092D01*
X163343226Y-63325001D01*
X165826776Y-63325001D01*
X165773261Y-63405092D01*
X165773261Y-63405092D01*
G37*
X165773261Y-63405092D02*
X165661888Y-63965001D01*
X165773261Y-64524910D01*
X166090424Y-64999578D01*
X166365002Y-65183045D01*
X166365001Y-75025154D01*
X166350113Y-75100001D01*
X166365001Y-75174848D01*
X166365001Y-75174852D01*
X166409097Y-75396537D01*
X166577072Y-75647930D01*
X166640531Y-75690332D01*
X168459671Y-77509473D01*
X168502071Y-77572929D01*
X168553775Y-77607476D01*
X168570873Y-77693436D01*
X168765414Y-77984586D01*
X168863313Y-78050000D01*
X168765414Y-78115414D01*
X168570873Y-78406564D01*
X168502560Y-78749999D01*
X168502560Y-79400001D01*
X168570873Y-79743436D01*
X168765414Y-80034586D01*
X169056564Y-80229127D01*
X169090000Y-80235778D01*
X169090000Y-80574475D01*
X169050113Y-80775001D01*
X169078284Y-80916628D01*
X167580221Y-80916628D01*
X167629127Y-80843436D01*
X167697440Y-80500001D01*
X167697440Y-79599999D01*
X167629127Y-79256564D01*
X167434586Y-78965414D01*
X167143436Y-78770873D01*
X166800001Y-78702560D01*
X166202362Y-78702560D01*
X165430332Y-77930531D01*
X165387930Y-77867072D01*
X165136538Y-77699097D01*
X164914853Y-77655001D01*
X164914848Y-77655001D01*
X164840001Y-77640113D01*
X164765154Y-77655001D01*
X153189803Y-77655001D01*
X152835001Y-77300200D01*
X152835001Y-66629802D01*
X154101115Y-65363689D01*
X154283668Y-65400001D01*
X154566334Y-65400001D01*
X154984910Y-65316741D01*
X155459578Y-64999578D01*
X155715948Y-64615893D01*
X155812612Y-64820135D01*
X156227578Y-65196042D01*
X156615962Y-65356905D01*
X156838001Y-65234916D01*
X156838001Y-64092001D01*
X157092001Y-64092001D01*
X157092001Y-65234916D01*
X157314040Y-65356905D01*
X157702424Y-65196042D01*
X158117390Y-64820135D01*
X158235001Y-64571634D01*
X158352612Y-64820135D01*
X158767578Y-65196042D01*
X159155962Y-65356905D01*
X159378001Y-65234916D01*
X159378001Y-64092001D01*
X157092001Y-64092001D01*
X156838001Y-64092001D01*
X156818001Y-64092001D01*
X156818001Y-63838001D01*
X156838001Y-63838001D01*
X156838001Y-63818001D01*
X157092001Y-63818001D01*
X157092001Y-63838001D01*
X159378001Y-63838001D01*
X159378001Y-63818001D01*
X159632001Y-63818001D01*
X159632001Y-63838001D01*
X159652001Y-63838001D01*
X159652001Y-64092001D01*
X159632001Y-64092001D01*
X159632001Y-65234916D01*
X159854040Y-65356905D01*
X160242424Y-65196042D01*
X160657390Y-64820135D01*
X160754054Y-64615893D01*
X161010424Y-64999578D01*
X161485092Y-65316741D01*
X161903668Y-65400001D01*
X162186334Y-65400001D01*
X162604910Y-65316741D01*
X163079578Y-64999578D01*
X163396741Y-64524910D01*
X163508114Y-63965001D01*
X163396741Y-63405092D01*
X163343226Y-63325001D01*
X165826776Y-63325001D01*
X165773261Y-63405092D01*
G04 #@! TD*
M02*
