G04 #@! TF.GenerationSoftware,KiCad,Pcbnew,(5.0.0)*
G04 #@! TF.CreationDate,2019-08-13T22:33:18+09:00*
G04 #@! TF.ProjectId,gauss_meter_hw,67617573735F6D657465725F68772E6B,rev?*
G04 #@! TF.SameCoordinates,Original*
G04 #@! TF.FileFunction,Copper,L2,Bot,Signal*
G04 #@! TF.FilePolarity,Positive*
%FSLAX46Y46*%
G04 Gerber Fmt 4.6, Leading zero omitted, Abs format (unit mm)*
G04 Created by KiCad (PCBNEW (5.0.0)) date 08/13/19 22:33:18*
%MOMM*%
%LPD*%
G01*
G04 APERTURE LIST*
G04 #@! TA.AperFunction,ComponentPad*
%ADD10O,1.600000X1.600000*%
G04 #@! TD*
G04 #@! TA.AperFunction,ComponentPad*
%ADD11R,1.600000X1.600000*%
G04 #@! TD*
G04 #@! TA.AperFunction,ComponentPad*
%ADD12R,1.700000X1.700000*%
G04 #@! TD*
G04 #@! TA.AperFunction,ComponentPad*
%ADD13O,1.700000X1.700000*%
G04 #@! TD*
G04 #@! TA.AperFunction,ViaPad*
%ADD14C,0.800000*%
G04 #@! TD*
G04 #@! TA.AperFunction,Conductor*
%ADD15C,0.250000*%
G04 #@! TD*
G04 #@! TA.AperFunction,Conductor*
%ADD16C,0.254000*%
G04 #@! TD*
G04 APERTURE END LIST*
D10*
G04 #@! TO.P,A1,29*
G04 #@! TO.N,GND*
X142745001Y-112225001D03*
G04 #@! TO.P,A1,30*
G04 #@! TO.N,Net-(A1-Pad30)*
X140205001Y-112225001D03*
D11*
G04 #@! TO.P,A1,1*
G04 #@! TO.N,Net-(A1-Pad1)*
X144265001Y-63965001D03*
D10*
G04 #@! TO.P,A1,17*
G04 #@! TO.N,Net-(A1-Pad17)*
X174745001Y-112225001D03*
G04 #@! TO.P,A1,2*
G04 #@! TO.N,Net-(A1-Pad2)*
X146805001Y-63965001D03*
G04 #@! TO.P,A1,18*
G04 #@! TO.N,Net-(A1-Pad18)*
X172205001Y-112225001D03*
G04 #@! TO.P,A1,3*
G04 #@! TO.N,Net-(A1-Pad3)*
X149345001Y-63965001D03*
G04 #@! TO.P,A1,19*
G04 #@! TO.N,Net-(A1-Pad19)*
X169665001Y-112225001D03*
G04 #@! TO.P,A1,4*
G04 #@! TO.N,Net-(A1-Pad4)*
X151885001Y-63965001D03*
G04 #@! TO.P,A1,20*
G04 #@! TO.N,Net-(A1-Pad20)*
X167125001Y-112225001D03*
G04 #@! TO.P,A1,5*
G04 #@! TO.N,+5V*
X154425001Y-63965001D03*
G04 #@! TO.P,A1,21*
G04 #@! TO.N,Net-(A1-Pad21)*
X164585001Y-112225001D03*
G04 #@! TO.P,A1,6*
G04 #@! TO.N,GND*
X156965001Y-63965001D03*
G04 #@! TO.P,A1,22*
G04 #@! TO.N,Net-(A1-Pad22)*
X162045001Y-112225001D03*
G04 #@! TO.P,A1,7*
G04 #@! TO.N,GND*
X159505001Y-63965001D03*
G04 #@! TO.P,A1,23*
G04 #@! TO.N,Net-(A1-Pad23)*
X157985001Y-112225001D03*
G04 #@! TO.P,A1,8*
G04 #@! TO.N,Net-(A1-Pad8)*
X162045001Y-63965001D03*
G04 #@! TO.P,A1,24*
G04 #@! TO.N,Net-(A1-Pad24)*
X155445001Y-112225001D03*
G04 #@! TO.P,A1,9*
G04 #@! TO.N,Net-(A1-Pad9)*
X167125001Y-63965001D03*
G04 #@! TO.P,A1,25*
G04 #@! TO.N,Net-(A1-Pad25)*
X152905001Y-112225001D03*
G04 #@! TO.P,A1,10*
G04 #@! TO.N,Net-(A1-Pad10)*
X169665001Y-63965001D03*
G04 #@! TO.P,A1,26*
G04 #@! TO.N,Net-(A1-Pad26)*
X150365001Y-112225001D03*
G04 #@! TO.P,A1,11*
G04 #@! TO.N,Net-(A1-Pad11)*
X172205001Y-63965001D03*
G04 #@! TO.P,A1,27*
G04 #@! TO.N,Net-(A1-Pad27)*
X147825001Y-112225001D03*
G04 #@! TO.P,A1,12*
G04 #@! TO.N,Net-(A1-Pad12)*
X174745001Y-63965001D03*
G04 #@! TO.P,A1,28*
G04 #@! TO.N,Net-(A1-Pad28)*
X145285001Y-112225001D03*
G04 #@! TO.P,A1,13*
G04 #@! TO.N,Net-(A1-Pad13)*
X177285001Y-63965001D03*
G04 #@! TO.P,A1,14*
G04 #@! TO.N,Net-(A1-Pad14)*
X179825001Y-63965001D03*
G04 #@! TO.P,A1,15*
G04 #@! TO.N,Net-(A1-Pad15)*
X179825001Y-112225001D03*
G04 #@! TO.P,A1,16*
G04 #@! TO.N,Net-(A1-Pad16)*
X177285001Y-112225001D03*
G04 #@! TD*
D12*
G04 #@! TO.P,J1,1*
G04 #@! TO.N,+5V*
X181500000Y-81500000D03*
D13*
G04 #@! TO.P,J1,2*
G04 #@! TO.N,Net-(C1-Pad1)*
X181500000Y-84040000D03*
G04 #@! TO.P,J1,3*
G04 #@! TO.N,GND*
X181500000Y-86580000D03*
G04 #@! TO.P,J1,4*
X181500000Y-89120000D03*
G04 #@! TD*
D12*
G04 #@! TO.P,J2,1*
G04 #@! TO.N,GND*
X121700000Y-89280000D03*
D13*
G04 #@! TO.P,J2,2*
G04 #@! TO.N,+5V*
X121700000Y-86740000D03*
G04 #@! TO.P,J2,3*
G04 #@! TO.N,Net-(A1-Pad14)*
X121700000Y-84200000D03*
G04 #@! TO.P,J2,4*
G04 #@! TO.N,Net-(A1-Pad13)*
X121700000Y-81660000D03*
G04 #@! TD*
D14*
G04 #@! TO.N,GND*
X180775001Y-75965001D03*
X181825001Y-75965001D03*
X181825001Y-76915001D03*
X180775001Y-76915001D03*
G04 #@! TD*
D15*
G04 #@! TO.N,+5V*
X180400000Y-81500000D02*
X176465001Y-77565001D01*
X181500000Y-81500000D02*
X180400000Y-81500000D01*
X176465001Y-77565001D02*
X154775001Y-77565001D01*
X154425001Y-77215001D02*
X154425001Y-63965001D01*
X154775001Y-77565001D02*
X154425001Y-77215001D01*
G04 #@! TD*
D16*
G04 #@! TO.N,GND*
G36*
X129028975Y-62070260D02*
X128400260Y-62698975D01*
X128060001Y-63520432D01*
X128060001Y-64409570D01*
X128400260Y-65231027D01*
X129028975Y-65859742D01*
X129850432Y-66200001D01*
X130739570Y-66200001D01*
X131561027Y-65859742D01*
X132189742Y-65231027D01*
X132530001Y-64409570D01*
X132530001Y-63520432D01*
X132382777Y-63165001D01*
X142817561Y-63165001D01*
X142817561Y-64765001D01*
X142866844Y-65012766D01*
X143007192Y-65222810D01*
X143217236Y-65363158D01*
X143465001Y-65412441D01*
X145065001Y-65412441D01*
X145312766Y-65363158D01*
X145522810Y-65222810D01*
X145663158Y-65012766D01*
X145689786Y-64878895D01*
X145770424Y-64999578D01*
X146245092Y-65316741D01*
X146663668Y-65400001D01*
X146946334Y-65400001D01*
X147364910Y-65316741D01*
X147839578Y-64999578D01*
X148075001Y-64647243D01*
X148310424Y-64999578D01*
X148785092Y-65316741D01*
X149203668Y-65400001D01*
X149486334Y-65400001D01*
X149904910Y-65316741D01*
X150379578Y-64999578D01*
X150615001Y-64647243D01*
X150850424Y-64999578D01*
X151325092Y-65316741D01*
X151743668Y-65400001D01*
X152026334Y-65400001D01*
X152444910Y-65316741D01*
X152919578Y-64999578D01*
X153155001Y-64647243D01*
X153390424Y-64999578D01*
X153665002Y-65183045D01*
X153665001Y-77140154D01*
X153650113Y-77215001D01*
X153665001Y-77289848D01*
X153665001Y-77289852D01*
X153709097Y-77511537D01*
X153877072Y-77762930D01*
X153940531Y-77805332D01*
X154184670Y-78049471D01*
X154227072Y-78112930D01*
X154384719Y-78218267D01*
X154478463Y-78280905D01*
X154526606Y-78290481D01*
X154700149Y-78325001D01*
X154700153Y-78325001D01*
X154775001Y-78339889D01*
X154849849Y-78325001D01*
X176150200Y-78325001D01*
X179809671Y-81984473D01*
X179852071Y-82047929D01*
X180002560Y-82148483D01*
X180002560Y-82350000D01*
X180051843Y-82597765D01*
X180192191Y-82807809D01*
X180402235Y-82948157D01*
X180447619Y-82957184D01*
X180429375Y-82969375D01*
X180101161Y-83460582D01*
X179985908Y-84040000D01*
X180101161Y-84619418D01*
X180429375Y-85110625D01*
X180748478Y-85323843D01*
X180618642Y-85384817D01*
X180228355Y-85813076D01*
X180058524Y-86223110D01*
X180179845Y-86453000D01*
X181373000Y-86453000D01*
X181373000Y-86433000D01*
X181627000Y-86433000D01*
X181627000Y-86453000D01*
X182820155Y-86453000D01*
X182941476Y-86223110D01*
X182771645Y-85813076D01*
X182381358Y-85384817D01*
X182251522Y-85323843D01*
X182570625Y-85110625D01*
X182898839Y-84619418D01*
X183014092Y-84040000D01*
X182898839Y-83460582D01*
X182570625Y-82969375D01*
X182552381Y-82957184D01*
X182597765Y-82948157D01*
X182807809Y-82807809D01*
X182948157Y-82597765D01*
X182997440Y-82350000D01*
X182997440Y-80650000D01*
X182948157Y-80402235D01*
X182807809Y-80192191D01*
X182597765Y-80051843D01*
X182350000Y-80002560D01*
X180650000Y-80002560D01*
X180402235Y-80051843D01*
X180192191Y-80192191D01*
X180182098Y-80207296D01*
X177055332Y-77080531D01*
X177012930Y-77017072D01*
X176761538Y-76849097D01*
X176539853Y-76805001D01*
X176539848Y-76805001D01*
X176465001Y-76790113D01*
X176390154Y-76805001D01*
X155185001Y-76805001D01*
X155185001Y-65183044D01*
X155459578Y-64999578D01*
X155715948Y-64615893D01*
X155812612Y-64820135D01*
X156227578Y-65196042D01*
X156615962Y-65356905D01*
X156838001Y-65234916D01*
X156838001Y-64092001D01*
X157092001Y-64092001D01*
X157092001Y-65234916D01*
X157314040Y-65356905D01*
X157702424Y-65196042D01*
X158117390Y-64820135D01*
X158235001Y-64571634D01*
X158352612Y-64820135D01*
X158767578Y-65196042D01*
X159155962Y-65356905D01*
X159378001Y-65234916D01*
X159378001Y-64092001D01*
X157092001Y-64092001D01*
X156838001Y-64092001D01*
X156818001Y-64092001D01*
X156818001Y-63838001D01*
X156838001Y-63838001D01*
X156838001Y-62695086D01*
X157092001Y-62695086D01*
X157092001Y-63838001D01*
X159378001Y-63838001D01*
X159378001Y-62695086D01*
X159632001Y-62695086D01*
X159632001Y-63838001D01*
X159652001Y-63838001D01*
X159652001Y-64092001D01*
X159632001Y-64092001D01*
X159632001Y-65234916D01*
X159854040Y-65356905D01*
X160242424Y-65196042D01*
X160657390Y-64820135D01*
X160754054Y-64615893D01*
X161010424Y-64999578D01*
X161485092Y-65316741D01*
X161903668Y-65400001D01*
X162186334Y-65400001D01*
X162604910Y-65316741D01*
X163079578Y-64999578D01*
X163396741Y-64524910D01*
X163508114Y-63965001D01*
X165661888Y-63965001D01*
X165773261Y-64524910D01*
X166090424Y-64999578D01*
X166565092Y-65316741D01*
X166983668Y-65400001D01*
X167266334Y-65400001D01*
X167684910Y-65316741D01*
X168159578Y-64999578D01*
X168395001Y-64647243D01*
X168630424Y-64999578D01*
X169105092Y-65316741D01*
X169523668Y-65400001D01*
X169806334Y-65400001D01*
X170224910Y-65316741D01*
X170699578Y-64999578D01*
X170935001Y-64647243D01*
X171170424Y-64999578D01*
X171645092Y-65316741D01*
X172063668Y-65400001D01*
X172346334Y-65400001D01*
X172764910Y-65316741D01*
X173239578Y-64999578D01*
X173475001Y-64647243D01*
X173710424Y-64999578D01*
X174185092Y-65316741D01*
X174603668Y-65400001D01*
X174886334Y-65400001D01*
X175304910Y-65316741D01*
X175779578Y-64999578D01*
X176015001Y-64647243D01*
X176250424Y-64999578D01*
X176725092Y-65316741D01*
X177143668Y-65400001D01*
X177426334Y-65400001D01*
X177844910Y-65316741D01*
X178319578Y-64999578D01*
X178555001Y-64647243D01*
X178790424Y-64999578D01*
X179265092Y-65316741D01*
X179683668Y-65400001D01*
X179966334Y-65400001D01*
X180384910Y-65316741D01*
X180859578Y-64999578D01*
X181176741Y-64524910D01*
X181288114Y-63965001D01*
X181176741Y-63405092D01*
X180859578Y-62930424D01*
X180384910Y-62613261D01*
X179966334Y-62530001D01*
X179683668Y-62530001D01*
X179265092Y-62613261D01*
X178790424Y-62930424D01*
X178555001Y-63282759D01*
X178319578Y-62930424D01*
X177844910Y-62613261D01*
X177426334Y-62530001D01*
X177143668Y-62530001D01*
X176725092Y-62613261D01*
X176250424Y-62930424D01*
X176015001Y-63282759D01*
X175779578Y-62930424D01*
X175304910Y-62613261D01*
X174886334Y-62530001D01*
X174603668Y-62530001D01*
X174185092Y-62613261D01*
X173710424Y-62930424D01*
X173475001Y-63282759D01*
X173239578Y-62930424D01*
X172764910Y-62613261D01*
X172346334Y-62530001D01*
X172063668Y-62530001D01*
X171645092Y-62613261D01*
X171170424Y-62930424D01*
X170935001Y-63282759D01*
X170699578Y-62930424D01*
X170224910Y-62613261D01*
X169806334Y-62530001D01*
X169523668Y-62530001D01*
X169105092Y-62613261D01*
X168630424Y-62930424D01*
X168395001Y-63282759D01*
X168159578Y-62930424D01*
X167684910Y-62613261D01*
X167266334Y-62530001D01*
X166983668Y-62530001D01*
X166565092Y-62613261D01*
X166090424Y-62930424D01*
X165773261Y-63405092D01*
X165661888Y-63965001D01*
X163508114Y-63965001D01*
X163396741Y-63405092D01*
X163079578Y-62930424D01*
X162604910Y-62613261D01*
X162186334Y-62530001D01*
X161903668Y-62530001D01*
X161485092Y-62613261D01*
X161010424Y-62930424D01*
X160754054Y-63314109D01*
X160657390Y-63109867D01*
X160242424Y-62733960D01*
X159854040Y-62573097D01*
X159632001Y-62695086D01*
X159378001Y-62695086D01*
X159155962Y-62573097D01*
X158767578Y-62733960D01*
X158352612Y-63109867D01*
X158235001Y-63358368D01*
X158117390Y-63109867D01*
X157702424Y-62733960D01*
X157314040Y-62573097D01*
X157092001Y-62695086D01*
X156838001Y-62695086D01*
X156615962Y-62573097D01*
X156227578Y-62733960D01*
X155812612Y-63109867D01*
X155715948Y-63314109D01*
X155459578Y-62930424D01*
X154984910Y-62613261D01*
X154566334Y-62530001D01*
X154283668Y-62530001D01*
X153865092Y-62613261D01*
X153390424Y-62930424D01*
X153155001Y-63282759D01*
X152919578Y-62930424D01*
X152444910Y-62613261D01*
X152026334Y-62530001D01*
X151743668Y-62530001D01*
X151325092Y-62613261D01*
X150850424Y-62930424D01*
X150615001Y-63282759D01*
X150379578Y-62930424D01*
X149904910Y-62613261D01*
X149486334Y-62530001D01*
X149203668Y-62530001D01*
X148785092Y-62613261D01*
X148310424Y-62930424D01*
X148075001Y-63282759D01*
X147839578Y-62930424D01*
X147364910Y-62613261D01*
X146946334Y-62530001D01*
X146663668Y-62530001D01*
X146245092Y-62613261D01*
X145770424Y-62930424D01*
X145689786Y-63051107D01*
X145663158Y-62917236D01*
X145522810Y-62707192D01*
X145312766Y-62566844D01*
X145065001Y-62517561D01*
X143465001Y-62517561D01*
X143217236Y-62566844D01*
X143007192Y-62707192D01*
X142866844Y-62917236D01*
X142817561Y-63165001D01*
X132382777Y-63165001D01*
X132189742Y-62698975D01*
X131561027Y-62070260D01*
X131089631Y-61875001D01*
X181915001Y-61875001D01*
X181915002Y-63895072D01*
X181901092Y-63965001D01*
X181956197Y-64242029D01*
X182113121Y-64476882D01*
X182172403Y-64516493D01*
X184415001Y-66759093D01*
X184415001Y-68153803D01*
X184259742Y-67778975D01*
X183631027Y-67150260D01*
X182809570Y-66810001D01*
X181920432Y-66810001D01*
X181098975Y-67150260D01*
X180470260Y-67778975D01*
X180130001Y-68600432D01*
X180130001Y-69489570D01*
X180470260Y-70311027D01*
X181098975Y-70939742D01*
X181920432Y-71280001D01*
X182809570Y-71280001D01*
X183631027Y-70939742D01*
X184259742Y-70311027D01*
X184415001Y-69936199D01*
X184415002Y-96093805D01*
X184259742Y-95718975D01*
X183631027Y-95090260D01*
X182809570Y-94750001D01*
X181920432Y-94750001D01*
X181098975Y-95090260D01*
X180470260Y-95718975D01*
X180130001Y-96540432D01*
X180130001Y-97429570D01*
X180470260Y-98251027D01*
X181098975Y-98879742D01*
X181920432Y-99220001D01*
X182809570Y-99220001D01*
X183631027Y-98879742D01*
X184259742Y-98251027D01*
X184415002Y-97876197D01*
X184415002Y-98975018D01*
X182169450Y-101265482D01*
X182113120Y-101303121D01*
X182071539Y-101365352D01*
X182069057Y-101367883D01*
X182032725Y-101423440D01*
X181956196Y-101537974D01*
X181955484Y-101541555D01*
X181953487Y-101544608D01*
X181927969Y-101679879D01*
X181915001Y-101745076D01*
X181915001Y-101748626D01*
X181901128Y-101822168D01*
X181915001Y-101888475D01*
X181915002Y-112926749D01*
X180575035Y-114305001D01*
X132383773Y-114305001D01*
X132831027Y-114119742D01*
X133459742Y-113491027D01*
X133800001Y-112669570D01*
X133800001Y-112225001D01*
X138741888Y-112225001D01*
X138853261Y-112784910D01*
X139170424Y-113259578D01*
X139645092Y-113576741D01*
X140063668Y-113660001D01*
X140346334Y-113660001D01*
X140764910Y-113576741D01*
X141239578Y-113259578D01*
X141495948Y-112875893D01*
X141592612Y-113080135D01*
X142007578Y-113456042D01*
X142395962Y-113616905D01*
X142618001Y-113494916D01*
X142618001Y-112352001D01*
X142598001Y-112352001D01*
X142598001Y-112098001D01*
X142618001Y-112098001D01*
X142618001Y-110955086D01*
X142872001Y-110955086D01*
X142872001Y-112098001D01*
X142892001Y-112098001D01*
X142892001Y-112352001D01*
X142872001Y-112352001D01*
X142872001Y-113494916D01*
X143094040Y-113616905D01*
X143482424Y-113456042D01*
X143897390Y-113080135D01*
X143994054Y-112875893D01*
X144250424Y-113259578D01*
X144725092Y-113576741D01*
X145143668Y-113660001D01*
X145426334Y-113660001D01*
X145844910Y-113576741D01*
X146319578Y-113259578D01*
X146555001Y-112907243D01*
X146790424Y-113259578D01*
X147265092Y-113576741D01*
X147683668Y-113660001D01*
X147966334Y-113660001D01*
X148384910Y-113576741D01*
X148859578Y-113259578D01*
X149095001Y-112907243D01*
X149330424Y-113259578D01*
X149805092Y-113576741D01*
X150223668Y-113660001D01*
X150506334Y-113660001D01*
X150924910Y-113576741D01*
X151399578Y-113259578D01*
X151635001Y-112907243D01*
X151870424Y-113259578D01*
X152345092Y-113576741D01*
X152763668Y-113660001D01*
X153046334Y-113660001D01*
X153464910Y-113576741D01*
X153939578Y-113259578D01*
X154175001Y-112907243D01*
X154410424Y-113259578D01*
X154885092Y-113576741D01*
X155303668Y-113660001D01*
X155586334Y-113660001D01*
X156004910Y-113576741D01*
X156479578Y-113259578D01*
X156715001Y-112907243D01*
X156950424Y-113259578D01*
X157425092Y-113576741D01*
X157843668Y-113660001D01*
X158126334Y-113660001D01*
X158544910Y-113576741D01*
X159019578Y-113259578D01*
X159336741Y-112784910D01*
X159448114Y-112225001D01*
X160581888Y-112225001D01*
X160693261Y-112784910D01*
X161010424Y-113259578D01*
X161485092Y-113576741D01*
X161903668Y-113660001D01*
X162186334Y-113660001D01*
X162604910Y-113576741D01*
X163079578Y-113259578D01*
X163315001Y-112907243D01*
X163550424Y-113259578D01*
X164025092Y-113576741D01*
X164443668Y-113660001D01*
X164726334Y-113660001D01*
X165144910Y-113576741D01*
X165619578Y-113259578D01*
X165855001Y-112907243D01*
X166090424Y-113259578D01*
X166565092Y-113576741D01*
X166983668Y-113660001D01*
X167266334Y-113660001D01*
X167684910Y-113576741D01*
X168159578Y-113259578D01*
X168395001Y-112907243D01*
X168630424Y-113259578D01*
X169105092Y-113576741D01*
X169523668Y-113660001D01*
X169806334Y-113660001D01*
X170224910Y-113576741D01*
X170699578Y-113259578D01*
X170935001Y-112907243D01*
X171170424Y-113259578D01*
X171645092Y-113576741D01*
X172063668Y-113660001D01*
X172346334Y-113660001D01*
X172764910Y-113576741D01*
X173239578Y-113259578D01*
X173475001Y-112907243D01*
X173710424Y-113259578D01*
X174185092Y-113576741D01*
X174603668Y-113660001D01*
X174886334Y-113660001D01*
X175304910Y-113576741D01*
X175779578Y-113259578D01*
X176015001Y-112907243D01*
X176250424Y-113259578D01*
X176725092Y-113576741D01*
X177143668Y-113660001D01*
X177426334Y-113660001D01*
X177844910Y-113576741D01*
X178319578Y-113259578D01*
X178555001Y-112907243D01*
X178790424Y-113259578D01*
X179265092Y-113576741D01*
X179683668Y-113660001D01*
X179966334Y-113660001D01*
X180384910Y-113576741D01*
X180859578Y-113259578D01*
X181176741Y-112784910D01*
X181288114Y-112225001D01*
X181176741Y-111665092D01*
X180859578Y-111190424D01*
X180384910Y-110873261D01*
X179966334Y-110790001D01*
X179683668Y-110790001D01*
X179265092Y-110873261D01*
X178790424Y-111190424D01*
X178555001Y-111542759D01*
X178319578Y-111190424D01*
X177844910Y-110873261D01*
X177426334Y-110790001D01*
X177143668Y-110790001D01*
X176725092Y-110873261D01*
X176250424Y-111190424D01*
X176015001Y-111542759D01*
X175779578Y-111190424D01*
X175304910Y-110873261D01*
X174886334Y-110790001D01*
X174603668Y-110790001D01*
X174185092Y-110873261D01*
X173710424Y-111190424D01*
X173475001Y-111542759D01*
X173239578Y-111190424D01*
X172764910Y-110873261D01*
X172346334Y-110790001D01*
X172063668Y-110790001D01*
X171645092Y-110873261D01*
X171170424Y-111190424D01*
X170935001Y-111542759D01*
X170699578Y-111190424D01*
X170224910Y-110873261D01*
X169806334Y-110790001D01*
X169523668Y-110790001D01*
X169105092Y-110873261D01*
X168630424Y-111190424D01*
X168395001Y-111542759D01*
X168159578Y-111190424D01*
X167684910Y-110873261D01*
X167266334Y-110790001D01*
X166983668Y-110790001D01*
X166565092Y-110873261D01*
X166090424Y-111190424D01*
X165855001Y-111542759D01*
X165619578Y-111190424D01*
X165144910Y-110873261D01*
X164726334Y-110790001D01*
X164443668Y-110790001D01*
X164025092Y-110873261D01*
X163550424Y-111190424D01*
X163315001Y-111542759D01*
X163079578Y-111190424D01*
X162604910Y-110873261D01*
X162186334Y-110790001D01*
X161903668Y-110790001D01*
X161485092Y-110873261D01*
X161010424Y-111190424D01*
X160693261Y-111665092D01*
X160581888Y-112225001D01*
X159448114Y-112225001D01*
X159336741Y-111665092D01*
X159019578Y-111190424D01*
X158544910Y-110873261D01*
X158126334Y-110790001D01*
X157843668Y-110790001D01*
X157425092Y-110873261D01*
X156950424Y-111190424D01*
X156715001Y-111542759D01*
X156479578Y-111190424D01*
X156004910Y-110873261D01*
X155586334Y-110790001D01*
X155303668Y-110790001D01*
X154885092Y-110873261D01*
X154410424Y-111190424D01*
X154175001Y-111542759D01*
X153939578Y-111190424D01*
X153464910Y-110873261D01*
X153046334Y-110790001D01*
X152763668Y-110790001D01*
X152345092Y-110873261D01*
X151870424Y-111190424D01*
X151635001Y-111542759D01*
X151399578Y-111190424D01*
X150924910Y-110873261D01*
X150506334Y-110790001D01*
X150223668Y-110790001D01*
X149805092Y-110873261D01*
X149330424Y-111190424D01*
X149095001Y-111542759D01*
X148859578Y-111190424D01*
X148384910Y-110873261D01*
X147966334Y-110790001D01*
X147683668Y-110790001D01*
X147265092Y-110873261D01*
X146790424Y-111190424D01*
X146555001Y-111542759D01*
X146319578Y-111190424D01*
X145844910Y-110873261D01*
X145426334Y-110790001D01*
X145143668Y-110790001D01*
X144725092Y-110873261D01*
X144250424Y-111190424D01*
X143994054Y-111574109D01*
X143897390Y-111369867D01*
X143482424Y-110993960D01*
X143094040Y-110833097D01*
X142872001Y-110955086D01*
X142618001Y-110955086D01*
X142395962Y-110833097D01*
X142007578Y-110993960D01*
X141592612Y-111369867D01*
X141495948Y-111574109D01*
X141239578Y-111190424D01*
X140764910Y-110873261D01*
X140346334Y-110790001D01*
X140063668Y-110790001D01*
X139645092Y-110873261D01*
X139170424Y-111190424D01*
X138853261Y-111665092D01*
X138741888Y-112225001D01*
X133800001Y-112225001D01*
X133800001Y-111780432D01*
X133459742Y-110958975D01*
X132831027Y-110330260D01*
X132009570Y-109990001D01*
X131120432Y-109990001D01*
X130298975Y-110330260D01*
X129670260Y-110958975D01*
X129330001Y-111780432D01*
X129330001Y-112669570D01*
X129670260Y-113491027D01*
X130298975Y-114119742D01*
X130746229Y-114305001D01*
X116785001Y-114305001D01*
X116785001Y-89565750D01*
X120215000Y-89565750D01*
X120215000Y-90256310D01*
X120311673Y-90489699D01*
X120490302Y-90668327D01*
X120723691Y-90765000D01*
X121414250Y-90765000D01*
X121573000Y-90606250D01*
X121573000Y-89407000D01*
X121827000Y-89407000D01*
X121827000Y-90606250D01*
X121985750Y-90765000D01*
X122676309Y-90765000D01*
X122909698Y-90668327D01*
X123088327Y-90489699D01*
X123185000Y-90256310D01*
X123185000Y-89565750D01*
X123096140Y-89476890D01*
X180058524Y-89476890D01*
X180228355Y-89886924D01*
X180618642Y-90315183D01*
X181143108Y-90561486D01*
X181373000Y-90440819D01*
X181373000Y-89247000D01*
X181627000Y-89247000D01*
X181627000Y-90440819D01*
X181856892Y-90561486D01*
X182381358Y-90315183D01*
X182771645Y-89886924D01*
X182941476Y-89476890D01*
X182820155Y-89247000D01*
X181627000Y-89247000D01*
X181373000Y-89247000D01*
X180179845Y-89247000D01*
X180058524Y-89476890D01*
X123096140Y-89476890D01*
X123026250Y-89407000D01*
X121827000Y-89407000D01*
X121573000Y-89407000D01*
X120373750Y-89407000D01*
X120215000Y-89565750D01*
X116785001Y-89565750D01*
X116785001Y-81660000D01*
X120185908Y-81660000D01*
X120301161Y-82239418D01*
X120629375Y-82730625D01*
X120927761Y-82930000D01*
X120629375Y-83129375D01*
X120301161Y-83620582D01*
X120185908Y-84200000D01*
X120301161Y-84779418D01*
X120629375Y-85270625D01*
X120927761Y-85470000D01*
X120629375Y-85669375D01*
X120301161Y-86160582D01*
X120185908Y-86740000D01*
X120301161Y-87319418D01*
X120629375Y-87810625D01*
X120651033Y-87825096D01*
X120490302Y-87891673D01*
X120311673Y-88070301D01*
X120215000Y-88303690D01*
X120215000Y-88994250D01*
X120373750Y-89153000D01*
X121573000Y-89153000D01*
X121573000Y-89133000D01*
X121827000Y-89133000D01*
X121827000Y-89153000D01*
X123026250Y-89153000D01*
X123185000Y-88994250D01*
X123185000Y-88303690D01*
X123088327Y-88070301D01*
X122909698Y-87891673D01*
X122748967Y-87825096D01*
X122770625Y-87810625D01*
X123098839Y-87319418D01*
X123174928Y-86936890D01*
X180058524Y-86936890D01*
X180228355Y-87346924D01*
X180618642Y-87775183D01*
X180777954Y-87850000D01*
X180618642Y-87924817D01*
X180228355Y-88353076D01*
X180058524Y-88763110D01*
X180179845Y-88993000D01*
X181373000Y-88993000D01*
X181373000Y-86707000D01*
X181627000Y-86707000D01*
X181627000Y-88993000D01*
X182820155Y-88993000D01*
X182941476Y-88763110D01*
X182771645Y-88353076D01*
X182381358Y-87924817D01*
X182222046Y-87850000D01*
X182381358Y-87775183D01*
X182771645Y-87346924D01*
X182941476Y-86936890D01*
X182820155Y-86707000D01*
X181627000Y-86707000D01*
X181373000Y-86707000D01*
X180179845Y-86707000D01*
X180058524Y-86936890D01*
X123174928Y-86936890D01*
X123214092Y-86740000D01*
X123098839Y-86160582D01*
X122770625Y-85669375D01*
X122472239Y-85470000D01*
X122770625Y-85270625D01*
X123098839Y-84779418D01*
X123214092Y-84200000D01*
X123098839Y-83620582D01*
X122770625Y-83129375D01*
X122472239Y-82930000D01*
X122770625Y-82730625D01*
X123098839Y-82239418D01*
X123214092Y-81660000D01*
X123098839Y-81080582D01*
X122770625Y-80589375D01*
X122279418Y-80261161D01*
X121846256Y-80175000D01*
X121553744Y-80175000D01*
X121120582Y-80261161D01*
X120629375Y-80589375D01*
X120301161Y-81080582D01*
X120185908Y-81660000D01*
X116785001Y-81660000D01*
X116785001Y-61875001D01*
X129500371Y-61875001D01*
X129028975Y-62070260D01*
X129028975Y-62070260D01*
G37*
X129028975Y-62070260D02*
X128400260Y-62698975D01*
X128060001Y-63520432D01*
X128060001Y-64409570D01*
X128400260Y-65231027D01*
X129028975Y-65859742D01*
X129850432Y-66200001D01*
X130739570Y-66200001D01*
X131561027Y-65859742D01*
X132189742Y-65231027D01*
X132530001Y-64409570D01*
X132530001Y-63520432D01*
X132382777Y-63165001D01*
X142817561Y-63165001D01*
X142817561Y-64765001D01*
X142866844Y-65012766D01*
X143007192Y-65222810D01*
X143217236Y-65363158D01*
X143465001Y-65412441D01*
X145065001Y-65412441D01*
X145312766Y-65363158D01*
X145522810Y-65222810D01*
X145663158Y-65012766D01*
X145689786Y-64878895D01*
X145770424Y-64999578D01*
X146245092Y-65316741D01*
X146663668Y-65400001D01*
X146946334Y-65400001D01*
X147364910Y-65316741D01*
X147839578Y-64999578D01*
X148075001Y-64647243D01*
X148310424Y-64999578D01*
X148785092Y-65316741D01*
X149203668Y-65400001D01*
X149486334Y-65400001D01*
X149904910Y-65316741D01*
X150379578Y-64999578D01*
X150615001Y-64647243D01*
X150850424Y-64999578D01*
X151325092Y-65316741D01*
X151743668Y-65400001D01*
X152026334Y-65400001D01*
X152444910Y-65316741D01*
X152919578Y-64999578D01*
X153155001Y-64647243D01*
X153390424Y-64999578D01*
X153665002Y-65183045D01*
X153665001Y-77140154D01*
X153650113Y-77215001D01*
X153665001Y-77289848D01*
X153665001Y-77289852D01*
X153709097Y-77511537D01*
X153877072Y-77762930D01*
X153940531Y-77805332D01*
X154184670Y-78049471D01*
X154227072Y-78112930D01*
X154384719Y-78218267D01*
X154478463Y-78280905D01*
X154526606Y-78290481D01*
X154700149Y-78325001D01*
X154700153Y-78325001D01*
X154775001Y-78339889D01*
X154849849Y-78325001D01*
X176150200Y-78325001D01*
X179809671Y-81984473D01*
X179852071Y-82047929D01*
X180002560Y-82148483D01*
X180002560Y-82350000D01*
X180051843Y-82597765D01*
X180192191Y-82807809D01*
X180402235Y-82948157D01*
X180447619Y-82957184D01*
X180429375Y-82969375D01*
X180101161Y-83460582D01*
X179985908Y-84040000D01*
X180101161Y-84619418D01*
X180429375Y-85110625D01*
X180748478Y-85323843D01*
X180618642Y-85384817D01*
X180228355Y-85813076D01*
X180058524Y-86223110D01*
X180179845Y-86453000D01*
X181373000Y-86453000D01*
X181373000Y-86433000D01*
X181627000Y-86433000D01*
X181627000Y-86453000D01*
X182820155Y-86453000D01*
X182941476Y-86223110D01*
X182771645Y-85813076D01*
X182381358Y-85384817D01*
X182251522Y-85323843D01*
X182570625Y-85110625D01*
X182898839Y-84619418D01*
X183014092Y-84040000D01*
X182898839Y-83460582D01*
X182570625Y-82969375D01*
X182552381Y-82957184D01*
X182597765Y-82948157D01*
X182807809Y-82807809D01*
X182948157Y-82597765D01*
X182997440Y-82350000D01*
X182997440Y-80650000D01*
X182948157Y-80402235D01*
X182807809Y-80192191D01*
X182597765Y-80051843D01*
X182350000Y-80002560D01*
X180650000Y-80002560D01*
X180402235Y-80051843D01*
X180192191Y-80192191D01*
X180182098Y-80207296D01*
X177055332Y-77080531D01*
X177012930Y-77017072D01*
X176761538Y-76849097D01*
X176539853Y-76805001D01*
X176539848Y-76805001D01*
X176465001Y-76790113D01*
X176390154Y-76805001D01*
X155185001Y-76805001D01*
X155185001Y-65183044D01*
X155459578Y-64999578D01*
X155715948Y-64615893D01*
X155812612Y-64820135D01*
X156227578Y-65196042D01*
X156615962Y-65356905D01*
X156838001Y-65234916D01*
X156838001Y-64092001D01*
X157092001Y-64092001D01*
X157092001Y-65234916D01*
X157314040Y-65356905D01*
X157702424Y-65196042D01*
X158117390Y-64820135D01*
X158235001Y-64571634D01*
X158352612Y-64820135D01*
X158767578Y-65196042D01*
X159155962Y-65356905D01*
X159378001Y-65234916D01*
X159378001Y-64092001D01*
X157092001Y-64092001D01*
X156838001Y-64092001D01*
X156818001Y-64092001D01*
X156818001Y-63838001D01*
X156838001Y-63838001D01*
X156838001Y-62695086D01*
X157092001Y-62695086D01*
X157092001Y-63838001D01*
X159378001Y-63838001D01*
X159378001Y-62695086D01*
X159632001Y-62695086D01*
X159632001Y-63838001D01*
X159652001Y-63838001D01*
X159652001Y-64092001D01*
X159632001Y-64092001D01*
X159632001Y-65234916D01*
X159854040Y-65356905D01*
X160242424Y-65196042D01*
X160657390Y-64820135D01*
X160754054Y-64615893D01*
X161010424Y-64999578D01*
X161485092Y-65316741D01*
X161903668Y-65400001D01*
X162186334Y-65400001D01*
X162604910Y-65316741D01*
X163079578Y-64999578D01*
X163396741Y-64524910D01*
X163508114Y-63965001D01*
X165661888Y-63965001D01*
X165773261Y-64524910D01*
X166090424Y-64999578D01*
X166565092Y-65316741D01*
X166983668Y-65400001D01*
X167266334Y-65400001D01*
X167684910Y-65316741D01*
X168159578Y-64999578D01*
X168395001Y-64647243D01*
X168630424Y-64999578D01*
X169105092Y-65316741D01*
X169523668Y-65400001D01*
X169806334Y-65400001D01*
X170224910Y-65316741D01*
X170699578Y-64999578D01*
X170935001Y-64647243D01*
X171170424Y-64999578D01*
X171645092Y-65316741D01*
X172063668Y-65400001D01*
X172346334Y-65400001D01*
X172764910Y-65316741D01*
X173239578Y-64999578D01*
X173475001Y-64647243D01*
X173710424Y-64999578D01*
X174185092Y-65316741D01*
X174603668Y-65400001D01*
X174886334Y-65400001D01*
X175304910Y-65316741D01*
X175779578Y-64999578D01*
X176015001Y-64647243D01*
X176250424Y-64999578D01*
X176725092Y-65316741D01*
X177143668Y-65400001D01*
X177426334Y-65400001D01*
X177844910Y-65316741D01*
X178319578Y-64999578D01*
X178555001Y-64647243D01*
X178790424Y-64999578D01*
X179265092Y-65316741D01*
X179683668Y-65400001D01*
X179966334Y-65400001D01*
X180384910Y-65316741D01*
X180859578Y-64999578D01*
X181176741Y-64524910D01*
X181288114Y-63965001D01*
X181176741Y-63405092D01*
X180859578Y-62930424D01*
X180384910Y-62613261D01*
X179966334Y-62530001D01*
X179683668Y-62530001D01*
X179265092Y-62613261D01*
X178790424Y-62930424D01*
X178555001Y-63282759D01*
X178319578Y-62930424D01*
X177844910Y-62613261D01*
X177426334Y-62530001D01*
X177143668Y-62530001D01*
X176725092Y-62613261D01*
X176250424Y-62930424D01*
X176015001Y-63282759D01*
X175779578Y-62930424D01*
X175304910Y-62613261D01*
X174886334Y-62530001D01*
X174603668Y-62530001D01*
X174185092Y-62613261D01*
X173710424Y-62930424D01*
X173475001Y-63282759D01*
X173239578Y-62930424D01*
X172764910Y-62613261D01*
X172346334Y-62530001D01*
X172063668Y-62530001D01*
X171645092Y-62613261D01*
X171170424Y-62930424D01*
X170935001Y-63282759D01*
X170699578Y-62930424D01*
X170224910Y-62613261D01*
X169806334Y-62530001D01*
X169523668Y-62530001D01*
X169105092Y-62613261D01*
X168630424Y-62930424D01*
X168395001Y-63282759D01*
X168159578Y-62930424D01*
X167684910Y-62613261D01*
X167266334Y-62530001D01*
X166983668Y-62530001D01*
X166565092Y-62613261D01*
X166090424Y-62930424D01*
X165773261Y-63405092D01*
X165661888Y-63965001D01*
X163508114Y-63965001D01*
X163396741Y-63405092D01*
X163079578Y-62930424D01*
X162604910Y-62613261D01*
X162186334Y-62530001D01*
X161903668Y-62530001D01*
X161485092Y-62613261D01*
X161010424Y-62930424D01*
X160754054Y-63314109D01*
X160657390Y-63109867D01*
X160242424Y-62733960D01*
X159854040Y-62573097D01*
X159632001Y-62695086D01*
X159378001Y-62695086D01*
X159155962Y-62573097D01*
X158767578Y-62733960D01*
X158352612Y-63109867D01*
X158235001Y-63358368D01*
X158117390Y-63109867D01*
X157702424Y-62733960D01*
X157314040Y-62573097D01*
X157092001Y-62695086D01*
X156838001Y-62695086D01*
X156615962Y-62573097D01*
X156227578Y-62733960D01*
X155812612Y-63109867D01*
X155715948Y-63314109D01*
X155459578Y-62930424D01*
X154984910Y-62613261D01*
X154566334Y-62530001D01*
X154283668Y-62530001D01*
X153865092Y-62613261D01*
X153390424Y-62930424D01*
X153155001Y-63282759D01*
X152919578Y-62930424D01*
X152444910Y-62613261D01*
X152026334Y-62530001D01*
X151743668Y-62530001D01*
X151325092Y-62613261D01*
X150850424Y-62930424D01*
X150615001Y-63282759D01*
X150379578Y-62930424D01*
X149904910Y-62613261D01*
X149486334Y-62530001D01*
X149203668Y-62530001D01*
X148785092Y-62613261D01*
X148310424Y-62930424D01*
X148075001Y-63282759D01*
X147839578Y-62930424D01*
X147364910Y-62613261D01*
X146946334Y-62530001D01*
X146663668Y-62530001D01*
X146245092Y-62613261D01*
X145770424Y-62930424D01*
X145689786Y-63051107D01*
X145663158Y-62917236D01*
X145522810Y-62707192D01*
X145312766Y-62566844D01*
X145065001Y-62517561D01*
X143465001Y-62517561D01*
X143217236Y-62566844D01*
X143007192Y-62707192D01*
X142866844Y-62917236D01*
X142817561Y-63165001D01*
X132382777Y-63165001D01*
X132189742Y-62698975D01*
X131561027Y-62070260D01*
X131089631Y-61875001D01*
X181915001Y-61875001D01*
X181915002Y-63895072D01*
X181901092Y-63965001D01*
X181956197Y-64242029D01*
X182113121Y-64476882D01*
X182172403Y-64516493D01*
X184415001Y-66759093D01*
X184415001Y-68153803D01*
X184259742Y-67778975D01*
X183631027Y-67150260D01*
X182809570Y-66810001D01*
X181920432Y-66810001D01*
X181098975Y-67150260D01*
X180470260Y-67778975D01*
X180130001Y-68600432D01*
X180130001Y-69489570D01*
X180470260Y-70311027D01*
X181098975Y-70939742D01*
X181920432Y-71280001D01*
X182809570Y-71280001D01*
X183631027Y-70939742D01*
X184259742Y-70311027D01*
X184415001Y-69936199D01*
X184415002Y-96093805D01*
X184259742Y-95718975D01*
X183631027Y-95090260D01*
X182809570Y-94750001D01*
X181920432Y-94750001D01*
X181098975Y-95090260D01*
X180470260Y-95718975D01*
X180130001Y-96540432D01*
X180130001Y-97429570D01*
X180470260Y-98251027D01*
X181098975Y-98879742D01*
X181920432Y-99220001D01*
X182809570Y-99220001D01*
X183631027Y-98879742D01*
X184259742Y-98251027D01*
X184415002Y-97876197D01*
X184415002Y-98975018D01*
X182169450Y-101265482D01*
X182113120Y-101303121D01*
X182071539Y-101365352D01*
X182069057Y-101367883D01*
X182032725Y-101423440D01*
X181956196Y-101537974D01*
X181955484Y-101541555D01*
X181953487Y-101544608D01*
X181927969Y-101679879D01*
X181915001Y-101745076D01*
X181915001Y-101748626D01*
X181901128Y-101822168D01*
X181915001Y-101888475D01*
X181915002Y-112926749D01*
X180575035Y-114305001D01*
X132383773Y-114305001D01*
X132831027Y-114119742D01*
X133459742Y-113491027D01*
X133800001Y-112669570D01*
X133800001Y-112225001D01*
X138741888Y-112225001D01*
X138853261Y-112784910D01*
X139170424Y-113259578D01*
X139645092Y-113576741D01*
X140063668Y-113660001D01*
X140346334Y-113660001D01*
X140764910Y-113576741D01*
X141239578Y-113259578D01*
X141495948Y-112875893D01*
X141592612Y-113080135D01*
X142007578Y-113456042D01*
X142395962Y-113616905D01*
X142618001Y-113494916D01*
X142618001Y-112352001D01*
X142598001Y-112352001D01*
X142598001Y-112098001D01*
X142618001Y-112098001D01*
X142618001Y-110955086D01*
X142872001Y-110955086D01*
X142872001Y-112098001D01*
X142892001Y-112098001D01*
X142892001Y-112352001D01*
X142872001Y-112352001D01*
X142872001Y-113494916D01*
X143094040Y-113616905D01*
X143482424Y-113456042D01*
X143897390Y-113080135D01*
X143994054Y-112875893D01*
X144250424Y-113259578D01*
X144725092Y-113576741D01*
X145143668Y-113660001D01*
X145426334Y-113660001D01*
X145844910Y-113576741D01*
X146319578Y-113259578D01*
X146555001Y-112907243D01*
X146790424Y-113259578D01*
X147265092Y-113576741D01*
X147683668Y-113660001D01*
X147966334Y-113660001D01*
X148384910Y-113576741D01*
X148859578Y-113259578D01*
X149095001Y-112907243D01*
X149330424Y-113259578D01*
X149805092Y-113576741D01*
X150223668Y-113660001D01*
X150506334Y-113660001D01*
X150924910Y-113576741D01*
X151399578Y-113259578D01*
X151635001Y-112907243D01*
X151870424Y-113259578D01*
X152345092Y-113576741D01*
X152763668Y-113660001D01*
X153046334Y-113660001D01*
X153464910Y-113576741D01*
X153939578Y-113259578D01*
X154175001Y-112907243D01*
X154410424Y-113259578D01*
X154885092Y-113576741D01*
X155303668Y-113660001D01*
X155586334Y-113660001D01*
X156004910Y-113576741D01*
X156479578Y-113259578D01*
X156715001Y-112907243D01*
X156950424Y-113259578D01*
X157425092Y-113576741D01*
X157843668Y-113660001D01*
X158126334Y-113660001D01*
X158544910Y-113576741D01*
X159019578Y-113259578D01*
X159336741Y-112784910D01*
X159448114Y-112225001D01*
X160581888Y-112225001D01*
X160693261Y-112784910D01*
X161010424Y-113259578D01*
X161485092Y-113576741D01*
X161903668Y-113660001D01*
X162186334Y-113660001D01*
X162604910Y-113576741D01*
X163079578Y-113259578D01*
X163315001Y-112907243D01*
X163550424Y-113259578D01*
X164025092Y-113576741D01*
X164443668Y-113660001D01*
X164726334Y-113660001D01*
X165144910Y-113576741D01*
X165619578Y-113259578D01*
X165855001Y-112907243D01*
X166090424Y-113259578D01*
X166565092Y-113576741D01*
X166983668Y-113660001D01*
X167266334Y-113660001D01*
X167684910Y-113576741D01*
X168159578Y-113259578D01*
X168395001Y-112907243D01*
X168630424Y-113259578D01*
X169105092Y-113576741D01*
X169523668Y-113660001D01*
X169806334Y-113660001D01*
X170224910Y-113576741D01*
X170699578Y-113259578D01*
X170935001Y-112907243D01*
X171170424Y-113259578D01*
X171645092Y-113576741D01*
X172063668Y-113660001D01*
X172346334Y-113660001D01*
X172764910Y-113576741D01*
X173239578Y-113259578D01*
X173475001Y-112907243D01*
X173710424Y-113259578D01*
X174185092Y-113576741D01*
X174603668Y-113660001D01*
X174886334Y-113660001D01*
X175304910Y-113576741D01*
X175779578Y-113259578D01*
X176015001Y-112907243D01*
X176250424Y-113259578D01*
X176725092Y-113576741D01*
X177143668Y-113660001D01*
X177426334Y-113660001D01*
X177844910Y-113576741D01*
X178319578Y-113259578D01*
X178555001Y-112907243D01*
X178790424Y-113259578D01*
X179265092Y-113576741D01*
X179683668Y-113660001D01*
X179966334Y-113660001D01*
X180384910Y-113576741D01*
X180859578Y-113259578D01*
X181176741Y-112784910D01*
X181288114Y-112225001D01*
X181176741Y-111665092D01*
X180859578Y-111190424D01*
X180384910Y-110873261D01*
X179966334Y-110790001D01*
X179683668Y-110790001D01*
X179265092Y-110873261D01*
X178790424Y-111190424D01*
X178555001Y-111542759D01*
X178319578Y-111190424D01*
X177844910Y-110873261D01*
X177426334Y-110790001D01*
X177143668Y-110790001D01*
X176725092Y-110873261D01*
X176250424Y-111190424D01*
X176015001Y-111542759D01*
X175779578Y-111190424D01*
X175304910Y-110873261D01*
X174886334Y-110790001D01*
X174603668Y-110790001D01*
X174185092Y-110873261D01*
X173710424Y-111190424D01*
X173475001Y-111542759D01*
X173239578Y-111190424D01*
X172764910Y-110873261D01*
X172346334Y-110790001D01*
X172063668Y-110790001D01*
X171645092Y-110873261D01*
X171170424Y-111190424D01*
X170935001Y-111542759D01*
X170699578Y-111190424D01*
X170224910Y-110873261D01*
X169806334Y-110790001D01*
X169523668Y-110790001D01*
X169105092Y-110873261D01*
X168630424Y-111190424D01*
X168395001Y-111542759D01*
X168159578Y-111190424D01*
X167684910Y-110873261D01*
X167266334Y-110790001D01*
X166983668Y-110790001D01*
X166565092Y-110873261D01*
X166090424Y-111190424D01*
X165855001Y-111542759D01*
X165619578Y-111190424D01*
X165144910Y-110873261D01*
X164726334Y-110790001D01*
X164443668Y-110790001D01*
X164025092Y-110873261D01*
X163550424Y-111190424D01*
X163315001Y-111542759D01*
X163079578Y-111190424D01*
X162604910Y-110873261D01*
X162186334Y-110790001D01*
X161903668Y-110790001D01*
X161485092Y-110873261D01*
X161010424Y-111190424D01*
X160693261Y-111665092D01*
X160581888Y-112225001D01*
X159448114Y-112225001D01*
X159336741Y-111665092D01*
X159019578Y-111190424D01*
X158544910Y-110873261D01*
X158126334Y-110790001D01*
X157843668Y-110790001D01*
X157425092Y-110873261D01*
X156950424Y-111190424D01*
X156715001Y-111542759D01*
X156479578Y-111190424D01*
X156004910Y-110873261D01*
X155586334Y-110790001D01*
X155303668Y-110790001D01*
X154885092Y-110873261D01*
X154410424Y-111190424D01*
X154175001Y-111542759D01*
X153939578Y-111190424D01*
X153464910Y-110873261D01*
X153046334Y-110790001D01*
X152763668Y-110790001D01*
X152345092Y-110873261D01*
X151870424Y-111190424D01*
X151635001Y-111542759D01*
X151399578Y-111190424D01*
X150924910Y-110873261D01*
X150506334Y-110790001D01*
X150223668Y-110790001D01*
X149805092Y-110873261D01*
X149330424Y-111190424D01*
X149095001Y-111542759D01*
X148859578Y-111190424D01*
X148384910Y-110873261D01*
X147966334Y-110790001D01*
X147683668Y-110790001D01*
X147265092Y-110873261D01*
X146790424Y-111190424D01*
X146555001Y-111542759D01*
X146319578Y-111190424D01*
X145844910Y-110873261D01*
X145426334Y-110790001D01*
X145143668Y-110790001D01*
X144725092Y-110873261D01*
X144250424Y-111190424D01*
X143994054Y-111574109D01*
X143897390Y-111369867D01*
X143482424Y-110993960D01*
X143094040Y-110833097D01*
X142872001Y-110955086D01*
X142618001Y-110955086D01*
X142395962Y-110833097D01*
X142007578Y-110993960D01*
X141592612Y-111369867D01*
X141495948Y-111574109D01*
X141239578Y-111190424D01*
X140764910Y-110873261D01*
X140346334Y-110790001D01*
X140063668Y-110790001D01*
X139645092Y-110873261D01*
X139170424Y-111190424D01*
X138853261Y-111665092D01*
X138741888Y-112225001D01*
X133800001Y-112225001D01*
X133800001Y-111780432D01*
X133459742Y-110958975D01*
X132831027Y-110330260D01*
X132009570Y-109990001D01*
X131120432Y-109990001D01*
X130298975Y-110330260D01*
X129670260Y-110958975D01*
X129330001Y-111780432D01*
X129330001Y-112669570D01*
X129670260Y-113491027D01*
X130298975Y-114119742D01*
X130746229Y-114305001D01*
X116785001Y-114305001D01*
X116785001Y-89565750D01*
X120215000Y-89565750D01*
X120215000Y-90256310D01*
X120311673Y-90489699D01*
X120490302Y-90668327D01*
X120723691Y-90765000D01*
X121414250Y-90765000D01*
X121573000Y-90606250D01*
X121573000Y-89407000D01*
X121827000Y-89407000D01*
X121827000Y-90606250D01*
X121985750Y-90765000D01*
X122676309Y-90765000D01*
X122909698Y-90668327D01*
X123088327Y-90489699D01*
X123185000Y-90256310D01*
X123185000Y-89565750D01*
X123096140Y-89476890D01*
X180058524Y-89476890D01*
X180228355Y-89886924D01*
X180618642Y-90315183D01*
X181143108Y-90561486D01*
X181373000Y-90440819D01*
X181373000Y-89247000D01*
X181627000Y-89247000D01*
X181627000Y-90440819D01*
X181856892Y-90561486D01*
X182381358Y-90315183D01*
X182771645Y-89886924D01*
X182941476Y-89476890D01*
X182820155Y-89247000D01*
X181627000Y-89247000D01*
X181373000Y-89247000D01*
X180179845Y-89247000D01*
X180058524Y-89476890D01*
X123096140Y-89476890D01*
X123026250Y-89407000D01*
X121827000Y-89407000D01*
X121573000Y-89407000D01*
X120373750Y-89407000D01*
X120215000Y-89565750D01*
X116785001Y-89565750D01*
X116785001Y-81660000D01*
X120185908Y-81660000D01*
X120301161Y-82239418D01*
X120629375Y-82730625D01*
X120927761Y-82930000D01*
X120629375Y-83129375D01*
X120301161Y-83620582D01*
X120185908Y-84200000D01*
X120301161Y-84779418D01*
X120629375Y-85270625D01*
X120927761Y-85470000D01*
X120629375Y-85669375D01*
X120301161Y-86160582D01*
X120185908Y-86740000D01*
X120301161Y-87319418D01*
X120629375Y-87810625D01*
X120651033Y-87825096D01*
X120490302Y-87891673D01*
X120311673Y-88070301D01*
X120215000Y-88303690D01*
X120215000Y-88994250D01*
X120373750Y-89153000D01*
X121573000Y-89153000D01*
X121573000Y-89133000D01*
X121827000Y-89133000D01*
X121827000Y-89153000D01*
X123026250Y-89153000D01*
X123185000Y-88994250D01*
X123185000Y-88303690D01*
X123088327Y-88070301D01*
X122909698Y-87891673D01*
X122748967Y-87825096D01*
X122770625Y-87810625D01*
X123098839Y-87319418D01*
X123174928Y-86936890D01*
X180058524Y-86936890D01*
X180228355Y-87346924D01*
X180618642Y-87775183D01*
X180777954Y-87850000D01*
X180618642Y-87924817D01*
X180228355Y-88353076D01*
X180058524Y-88763110D01*
X180179845Y-88993000D01*
X181373000Y-88993000D01*
X181373000Y-86707000D01*
X181627000Y-86707000D01*
X181627000Y-88993000D01*
X182820155Y-88993000D01*
X182941476Y-88763110D01*
X182771645Y-88353076D01*
X182381358Y-87924817D01*
X182222046Y-87850000D01*
X182381358Y-87775183D01*
X182771645Y-87346924D01*
X182941476Y-86936890D01*
X182820155Y-86707000D01*
X181627000Y-86707000D01*
X181373000Y-86707000D01*
X180179845Y-86707000D01*
X180058524Y-86936890D01*
X123174928Y-86936890D01*
X123214092Y-86740000D01*
X123098839Y-86160582D01*
X122770625Y-85669375D01*
X122472239Y-85470000D01*
X122770625Y-85270625D01*
X123098839Y-84779418D01*
X123214092Y-84200000D01*
X123098839Y-83620582D01*
X122770625Y-83129375D01*
X122472239Y-82930000D01*
X122770625Y-82730625D01*
X123098839Y-82239418D01*
X123214092Y-81660000D01*
X123098839Y-81080582D01*
X122770625Y-80589375D01*
X122279418Y-80261161D01*
X121846256Y-80175000D01*
X121553744Y-80175000D01*
X121120582Y-80261161D01*
X120629375Y-80589375D01*
X120301161Y-81080582D01*
X120185908Y-81660000D01*
X116785001Y-81660000D01*
X116785001Y-61875001D01*
X129500371Y-61875001D01*
X129028975Y-62070260D01*
G04 #@! TD*
M02*
