G04 #@! TF.GenerationSoftware,KiCad,Pcbnew,(5.0.0)*
G04 #@! TF.CreationDate,2019-08-13T22:33:18+09:00*
G04 #@! TF.ProjectId,gauss_meter_hw,67617573735F6D657465725F68772E6B,rev?*
G04 #@! TF.SameCoordinates,Original*
G04 #@! TF.FileFunction,Soldermask,Bot*
G04 #@! TF.FilePolarity,Negative*
%FSLAX46Y46*%
G04 Gerber Fmt 4.6, Leading zero omitted, Abs format (unit mm)*
G04 Created by KiCad (PCBNEW (5.0.0)) date 08/13/19 22:33:18*
%MOMM*%
%LPD*%
G01*
G04 APERTURE LIST*
%ADD10O,2.000000X2.000000*%
%ADD11R,2.000000X2.000000*%
%ADD12C,3.600000*%
%ADD13R,2.100000X2.100000*%
%ADD14O,2.100000X2.100000*%
G04 APERTURE END LIST*
D10*
G04 #@! TO.C,A1*
X142745001Y-112225001D03*
X140205001Y-112225001D03*
D11*
X144265001Y-63965001D03*
D10*
X174745001Y-112225001D03*
X146805001Y-63965001D03*
X172205001Y-112225001D03*
X149345001Y-63965001D03*
X169665001Y-112225001D03*
X151885001Y-63965001D03*
X167125001Y-112225001D03*
X154425001Y-63965001D03*
X164585001Y-112225001D03*
X156965001Y-63965001D03*
X162045001Y-112225001D03*
X159505001Y-63965001D03*
X157985001Y-112225001D03*
X162045001Y-63965001D03*
X155445001Y-112225001D03*
X167125001Y-63965001D03*
X152905001Y-112225001D03*
X169665001Y-63965001D03*
X150365001Y-112225001D03*
X172205001Y-63965001D03*
X147825001Y-112225001D03*
X174745001Y-63965001D03*
X145285001Y-112225001D03*
X177285001Y-63965001D03*
X179825001Y-63965001D03*
X179825001Y-112225001D03*
X177285001Y-112225001D03*
D12*
X130295001Y-63965001D03*
X131565001Y-112225001D03*
X182365001Y-96985001D03*
X182365001Y-69045001D03*
G04 #@! TD*
D13*
G04 #@! TO.C,J1*
X181500000Y-81500000D03*
D14*
X181500000Y-84040000D03*
X181500000Y-86580000D03*
X181500000Y-89120000D03*
G04 #@! TD*
D13*
G04 #@! TO.C,J2*
X121700000Y-89280000D03*
D14*
X121700000Y-86740000D03*
X121700000Y-84200000D03*
X121700000Y-81660000D03*
G04 #@! TD*
M02*
