G04 #@! TF.GenerationSoftware,KiCad,Pcbnew,(5.0.0)*
G04 #@! TF.CreationDate,2019-09-08T12:51:47+09:00*
G04 #@! TF.ProjectId,gauss_meter_hw,67617573735F6D657465725F68772E6B,rev?*
G04 #@! TF.SameCoordinates,Original*
G04 #@! TF.FileFunction,Paste,Top*
G04 #@! TF.FilePolarity,Positive*
%FSLAX46Y46*%
G04 Gerber Fmt 4.6, Leading zero omitted, Abs format (unit mm)*
G04 Created by KiCad (PCBNEW (5.0.0)) date 09/08/19 12:51:47*
%MOMM*%
%LPD*%
G01*
G04 APERTURE LIST*
%ADD10C,0.100000*%
%ADD11C,1.150000*%
%ADD12R,1.900000X1.300000*%
%ADD13R,1.900000X2.000000*%
%ADD14R,0.450000X1.450000*%
G04 APERTURE END LIST*
D10*
G04 #@! TO.C,C1*
G36*
X176024505Y-87151204D02*
X176048773Y-87154804D01*
X176072572Y-87160765D01*
X176095671Y-87169030D01*
X176117850Y-87179520D01*
X176138893Y-87192132D01*
X176158599Y-87206747D01*
X176176777Y-87223223D01*
X176193253Y-87241401D01*
X176207868Y-87261107D01*
X176220480Y-87282150D01*
X176230970Y-87304329D01*
X176239235Y-87327428D01*
X176245196Y-87351227D01*
X176248796Y-87375495D01*
X176250000Y-87399999D01*
X176250000Y-88300001D01*
X176248796Y-88324505D01*
X176245196Y-88348773D01*
X176239235Y-88372572D01*
X176230970Y-88395671D01*
X176220480Y-88417850D01*
X176207868Y-88438893D01*
X176193253Y-88458599D01*
X176176777Y-88476777D01*
X176158599Y-88493253D01*
X176138893Y-88507868D01*
X176117850Y-88520480D01*
X176095671Y-88530970D01*
X176072572Y-88539235D01*
X176048773Y-88545196D01*
X176024505Y-88548796D01*
X176000001Y-88550000D01*
X175349999Y-88550000D01*
X175325495Y-88548796D01*
X175301227Y-88545196D01*
X175277428Y-88539235D01*
X175254329Y-88530970D01*
X175232150Y-88520480D01*
X175211107Y-88507868D01*
X175191401Y-88493253D01*
X175173223Y-88476777D01*
X175156747Y-88458599D01*
X175142132Y-88438893D01*
X175129520Y-88417850D01*
X175119030Y-88395671D01*
X175110765Y-88372572D01*
X175104804Y-88348773D01*
X175101204Y-88324505D01*
X175100000Y-88300001D01*
X175100000Y-87399999D01*
X175101204Y-87375495D01*
X175104804Y-87351227D01*
X175110765Y-87327428D01*
X175119030Y-87304329D01*
X175129520Y-87282150D01*
X175142132Y-87261107D01*
X175156747Y-87241401D01*
X175173223Y-87223223D01*
X175191401Y-87206747D01*
X175211107Y-87192132D01*
X175232150Y-87179520D01*
X175254329Y-87169030D01*
X175277428Y-87160765D01*
X175301227Y-87154804D01*
X175325495Y-87151204D01*
X175349999Y-87150000D01*
X176000001Y-87150000D01*
X176024505Y-87151204D01*
X176024505Y-87151204D01*
G37*
D11*
X175675000Y-87850000D03*
D10*
G36*
X178074505Y-87151204D02*
X178098773Y-87154804D01*
X178122572Y-87160765D01*
X178145671Y-87169030D01*
X178167850Y-87179520D01*
X178188893Y-87192132D01*
X178208599Y-87206747D01*
X178226777Y-87223223D01*
X178243253Y-87241401D01*
X178257868Y-87261107D01*
X178270480Y-87282150D01*
X178280970Y-87304329D01*
X178289235Y-87327428D01*
X178295196Y-87351227D01*
X178298796Y-87375495D01*
X178300000Y-87399999D01*
X178300000Y-88300001D01*
X178298796Y-88324505D01*
X178295196Y-88348773D01*
X178289235Y-88372572D01*
X178280970Y-88395671D01*
X178270480Y-88417850D01*
X178257868Y-88438893D01*
X178243253Y-88458599D01*
X178226777Y-88476777D01*
X178208599Y-88493253D01*
X178188893Y-88507868D01*
X178167850Y-88520480D01*
X178145671Y-88530970D01*
X178122572Y-88539235D01*
X178098773Y-88545196D01*
X178074505Y-88548796D01*
X178050001Y-88550000D01*
X177399999Y-88550000D01*
X177375495Y-88548796D01*
X177351227Y-88545196D01*
X177327428Y-88539235D01*
X177304329Y-88530970D01*
X177282150Y-88520480D01*
X177261107Y-88507868D01*
X177241401Y-88493253D01*
X177223223Y-88476777D01*
X177206747Y-88458599D01*
X177192132Y-88438893D01*
X177179520Y-88417850D01*
X177169030Y-88395671D01*
X177160765Y-88372572D01*
X177154804Y-88348773D01*
X177151204Y-88324505D01*
X177150000Y-88300001D01*
X177150000Y-87399999D01*
X177151204Y-87375495D01*
X177154804Y-87351227D01*
X177160765Y-87327428D01*
X177169030Y-87304329D01*
X177179520Y-87282150D01*
X177192132Y-87261107D01*
X177206747Y-87241401D01*
X177223223Y-87223223D01*
X177241401Y-87206747D01*
X177261107Y-87192132D01*
X177282150Y-87179520D01*
X177304329Y-87169030D01*
X177327428Y-87160765D01*
X177351227Y-87154804D01*
X177375495Y-87151204D01*
X177399999Y-87150000D01*
X178050001Y-87150000D01*
X178074505Y-87151204D01*
X178074505Y-87151204D01*
G37*
D11*
X177725000Y-87850000D03*
G04 #@! TD*
D10*
G04 #@! TO.C,C2*
G36*
X178074505Y-91751204D02*
X178098773Y-91754804D01*
X178122572Y-91760765D01*
X178145671Y-91769030D01*
X178167850Y-91779520D01*
X178188893Y-91792132D01*
X178208599Y-91806747D01*
X178226777Y-91823223D01*
X178243253Y-91841401D01*
X178257868Y-91861107D01*
X178270480Y-91882150D01*
X178280970Y-91904329D01*
X178289235Y-91927428D01*
X178295196Y-91951227D01*
X178298796Y-91975495D01*
X178300000Y-91999999D01*
X178300000Y-92900001D01*
X178298796Y-92924505D01*
X178295196Y-92948773D01*
X178289235Y-92972572D01*
X178280970Y-92995671D01*
X178270480Y-93017850D01*
X178257868Y-93038893D01*
X178243253Y-93058599D01*
X178226777Y-93076777D01*
X178208599Y-93093253D01*
X178188893Y-93107868D01*
X178167850Y-93120480D01*
X178145671Y-93130970D01*
X178122572Y-93139235D01*
X178098773Y-93145196D01*
X178074505Y-93148796D01*
X178050001Y-93150000D01*
X177399999Y-93150000D01*
X177375495Y-93148796D01*
X177351227Y-93145196D01*
X177327428Y-93139235D01*
X177304329Y-93130970D01*
X177282150Y-93120480D01*
X177261107Y-93107868D01*
X177241401Y-93093253D01*
X177223223Y-93076777D01*
X177206747Y-93058599D01*
X177192132Y-93038893D01*
X177179520Y-93017850D01*
X177169030Y-92995671D01*
X177160765Y-92972572D01*
X177154804Y-92948773D01*
X177151204Y-92924505D01*
X177150000Y-92900001D01*
X177150000Y-91999999D01*
X177151204Y-91975495D01*
X177154804Y-91951227D01*
X177160765Y-91927428D01*
X177169030Y-91904329D01*
X177179520Y-91882150D01*
X177192132Y-91861107D01*
X177206747Y-91841401D01*
X177223223Y-91823223D01*
X177241401Y-91806747D01*
X177261107Y-91792132D01*
X177282150Y-91779520D01*
X177304329Y-91769030D01*
X177327428Y-91760765D01*
X177351227Y-91754804D01*
X177375495Y-91751204D01*
X177399999Y-91750000D01*
X178050001Y-91750000D01*
X178074505Y-91751204D01*
X178074505Y-91751204D01*
G37*
D11*
X177725000Y-92450000D03*
D10*
G36*
X176024505Y-91751204D02*
X176048773Y-91754804D01*
X176072572Y-91760765D01*
X176095671Y-91769030D01*
X176117850Y-91779520D01*
X176138893Y-91792132D01*
X176158599Y-91806747D01*
X176176777Y-91823223D01*
X176193253Y-91841401D01*
X176207868Y-91861107D01*
X176220480Y-91882150D01*
X176230970Y-91904329D01*
X176239235Y-91927428D01*
X176245196Y-91951227D01*
X176248796Y-91975495D01*
X176250000Y-91999999D01*
X176250000Y-92900001D01*
X176248796Y-92924505D01*
X176245196Y-92948773D01*
X176239235Y-92972572D01*
X176230970Y-92995671D01*
X176220480Y-93017850D01*
X176207868Y-93038893D01*
X176193253Y-93058599D01*
X176176777Y-93076777D01*
X176158599Y-93093253D01*
X176138893Y-93107868D01*
X176117850Y-93120480D01*
X176095671Y-93130970D01*
X176072572Y-93139235D01*
X176048773Y-93145196D01*
X176024505Y-93148796D01*
X176000001Y-93150000D01*
X175349999Y-93150000D01*
X175325495Y-93148796D01*
X175301227Y-93145196D01*
X175277428Y-93139235D01*
X175254329Y-93130970D01*
X175232150Y-93120480D01*
X175211107Y-93107868D01*
X175191401Y-93093253D01*
X175173223Y-93076777D01*
X175156747Y-93058599D01*
X175142132Y-93038893D01*
X175129520Y-93017850D01*
X175119030Y-92995671D01*
X175110765Y-92972572D01*
X175104804Y-92948773D01*
X175101204Y-92924505D01*
X175100000Y-92900001D01*
X175100000Y-91999999D01*
X175101204Y-91975495D01*
X175104804Y-91951227D01*
X175110765Y-91927428D01*
X175119030Y-91904329D01*
X175129520Y-91882150D01*
X175142132Y-91861107D01*
X175156747Y-91841401D01*
X175173223Y-91823223D01*
X175191401Y-91806747D01*
X175211107Y-91792132D01*
X175232150Y-91779520D01*
X175254329Y-91769030D01*
X175277428Y-91760765D01*
X175301227Y-91754804D01*
X175325495Y-91751204D01*
X175349999Y-91750000D01*
X176000001Y-91750000D01*
X176024505Y-91751204D01*
X176024505Y-91751204D01*
G37*
D11*
X175675000Y-92450000D03*
G04 #@! TD*
D10*
G04 #@! TO.C,C3*
G36*
X171974505Y-81251204D02*
X171998773Y-81254804D01*
X172022572Y-81260765D01*
X172045671Y-81269030D01*
X172067850Y-81279520D01*
X172088893Y-81292132D01*
X172108599Y-81306747D01*
X172126777Y-81323223D01*
X172143253Y-81341401D01*
X172157868Y-81361107D01*
X172170480Y-81382150D01*
X172180970Y-81404329D01*
X172189235Y-81427428D01*
X172195196Y-81451227D01*
X172198796Y-81475495D01*
X172200000Y-81499999D01*
X172200000Y-82150001D01*
X172198796Y-82174505D01*
X172195196Y-82198773D01*
X172189235Y-82222572D01*
X172180970Y-82245671D01*
X172170480Y-82267850D01*
X172157868Y-82288893D01*
X172143253Y-82308599D01*
X172126777Y-82326777D01*
X172108599Y-82343253D01*
X172088893Y-82357868D01*
X172067850Y-82370480D01*
X172045671Y-82380970D01*
X172022572Y-82389235D01*
X171998773Y-82395196D01*
X171974505Y-82398796D01*
X171950001Y-82400000D01*
X171049999Y-82400000D01*
X171025495Y-82398796D01*
X171001227Y-82395196D01*
X170977428Y-82389235D01*
X170954329Y-82380970D01*
X170932150Y-82370480D01*
X170911107Y-82357868D01*
X170891401Y-82343253D01*
X170873223Y-82326777D01*
X170856747Y-82308599D01*
X170842132Y-82288893D01*
X170829520Y-82267850D01*
X170819030Y-82245671D01*
X170810765Y-82222572D01*
X170804804Y-82198773D01*
X170801204Y-82174505D01*
X170800000Y-82150001D01*
X170800000Y-81499999D01*
X170801204Y-81475495D01*
X170804804Y-81451227D01*
X170810765Y-81427428D01*
X170819030Y-81404329D01*
X170829520Y-81382150D01*
X170842132Y-81361107D01*
X170856747Y-81341401D01*
X170873223Y-81323223D01*
X170891401Y-81306747D01*
X170911107Y-81292132D01*
X170932150Y-81279520D01*
X170954329Y-81269030D01*
X170977428Y-81260765D01*
X171001227Y-81254804D01*
X171025495Y-81251204D01*
X171049999Y-81250000D01*
X171950001Y-81250000D01*
X171974505Y-81251204D01*
X171974505Y-81251204D01*
G37*
D11*
X171500000Y-81825000D03*
D10*
G36*
X171974505Y-83301204D02*
X171998773Y-83304804D01*
X172022572Y-83310765D01*
X172045671Y-83319030D01*
X172067850Y-83329520D01*
X172088893Y-83342132D01*
X172108599Y-83356747D01*
X172126777Y-83373223D01*
X172143253Y-83391401D01*
X172157868Y-83411107D01*
X172170480Y-83432150D01*
X172180970Y-83454329D01*
X172189235Y-83477428D01*
X172195196Y-83501227D01*
X172198796Y-83525495D01*
X172200000Y-83549999D01*
X172200000Y-84200001D01*
X172198796Y-84224505D01*
X172195196Y-84248773D01*
X172189235Y-84272572D01*
X172180970Y-84295671D01*
X172170480Y-84317850D01*
X172157868Y-84338893D01*
X172143253Y-84358599D01*
X172126777Y-84376777D01*
X172108599Y-84393253D01*
X172088893Y-84407868D01*
X172067850Y-84420480D01*
X172045671Y-84430970D01*
X172022572Y-84439235D01*
X171998773Y-84445196D01*
X171974505Y-84448796D01*
X171950001Y-84450000D01*
X171049999Y-84450000D01*
X171025495Y-84448796D01*
X171001227Y-84445196D01*
X170977428Y-84439235D01*
X170954329Y-84430970D01*
X170932150Y-84420480D01*
X170911107Y-84407868D01*
X170891401Y-84393253D01*
X170873223Y-84376777D01*
X170856747Y-84358599D01*
X170842132Y-84338893D01*
X170829520Y-84317850D01*
X170819030Y-84295671D01*
X170810765Y-84272572D01*
X170804804Y-84248773D01*
X170801204Y-84224505D01*
X170800000Y-84200001D01*
X170800000Y-83549999D01*
X170801204Y-83525495D01*
X170804804Y-83501227D01*
X170810765Y-83477428D01*
X170819030Y-83454329D01*
X170829520Y-83432150D01*
X170842132Y-83411107D01*
X170856747Y-83391401D01*
X170873223Y-83373223D01*
X170891401Y-83356747D01*
X170911107Y-83342132D01*
X170932150Y-83329520D01*
X170954329Y-83319030D01*
X170977428Y-83310765D01*
X171001227Y-83304804D01*
X171025495Y-83301204D01*
X171049999Y-83300000D01*
X171950001Y-83300000D01*
X171974505Y-83301204D01*
X171974505Y-83301204D01*
G37*
D11*
X171500000Y-83875000D03*
G04 #@! TD*
D10*
G04 #@! TO.C,C4*
G36*
X164174505Y-84151204D02*
X164198773Y-84154804D01*
X164222572Y-84160765D01*
X164245671Y-84169030D01*
X164267850Y-84179520D01*
X164288893Y-84192132D01*
X164308599Y-84206747D01*
X164326777Y-84223223D01*
X164343253Y-84241401D01*
X164357868Y-84261107D01*
X164370480Y-84282150D01*
X164380970Y-84304329D01*
X164389235Y-84327428D01*
X164395196Y-84351227D01*
X164398796Y-84375495D01*
X164400000Y-84399999D01*
X164400000Y-85300001D01*
X164398796Y-85324505D01*
X164395196Y-85348773D01*
X164389235Y-85372572D01*
X164380970Y-85395671D01*
X164370480Y-85417850D01*
X164357868Y-85438893D01*
X164343253Y-85458599D01*
X164326777Y-85476777D01*
X164308599Y-85493253D01*
X164288893Y-85507868D01*
X164267850Y-85520480D01*
X164245671Y-85530970D01*
X164222572Y-85539235D01*
X164198773Y-85545196D01*
X164174505Y-85548796D01*
X164150001Y-85550000D01*
X163499999Y-85550000D01*
X163475495Y-85548796D01*
X163451227Y-85545196D01*
X163427428Y-85539235D01*
X163404329Y-85530970D01*
X163382150Y-85520480D01*
X163361107Y-85507868D01*
X163341401Y-85493253D01*
X163323223Y-85476777D01*
X163306747Y-85458599D01*
X163292132Y-85438893D01*
X163279520Y-85417850D01*
X163269030Y-85395671D01*
X163260765Y-85372572D01*
X163254804Y-85348773D01*
X163251204Y-85324505D01*
X163250000Y-85300001D01*
X163250000Y-84399999D01*
X163251204Y-84375495D01*
X163254804Y-84351227D01*
X163260765Y-84327428D01*
X163269030Y-84304329D01*
X163279520Y-84282150D01*
X163292132Y-84261107D01*
X163306747Y-84241401D01*
X163323223Y-84223223D01*
X163341401Y-84206747D01*
X163361107Y-84192132D01*
X163382150Y-84179520D01*
X163404329Y-84169030D01*
X163427428Y-84160765D01*
X163451227Y-84154804D01*
X163475495Y-84151204D01*
X163499999Y-84150000D01*
X164150001Y-84150000D01*
X164174505Y-84151204D01*
X164174505Y-84151204D01*
G37*
D11*
X163825000Y-84850000D03*
D10*
G36*
X166224505Y-84151204D02*
X166248773Y-84154804D01*
X166272572Y-84160765D01*
X166295671Y-84169030D01*
X166317850Y-84179520D01*
X166338893Y-84192132D01*
X166358599Y-84206747D01*
X166376777Y-84223223D01*
X166393253Y-84241401D01*
X166407868Y-84261107D01*
X166420480Y-84282150D01*
X166430970Y-84304329D01*
X166439235Y-84327428D01*
X166445196Y-84351227D01*
X166448796Y-84375495D01*
X166450000Y-84399999D01*
X166450000Y-85300001D01*
X166448796Y-85324505D01*
X166445196Y-85348773D01*
X166439235Y-85372572D01*
X166430970Y-85395671D01*
X166420480Y-85417850D01*
X166407868Y-85438893D01*
X166393253Y-85458599D01*
X166376777Y-85476777D01*
X166358599Y-85493253D01*
X166338893Y-85507868D01*
X166317850Y-85520480D01*
X166295671Y-85530970D01*
X166272572Y-85539235D01*
X166248773Y-85545196D01*
X166224505Y-85548796D01*
X166200001Y-85550000D01*
X165549999Y-85550000D01*
X165525495Y-85548796D01*
X165501227Y-85545196D01*
X165477428Y-85539235D01*
X165454329Y-85530970D01*
X165432150Y-85520480D01*
X165411107Y-85507868D01*
X165391401Y-85493253D01*
X165373223Y-85476777D01*
X165356747Y-85458599D01*
X165342132Y-85438893D01*
X165329520Y-85417850D01*
X165319030Y-85395671D01*
X165310765Y-85372572D01*
X165304804Y-85348773D01*
X165301204Y-85324505D01*
X165300000Y-85300001D01*
X165300000Y-84399999D01*
X165301204Y-84375495D01*
X165304804Y-84351227D01*
X165310765Y-84327428D01*
X165319030Y-84304329D01*
X165329520Y-84282150D01*
X165342132Y-84261107D01*
X165356747Y-84241401D01*
X165373223Y-84223223D01*
X165391401Y-84206747D01*
X165411107Y-84192132D01*
X165432150Y-84179520D01*
X165454329Y-84169030D01*
X165477428Y-84160765D01*
X165501227Y-84154804D01*
X165525495Y-84151204D01*
X165549999Y-84150000D01*
X166200001Y-84150000D01*
X166224505Y-84151204D01*
X166224505Y-84151204D01*
G37*
D11*
X165875000Y-84850000D03*
G04 #@! TD*
D10*
G04 #@! TO.C,C5*
G36*
X166224505Y-86401204D02*
X166248773Y-86404804D01*
X166272572Y-86410765D01*
X166295671Y-86419030D01*
X166317850Y-86429520D01*
X166338893Y-86442132D01*
X166358599Y-86456747D01*
X166376777Y-86473223D01*
X166393253Y-86491401D01*
X166407868Y-86511107D01*
X166420480Y-86532150D01*
X166430970Y-86554329D01*
X166439235Y-86577428D01*
X166445196Y-86601227D01*
X166448796Y-86625495D01*
X166450000Y-86649999D01*
X166450000Y-87550001D01*
X166448796Y-87574505D01*
X166445196Y-87598773D01*
X166439235Y-87622572D01*
X166430970Y-87645671D01*
X166420480Y-87667850D01*
X166407868Y-87688893D01*
X166393253Y-87708599D01*
X166376777Y-87726777D01*
X166358599Y-87743253D01*
X166338893Y-87757868D01*
X166317850Y-87770480D01*
X166295671Y-87780970D01*
X166272572Y-87789235D01*
X166248773Y-87795196D01*
X166224505Y-87798796D01*
X166200001Y-87800000D01*
X165549999Y-87800000D01*
X165525495Y-87798796D01*
X165501227Y-87795196D01*
X165477428Y-87789235D01*
X165454329Y-87780970D01*
X165432150Y-87770480D01*
X165411107Y-87757868D01*
X165391401Y-87743253D01*
X165373223Y-87726777D01*
X165356747Y-87708599D01*
X165342132Y-87688893D01*
X165329520Y-87667850D01*
X165319030Y-87645671D01*
X165310765Y-87622572D01*
X165304804Y-87598773D01*
X165301204Y-87574505D01*
X165300000Y-87550001D01*
X165300000Y-86649999D01*
X165301204Y-86625495D01*
X165304804Y-86601227D01*
X165310765Y-86577428D01*
X165319030Y-86554329D01*
X165329520Y-86532150D01*
X165342132Y-86511107D01*
X165356747Y-86491401D01*
X165373223Y-86473223D01*
X165391401Y-86456747D01*
X165411107Y-86442132D01*
X165432150Y-86429520D01*
X165454329Y-86419030D01*
X165477428Y-86410765D01*
X165501227Y-86404804D01*
X165525495Y-86401204D01*
X165549999Y-86400000D01*
X166200001Y-86400000D01*
X166224505Y-86401204D01*
X166224505Y-86401204D01*
G37*
D11*
X165875000Y-87100000D03*
D10*
G36*
X164174505Y-86401204D02*
X164198773Y-86404804D01*
X164222572Y-86410765D01*
X164245671Y-86419030D01*
X164267850Y-86429520D01*
X164288893Y-86442132D01*
X164308599Y-86456747D01*
X164326777Y-86473223D01*
X164343253Y-86491401D01*
X164357868Y-86511107D01*
X164370480Y-86532150D01*
X164380970Y-86554329D01*
X164389235Y-86577428D01*
X164395196Y-86601227D01*
X164398796Y-86625495D01*
X164400000Y-86649999D01*
X164400000Y-87550001D01*
X164398796Y-87574505D01*
X164395196Y-87598773D01*
X164389235Y-87622572D01*
X164380970Y-87645671D01*
X164370480Y-87667850D01*
X164357868Y-87688893D01*
X164343253Y-87708599D01*
X164326777Y-87726777D01*
X164308599Y-87743253D01*
X164288893Y-87757868D01*
X164267850Y-87770480D01*
X164245671Y-87780970D01*
X164222572Y-87789235D01*
X164198773Y-87795196D01*
X164174505Y-87798796D01*
X164150001Y-87800000D01*
X163499999Y-87800000D01*
X163475495Y-87798796D01*
X163451227Y-87795196D01*
X163427428Y-87789235D01*
X163404329Y-87780970D01*
X163382150Y-87770480D01*
X163361107Y-87757868D01*
X163341401Y-87743253D01*
X163323223Y-87726777D01*
X163306747Y-87708599D01*
X163292132Y-87688893D01*
X163279520Y-87667850D01*
X163269030Y-87645671D01*
X163260765Y-87622572D01*
X163254804Y-87598773D01*
X163251204Y-87574505D01*
X163250000Y-87550001D01*
X163250000Y-86649999D01*
X163251204Y-86625495D01*
X163254804Y-86601227D01*
X163260765Y-86577428D01*
X163269030Y-86554329D01*
X163279520Y-86532150D01*
X163292132Y-86511107D01*
X163306747Y-86491401D01*
X163323223Y-86473223D01*
X163341401Y-86456747D01*
X163361107Y-86442132D01*
X163382150Y-86429520D01*
X163404329Y-86419030D01*
X163427428Y-86410765D01*
X163451227Y-86404804D01*
X163475495Y-86401204D01*
X163499999Y-86400000D01*
X164150001Y-86400000D01*
X164174505Y-86401204D01*
X164174505Y-86401204D01*
G37*
D11*
X163825000Y-87100000D03*
G04 #@! TD*
D10*
G04 #@! TO.C,R1*
G36*
X176024505Y-84901204D02*
X176048773Y-84904804D01*
X176072572Y-84910765D01*
X176095671Y-84919030D01*
X176117850Y-84929520D01*
X176138893Y-84942132D01*
X176158599Y-84956747D01*
X176176777Y-84973223D01*
X176193253Y-84991401D01*
X176207868Y-85011107D01*
X176220480Y-85032150D01*
X176230970Y-85054329D01*
X176239235Y-85077428D01*
X176245196Y-85101227D01*
X176248796Y-85125495D01*
X176250000Y-85149999D01*
X176250000Y-86050001D01*
X176248796Y-86074505D01*
X176245196Y-86098773D01*
X176239235Y-86122572D01*
X176230970Y-86145671D01*
X176220480Y-86167850D01*
X176207868Y-86188893D01*
X176193253Y-86208599D01*
X176176777Y-86226777D01*
X176158599Y-86243253D01*
X176138893Y-86257868D01*
X176117850Y-86270480D01*
X176095671Y-86280970D01*
X176072572Y-86289235D01*
X176048773Y-86295196D01*
X176024505Y-86298796D01*
X176000001Y-86300000D01*
X175349999Y-86300000D01*
X175325495Y-86298796D01*
X175301227Y-86295196D01*
X175277428Y-86289235D01*
X175254329Y-86280970D01*
X175232150Y-86270480D01*
X175211107Y-86257868D01*
X175191401Y-86243253D01*
X175173223Y-86226777D01*
X175156747Y-86208599D01*
X175142132Y-86188893D01*
X175129520Y-86167850D01*
X175119030Y-86145671D01*
X175110765Y-86122572D01*
X175104804Y-86098773D01*
X175101204Y-86074505D01*
X175100000Y-86050001D01*
X175100000Y-85149999D01*
X175101204Y-85125495D01*
X175104804Y-85101227D01*
X175110765Y-85077428D01*
X175119030Y-85054329D01*
X175129520Y-85032150D01*
X175142132Y-85011107D01*
X175156747Y-84991401D01*
X175173223Y-84973223D01*
X175191401Y-84956747D01*
X175211107Y-84942132D01*
X175232150Y-84929520D01*
X175254329Y-84919030D01*
X175277428Y-84910765D01*
X175301227Y-84904804D01*
X175325495Y-84901204D01*
X175349999Y-84900000D01*
X176000001Y-84900000D01*
X176024505Y-84901204D01*
X176024505Y-84901204D01*
G37*
D11*
X175675000Y-85600000D03*
D10*
G36*
X178074505Y-84901204D02*
X178098773Y-84904804D01*
X178122572Y-84910765D01*
X178145671Y-84919030D01*
X178167850Y-84929520D01*
X178188893Y-84942132D01*
X178208599Y-84956747D01*
X178226777Y-84973223D01*
X178243253Y-84991401D01*
X178257868Y-85011107D01*
X178270480Y-85032150D01*
X178280970Y-85054329D01*
X178289235Y-85077428D01*
X178295196Y-85101227D01*
X178298796Y-85125495D01*
X178300000Y-85149999D01*
X178300000Y-86050001D01*
X178298796Y-86074505D01*
X178295196Y-86098773D01*
X178289235Y-86122572D01*
X178280970Y-86145671D01*
X178270480Y-86167850D01*
X178257868Y-86188893D01*
X178243253Y-86208599D01*
X178226777Y-86226777D01*
X178208599Y-86243253D01*
X178188893Y-86257868D01*
X178167850Y-86270480D01*
X178145671Y-86280970D01*
X178122572Y-86289235D01*
X178098773Y-86295196D01*
X178074505Y-86298796D01*
X178050001Y-86300000D01*
X177399999Y-86300000D01*
X177375495Y-86298796D01*
X177351227Y-86295196D01*
X177327428Y-86289235D01*
X177304329Y-86280970D01*
X177282150Y-86270480D01*
X177261107Y-86257868D01*
X177241401Y-86243253D01*
X177223223Y-86226777D01*
X177206747Y-86208599D01*
X177192132Y-86188893D01*
X177179520Y-86167850D01*
X177169030Y-86145671D01*
X177160765Y-86122572D01*
X177154804Y-86098773D01*
X177151204Y-86074505D01*
X177150000Y-86050001D01*
X177150000Y-85149999D01*
X177151204Y-85125495D01*
X177154804Y-85101227D01*
X177160765Y-85077428D01*
X177169030Y-85054329D01*
X177179520Y-85032150D01*
X177192132Y-85011107D01*
X177206747Y-84991401D01*
X177223223Y-84973223D01*
X177241401Y-84956747D01*
X177261107Y-84942132D01*
X177282150Y-84929520D01*
X177304329Y-84919030D01*
X177327428Y-84910765D01*
X177351227Y-84904804D01*
X177375495Y-84901204D01*
X177399999Y-84900000D01*
X178050001Y-84900000D01*
X178074505Y-84901204D01*
X178074505Y-84901204D01*
G37*
D11*
X177725000Y-85600000D03*
G04 #@! TD*
D10*
G04 #@! TO.C,R2*
G36*
X178224505Y-98801204D02*
X178248773Y-98804804D01*
X178272572Y-98810765D01*
X178295671Y-98819030D01*
X178317850Y-98829520D01*
X178338893Y-98842132D01*
X178358599Y-98856747D01*
X178376777Y-98873223D01*
X178393253Y-98891401D01*
X178407868Y-98911107D01*
X178420480Y-98932150D01*
X178430970Y-98954329D01*
X178439235Y-98977428D01*
X178445196Y-99001227D01*
X178448796Y-99025495D01*
X178450000Y-99049999D01*
X178450000Y-99950001D01*
X178448796Y-99974505D01*
X178445196Y-99998773D01*
X178439235Y-100022572D01*
X178430970Y-100045671D01*
X178420480Y-100067850D01*
X178407868Y-100088893D01*
X178393253Y-100108599D01*
X178376777Y-100126777D01*
X178358599Y-100143253D01*
X178338893Y-100157868D01*
X178317850Y-100170480D01*
X178295671Y-100180970D01*
X178272572Y-100189235D01*
X178248773Y-100195196D01*
X178224505Y-100198796D01*
X178200001Y-100200000D01*
X177549999Y-100200000D01*
X177525495Y-100198796D01*
X177501227Y-100195196D01*
X177477428Y-100189235D01*
X177454329Y-100180970D01*
X177432150Y-100170480D01*
X177411107Y-100157868D01*
X177391401Y-100143253D01*
X177373223Y-100126777D01*
X177356747Y-100108599D01*
X177342132Y-100088893D01*
X177329520Y-100067850D01*
X177319030Y-100045671D01*
X177310765Y-100022572D01*
X177304804Y-99998773D01*
X177301204Y-99974505D01*
X177300000Y-99950001D01*
X177300000Y-99049999D01*
X177301204Y-99025495D01*
X177304804Y-99001227D01*
X177310765Y-98977428D01*
X177319030Y-98954329D01*
X177329520Y-98932150D01*
X177342132Y-98911107D01*
X177356747Y-98891401D01*
X177373223Y-98873223D01*
X177391401Y-98856747D01*
X177411107Y-98842132D01*
X177432150Y-98829520D01*
X177454329Y-98819030D01*
X177477428Y-98810765D01*
X177501227Y-98804804D01*
X177525495Y-98801204D01*
X177549999Y-98800000D01*
X178200001Y-98800000D01*
X178224505Y-98801204D01*
X178224505Y-98801204D01*
G37*
D11*
X177875000Y-99500000D03*
D10*
G36*
X176174505Y-98801204D02*
X176198773Y-98804804D01*
X176222572Y-98810765D01*
X176245671Y-98819030D01*
X176267850Y-98829520D01*
X176288893Y-98842132D01*
X176308599Y-98856747D01*
X176326777Y-98873223D01*
X176343253Y-98891401D01*
X176357868Y-98911107D01*
X176370480Y-98932150D01*
X176380970Y-98954329D01*
X176389235Y-98977428D01*
X176395196Y-99001227D01*
X176398796Y-99025495D01*
X176400000Y-99049999D01*
X176400000Y-99950001D01*
X176398796Y-99974505D01*
X176395196Y-99998773D01*
X176389235Y-100022572D01*
X176380970Y-100045671D01*
X176370480Y-100067850D01*
X176357868Y-100088893D01*
X176343253Y-100108599D01*
X176326777Y-100126777D01*
X176308599Y-100143253D01*
X176288893Y-100157868D01*
X176267850Y-100170480D01*
X176245671Y-100180970D01*
X176222572Y-100189235D01*
X176198773Y-100195196D01*
X176174505Y-100198796D01*
X176150001Y-100200000D01*
X175499999Y-100200000D01*
X175475495Y-100198796D01*
X175451227Y-100195196D01*
X175427428Y-100189235D01*
X175404329Y-100180970D01*
X175382150Y-100170480D01*
X175361107Y-100157868D01*
X175341401Y-100143253D01*
X175323223Y-100126777D01*
X175306747Y-100108599D01*
X175292132Y-100088893D01*
X175279520Y-100067850D01*
X175269030Y-100045671D01*
X175260765Y-100022572D01*
X175254804Y-99998773D01*
X175251204Y-99974505D01*
X175250000Y-99950001D01*
X175250000Y-99049999D01*
X175251204Y-99025495D01*
X175254804Y-99001227D01*
X175260765Y-98977428D01*
X175269030Y-98954329D01*
X175279520Y-98932150D01*
X175292132Y-98911107D01*
X175306747Y-98891401D01*
X175323223Y-98873223D01*
X175341401Y-98856747D01*
X175361107Y-98842132D01*
X175382150Y-98829520D01*
X175404329Y-98819030D01*
X175427428Y-98810765D01*
X175451227Y-98804804D01*
X175475495Y-98801204D01*
X175499999Y-98800000D01*
X176150001Y-98800000D01*
X176174505Y-98801204D01*
X176174505Y-98801204D01*
G37*
D11*
X175825000Y-99500000D03*
G04 #@! TD*
D10*
G04 #@! TO.C,R3*
G36*
X178124505Y-94001204D02*
X178148773Y-94004804D01*
X178172572Y-94010765D01*
X178195671Y-94019030D01*
X178217850Y-94029520D01*
X178238893Y-94042132D01*
X178258599Y-94056747D01*
X178276777Y-94073223D01*
X178293253Y-94091401D01*
X178307868Y-94111107D01*
X178320480Y-94132150D01*
X178330970Y-94154329D01*
X178339235Y-94177428D01*
X178345196Y-94201227D01*
X178348796Y-94225495D01*
X178350000Y-94249999D01*
X178350000Y-95150001D01*
X178348796Y-95174505D01*
X178345196Y-95198773D01*
X178339235Y-95222572D01*
X178330970Y-95245671D01*
X178320480Y-95267850D01*
X178307868Y-95288893D01*
X178293253Y-95308599D01*
X178276777Y-95326777D01*
X178258599Y-95343253D01*
X178238893Y-95357868D01*
X178217850Y-95370480D01*
X178195671Y-95380970D01*
X178172572Y-95389235D01*
X178148773Y-95395196D01*
X178124505Y-95398796D01*
X178100001Y-95400000D01*
X177449999Y-95400000D01*
X177425495Y-95398796D01*
X177401227Y-95395196D01*
X177377428Y-95389235D01*
X177354329Y-95380970D01*
X177332150Y-95370480D01*
X177311107Y-95357868D01*
X177291401Y-95343253D01*
X177273223Y-95326777D01*
X177256747Y-95308599D01*
X177242132Y-95288893D01*
X177229520Y-95267850D01*
X177219030Y-95245671D01*
X177210765Y-95222572D01*
X177204804Y-95198773D01*
X177201204Y-95174505D01*
X177200000Y-95150001D01*
X177200000Y-94249999D01*
X177201204Y-94225495D01*
X177204804Y-94201227D01*
X177210765Y-94177428D01*
X177219030Y-94154329D01*
X177229520Y-94132150D01*
X177242132Y-94111107D01*
X177256747Y-94091401D01*
X177273223Y-94073223D01*
X177291401Y-94056747D01*
X177311107Y-94042132D01*
X177332150Y-94029520D01*
X177354329Y-94019030D01*
X177377428Y-94010765D01*
X177401227Y-94004804D01*
X177425495Y-94001204D01*
X177449999Y-94000000D01*
X178100001Y-94000000D01*
X178124505Y-94001204D01*
X178124505Y-94001204D01*
G37*
D11*
X177775000Y-94700000D03*
D10*
G36*
X176074505Y-94001204D02*
X176098773Y-94004804D01*
X176122572Y-94010765D01*
X176145671Y-94019030D01*
X176167850Y-94029520D01*
X176188893Y-94042132D01*
X176208599Y-94056747D01*
X176226777Y-94073223D01*
X176243253Y-94091401D01*
X176257868Y-94111107D01*
X176270480Y-94132150D01*
X176280970Y-94154329D01*
X176289235Y-94177428D01*
X176295196Y-94201227D01*
X176298796Y-94225495D01*
X176300000Y-94249999D01*
X176300000Y-95150001D01*
X176298796Y-95174505D01*
X176295196Y-95198773D01*
X176289235Y-95222572D01*
X176280970Y-95245671D01*
X176270480Y-95267850D01*
X176257868Y-95288893D01*
X176243253Y-95308599D01*
X176226777Y-95326777D01*
X176208599Y-95343253D01*
X176188893Y-95357868D01*
X176167850Y-95370480D01*
X176145671Y-95380970D01*
X176122572Y-95389235D01*
X176098773Y-95395196D01*
X176074505Y-95398796D01*
X176050001Y-95400000D01*
X175399999Y-95400000D01*
X175375495Y-95398796D01*
X175351227Y-95395196D01*
X175327428Y-95389235D01*
X175304329Y-95380970D01*
X175282150Y-95370480D01*
X175261107Y-95357868D01*
X175241401Y-95343253D01*
X175223223Y-95326777D01*
X175206747Y-95308599D01*
X175192132Y-95288893D01*
X175179520Y-95267850D01*
X175169030Y-95245671D01*
X175160765Y-95222572D01*
X175154804Y-95198773D01*
X175151204Y-95174505D01*
X175150000Y-95150001D01*
X175150000Y-94249999D01*
X175151204Y-94225495D01*
X175154804Y-94201227D01*
X175160765Y-94177428D01*
X175169030Y-94154329D01*
X175179520Y-94132150D01*
X175192132Y-94111107D01*
X175206747Y-94091401D01*
X175223223Y-94073223D01*
X175241401Y-94056747D01*
X175261107Y-94042132D01*
X175282150Y-94029520D01*
X175304329Y-94019030D01*
X175327428Y-94010765D01*
X175351227Y-94004804D01*
X175375495Y-94001204D01*
X175399999Y-94000000D01*
X176050001Y-94000000D01*
X176074505Y-94001204D01*
X176074505Y-94001204D01*
G37*
D11*
X175725000Y-94700000D03*
G04 #@! TD*
D10*
G04 #@! TO.C,R4*
G36*
X178074505Y-89451204D02*
X178098773Y-89454804D01*
X178122572Y-89460765D01*
X178145671Y-89469030D01*
X178167850Y-89479520D01*
X178188893Y-89492132D01*
X178208599Y-89506747D01*
X178226777Y-89523223D01*
X178243253Y-89541401D01*
X178257868Y-89561107D01*
X178270480Y-89582150D01*
X178280970Y-89604329D01*
X178289235Y-89627428D01*
X178295196Y-89651227D01*
X178298796Y-89675495D01*
X178300000Y-89699999D01*
X178300000Y-90600001D01*
X178298796Y-90624505D01*
X178295196Y-90648773D01*
X178289235Y-90672572D01*
X178280970Y-90695671D01*
X178270480Y-90717850D01*
X178257868Y-90738893D01*
X178243253Y-90758599D01*
X178226777Y-90776777D01*
X178208599Y-90793253D01*
X178188893Y-90807868D01*
X178167850Y-90820480D01*
X178145671Y-90830970D01*
X178122572Y-90839235D01*
X178098773Y-90845196D01*
X178074505Y-90848796D01*
X178050001Y-90850000D01*
X177399999Y-90850000D01*
X177375495Y-90848796D01*
X177351227Y-90845196D01*
X177327428Y-90839235D01*
X177304329Y-90830970D01*
X177282150Y-90820480D01*
X177261107Y-90807868D01*
X177241401Y-90793253D01*
X177223223Y-90776777D01*
X177206747Y-90758599D01*
X177192132Y-90738893D01*
X177179520Y-90717850D01*
X177169030Y-90695671D01*
X177160765Y-90672572D01*
X177154804Y-90648773D01*
X177151204Y-90624505D01*
X177150000Y-90600001D01*
X177150000Y-89699999D01*
X177151204Y-89675495D01*
X177154804Y-89651227D01*
X177160765Y-89627428D01*
X177169030Y-89604329D01*
X177179520Y-89582150D01*
X177192132Y-89561107D01*
X177206747Y-89541401D01*
X177223223Y-89523223D01*
X177241401Y-89506747D01*
X177261107Y-89492132D01*
X177282150Y-89479520D01*
X177304329Y-89469030D01*
X177327428Y-89460765D01*
X177351227Y-89454804D01*
X177375495Y-89451204D01*
X177399999Y-89450000D01*
X178050001Y-89450000D01*
X178074505Y-89451204D01*
X178074505Y-89451204D01*
G37*
D11*
X177725000Y-90150000D03*
D10*
G36*
X176024505Y-89451204D02*
X176048773Y-89454804D01*
X176072572Y-89460765D01*
X176095671Y-89469030D01*
X176117850Y-89479520D01*
X176138893Y-89492132D01*
X176158599Y-89506747D01*
X176176777Y-89523223D01*
X176193253Y-89541401D01*
X176207868Y-89561107D01*
X176220480Y-89582150D01*
X176230970Y-89604329D01*
X176239235Y-89627428D01*
X176245196Y-89651227D01*
X176248796Y-89675495D01*
X176250000Y-89699999D01*
X176250000Y-90600001D01*
X176248796Y-90624505D01*
X176245196Y-90648773D01*
X176239235Y-90672572D01*
X176230970Y-90695671D01*
X176220480Y-90717850D01*
X176207868Y-90738893D01*
X176193253Y-90758599D01*
X176176777Y-90776777D01*
X176158599Y-90793253D01*
X176138893Y-90807868D01*
X176117850Y-90820480D01*
X176095671Y-90830970D01*
X176072572Y-90839235D01*
X176048773Y-90845196D01*
X176024505Y-90848796D01*
X176000001Y-90850000D01*
X175349999Y-90850000D01*
X175325495Y-90848796D01*
X175301227Y-90845196D01*
X175277428Y-90839235D01*
X175254329Y-90830970D01*
X175232150Y-90820480D01*
X175211107Y-90807868D01*
X175191401Y-90793253D01*
X175173223Y-90776777D01*
X175156747Y-90758599D01*
X175142132Y-90738893D01*
X175129520Y-90717850D01*
X175119030Y-90695671D01*
X175110765Y-90672572D01*
X175104804Y-90648773D01*
X175101204Y-90624505D01*
X175100000Y-90600001D01*
X175100000Y-89699999D01*
X175101204Y-89675495D01*
X175104804Y-89651227D01*
X175110765Y-89627428D01*
X175119030Y-89604329D01*
X175129520Y-89582150D01*
X175142132Y-89561107D01*
X175156747Y-89541401D01*
X175173223Y-89523223D01*
X175191401Y-89506747D01*
X175211107Y-89492132D01*
X175232150Y-89479520D01*
X175254329Y-89469030D01*
X175277428Y-89460765D01*
X175301227Y-89454804D01*
X175325495Y-89451204D01*
X175349999Y-89450000D01*
X176000001Y-89450000D01*
X176024505Y-89451204D01*
X176024505Y-89451204D01*
G37*
D11*
X175675000Y-90150000D03*
G04 #@! TD*
D10*
G04 #@! TO.C,R5*
G36*
X169724505Y-81251204D02*
X169748773Y-81254804D01*
X169772572Y-81260765D01*
X169795671Y-81269030D01*
X169817850Y-81279520D01*
X169838893Y-81292132D01*
X169858599Y-81306747D01*
X169876777Y-81323223D01*
X169893253Y-81341401D01*
X169907868Y-81361107D01*
X169920480Y-81382150D01*
X169930970Y-81404329D01*
X169939235Y-81427428D01*
X169945196Y-81451227D01*
X169948796Y-81475495D01*
X169950000Y-81499999D01*
X169950000Y-82150001D01*
X169948796Y-82174505D01*
X169945196Y-82198773D01*
X169939235Y-82222572D01*
X169930970Y-82245671D01*
X169920480Y-82267850D01*
X169907868Y-82288893D01*
X169893253Y-82308599D01*
X169876777Y-82326777D01*
X169858599Y-82343253D01*
X169838893Y-82357868D01*
X169817850Y-82370480D01*
X169795671Y-82380970D01*
X169772572Y-82389235D01*
X169748773Y-82395196D01*
X169724505Y-82398796D01*
X169700001Y-82400000D01*
X168799999Y-82400000D01*
X168775495Y-82398796D01*
X168751227Y-82395196D01*
X168727428Y-82389235D01*
X168704329Y-82380970D01*
X168682150Y-82370480D01*
X168661107Y-82357868D01*
X168641401Y-82343253D01*
X168623223Y-82326777D01*
X168606747Y-82308599D01*
X168592132Y-82288893D01*
X168579520Y-82267850D01*
X168569030Y-82245671D01*
X168560765Y-82222572D01*
X168554804Y-82198773D01*
X168551204Y-82174505D01*
X168550000Y-82150001D01*
X168550000Y-81499999D01*
X168551204Y-81475495D01*
X168554804Y-81451227D01*
X168560765Y-81427428D01*
X168569030Y-81404329D01*
X168579520Y-81382150D01*
X168592132Y-81361107D01*
X168606747Y-81341401D01*
X168623223Y-81323223D01*
X168641401Y-81306747D01*
X168661107Y-81292132D01*
X168682150Y-81279520D01*
X168704329Y-81269030D01*
X168727428Y-81260765D01*
X168751227Y-81254804D01*
X168775495Y-81251204D01*
X168799999Y-81250000D01*
X169700001Y-81250000D01*
X169724505Y-81251204D01*
X169724505Y-81251204D01*
G37*
D11*
X169250000Y-81825000D03*
D10*
G36*
X169724505Y-83301204D02*
X169748773Y-83304804D01*
X169772572Y-83310765D01*
X169795671Y-83319030D01*
X169817850Y-83329520D01*
X169838893Y-83342132D01*
X169858599Y-83356747D01*
X169876777Y-83373223D01*
X169893253Y-83391401D01*
X169907868Y-83411107D01*
X169920480Y-83432150D01*
X169930970Y-83454329D01*
X169939235Y-83477428D01*
X169945196Y-83501227D01*
X169948796Y-83525495D01*
X169950000Y-83549999D01*
X169950000Y-84200001D01*
X169948796Y-84224505D01*
X169945196Y-84248773D01*
X169939235Y-84272572D01*
X169930970Y-84295671D01*
X169920480Y-84317850D01*
X169907868Y-84338893D01*
X169893253Y-84358599D01*
X169876777Y-84376777D01*
X169858599Y-84393253D01*
X169838893Y-84407868D01*
X169817850Y-84420480D01*
X169795671Y-84430970D01*
X169772572Y-84439235D01*
X169748773Y-84445196D01*
X169724505Y-84448796D01*
X169700001Y-84450000D01*
X168799999Y-84450000D01*
X168775495Y-84448796D01*
X168751227Y-84445196D01*
X168727428Y-84439235D01*
X168704329Y-84430970D01*
X168682150Y-84420480D01*
X168661107Y-84407868D01*
X168641401Y-84393253D01*
X168623223Y-84376777D01*
X168606747Y-84358599D01*
X168592132Y-84338893D01*
X168579520Y-84317850D01*
X168569030Y-84295671D01*
X168560765Y-84272572D01*
X168554804Y-84248773D01*
X168551204Y-84224505D01*
X168550000Y-84200001D01*
X168550000Y-83549999D01*
X168551204Y-83525495D01*
X168554804Y-83501227D01*
X168560765Y-83477428D01*
X168569030Y-83454329D01*
X168579520Y-83432150D01*
X168592132Y-83411107D01*
X168606747Y-83391401D01*
X168623223Y-83373223D01*
X168641401Y-83356747D01*
X168661107Y-83342132D01*
X168682150Y-83329520D01*
X168704329Y-83319030D01*
X168727428Y-83310765D01*
X168751227Y-83304804D01*
X168775495Y-83301204D01*
X168799999Y-83300000D01*
X169700001Y-83300000D01*
X169724505Y-83301204D01*
X169724505Y-83301204D01*
G37*
D11*
X169250000Y-83875000D03*
G04 #@! TD*
D12*
G04 #@! TO.C,RV1*
X173150000Y-99550000D03*
D13*
X168050000Y-98400000D03*
D12*
X173150000Y-97250000D03*
G04 #@! TD*
G04 #@! TO.C,RV2*
X166800000Y-90050000D03*
D13*
X161700000Y-91200000D03*
D12*
X166800000Y-92350000D03*
G04 #@! TD*
D14*
G04 #@! TO.C,U1*
X169275000Y-93800000D03*
X169925000Y-93800000D03*
X170575000Y-93800000D03*
X171225000Y-93800000D03*
X171225000Y-87900000D03*
X170575000Y-87900000D03*
X169925000Y-87900000D03*
X169275000Y-87900000D03*
G04 #@! TD*
M02*
