M48
;DRILL file {KiCad (5.0.0)} date 08/13/19 22:32:58
;FORMAT={3:3/ absolute / metric / suppress leading zeros}
FMAT,2
METRIC,TZ
T1C0.400
T2C0.800
T3C1.000
T4C3.200
%
G90
G05
M71
T1
X180775Y-75965
X180775Y-76915
X181825Y-75965
X181825Y-76915
T2
X140205Y-112225
X142745Y-112225
X144265Y-63965
X145285Y-112225
X146805Y-63965
X147825Y-112225
X149345Y-63965
X150365Y-112225
X151885Y-63965
X152905Y-112225
X154425Y-63965
X155445Y-112225
X156965Y-63965
X157985Y-112225
X159505Y-63965
X162045Y-63965
X162045Y-112225
X164585Y-112225
X167125Y-63965
X167125Y-112225
X169665Y-63965
X169665Y-112225
X172205Y-63965
X172205Y-112225
X174745Y-63965
X174745Y-112225
X177285Y-63965
X177285Y-112225
X179825Y-63965
X179825Y-112225
T3
X121700Y-81660
X121700Y-84200
X121700Y-86740
X121700Y-89280
X181500Y-81500
X181500Y-84040
X181500Y-86580
X181500Y-89120
T4
X130295Y-63965
X131565Y-112225
X182365Y-69045
X182365Y-96985
T0
M30
